ISO-10303-21;
HEADER;
/* Generated by software containing ST-Developer
 * from STEP Tools, Inc. (www.steptools.com) 
 */
/* OPTION: using custom renumber hook */

FILE_DESCRIPTION(
/* description */ ('STEP AP242 Edition 2',
'CAx-IF Rec.Pracs.---Representation and Presentation of Product Manufa
cturing Information (PMI)---4.0---2014-10-13',
'CAx-IF Rec.Pracs.---3D Tessellated Geometry---0.4---2014-09-14','2;1',
'CAx-IF Rec.Pracs.---User Defined Attributes---1.5---2016-08-15'),
/* implementation_level */ '2;1');

FILE_NAME(
/* name */ 'Assembly 9 - Part 5',
/* time_stamp */ '2026-05-31T16:39:11Z',
/* author */ (''),
/* organization */ (''),
/* preprocessor_version */ 'ST-DEVELOPER v20',
/* originating_system */ 'ONSHAPE BY PTC INC, 1.215',
/* authorisation */ '  ');

FILE_SCHEMA (('AP242_MANAGED_MODEL_BASED_3D_ENGINEERING_MIM_LF { 1 0 10303 442 3 1 4 }'));
ENDSEC;

DATA;
#10=SHAPE_REPRESENTATION_RELATIONSHIP('','',#1318,#11);
#11=ADVANCED_BREP_SHAPE_REPRESENTATION('',(#1316),#2180);
#12=CONICAL_SURFACE('',#1368,0.0026,0.785398163397443);
#13=CONICAL_SURFACE('',#1371,0.0026,0.785398163397443);
#14=CONICAL_SURFACE('',#1377,0.002185,0.139626340159546);
#15=CONICAL_SURFACE('',#1379,0.002185,0.139626340159546);
#16=CONICAL_SURFACE('',#1381,0.002185,0.139626340159546);
#17=CONICAL_SURFACE('',#1383,0.002185,0.139626340159546);
#18=CYLINDRICAL_SURFACE('',#1366,0.00135);
#19=CYLINDRICAL_SURFACE('',#1369,0.00135);
#20=CYLINDRICAL_SURFACE('',#1387,0.0017859375);
#21=CYLINDRICAL_SURFACE('',#1390,0.0017859375);
#22=CYLINDRICAL_SURFACE('',#1393,0.0017859375);
#23=CYLINDRICAL_SURFACE('',#1396,0.0017859375);
#24=CYLINDRICAL_SURFACE('',#1397,0.003);
#25=CYLINDRICAL_SURFACE('',#1398,0.003);
#26=CYLINDRICAL_SURFACE('',#1399,0.003);
#27=CYLINDRICAL_SURFACE('',#1408,0.003);
#28=CYLINDRICAL_SURFACE('',#1411,0.00299999999999979);
#29=CYLINDRICAL_SURFACE('',#1413,0.0016);
#30=CYLINDRICAL_SURFACE('',#1420,0.003);
#31=CYLINDRICAL_SURFACE('',#1422,0.0016);
#32=CYLINDRICAL_SURFACE('',#1426,0.00300000000000014);
#33=CYLINDRICAL_SURFACE('',#1429,0.003);
#34=CYLINDRICAL_SURFACE('',#1432,0.0016);
#35=CYLINDRICAL_SURFACE('',#1438,0.00917401153701777);
#36=CYLINDRICAL_SURFACE('',#1439,0.00917401153701777);
#37=CIRCLE('',#1323,0.00300000000000014);
#38=CIRCLE('',#1325,0.003);
#39=CIRCLE('',#1326,0.003);
#40=CIRCLE('',#1327,0.003);
#41=CIRCLE('',#1329,0.00299999999999979);
#42=CIRCLE('',#1332,0.003);
#43=CIRCLE('',#1337,0.00917401153701777);
#44=CIRCLE('',#1338,0.00917401153701777);
#45=CIRCLE('',#1340,0.00917401153701777);
#46=CIRCLE('',#1341,0.00917401153701777);
#47=CIRCLE('',#1347,0.003);
#48=CIRCLE('',#1349,0.0026);
#49=CIRCLE('',#1350,0.0026);
#50=CIRCLE('',#1351,0.003);
#51=CIRCLE('',#1352,0.003);
#52=CIRCLE('',#1355,0.00135);
#53=CIRCLE('',#1356,0.00135);
#54=CIRCLE('',#1357,0.003);
#55=CIRCLE('',#1358,0.003);
#56=CIRCLE('',#1367,0.00135);
#57=CIRCLE('',#1370,0.00135);
#58=CIRCLE('',#1373,0.002185);
#59=CIRCLE('',#1374,0.002185);
#60=CIRCLE('',#1375,0.002185);
#61=CIRCLE('',#1376,0.002185);
#62=CIRCLE('',#1378,0.0017859375);
#63=CIRCLE('',#1380,0.0017859375);
#64=CIRCLE('',#1382,0.0017859375);
#65=CIRCLE('',#1384,0.0017859375);
#66=CIRCLE('',#1386,0.0017859375);
#67=CIRCLE('',#1389,0.0017859375);
#68=CIRCLE('',#1392,0.0017859375);
#69=CIRCLE('',#1395,0.0017859375);
#70=CIRCLE('',#1409,0.003);
#71=CIRCLE('',#1412,0.00299999999999979);
#72=CIRCLE('',#1414,0.0016);
#73=CIRCLE('',#1415,0.0016);
#74=CIRCLE('',#1421,0.003);
#75=CIRCLE('',#1423,0.0016);
#76=CIRCLE('',#1424,0.0016);
#77=CIRCLE('',#1427,0.00300000000000014);
#78=CIRCLE('',#1430,0.003);
#79=CIRCLE('',#1433,0.0016);
#80=CIRCLE('',#1434,0.0016);
#81=ORIENTED_EDGE('',*,*,#423,.F.);
#82=ORIENTED_EDGE('',*,*,#424,.T.);
#83=ORIENTED_EDGE('',*,*,#425,.T.);
#84=ORIENTED_EDGE('',*,*,#426,.T.);
#85=ORIENTED_EDGE('',*,*,#427,.F.);
#86=ORIENTED_EDGE('',*,*,#428,.T.);
#87=ORIENTED_EDGE('',*,*,#429,.T.);
#88=ORIENTED_EDGE('',*,*,#430,.T.);
#89=ORIENTED_EDGE('',*,*,#431,.F.);
#90=ORIENTED_EDGE('',*,*,#432,.F.);
#91=ORIENTED_EDGE('',*,*,#433,.T.);
#92=ORIENTED_EDGE('',*,*,#434,.T.);
#93=ORIENTED_EDGE('',*,*,#435,.F.);
#94=ORIENTED_EDGE('',*,*,#436,.T.);
#95=ORIENTED_EDGE('',*,*,#437,.F.);
#96=ORIENTED_EDGE('',*,*,#438,.F.);
#97=ORIENTED_EDGE('',*,*,#431,.T.);
#98=ORIENTED_EDGE('',*,*,#439,.T.);
#99=ORIENTED_EDGE('',*,*,#440,.F.);
#100=ORIENTED_EDGE('',*,*,#441,.T.);
#101=ORIENTED_EDGE('',*,*,#442,.T.);
#102=ORIENTED_EDGE('',*,*,#443,.T.);
#103=ORIENTED_EDGE('',*,*,#444,.F.);
#104=ORIENTED_EDGE('',*,*,#434,.F.);
#105=ORIENTED_EDGE('',*,*,#445,.T.);
#106=ORIENTED_EDGE('',*,*,#446,.F.);
#107=ORIENTED_EDGE('',*,*,#447,.F.);
#108=ORIENTED_EDGE('',*,*,#448,.T.);
#109=ORIENTED_EDGE('',*,*,#449,.T.);
#110=ORIENTED_EDGE('',*,*,#450,.T.);
#111=ORIENTED_EDGE('',*,*,#451,.F.);
#112=ORIENTED_EDGE('',*,*,#452,.T.);
#113=ORIENTED_EDGE('',*,*,#453,.T.);
#114=ORIENTED_EDGE('',*,*,#443,.F.);
#115=ORIENTED_EDGE('',*,*,#454,.F.);
#116=ORIENTED_EDGE('',*,*,#455,.F.);
#117=ORIENTED_EDGE('',*,*,#456,.T.);
#118=ORIENTED_EDGE('',*,*,#426,.F.);
#119=ORIENTED_EDGE('',*,*,#457,.F.);
#120=ORIENTED_EDGE('',*,*,#439,.F.);
#121=ORIENTED_EDGE('',*,*,#430,.F.);
#122=ORIENTED_EDGE('',*,*,#458,.F.);
#123=ORIENTED_EDGE('',*,*,#459,.T.);
#124=ORIENTED_EDGE('',*,*,#460,.F.);
#125=ORIENTED_EDGE('',*,*,#461,.T.);
#126=ORIENTED_EDGE('',*,*,#462,.F.);
#127=ORIENTED_EDGE('',*,*,#463,.T.);
#128=ORIENTED_EDGE('',*,*,#464,.T.);
#129=ORIENTED_EDGE('',*,*,#465,.F.);
#130=ORIENTED_EDGE('',*,*,#466,.T.);
#131=ORIENTED_EDGE('',*,*,#467,.T.);
#132=ORIENTED_EDGE('',*,*,#468,.F.);
#133=ORIENTED_EDGE('',*,*,#469,.T.);
#134=ORIENTED_EDGE('',*,*,#470,.F.);
#135=ORIENTED_EDGE('',*,*,#471,.T.);
#136=ORIENTED_EDGE('',*,*,#472,.T.);
#137=ORIENTED_EDGE('',*,*,#473,.T.);
#138=ORIENTED_EDGE('',*,*,#474,.T.);
#139=ORIENTED_EDGE('',*,*,#473,.F.);
#140=ORIENTED_EDGE('',*,*,#475,.T.);
#141=ORIENTED_EDGE('',*,*,#476,.T.);
#142=ORIENTED_EDGE('',*,*,#477,.F.);
#143=ORIENTED_EDGE('',*,*,#478,.F.);
#144=ORIENTED_EDGE('',*,*,#469,.F.);
#145=ORIENTED_EDGE('',*,*,#479,.F.);
#146=ORIENTED_EDGE('',*,*,#480,.T.);
#147=ORIENTED_EDGE('',*,*,#481,.T.);
#148=ORIENTED_EDGE('',*,*,#482,.T.);
#149=ORIENTED_EDGE('',*,*,#466,.F.);
#150=ORIENTED_EDGE('',*,*,#483,.F.);
#151=ORIENTED_EDGE('',*,*,#484,.T.);
#152=ORIENTED_EDGE('',*,*,#485,.T.);
#153=ORIENTED_EDGE('',*,*,#458,.T.);
#154=ORIENTED_EDGE('',*,*,#486,.T.);
#155=ORIENTED_EDGE('',*,*,#487,.T.);
#156=ORIENTED_EDGE('',*,*,#483,.T.);
#157=ORIENTED_EDGE('',*,*,#474,.F.);
#158=ORIENTED_EDGE('',*,*,#477,.T.);
#159=ORIENTED_EDGE('',*,*,#460,.T.);
#160=ORIENTED_EDGE('',*,*,#488,.T.);
#161=ORIENTED_EDGE('',*,*,#489,.T.);
#162=ORIENTED_EDGE('',*,*,#479,.T.);
#163=ORIENTED_EDGE('',*,*,#468,.T.);
#164=ORIENTED_EDGE('',*,*,#490,.T.);
#165=ORIENTED_EDGE('',*,*,#491,.F.);
#166=ORIENTED_EDGE('',*,*,#492,.T.);
#167=ORIENTED_EDGE('',*,*,#493,.T.);
#168=ORIENTED_EDGE('',*,*,#494,.T.);
#169=ORIENTED_EDGE('',*,*,#495,.F.);
#170=ORIENTED_EDGE('',*,*,#496,.F.);
#171=ORIENTED_EDGE('',*,*,#495,.T.);
#172=ORIENTED_EDGE('',*,*,#497,.T.);
#173=ORIENTED_EDGE('',*,*,#498,.F.);
#174=ORIENTED_EDGE('',*,*,#499,.F.);
#175=ORIENTED_EDGE('',*,*,#500,.F.);
#176=ORIENTED_EDGE('',*,*,#501,.F.);
#177=ORIENTED_EDGE('',*,*,#502,.T.);
#178=ORIENTED_EDGE('',*,*,#498,.T.);
#179=ORIENTED_EDGE('',*,*,#503,.F.);
#180=ORIENTED_EDGE('',*,*,#493,.F.);
#181=ORIENTED_EDGE('',*,*,#504,.T.);
#182=ORIENTED_EDGE('',*,*,#501,.T.);
#183=ORIENTED_EDGE('',*,*,#487,.F.);
#184=ORIENTED_EDGE('',*,*,#505,.T.);
#185=ORIENTED_EDGE('',*,*,#491,.T.);
#186=ORIENTED_EDGE('',*,*,#506,.T.);
#187=ORIENTED_EDGE('',*,*,#481,.F.);
#188=ORIENTED_EDGE('',*,*,#496,.T.);
#189=ORIENTED_EDGE('',*,*,#499,.T.);
#190=ORIENTED_EDGE('',*,*,#502,.F.);
#191=ORIENTED_EDGE('',*,*,#504,.F.);
#192=ORIENTED_EDGE('',*,*,#507,.T.);
#193=ORIENTED_EDGE('',*,*,#508,.T.);
#194=ORIENTED_EDGE('',*,*,#489,.F.);
#195=ORIENTED_EDGE('',*,*,#509,.T.);
#196=ORIENTED_EDGE('',*,*,#484,.F.);
#197=ORIENTED_EDGE('',*,*,#476,.F.);
#198=ORIENTED_EDGE('',*,*,#510,.F.);
#199=ORIENTED_EDGE('',*,*,#511,.T.);
#200=ORIENTED_EDGE('',*,*,#512,.F.);
#201=ORIENTED_EDGE('',*,*,#513,.T.);
#202=ORIENTED_EDGE('',*,*,#514,.T.);
#203=ORIENTED_EDGE('',*,*,#480,.F.);
#204=ORIENTED_EDGE('',*,*,#515,.F.);
#205=ORIENTED_EDGE('',*,*,#516,.F.);
#206=ORIENTED_EDGE('',*,*,#517,.T.);
#207=ORIENTED_EDGE('',*,*,#518,.T.);
#208=ORIENTED_EDGE('',*,*,#519,.F.);
#209=ORIENTED_EDGE('',*,*,#520,.F.);
#210=ORIENTED_EDGE('',*,*,#521,.F.);
#211=ORIENTED_EDGE('',*,*,#522,.T.);
#212=ORIENTED_EDGE('',*,*,#523,.T.);
#213=ORIENTED_EDGE('',*,*,#524,.T.);
#214=ORIENTED_EDGE('',*,*,#525,.T.);
#215=ORIENTED_EDGE('',*,*,#526,.T.);
#216=ORIENTED_EDGE('',*,*,#516,.T.);
#217=ORIENTED_EDGE('',*,*,#527,.T.);
#218=ORIENTED_EDGE('',*,*,#528,.F.);
#219=ORIENTED_EDGE('',*,*,#529,.T.);
#220=ORIENTED_EDGE('',*,*,#530,.T.);
#221=ORIENTED_EDGE('',*,*,#531,.F.);
#222=ORIENTED_EDGE('',*,*,#532,.F.);
#223=ORIENTED_EDGE('',*,*,#528,.T.);
#224=ORIENTED_EDGE('',*,*,#525,.F.);
#225=ORIENTED_EDGE('',*,*,#533,.T.);
#226=ORIENTED_EDGE('',*,*,#510,.T.);
#227=ORIENTED_EDGE('',*,*,#475,.F.);
#228=ORIENTED_EDGE('',*,*,#472,.F.);
#229=ORIENTED_EDGE('',*,*,#534,.T.);
#230=ORIENTED_EDGE('',*,*,#514,.F.);
#231=ORIENTED_EDGE('',*,*,#535,.T.);
#232=ORIENTED_EDGE('',*,*,#521,.T.);
#233=ORIENTED_EDGE('',*,*,#536,.F.);
#234=ORIENTED_EDGE('',*,*,#470,.T.);
#235=ORIENTED_EDGE('',*,*,#478,.T.);
#236=ORIENTED_EDGE('',*,*,#537,.F.);
#237=ORIENTED_EDGE('',*,*,#518,.F.);
#238=ORIENTED_EDGE('',*,*,#538,.T.);
#239=ORIENTED_EDGE('',*,*,#531,.T.);
#240=ORIENTED_EDGE('',*,*,#526,.F.);
#241=ORIENTED_EDGE('',*,*,#534,.F.);
#242=ORIENTED_EDGE('',*,*,#471,.F.);
#243=ORIENTED_EDGE('',*,*,#536,.T.);
#244=ORIENTED_EDGE('',*,*,#529,.F.);
#245=ORIENTED_EDGE('',*,*,#532,.T.);
#246=ORIENTED_EDGE('',*,*,#538,.F.);
#247=ORIENTED_EDGE('',*,*,#517,.F.);
#248=ORIENTED_EDGE('',*,*,#515,.T.);
#249=ORIENTED_EDGE('',*,*,#537,.T.);
#250=ORIENTED_EDGE('',*,*,#530,.F.);
#251=ORIENTED_EDGE('',*,*,#527,.F.);
#252=ORIENTED_EDGE('',*,*,#523,.F.);
#253=ORIENTED_EDGE('',*,*,#539,.T.);
#254=ORIENTED_EDGE('',*,*,#512,.T.);
#255=ORIENTED_EDGE('',*,*,#540,.T.);
#256=ORIENTED_EDGE('',*,*,#520,.T.);
#257=ORIENTED_EDGE('',*,*,#541,.F.);
#258=ORIENTED_EDGE('',*,*,#541,.T.);
#259=ORIENTED_EDGE('',*,*,#508,.F.);
#260=ORIENTED_EDGE('',*,*,#519,.T.);
#261=ORIENTED_EDGE('',*,*,#542,.F.);
#262=ORIENTED_EDGE('',*,*,#542,.T.);
#263=ORIENTED_EDGE('',*,*,#507,.F.);
#264=ORIENTED_EDGE('',*,*,#543,.F.);
#265=ORIENTED_EDGE('',*,*,#544,.F.);
#266=ORIENTED_EDGE('',*,*,#545,.F.);
#267=ORIENTED_EDGE('',*,*,#546,.F.);
#268=ORIENTED_EDGE('',*,*,#494,.F.);
#269=ORIENTED_EDGE('',*,*,#503,.T.);
#270=ORIENTED_EDGE('',*,*,#500,.T.);
#271=ORIENTED_EDGE('',*,*,#497,.F.);
#272=ORIENTED_EDGE('',*,*,#543,.T.);
#273=ORIENTED_EDGE('',*,*,#547,.F.);
#274=ORIENTED_EDGE('',*,*,#544,.T.);
#275=ORIENTED_EDGE('',*,*,#548,.F.);
#276=ORIENTED_EDGE('',*,*,#545,.T.);
#277=ORIENTED_EDGE('',*,*,#549,.F.);
#278=ORIENTED_EDGE('',*,*,#546,.T.);
#279=ORIENTED_EDGE('',*,*,#550,.F.);
#280=ORIENTED_EDGE('',*,*,#551,.T.);
#281=ORIENTED_EDGE('',*,*,#547,.T.);
#282=ORIENTED_EDGE('',*,*,#551,.F.);
#283=ORIENTED_EDGE('',*,*,#552,.T.);
#284=ORIENTED_EDGE('',*,*,#548,.T.);
#285=ORIENTED_EDGE('',*,*,#552,.F.);
#286=ORIENTED_EDGE('',*,*,#553,.T.);
#287=ORIENTED_EDGE('',*,*,#549,.T.);
#288=ORIENTED_EDGE('',*,*,#553,.F.);
#289=ORIENTED_EDGE('',*,*,#554,.T.);
#290=ORIENTED_EDGE('',*,*,#550,.T.);
#291=ORIENTED_EDGE('',*,*,#554,.F.);
#292=ORIENTED_EDGE('',*,*,#522,.F.);
#293=ORIENTED_EDGE('',*,*,#535,.F.);
#294=ORIENTED_EDGE('',*,*,#513,.F.);
#295=ORIENTED_EDGE('',*,*,#539,.F.);
#296=ORIENTED_EDGE('',*,*,#511,.F.);
#297=ORIENTED_EDGE('',*,*,#533,.F.);
#298=ORIENTED_EDGE('',*,*,#524,.F.);
#299=ORIENTED_EDGE('',*,*,#540,.F.);
#300=ORIENTED_EDGE('',*,*,#506,.F.);
#301=ORIENTED_EDGE('',*,*,#490,.F.);
#302=ORIENTED_EDGE('',*,*,#467,.F.);
#303=ORIENTED_EDGE('',*,*,#482,.F.);
#304=ORIENTED_EDGE('',*,*,#463,.F.);
#305=ORIENTED_EDGE('',*,*,#555,.F.);
#306=ORIENTED_EDGE('',*,*,#556,.T.);
#307=ORIENTED_EDGE('',*,*,#557,.T.);
#308=ORIENTED_EDGE('',*,*,#462,.T.);
#309=ORIENTED_EDGE('',*,*,#558,.F.);
#310=ORIENTED_EDGE('',*,*,#559,.F.);
#311=ORIENTED_EDGE('',*,*,#555,.T.);
#312=ORIENTED_EDGE('',*,*,#465,.T.);
#313=ORIENTED_EDGE('',*,*,#560,.F.);
#314=ORIENTED_EDGE('',*,*,#561,.F.);
#315=ORIENTED_EDGE('',*,*,#558,.T.);
#316=ORIENTED_EDGE('',*,*,#562,.F.);
#317=ORIENTED_EDGE('',*,*,#563,.T.);
#318=ORIENTED_EDGE('',*,*,#450,.F.);
#319=ORIENTED_EDGE('',*,*,#564,.F.);
#320=ORIENTED_EDGE('',*,*,#565,.T.);
#321=ORIENTED_EDGE('',*,*,#437,.T.);
#322=ORIENTED_EDGE('',*,*,#566,.F.);
#323=ORIENTED_EDGE('',*,*,#567,.F.);
#324=ORIENTED_EDGE('',*,*,#568,.T.);
#325=ORIENTED_EDGE('',*,*,#445,.F.);
#326=ORIENTED_EDGE('',*,*,#433,.F.);
#327=ORIENTED_EDGE('',*,*,#569,.T.);
#328=ORIENTED_EDGE('',*,*,#564,.T.);
#329=ORIENTED_EDGE('',*,*,#449,.F.);
#330=ORIENTED_EDGE('',*,*,#464,.F.);
#331=ORIENTED_EDGE('',*,*,#557,.F.);
#332=ORIENTED_EDGE('',*,*,#570,.T.);
#333=ORIENTED_EDGE('',*,*,#560,.T.);
#334=ORIENTED_EDGE('',*,*,#565,.F.);
#335=ORIENTED_EDGE('',*,*,#569,.F.);
#336=ORIENTED_EDGE('',*,*,#432,.T.);
#337=ORIENTED_EDGE('',*,*,#438,.T.);
#338=ORIENTED_EDGE('',*,*,#556,.F.);
#339=ORIENTED_EDGE('',*,*,#559,.T.);
#340=ORIENTED_EDGE('',*,*,#561,.T.);
#341=ORIENTED_EDGE('',*,*,#570,.F.);
#342=ORIENTED_EDGE('',*,*,#456,.F.);
#343=ORIENTED_EDGE('',*,*,#571,.F.);
#344=ORIENTED_EDGE('',*,*,#572,.T.);
#345=ORIENTED_EDGE('',*,*,#427,.T.);
#346=ORIENTED_EDGE('',*,*,#455,.T.);
#347=ORIENTED_EDGE('',*,*,#573,.F.);
#348=ORIENTED_EDGE('',*,*,#574,.F.);
#349=ORIENTED_EDGE('',*,*,#571,.T.);
#350=ORIENTED_EDGE('',*,*,#454,.T.);
#351=ORIENTED_EDGE('',*,*,#442,.F.);
#352=ORIENTED_EDGE('',*,*,#575,.F.);
#353=ORIENTED_EDGE('',*,*,#573,.T.);
#354=ORIENTED_EDGE('',*,*,#457,.T.);
#355=ORIENTED_EDGE('',*,*,#429,.F.);
#356=ORIENTED_EDGE('',*,*,#576,.F.);
#357=ORIENTED_EDGE('',*,*,#440,.T.);
#358=ORIENTED_EDGE('',*,*,#577,.T.);
#359=ORIENTED_EDGE('',*,*,#578,.T.);
#360=ORIENTED_EDGE('',*,*,#428,.F.);
#361=ORIENTED_EDGE('',*,*,#572,.F.);
#362=ORIENTED_EDGE('',*,*,#574,.T.);
#363=ORIENTED_EDGE('',*,*,#575,.T.);
#364=ORIENTED_EDGE('',*,*,#441,.F.);
#365=ORIENTED_EDGE('',*,*,#576,.T.);
#366=ORIENTED_EDGE('',*,*,#577,.F.);
#367=ORIENTED_EDGE('',*,*,#578,.F.);
#368=ORIENTED_EDGE('',*,*,#451,.T.);
#369=ORIENTED_EDGE('',*,*,#563,.F.);
#370=ORIENTED_EDGE('',*,*,#579,.F.);
#371=ORIENTED_EDGE('',*,*,#580,.T.);
#372=ORIENTED_EDGE('',*,*,#453,.F.);
#373=ORIENTED_EDGE('',*,*,#581,.F.);
#374=ORIENTED_EDGE('',*,*,#582,.T.);
#375=ORIENTED_EDGE('',*,*,#435,.T.);
#376=ORIENTED_EDGE('',*,*,#452,.F.);
#377=ORIENTED_EDGE('',*,*,#580,.F.);
#378=ORIENTED_EDGE('',*,*,#583,.T.);
#379=ORIENTED_EDGE('',*,*,#581,.T.);
#380=ORIENTED_EDGE('',*,*,#584,.F.);
#381=ORIENTED_EDGE('',*,*,#585,.T.);
#382=ORIENTED_EDGE('',*,*,#579,.T.);
#383=ORIENTED_EDGE('',*,*,#562,.T.);
#384=ORIENTED_EDGE('',*,*,#436,.F.);
#385=ORIENTED_EDGE('',*,*,#582,.F.);
#386=ORIENTED_EDGE('',*,*,#583,.F.);
#387=ORIENTED_EDGE('',*,*,#584,.T.);
#388=ORIENTED_EDGE('',*,*,#444,.T.);
#389=ORIENTED_EDGE('',*,*,#568,.F.);
#390=ORIENTED_EDGE('',*,*,#586,.F.);
#391=ORIENTED_EDGE('',*,*,#423,.T.);
#392=ORIENTED_EDGE('',*,*,#448,.F.);
#393=ORIENTED_EDGE('',*,*,#587,.F.);
#394=ORIENTED_EDGE('',*,*,#588,.T.);
#395=ORIENTED_EDGE('',*,*,#566,.T.);
#396=ORIENTED_EDGE('',*,*,#447,.T.);
#397=ORIENTED_EDGE('',*,*,#589,.F.);
#398=ORIENTED_EDGE('',*,*,#590,.F.);
#399=ORIENTED_EDGE('',*,*,#587,.T.);
#400=ORIENTED_EDGE('',*,*,#446,.T.);
#401=ORIENTED_EDGE('',*,*,#425,.F.);
#402=ORIENTED_EDGE('',*,*,#591,.F.);
#403=ORIENTED_EDGE('',*,*,#589,.T.);
#404=ORIENTED_EDGE('',*,*,#592,.T.);
#405=ORIENTED_EDGE('',*,*,#593,.T.);
#406=ORIENTED_EDGE('',*,*,#592,.F.);
#407=ORIENTED_EDGE('',*,*,#586,.T.);
#408=ORIENTED_EDGE('',*,*,#567,.T.);
#409=ORIENTED_EDGE('',*,*,#588,.F.);
#410=ORIENTED_EDGE('',*,*,#590,.T.);
#411=ORIENTED_EDGE('',*,*,#591,.T.);
#412=ORIENTED_EDGE('',*,*,#424,.F.);
#413=ORIENTED_EDGE('',*,*,#593,.F.);
#414=ORIENTED_EDGE('',*,*,#585,.F.);
#415=ORIENTED_EDGE('',*,*,#488,.F.);
#416=ORIENTED_EDGE('',*,*,#459,.F.);
#417=ORIENTED_EDGE('',*,*,#485,.F.);
#418=ORIENTED_EDGE('',*,*,#509,.F.);
#419=ORIENTED_EDGE('',*,*,#492,.F.);
#420=ORIENTED_EDGE('',*,*,#505,.F.);
#421=ORIENTED_EDGE('',*,*,#486,.F.);
#422=ORIENTED_EDGE('',*,*,#461,.F.);
#423=EDGE_CURVE('',#594,#595,#716,.T.);
#424=EDGE_CURVE('',#594,#596,#717,.T.);
#425=EDGE_CURVE('',#596,#597,#718,.T.);
#426=EDGE_CURVE('',#597,#598,#719,.T.);
#427=EDGE_CURVE('',#599,#598,#720,.T.);
#428=EDGE_CURVE('',#599,#600,#721,.T.);
#429=EDGE_CURVE('',#600,#601,#722,.T.);
#430=EDGE_CURVE('',#601,#602,#723,.T.);
#431=EDGE_CURVE('',#603,#602,#724,.T.);
#432=EDGE_CURVE('',#604,#603,#725,.T.);
#433=EDGE_CURVE('',#604,#605,#726,.T.);
#434=EDGE_CURVE('',#605,#595,#727,.T.);
#435=EDGE_CURVE('',#606,#607,#728,.T.);
#436=EDGE_CURVE('',#606,#608,#729,.T.);
#437=EDGE_CURVE('',#609,#608,#730,.T.);
#438=EDGE_CURVE('',#603,#609,#731,.T.);
#439=EDGE_CURVE('',#602,#610,#732,.T.);
#440=EDGE_CURVE('',#611,#610,#733,.T.);
#441=EDGE_CURVE('',#611,#612,#734,.T.);
#442=EDGE_CURVE('',#612,#613,#735,.T.);
#443=EDGE_CURVE('',#613,#607,#736,.T.);
#444=EDGE_CURVE('',#595,#614,#37,.T.);
#445=EDGE_CURVE('',#605,#614,#737,.T.);
#446=EDGE_CURVE('',#615,#597,#738,.T.);
#447=EDGE_CURVE('',#616,#615,#38,.T.);
#448=EDGE_CURVE('',#616,#617,#739,.T.);
#449=EDGE_CURVE('',#617,#618,#740,.T.);
#450=EDGE_CURVE('',#618,#619,#741,.T.);
#451=EDGE_CURVE('',#620,#619,#742,.T.);
#452=EDGE_CURVE('',#620,#621,#39,.T.);
#453=EDGE_CURVE('',#621,#607,#743,.T.);
#454=EDGE_CURVE('',#622,#613,#744,.T.);
#455=EDGE_CURVE('',#623,#622,#40,.T.);
#456=EDGE_CURVE('',#623,#598,#745,.T.);
#457=EDGE_CURVE('',#610,#601,#41,.T.);
#458=EDGE_CURVE('',#624,#625,#746,.T.);
#459=EDGE_CURVE('',#624,#626,#747,.F.);
#460=EDGE_CURVE('',#627,#626,#748,.T.);
#461=EDGE_CURVE('',#627,#625,#749,.T.);
#462=EDGE_CURVE('',#628,#629,#750,.T.);
#463=EDGE_CURVE('',#628,#630,#751,.T.);
#464=EDGE_CURVE('',#630,#631,#752,.T.);
#465=EDGE_CURVE('',#629,#631,#753,.T.);
#466=EDGE_CURVE('',#632,#633,#754,.T.);
#467=EDGE_CURVE('',#633,#634,#42,.F.);
#468=EDGE_CURVE('',#635,#634,#755,.T.);
#469=EDGE_CURVE('',#635,#636,#756,.T.);
#470=EDGE_CURVE('',#637,#636,#757,.T.);
#471=EDGE_CURVE('',#637,#638,#758,.T.);
#472=EDGE_CURVE('',#638,#639,#759,.T.);
#473=EDGE_CURVE('',#639,#640,#760,.T.);
#474=EDGE_CURVE('',#640,#632,#761,.T.);
#475=EDGE_CURVE('',#639,#641,#762,.T.);
#476=EDGE_CURVE('',#641,#642,#763,.T.);
#477=EDGE_CURVE('',#640,#642,#764,.T.);
#478=EDGE_CURVE('',#636,#643,#765,.T.);
#479=EDGE_CURVE('',#644,#635,#766,.T.);
#480=EDGE_CURVE('',#644,#643,#767,.T.);
#481=EDGE_CURVE('',#645,#646,#768,.T.);
#482=EDGE_CURVE('',#646,#633,#769,.T.);
#483=EDGE_CURVE('',#645,#632,#770,.T.);
#484=EDGE_CURVE('',#642,#647,#771,.T.);
#485=EDGE_CURVE('',#647,#624,#43,.T.);
#486=EDGE_CURVE('',#625,#648,#44,.T.);
#487=EDGE_CURVE('',#648,#645,#772,.T.);
#488=EDGE_CURVE('',#626,#649,#45,.F.);
#489=EDGE_CURVE('',#649,#644,#773,.T.);
#490=EDGE_CURVE('',#634,#650,#774,.F.);
#491=EDGE_CURVE('',#651,#650,#775,.T.);
#492=EDGE_CURVE('',#651,#627,#46,.F.);
#493=EDGE_CURVE('',#652,#653,#776,.T.);
#494=EDGE_CURVE('',#653,#654,#777,.T.);
#495=EDGE_CURVE('',#655,#654,#778,.T.);
#496=EDGE_CURVE('',#652,#655,#779,.T.);
#497=EDGE_CURVE('',#654,#656,#780,.T.);
#498=EDGE_CURVE('',#657,#656,#781,.T.);
#499=EDGE_CURVE('',#655,#657,#782,.T.);
#500=EDGE_CURVE('',#658,#656,#783,.T.);
#501=EDGE_CURVE('',#659,#658,#784,.T.);
#502=EDGE_CURVE('',#659,#657,#785,.T.);
#503=EDGE_CURVE('',#653,#658,#786,.T.);
#504=EDGE_CURVE('',#652,#659,#787,.T.);
#505=EDGE_CURVE('',#648,#651,#788,.F.);
#506=EDGE_CURVE('',#650,#646,#47,.T.);
#507=EDGE_CURVE('',#660,#660,#48,.T.);
#508=EDGE_CURVE('',#661,#661,#49,.T.);
#509=EDGE_CURVE('',#649,#647,#789,.T.);
#510=EDGE_CURVE('',#662,#641,#790,.T.);
#511=EDGE_CURVE('',#662,#663,#50,.T.);
#512=EDGE_CURVE('',#664,#663,#791,.T.);
#513=EDGE_CURVE('',#664,#665,#51,.T.);
#514=EDGE_CURVE('',#665,#643,#792,.T.);
#515=EDGE_CURVE('',#666,#667,#793,.T.);
#516=EDGE_CURVE('',#668,#666,#794,.T.);
#517=EDGE_CURVE('',#668,#669,#795,.T.);
#518=EDGE_CURVE('',#669,#667,#796,.T.);
#519=EDGE_CURVE('',#670,#670,#52,.T.);
#520=EDGE_CURVE('',#671,#671,#53,.T.);
#521=EDGE_CURVE('',#672,#673,#797,.T.);
#522=EDGE_CURVE('',#672,#674,#54,.F.);
#523=EDGE_CURVE('',#674,#675,#798,.T.);
#524=EDGE_CURVE('',#675,#676,#55,.F.);
#525=EDGE_CURVE('',#676,#677,#799,.T.);
#526=EDGE_CURVE('',#677,#668,#800,.T.);
#527=EDGE_CURVE('',#666,#678,#801,.T.);
#528=EDGE_CURVE('',#679,#678,#802,.T.);
#529=EDGE_CURVE('',#679,#673,#803,.T.);
#530=EDGE_CURVE('',#678,#680,#804,.T.);
#531=EDGE_CURVE('',#681,#680,#805,.T.);
#532=EDGE_CURVE('',#679,#681,#806,.T.);
#533=EDGE_CURVE('',#676,#662,#807,.F.);
#534=EDGE_CURVE('',#638,#677,#808,.T.);
#535=EDGE_CURVE('',#665,#672,#809,.F.);
#536=EDGE_CURVE('',#637,#673,#810,.T.);
#537=EDGE_CURVE('',#667,#680,#811,.T.);
#538=EDGE_CURVE('',#669,#681,#812,.T.);
#539=EDGE_CURVE('',#674,#664,#813,.T.);
#540=EDGE_CURVE('',#663,#675,#814,.T.);
#541=EDGE_CURVE('',#682,#682,#56,.T.);
#542=EDGE_CURVE('',#683,#683,#57,.T.);
#543=EDGE_CURVE('',#684,#684,#58,.T.);
#544=EDGE_CURVE('',#685,#685,#59,.T.);
#545=EDGE_CURVE('',#686,#686,#60,.T.);
#546=EDGE_CURVE('',#687,#687,#61,.T.);
#547=EDGE_CURVE('',#688,#688,#62,.T.);
#548=EDGE_CURVE('',#689,#689,#63,.T.);
#549=EDGE_CURVE('',#690,#690,#64,.T.);
#550=EDGE_CURVE('',#691,#691,#65,.T.);
#551=EDGE_CURVE('',#692,#692,#66,.T.);
#552=EDGE_CURVE('',#693,#693,#67,.T.);
#553=EDGE_CURVE('',#694,#694,#68,.T.);
#554=EDGE_CURVE('',#695,#695,#69,.T.);
#555=EDGE_CURVE('',#696,#628,#815,.T.);
#556=EDGE_CURVE('',#696,#697,#816,.T.);
#557=EDGE_CURVE('',#697,#630,#817,.T.);
#558=EDGE_CURVE('',#698,#629,#818,.T.);
#559=EDGE_CURVE('',#696,#698,#819,.T.);
#560=EDGE_CURVE('',#699,#631,#820,.T.);
#561=EDGE_CURVE('',#698,#699,#821,.T.);
#562=EDGE_CURVE('',#700,#608,#822,.T.);
#563=EDGE_CURVE('',#700,#619,#823,.T.);
#564=EDGE_CURVE('',#701,#618,#824,.T.);
#565=EDGE_CURVE('',#701,#609,#825,.T.);
#566=EDGE_CURVE('',#702,#617,#826,.T.);
#567=EDGE_CURVE('',#703,#702,#827,.T.);
#568=EDGE_CURVE('',#703,#614,#828,.T.);
#569=EDGE_CURVE('',#604,#701,#829,.T.);
#570=EDGE_CURVE('',#697,#699,#830,.T.);
#571=EDGE_CURVE('',#704,#623,#831,.T.);
#572=EDGE_CURVE('',#704,#599,#832,.T.);
#573=EDGE_CURVE('',#705,#622,#833,.T.);
#574=EDGE_CURVE('',#704,#705,#70,.T.);
#575=EDGE_CURVE('',#705,#612,#834,.T.);
#576=EDGE_CURVE('',#611,#600,#71,.T.);
#577=EDGE_CURVE('',#706,#706,#72,.T.);
#578=EDGE_CURVE('',#707,#707,#73,.F.);
#579=EDGE_CURVE('',#708,#700,#835,.T.);
#580=EDGE_CURVE('',#708,#620,#836,.T.);
#581=EDGE_CURVE('',#709,#621,#837,.T.);
#582=EDGE_CURVE('',#709,#606,#838,.T.);
#583=EDGE_CURVE('',#708,#709,#74,.T.);
#584=EDGE_CURVE('',#710,#710,#75,.T.);
#585=EDGE_CURVE('',#711,#711,#76,.T.);
#586=EDGE_CURVE('',#594,#703,#77,.T.);
#587=EDGE_CURVE('',#712,#616,#839,.T.);
#588=EDGE_CURVE('',#712,#702,#840,.T.);
#589=EDGE_CURVE('',#713,#615,#841,.T.);
#590=EDGE_CURVE('',#712,#713,#78,.T.);
#591=EDGE_CURVE('',#713,#596,#842,.T.);
#592=EDGE_CURVE('',#714,#714,#79,.T.);
#593=EDGE_CURVE('',#715,#715,#80,.F.);
#594=VERTEX_POINT('',#1812);
#595=VERTEX_POINT('',#1813);
#596=VERTEX_POINT('',#1815);
#597=VERTEX_POINT('',#1817);
#598=VERTEX_POINT('',#1819);
#599=VERTEX_POINT('',#1821);
#600=VERTEX_POINT('',#1823);
#601=VERTEX_POINT('',#1825);
#602=VERTEX_POINT('',#1827);
#603=VERTEX_POINT('',#1829);
#604=VERTEX_POINT('',#1831);
#605=VERTEX_POINT('',#1833);
#606=VERTEX_POINT('',#1837);
#607=VERTEX_POINT('',#1838);
#608=VERTEX_POINT('',#1840);
#609=VERTEX_POINT('',#1842);
#610=VERTEX_POINT('',#1845);
#611=VERTEX_POINT('',#1847);
#612=VERTEX_POINT('',#1849);
#613=VERTEX_POINT('',#1851);
#614=VERTEX_POINT('',#1855);
#615=VERTEX_POINT('',#1859);
#616=VERTEX_POINT('',#1861);
#617=VERTEX_POINT('',#1863);
#618=VERTEX_POINT('',#1865);
#619=VERTEX_POINT('',#1867);
#620=VERTEX_POINT('',#1869);
#621=VERTEX_POINT('',#1871);
#622=VERTEX_POINT('',#1874);
#623=VERTEX_POINT('',#1876);
#624=VERTEX_POINT('',#1882);
#625=VERTEX_POINT('',#1883);
#626=VERTEX_POINT('',#1885);
#627=VERTEX_POINT('',#1887);
#628=VERTEX_POINT('',#1890);
#629=VERTEX_POINT('',#1891);
#630=VERTEX_POINT('',#1893);
#631=VERTEX_POINT('',#1895);
#632=VERTEX_POINT('',#1899);
#633=VERTEX_POINT('',#1900);
#634=VERTEX_POINT('',#1902);
#635=VERTEX_POINT('',#1904);
#636=VERTEX_POINT('',#1906);
#637=VERTEX_POINT('',#1908);
#638=VERTEX_POINT('',#1910);
#639=VERTEX_POINT('',#1912);
#640=VERTEX_POINT('',#1914);
#641=VERTEX_POINT('',#1918);
#642=VERTEX_POINT('',#1920);
#643=VERTEX_POINT('',#1924);
#644=VERTEX_POINT('',#1926);
#645=VERTEX_POINT('',#1930);
#646=VERTEX_POINT('',#1931);
#647=VERTEX_POINT('',#1936);
#648=VERTEX_POINT('',#1939);
#649=VERTEX_POINT('',#1943);
#650=VERTEX_POINT('',#1946);
#651=VERTEX_POINT('',#1948);
#652=VERTEX_POINT('',#1952);
#653=VERTEX_POINT('',#1953);
#654=VERTEX_POINT('',#1955);
#655=VERTEX_POINT('',#1957);
#656=VERTEX_POINT('',#1961);
#657=VERTEX_POINT('',#1963);
#658=VERTEX_POINT('',#1967);
#659=VERTEX_POINT('',#1969);
#660=VERTEX_POINT('',#1979);
#661=VERTEX_POINT('',#1981);
#662=VERTEX_POINT('',#1984);
#663=VERTEX_POINT('',#1986);
#664=VERTEX_POINT('',#1988);
#665=VERTEX_POINT('',#1990);
#666=VERTEX_POINT('',#1994);
#667=VERTEX_POINT('',#1995);
#668=VERTEX_POINT('',#1997);
#669=VERTEX_POINT('',#1999);
#670=VERTEX_POINT('',#2003);
#671=VERTEX_POINT('',#2005);
#672=VERTEX_POINT('',#2007);
#673=VERTEX_POINT('',#2008);
#674=VERTEX_POINT('',#2010);
#675=VERTEX_POINT('',#2012);
#676=VERTEX_POINT('',#2014);
#677=VERTEX_POINT('',#2016);
#678=VERTEX_POINT('',#2019);
#679=VERTEX_POINT('',#2021);
#680=VERTEX_POINT('',#2025);
#681=VERTEX_POINT('',#2027);
#682=VERTEX_POINT('',#2045);
#683=VERTEX_POINT('',#2049);
#684=VERTEX_POINT('',#2053);
#685=VERTEX_POINT('',#2055);
#686=VERTEX_POINT('',#2057);
#687=VERTEX_POINT('',#2059);
#688=VERTEX_POINT('',#2062);
#689=VERTEX_POINT('',#2065);
#690=VERTEX_POINT('',#2068);
#691=VERTEX_POINT('',#2071);
#692=VERTEX_POINT('',#2074);
#693=VERTEX_POINT('',#2078);
#694=VERTEX_POINT('',#2082);
#695=VERTEX_POINT('',#2086);
#696=VERTEX_POINT('',#2093);
#697=VERTEX_POINT('',#2095);
#698=VERTEX_POINT('',#2099);
#699=VERTEX_POINT('',#2103);
#700=VERTEX_POINT('',#2107);
#701=VERTEX_POINT('',#2110);
#702=VERTEX_POINT('',#2114);
#703=VERTEX_POINT('',#2116);
#704=VERTEX_POINT('',#2124);
#705=VERTEX_POINT('',#2128);
#706=VERTEX_POINT('',#2136);
#707=VERTEX_POINT('',#2138);
#708=VERTEX_POINT('',#2143);
#709=VERTEX_POINT('',#2147);
#710=VERTEX_POINT('',#2153);
#711=VERTEX_POINT('',#2155);
#712=VERTEX_POINT('',#2161);
#713=VERTEX_POINT('',#2165);
#714=VERTEX_POINT('',#2171);
#715=VERTEX_POINT('',#2173);
#716=LINE('',#1811,#843);
#717=LINE('',#1814,#844);
#718=LINE('',#1816,#845);
#719=LINE('',#1818,#846);
#720=LINE('',#1820,#847);
#721=LINE('',#1822,#848);
#722=LINE('',#1824,#849);
#723=LINE('',#1826,#850);
#724=LINE('',#1828,#851);
#725=LINE('',#1830,#852);
#726=LINE('',#1832,#853);
#727=LINE('',#1834,#854);
#728=LINE('',#1836,#855);
#729=LINE('',#1839,#856);
#730=LINE('',#1841,#857);
#731=LINE('',#1843,#858);
#732=LINE('',#1844,#859);
#733=LINE('',#1846,#860);
#734=LINE('',#1848,#861);
#735=LINE('',#1850,#862);
#736=LINE('',#1852,#863);
#737=LINE('',#1856,#864);
#738=LINE('',#1858,#865);
#739=LINE('',#1862,#866);
#740=LINE('',#1864,#867);
#741=LINE('',#1866,#868);
#742=LINE('',#1868,#869);
#743=LINE('',#1872,#870);
#744=LINE('',#1873,#871);
#745=LINE('',#1877,#872);
#746=LINE('',#1881,#873);
#747=LINE('',#1884,#874);
#748=LINE('',#1886,#875);
#749=LINE('',#1888,#876);
#750=LINE('',#1889,#877);
#751=LINE('',#1892,#878);
#752=LINE('',#1894,#879);
#753=LINE('',#1896,#880);
#754=LINE('',#1898,#881);
#755=LINE('',#1903,#882);
#756=LINE('',#1905,#883);
#757=LINE('',#1907,#884);
#758=LINE('',#1909,#885);
#759=LINE('',#1911,#886);
#760=LINE('',#1913,#887);
#761=LINE('',#1915,#888);
#762=LINE('',#1917,#889);
#763=LINE('',#1919,#890);
#764=LINE('',#1921,#891);
#765=LINE('',#1923,#892);
#766=LINE('',#1925,#893);
#767=LINE('',#1927,#894);
#768=LINE('',#1929,#895);
#769=LINE('',#1932,#896);
#770=LINE('',#1933,#897);
#771=LINE('',#1935,#898);
#772=LINE('',#1940,#899);
#773=LINE('',#1944,#900);
#774=LINE('',#1945,#901);
#775=LINE('',#1947,#902);
#776=LINE('',#1951,#903);
#777=LINE('',#1954,#904);
#778=LINE('',#1956,#905);
#779=LINE('',#1958,#906);
#780=LINE('',#1960,#907);
#781=LINE('',#1962,#908);
#782=LINE('',#1964,#909);
#783=LINE('',#1966,#910);
#784=LINE('',#1968,#911);
#785=LINE('',#1970,#912);
#786=LINE('',#1972,#913);
#787=LINE('',#1973,#914);
#788=LINE('',#1975,#915);
#789=LINE('',#1982,#916);
#790=LINE('',#1983,#917);
#791=LINE('',#1987,#918);
#792=LINE('',#1991,#919);
#793=LINE('',#1993,#920);
#794=LINE('',#1996,#921);
#795=LINE('',#1998,#922);
#796=LINE('',#2000,#923);
#797=LINE('',#2006,#924);
#798=LINE('',#2011,#925);
#799=LINE('',#2015,#926);
#800=LINE('',#2017,#927);
#801=LINE('',#2018,#928);
#802=LINE('',#2020,#929);
#803=LINE('',#2022,#930);
#804=LINE('',#2024,#931);
#805=LINE('',#2026,#932);
#806=LINE('',#2028,#933);
#807=LINE('',#2030,#934);
#808=LINE('',#2031,#935);
#809=LINE('',#2033,#936);
#810=LINE('',#2034,#937);
#811=LINE('',#2036,#938);
#812=LINE('',#2037,#939);
#813=LINE('',#2041,#940);
#814=LINE('',#2042,#941);
#815=LINE('',#2092,#942);
#816=LINE('',#2094,#943);
#817=LINE('',#2096,#944);
#818=LINE('',#2098,#945);
#819=LINE('',#2100,#946);
#820=LINE('',#2102,#947);
#821=LINE('',#2104,#948);
#822=LINE('',#2106,#949);
#823=LINE('',#2108,#950);
#824=LINE('',#2109,#951);
#825=LINE('',#2111,#952);
#826=LINE('',#2113,#953);
#827=LINE('',#2115,#954);
#828=LINE('',#2117,#955);
#829=LINE('',#2118,#956);
#830=LINE('',#2120,#957);
#831=LINE('',#2123,#958);
#832=LINE('',#2125,#959);
#833=LINE('',#2127,#960);
#834=LINE('',#2131,#961);
#835=LINE('',#2142,#962);
#836=LINE('',#2144,#963);
#837=LINE('',#2146,#964);
#838=LINE('',#2148,#965);
#839=LINE('',#2160,#966);
#840=LINE('',#2162,#967);
#841=LINE('',#2164,#968);
#842=LINE('',#2168,#969);
#843=VECTOR('',#1444,1.);
#844=VECTOR('',#1445,1.);
#845=VECTOR('',#1446,1.);
#846=VECTOR('',#1447,1.);
#847=VECTOR('',#1448,1.);
#848=VECTOR('',#1449,1.);
#849=VECTOR('',#1450,1.);
#850=VECTOR('',#1451,1.);
#851=VECTOR('',#1452,1.);
#852=VECTOR('',#1453,1.);
#853=VECTOR('',#1454,1.);
#854=VECTOR('',#1455,1.);
#855=VECTOR('',#1458,1.);
#856=VECTOR('',#1459,1.);
#857=VECTOR('',#1460,1.);
#858=VECTOR('',#1461,1.);
#859=VECTOR('',#1462,1.);
#860=VECTOR('',#1463,1.);
#861=VECTOR('',#1464,1.);
#862=VECTOR('',#1465,1.);
#863=VECTOR('',#1466,1.);
#864=VECTOR('',#1471,1.);
#865=VECTOR('',#1474,1.);
#866=VECTOR('',#1477,1.);
#867=VECTOR('',#1478,1.);
#868=VECTOR('',#1479,1.);
#869=VECTOR('',#1480,1.);
#870=VECTOR('',#1483,1.);
#871=VECTOR('',#1484,1.);
#872=VECTOR('',#1487,1.);
#873=VECTOR('',#1494,1.);
#874=VECTOR('',#1495,1.);
#875=VECTOR('',#1496,1.);
#876=VECTOR('',#1497,1.);
#877=VECTOR('',#1498,1.);
#878=VECTOR('',#1499,1.);
#879=VECTOR('',#1500,1.);
#880=VECTOR('',#1501,1.);
#881=VECTOR('',#1504,1.);
#882=VECTOR('',#1507,1.);
#883=VECTOR('',#1508,1.);
#884=VECTOR('',#1509,1.);
#885=VECTOR('',#1510,1.);
#886=VECTOR('',#1511,1.);
#887=VECTOR('',#1512,1.);
#888=VECTOR('',#1513,1.);
#889=VECTOR('',#1516,1.);
#890=VECTOR('',#1517,1.);
#891=VECTOR('',#1518,1.);
#892=VECTOR('',#1521,1.);
#893=VECTOR('',#1522,1.);
#894=VECTOR('',#1523,1.);
#895=VECTOR('',#1526,1.);
#896=VECTOR('',#1527,1.);
#897=VECTOR('',#1528,1.);
#898=VECTOR('',#1531,1.);
#899=VECTOR('',#1536,1.);
#900=VECTOR('',#1541,1.);
#901=VECTOR('',#1542,1.);
#902=VECTOR('',#1543,1.);
#903=VECTOR('',#1548,1.);
#904=VECTOR('',#1549,1.);
#905=VECTOR('',#1550,1.);
#906=VECTOR('',#1551,1.);
#907=VECTOR('',#1554,1.);
#908=VECTOR('',#1555,1.);
#909=VECTOR('',#1556,1.);
#910=VECTOR('',#1559,1.);
#911=VECTOR('',#1560,1.);
#912=VECTOR('',#1561,1.);
#913=VECTOR('',#1564,1.);
#914=VECTOR('',#1565,1.);
#915=VECTOR('',#1568,1.);
#916=VECTOR('',#1577,1.);
#917=VECTOR('',#1578,1.);
#918=VECTOR('',#1581,1.);
#919=VECTOR('',#1584,1.);
#920=VECTOR('',#1587,1.);
#921=VECTOR('',#1588,1.);
#922=VECTOR('',#1589,1.);
#923=VECTOR('',#1590,1.);
#924=VECTOR('',#1597,1.);
#925=VECTOR('',#1600,1.);
#926=VECTOR('',#1603,1.);
#927=VECTOR('',#1604,1.);
#928=VECTOR('',#1605,1.);
#929=VECTOR('',#1606,1.);
#930=VECTOR('',#1607,1.);
#931=VECTOR('',#1610,1.);
#932=VECTOR('',#1611,1.);
#933=VECTOR('',#1612,1.);
#934=VECTOR('',#1615,1.);
#935=VECTOR('',#1616,1.);
#936=VECTOR('',#1619,1.);
#937=VECTOR('',#1620,1.);
#938=VECTOR('',#1623,1.);
#939=VECTOR('',#1624,1.);
#940=VECTOR('',#1631,1.);
#941=VECTOR('',#1632,1.);
#942=VECTOR('',#1703,1.);
#943=VECTOR('',#1704,1.);
#944=VECTOR('',#1705,1.);
#945=VECTOR('',#1708,1.);
#946=VECTOR('',#1709,1.);
#947=VECTOR('',#1712,1.);
#948=VECTOR('',#1713,1.);
#949=VECTOR('',#1716,1.);
#950=VECTOR('',#1717,1.);
#951=VECTOR('',#1718,1.);
#952=VECTOR('',#1719,1.);
#953=VECTOR('',#1722,1.);
#954=VECTOR('',#1723,1.);
#955=VECTOR('',#1724,1.);
#956=VECTOR('',#1725,1.);
#957=VECTOR('',#1728,1.);
#958=VECTOR('',#1733,1.);
#959=VECTOR('',#1734,1.);
#960=VECTOR('',#1737,1.);
#961=VECTOR('',#1742,1.);
#962=VECTOR('',#1759,1.);
#963=VECTOR('',#1760,1.);
#964=VECTOR('',#1763,1.);
#965=VECTOR('',#1764,1.);
#966=VECTOR('',#1783,1.);
#967=VECTOR('',#1784,1.);
#968=VECTOR('',#1787,1.);
#969=VECTOR('',#1792,1.);
#970=EDGE_LOOP('',(#81,#82,#83,#84,#85,#86,#87,#88,#89,#90,#91,#92));
#971=EDGE_LOOP('',(#93,#94,#95,#96,#97,#98,#99,#100,#101,#102));
#972=EDGE_LOOP('',(#103,#104,#105));
#973=EDGE_LOOP('',(#106,#107,#108,#109,#110,#111,#112,#113,#114,#115,#116,
#117,#118));
#974=EDGE_LOOP('',(#119,#120,#121));
#975=EDGE_LOOP('',(#122,#123,#124,#125));
#976=EDGE_LOOP('',(#126,#127,#128,#129));
#977=EDGE_LOOP('',(#130,#131,#132,#133,#134,#135,#136,#137,#138));
#978=EDGE_LOOP('',(#139,#140,#141,#142));
#979=EDGE_LOOP('',(#143,#144,#145,#146));
#980=EDGE_LOOP('',(#147,#148,#149,#150));
#981=EDGE_LOOP('',(#151,#152,#153,#154,#155,#156,#157,#158));
#982=EDGE_LOOP('',(#159,#160,#161,#162,#163,#164,#165,#166));
#983=EDGE_LOOP('',(#167,#168,#169,#170));
#984=EDGE_LOOP('',(#171,#172,#173,#174));
#985=EDGE_LOOP('',(#175,#176,#177,#178));
#986=EDGE_LOOP('',(#179,#180,#181,#182));
#987=EDGE_LOOP('',(#183,#184,#185,#186,#187));
#988=EDGE_LOOP('',(#188,#189,#190,#191));
#989=EDGE_LOOP('',(#192));
#990=EDGE_LOOP('',(#193));
#991=EDGE_LOOP('',(#194,#195,#196,#197,#198,#199,#200,#201,#202,#203));
#992=EDGE_LOOP('',(#204,#205,#206,#207));
#993=EDGE_LOOP('',(#208));
#994=EDGE_LOOP('',(#209));
#995=EDGE_LOOP('',(#210,#211,#212,#213,#214,#215,#216,#217,#218,#219));
#996=EDGE_LOOP('',(#220,#221,#222,#223));
#997=EDGE_LOOP('',(#224,#225,#226,#227,#228,#229));
#998=EDGE_LOOP('',(#230,#231,#232,#233,#234,#235));
#999=EDGE_LOOP('',(#236,#237,#238,#239));
#1000=EDGE_LOOP('',(#240,#241,#242,#243,#244,#245,#246,#247));
#1001=EDGE_LOOP('',(#248,#249,#250,#251));
#1002=EDGE_LOOP('',(#252,#253,#254,#255));
#1003=EDGE_LOOP('',(#256));
#1004=EDGE_LOOP('',(#257));
#1005=EDGE_LOOP('',(#258));
#1006=EDGE_LOOP('',(#259));
#1007=EDGE_LOOP('',(#260));
#1008=EDGE_LOOP('',(#261));
#1009=EDGE_LOOP('',(#262));
#1010=EDGE_LOOP('',(#263));
#1011=EDGE_LOOP('',(#264));
#1012=EDGE_LOOP('',(#265));
#1013=EDGE_LOOP('',(#266));
#1014=EDGE_LOOP('',(#267));
#1015=EDGE_LOOP('',(#268,#269,#270,#271));
#1016=EDGE_LOOP('',(#272));
#1017=EDGE_LOOP('',(#273));
#1018=EDGE_LOOP('',(#274));
#1019=EDGE_LOOP('',(#275));
#1020=EDGE_LOOP('',(#276));
#1021=EDGE_LOOP('',(#277));
#1022=EDGE_LOOP('',(#278));
#1023=EDGE_LOOP('',(#279));
#1024=EDGE_LOOP('',(#280));
#1025=EDGE_LOOP('',(#281));
#1026=EDGE_LOOP('',(#282));
#1027=EDGE_LOOP('',(#283));
#1028=EDGE_LOOP('',(#284));
#1029=EDGE_LOOP('',(#285));
#1030=EDGE_LOOP('',(#286));
#1031=EDGE_LOOP('',(#287));
#1032=EDGE_LOOP('',(#288));
#1033=EDGE_LOOP('',(#289));
#1034=EDGE_LOOP('',(#290));
#1035=EDGE_LOOP('',(#291));
#1036=EDGE_LOOP('',(#292,#293,#294,#295));
#1037=EDGE_LOOP('',(#296,#297,#298,#299));
#1038=EDGE_LOOP('',(#300,#301,#302,#303));
#1039=EDGE_LOOP('',(#304,#305,#306,#307));
#1040=EDGE_LOOP('',(#308,#309,#310,#311));
#1041=EDGE_LOOP('',(#312,#313,#314,#315));
#1042=EDGE_LOOP('',(#316,#317,#318,#319,#320,#321));
#1043=EDGE_LOOP('',(#322,#323,#324,#325,#326,#327,#328,#329));
#1044=EDGE_LOOP('',(#330,#331,#332,#333));
#1045=EDGE_LOOP('',(#334,#335,#336,#337));
#1046=EDGE_LOOP('',(#338,#339,#340,#341));
#1047=EDGE_LOOP('',(#342,#343,#344,#345));
#1048=EDGE_LOOP('',(#346,#347,#348,#349));
#1049=EDGE_LOOP('',(#350,#351,#352,#353));
#1050=EDGE_LOOP('',(#354,#355,#356,#357));
#1051=EDGE_LOOP('',(#358));
#1052=EDGE_LOOP('',(#359));
#1053=EDGE_LOOP('',(#360,#361,#362,#363,#364,#365));
#1054=EDGE_LOOP('',(#366));
#1055=EDGE_LOOP('',(#367));
#1056=EDGE_LOOP('',(#368,#369,#370,#371));
#1057=EDGE_LOOP('',(#372,#373,#374,#375));
#1058=EDGE_LOOP('',(#376,#377,#378,#379));
#1059=EDGE_LOOP('',(#380));
#1060=EDGE_LOOP('',(#381));
#1061=EDGE_LOOP('',(#382,#383,#384,#385,#386));
#1062=EDGE_LOOP('',(#387));
#1063=EDGE_LOOP('',(#388,#389,#390,#391));
#1064=EDGE_LOOP('',(#392,#393,#394,#395));
#1065=EDGE_LOOP('',(#396,#397,#398,#399));
#1066=EDGE_LOOP('',(#400,#401,#402,#403));
#1067=EDGE_LOOP('',(#404));
#1068=EDGE_LOOP('',(#405));
#1069=EDGE_LOOP('',(#406));
#1070=EDGE_LOOP('',(#407,#408,#409,#410,#411,#412));
#1071=EDGE_LOOP('',(#413));
#1072=EDGE_LOOP('',(#414));
#1073=EDGE_LOOP('',(#415,#416,#417,#418));
#1074=EDGE_LOOP('',(#419,#420,#421,#422));
#1075=FACE_BOUND('',#970,.T.);
#1076=FACE_BOUND('',#971,.T.);
#1077=FACE_BOUND('',#972,.T.);
#1078=FACE_BOUND('',#973,.T.);
#1079=FACE_BOUND('',#974,.T.);
#1080=FACE_BOUND('',#975,.T.);
#1081=FACE_BOUND('',#976,.T.);
#1082=FACE_BOUND('',#977,.T.);
#1083=FACE_BOUND('',#978,.T.);
#1084=FACE_BOUND('',#979,.T.);
#1085=FACE_BOUND('',#980,.T.);
#1086=FACE_BOUND('',#981,.T.);
#1087=FACE_BOUND('',#982,.T.);
#1088=FACE_BOUND('',#983,.T.);
#1089=FACE_BOUND('',#984,.T.);
#1090=FACE_BOUND('',#985,.T.);
#1091=FACE_BOUND('',#986,.T.);
#1092=FACE_BOUND('',#987,.T.);
#1093=FACE_BOUND('',#988,.T.);
#1094=FACE_BOUND('',#989,.T.);
#1095=FACE_BOUND('',#990,.T.);
#1096=FACE_BOUND('',#991,.T.);
#1097=FACE_BOUND('',#992,.T.);
#1098=FACE_BOUND('',#993,.T.);
#1099=FACE_BOUND('',#994,.T.);
#1100=FACE_BOUND('',#995,.T.);
#1101=FACE_BOUND('',#996,.T.);
#1102=FACE_BOUND('',#997,.T.);
#1103=FACE_BOUND('',#998,.T.);
#1104=FACE_BOUND('',#999,.T.);
#1105=FACE_BOUND('',#1000,.T.);
#1106=FACE_BOUND('',#1001,.T.);
#1107=FACE_BOUND('',#1002,.T.);
#1108=FACE_BOUND('',#1003,.T.);
#1109=FACE_BOUND('',#1004,.T.);
#1110=FACE_BOUND('',#1005,.T.);
#1111=FACE_BOUND('',#1006,.T.);
#1112=FACE_BOUND('',#1007,.T.);
#1113=FACE_BOUND('',#1008,.T.);
#1114=FACE_BOUND('',#1009,.T.);
#1115=FACE_BOUND('',#1010,.T.);
#1116=FACE_BOUND('',#1011,.T.);
#1117=FACE_BOUND('',#1012,.T.);
#1118=FACE_BOUND('',#1013,.T.);
#1119=FACE_BOUND('',#1014,.T.);
#1120=FACE_BOUND('',#1015,.T.);
#1121=FACE_BOUND('',#1016,.T.);
#1122=FACE_BOUND('',#1017,.T.);
#1123=FACE_BOUND('',#1018,.T.);
#1124=FACE_BOUND('',#1019,.T.);
#1125=FACE_BOUND('',#1020,.T.);
#1126=FACE_BOUND('',#1021,.T.);
#1127=FACE_BOUND('',#1022,.T.);
#1128=FACE_BOUND('',#1023,.T.);
#1129=FACE_BOUND('',#1024,.T.);
#1130=FACE_BOUND('',#1025,.T.);
#1131=FACE_BOUND('',#1026,.T.);
#1132=FACE_BOUND('',#1027,.T.);
#1133=FACE_BOUND('',#1028,.T.);
#1134=FACE_BOUND('',#1029,.T.);
#1135=FACE_BOUND('',#1030,.T.);
#1136=FACE_BOUND('',#1031,.T.);
#1137=FACE_BOUND('',#1032,.T.);
#1138=FACE_BOUND('',#1033,.T.);
#1139=FACE_BOUND('',#1034,.T.);
#1140=FACE_BOUND('',#1035,.T.);
#1141=FACE_BOUND('',#1036,.T.);
#1142=FACE_BOUND('',#1037,.T.);
#1143=FACE_BOUND('',#1038,.T.);
#1144=FACE_BOUND('',#1039,.T.);
#1145=FACE_BOUND('',#1040,.T.);
#1146=FACE_BOUND('',#1041,.T.);
#1147=FACE_BOUND('',#1042,.T.);
#1148=FACE_BOUND('',#1043,.T.);
#1149=FACE_BOUND('',#1044,.T.);
#1150=FACE_BOUND('',#1045,.T.);
#1151=FACE_BOUND('',#1046,.T.);
#1152=FACE_BOUND('',#1047,.T.);
#1153=FACE_BOUND('',#1048,.T.);
#1154=FACE_BOUND('',#1049,.T.);
#1155=FACE_BOUND('',#1050,.T.);
#1156=FACE_BOUND('',#1051,.T.);
#1157=FACE_BOUND('',#1052,.T.);
#1158=FACE_BOUND('',#1053,.T.);
#1159=FACE_BOUND('',#1054,.T.);
#1160=FACE_BOUND('',#1055,.T.);
#1161=FACE_BOUND('',#1056,.T.);
#1162=FACE_BOUND('',#1057,.T.);
#1163=FACE_BOUND('',#1058,.T.);
#1164=FACE_BOUND('',#1059,.T.);
#1165=FACE_BOUND('',#1060,.T.);
#1166=FACE_BOUND('',#1061,.T.);
#1167=FACE_BOUND('',#1062,.T.);
#1168=FACE_BOUND('',#1063,.T.);
#1169=FACE_BOUND('',#1064,.T.);
#1170=FACE_BOUND('',#1065,.T.);
#1171=FACE_BOUND('',#1066,.T.);
#1172=FACE_BOUND('',#1067,.T.);
#1173=FACE_BOUND('',#1068,.T.);
#1174=FACE_BOUND('',#1069,.T.);
#1175=FACE_BOUND('',#1070,.T.);
#1176=FACE_BOUND('',#1071,.T.);
#1177=FACE_BOUND('',#1072,.T.);
#1178=FACE_BOUND('',#1073,.T.);
#1179=FACE_BOUND('',#1074,.T.);
#1180=PLANE('',#1320);
#1181=PLANE('',#1321);
#1182=PLANE('',#1322);
#1183=PLANE('',#1324);
#1184=PLANE('',#1328);
#1185=PLANE('',#1330);
#1186=PLANE('',#1331);
#1187=PLANE('',#1333);
#1188=PLANE('',#1334);
#1189=PLANE('',#1335);
#1190=PLANE('',#1336);
#1191=PLANE('',#1339);
#1192=PLANE('',#1342);
#1193=PLANE('',#1343);
#1194=PLANE('',#1344);
#1195=PLANE('',#1345);
#1196=PLANE('',#1346);
#1197=PLANE('',#1348);
#1198=PLANE('',#1353);
#1199=PLANE('',#1354);
#1200=PLANE('',#1359);
#1201=PLANE('',#1360);
#1202=PLANE('',#1361);
#1203=PLANE('',#1362);
#1204=PLANE('',#1363);
#1205=PLANE('',#1364);
#1206=PLANE('',#1365);
#1207=PLANE('',#1372);
#1208=PLANE('',#1385);
#1209=PLANE('',#1388);
#1210=PLANE('',#1391);
#1211=PLANE('',#1394);
#1212=PLANE('',#1400);
#1213=PLANE('',#1401);
#1214=PLANE('',#1402);
#1215=PLANE('',#1403);
#1216=PLANE('',#1404);
#1217=PLANE('',#1405);
#1218=PLANE('',#1406);
#1219=PLANE('',#1407);
#1220=PLANE('',#1410);
#1221=PLANE('',#1416);
#1222=PLANE('',#1417);
#1223=PLANE('',#1418);
#1224=PLANE('',#1419);
#1225=PLANE('',#1425);
#1226=PLANE('',#1428);
#1227=PLANE('',#1431);
#1228=PLANE('',#1435);
#1229=PLANE('',#1436);
#1230=PLANE('',#1437);
#1231=ADVANCED_FACE('',(#1075),#1180,.F.);
#1232=ADVANCED_FACE('',(#1076),#1181,.F.);
#1233=ADVANCED_FACE('',(#1077),#1182,.T.);
#1234=ADVANCED_FACE('',(#1078),#1183,.T.);
#1235=ADVANCED_FACE('',(#1079),#1184,.T.);
#1236=ADVANCED_FACE('',(#1080,#1081),#1185,.T.);
#1237=ADVANCED_FACE('',(#1082),#1186,.F.);
#1238=ADVANCED_FACE('',(#1083),#1187,.T.);
#1239=ADVANCED_FACE('',(#1084),#1188,.T.);
#1240=ADVANCED_FACE('',(#1085),#1189,.T.);
#1241=ADVANCED_FACE('',(#1086),#1190,.T.);
#1242=ADVANCED_FACE('',(#1087),#1191,.F.);
#1243=ADVANCED_FACE('',(#1088),#1192,.F.);
#1244=ADVANCED_FACE('',(#1089),#1193,.F.);
#1245=ADVANCED_FACE('',(#1090),#1194,.T.);
#1246=ADVANCED_FACE('',(#1091),#1195,.T.);
#1247=ADVANCED_FACE('',(#1092,#1093),#1196,.T.);
#1248=ADVANCED_FACE('',(#1094,#1095,#1096),#1197,.T.);
#1249=ADVANCED_FACE('',(#1097),#1198,.T.);
#1250=ADVANCED_FACE('',(#1098,#1099,#1100),#1199,.F.);
#1251=ADVANCED_FACE('',(#1101),#1200,.F.);
#1252=ADVANCED_FACE('',(#1102),#1201,.T.);
#1253=ADVANCED_FACE('',(#1103),#1202,.F.);
#1254=ADVANCED_FACE('',(#1104),#1203,.T.);
#1255=ADVANCED_FACE('',(#1105),#1204,.T.);
#1256=ADVANCED_FACE('',(#1106),#1205,.T.);
#1257=ADVANCED_FACE('',(#1107),#1206,.T.);
#1258=ADVANCED_FACE('',(#1108,#1109),#18,.F.);
#1259=ADVANCED_FACE('',(#1110,#1111),#12,.F.);
#1260=ADVANCED_FACE('',(#1112,#1113),#19,.F.);
#1261=ADVANCED_FACE('',(#1114,#1115),#13,.F.);
#1262=ADVANCED_FACE('',(#1116,#1117,#1118,#1119,#1120),#1207,.T.);
#1263=ADVANCED_FACE('',(#1121,#1122),#14,.F.);
#1264=ADVANCED_FACE('',(#1123,#1124),#15,.F.);
#1265=ADVANCED_FACE('',(#1125,#1126),#16,.F.);
#1266=ADVANCED_FACE('',(#1127,#1128),#17,.F.);
#1267=ADVANCED_FACE('',(#1129),#1208,.T.);
#1268=ADVANCED_FACE('',(#1130,#1131),#20,.F.);
#1269=ADVANCED_FACE('',(#1132),#1209,.T.);
#1270=ADVANCED_FACE('',(#1133,#1134),#21,.F.);
#1271=ADVANCED_FACE('',(#1135),#1210,.T.);
#1272=ADVANCED_FACE('',(#1136,#1137),#22,.F.);
#1273=ADVANCED_FACE('',(#1138),#1211,.T.);
#1274=ADVANCED_FACE('',(#1139,#1140),#23,.F.);
#1275=ADVANCED_FACE('',(#1141),#24,.T.);
#1276=ADVANCED_FACE('',(#1142),#25,.T.);
#1277=ADVANCED_FACE('',(#1143),#26,.T.);
#1278=ADVANCED_FACE('',(#1144),#1212,.T.);
#1279=ADVANCED_FACE('',(#1145),#1213,.F.);
#1280=ADVANCED_FACE('',(#1146),#1214,.F.);
#1281=ADVANCED_FACE('',(#1147),#1215,.T.);
#1282=ADVANCED_FACE('',(#1148),#1216,.T.);
#1283=ADVANCED_FACE('',(#1149),#1217,.T.);
#1284=ADVANCED_FACE('',(#1150,#1151),#1218,.T.);
#1285=ADVANCED_FACE('',(#1152),#1219,.T.);
#1286=ADVANCED_FACE('',(#1153),#27,.T.);
#1287=ADVANCED_FACE('',(#1154),#1220,.F.);
#1288=ADVANCED_FACE('',(#1155),#28,.T.);
#1289=ADVANCED_FACE('',(#1156,#1157),#29,.F.);
#1290=ADVANCED_FACE('',(#1158,#1159),#1221,.T.);
#1291=ADVANCED_FACE('',(#1160),#1222,.T.);
#1292=ADVANCED_FACE('',(#1161),#1223,.F.);
#1293=ADVANCED_FACE('',(#1162),#1224,.T.);
#1294=ADVANCED_FACE('',(#1163),#30,.T.);
#1295=ADVANCED_FACE('',(#1164,#1165),#31,.F.);
#1296=ADVANCED_FACE('',(#1166,#1167),#1225,.T.);
#1297=ADVANCED_FACE('',(#1168),#32,.T.);
#1298=ADVANCED_FACE('',(#1169),#1226,.T.);
#1299=ADVANCED_FACE('',(#1170),#33,.T.);
#1300=ADVANCED_FACE('',(#1171),#1227,.F.);
#1301=ADVANCED_FACE('',(#1172,#1173),#34,.F.);
#1302=ADVANCED_FACE('',(#1174,#1175),#1228,.T.);
#1303=ADVANCED_FACE('',(#1176),#1229,.T.);
#1304=ADVANCED_FACE('',(#1177),#1230,.T.);
#1305=ADVANCED_FACE('',(#1178),#35,.T.);
#1306=ADVANCED_FACE('',(#1179),#36,.T.);
#1307=CLOSED_SHELL('',(#1231,#1232,#1233,#1234,#1235,#1236,#1237,#1238,
#1239,#1240,#1241,#1242,#1243,#1244,#1245,#1246,#1247,#1248,#1249,#1250,
#1251,#1252,#1253,#1254,#1255,#1256,#1257,#1258,#1259,#1260,#1261,#1262,
#1263,#1264,#1265,#1266,#1267,#1268,#1269,#1270,#1271,#1272,#1273,#1274,
#1275,#1276,#1277,#1278,#1279,#1280,#1281,#1282,#1283,#1284,#1285,#1286,
#1287,#1288,#1289,#1290,#1291,#1292,#1293,#1294,#1295,#1296,#1297,#1298,
#1299,#1300,#1301,#1302,#1303,#1304,#1305,#1306));
#1308=STYLED_ITEM('',(#1309),#1316);
#1309=PRESENTATION_STYLE_ASSIGNMENT((#1310));
#1310=SURFACE_STYLE_USAGE(.BOTH.,#1311);
#1311=SURFACE_SIDE_STYLE('',(#1312));
#1312=SURFACE_STYLE_FILL_AREA(#1313);
#1313=FILL_AREA_STYLE('',(#1314));
#1314=FILL_AREA_STYLE_COLOUR('',#1315);
#1315=DRAUGHTING_PRE_DEFINED_COLOUR('white');
#1316=MANIFOLD_SOLID_BREP('Part 5',#1307);
#1317=SHAPE_DEFINITION_REPRESENTATION(#2185,#1318);
#1318=SHAPE_REPRESENTATION('Part 5',(#1319),#2180);
#1319=AXIS2_PLACEMENT_3D('',#1809,#1440,#1441);
#1320=AXIS2_PLACEMENT_3D('',#1810,#1442,#1443);
#1321=AXIS2_PLACEMENT_3D('',#1835,#1456,#1457);
#1322=AXIS2_PLACEMENT_3D('',#1853,#1467,#1468);
#1323=AXIS2_PLACEMENT_3D('',#1854,#1469,#1470);
#1324=AXIS2_PLACEMENT_3D('',#1857,#1472,#1473);
#1325=AXIS2_PLACEMENT_3D('',#1860,#1475,#1476);
#1326=AXIS2_PLACEMENT_3D('',#1870,#1481,#1482);
#1327=AXIS2_PLACEMENT_3D('',#1875,#1485,#1486);
#1328=AXIS2_PLACEMENT_3D('',#1878,#1488,#1489);
#1329=AXIS2_PLACEMENT_3D('',#1879,#1490,#1491);
#1330=AXIS2_PLACEMENT_3D('',#1880,#1492,#1493);
#1331=AXIS2_PLACEMENT_3D('',#1897,#1502,#1503);
#1332=AXIS2_PLACEMENT_3D('',#1901,#1505,#1506);
#1333=AXIS2_PLACEMENT_3D('',#1916,#1514,#1515);
#1334=AXIS2_PLACEMENT_3D('',#1922,#1519,#1520);
#1335=AXIS2_PLACEMENT_3D('',#1928,#1524,#1525);
#1336=AXIS2_PLACEMENT_3D('',#1934,#1529,#1530);
#1337=AXIS2_PLACEMENT_3D('',#1937,#1532,#1533);
#1338=AXIS2_PLACEMENT_3D('',#1938,#1534,#1535);
#1339=AXIS2_PLACEMENT_3D('',#1941,#1537,#1538);
#1340=AXIS2_PLACEMENT_3D('',#1942,#1539,#1540);
#1341=AXIS2_PLACEMENT_3D('',#1949,#1544,#1545);
#1342=AXIS2_PLACEMENT_3D('',#1950,#1546,#1547);
#1343=AXIS2_PLACEMENT_3D('',#1959,#1552,#1553);
#1344=AXIS2_PLACEMENT_3D('',#1965,#1557,#1558);
#1345=AXIS2_PLACEMENT_3D('',#1971,#1562,#1563);
#1346=AXIS2_PLACEMENT_3D('',#1974,#1566,#1567);
#1347=AXIS2_PLACEMENT_3D('',#1976,#1569,#1570);
#1348=AXIS2_PLACEMENT_3D('',#1977,#1571,#1572);
#1349=AXIS2_PLACEMENT_3D('',#1978,#1573,#1574);
#1350=AXIS2_PLACEMENT_3D('',#1980,#1575,#1576);
#1351=AXIS2_PLACEMENT_3D('',#1985,#1579,#1580);
#1352=AXIS2_PLACEMENT_3D('',#1989,#1582,#1583);
#1353=AXIS2_PLACEMENT_3D('',#1992,#1585,#1586);
#1354=AXIS2_PLACEMENT_3D('',#2001,#1591,#1592);
#1355=AXIS2_PLACEMENT_3D('',#2002,#1593,#1594);
#1356=AXIS2_PLACEMENT_3D('',#2004,#1595,#1596);
#1357=AXIS2_PLACEMENT_3D('',#2009,#1598,#1599);
#1358=AXIS2_PLACEMENT_3D('',#2013,#1601,#1602);
#1359=AXIS2_PLACEMENT_3D('',#2023,#1608,#1609);
#1360=AXIS2_PLACEMENT_3D('',#2029,#1613,#1614);
#1361=AXIS2_PLACEMENT_3D('',#2032,#1617,#1618);
#1362=AXIS2_PLACEMENT_3D('',#2035,#1621,#1622);
#1363=AXIS2_PLACEMENT_3D('',#2038,#1625,#1626);
#1364=AXIS2_PLACEMENT_3D('',#2039,#1627,#1628);
#1365=AXIS2_PLACEMENT_3D('',#2040,#1629,#1630);
#1366=AXIS2_PLACEMENT_3D('',#2043,#1633,#1634);
#1367=AXIS2_PLACEMENT_3D('',#2044,#1635,#1636);
#1368=AXIS2_PLACEMENT_3D('',#2046,#1637,#1638);
#1369=AXIS2_PLACEMENT_3D('',#2047,#1639,#1640);
#1370=AXIS2_PLACEMENT_3D('',#2048,#1641,#1642);
#1371=AXIS2_PLACEMENT_3D('',#2050,#1643,#1644);
#1372=AXIS2_PLACEMENT_3D('',#2051,#1645,#1646);
#1373=AXIS2_PLACEMENT_3D('',#2052,#1647,#1648);
#1374=AXIS2_PLACEMENT_3D('',#2054,#1649,#1650);
#1375=AXIS2_PLACEMENT_3D('',#2056,#1651,#1652);
#1376=AXIS2_PLACEMENT_3D('',#2058,#1653,#1654);
#1377=AXIS2_PLACEMENT_3D('',#2060,#1655,#1656);
#1378=AXIS2_PLACEMENT_3D('',#2061,#1657,#1658);
#1379=AXIS2_PLACEMENT_3D('',#2063,#1659,#1660);
#1380=AXIS2_PLACEMENT_3D('',#2064,#1661,#1662);
#1381=AXIS2_PLACEMENT_3D('',#2066,#1663,#1664);
#1382=AXIS2_PLACEMENT_3D('',#2067,#1665,#1666);
#1383=AXIS2_PLACEMENT_3D('',#2069,#1667,#1668);
#1384=AXIS2_PLACEMENT_3D('',#2070,#1669,#1670);
#1385=AXIS2_PLACEMENT_3D('',#2072,#1671,#1672);
#1386=AXIS2_PLACEMENT_3D('',#2073,#1673,#1674);
#1387=AXIS2_PLACEMENT_3D('',#2075,#1675,#1676);
#1388=AXIS2_PLACEMENT_3D('',#2076,#1677,#1678);
#1389=AXIS2_PLACEMENT_3D('',#2077,#1679,#1680);
#1390=AXIS2_PLACEMENT_3D('',#2079,#1681,#1682);
#1391=AXIS2_PLACEMENT_3D('',#2080,#1683,#1684);
#1392=AXIS2_PLACEMENT_3D('',#2081,#1685,#1686);
#1393=AXIS2_PLACEMENT_3D('',#2083,#1687,#1688);
#1394=AXIS2_PLACEMENT_3D('',#2084,#1689,#1690);
#1395=AXIS2_PLACEMENT_3D('',#2085,#1691,#1692);
#1396=AXIS2_PLACEMENT_3D('',#2087,#1693,#1694);
#1397=AXIS2_PLACEMENT_3D('',#2088,#1695,#1696);
#1398=AXIS2_PLACEMENT_3D('',#2089,#1697,#1698);
#1399=AXIS2_PLACEMENT_3D('',#2090,#1699,#1700);
#1400=AXIS2_PLACEMENT_3D('',#2091,#1701,#1702);
#1401=AXIS2_PLACEMENT_3D('',#2097,#1706,#1707);
#1402=AXIS2_PLACEMENT_3D('',#2101,#1710,#1711);
#1403=AXIS2_PLACEMENT_3D('',#2105,#1714,#1715);
#1404=AXIS2_PLACEMENT_3D('',#2112,#1720,#1721);
#1405=AXIS2_PLACEMENT_3D('',#2119,#1726,#1727);
#1406=AXIS2_PLACEMENT_3D('',#2121,#1729,#1730);
#1407=AXIS2_PLACEMENT_3D('',#2122,#1731,#1732);
#1408=AXIS2_PLACEMENT_3D('',#2126,#1735,#1736);
#1409=AXIS2_PLACEMENT_3D('',#2129,#1738,#1739);
#1410=AXIS2_PLACEMENT_3D('',#2130,#1740,#1741);
#1411=AXIS2_PLACEMENT_3D('',#2132,#1743,#1744);
#1412=AXIS2_PLACEMENT_3D('',#2133,#1745,#1746);
#1413=AXIS2_PLACEMENT_3D('',#2134,#1747,#1748);
#1414=AXIS2_PLACEMENT_3D('',#2135,#1749,#1750);
#1415=AXIS2_PLACEMENT_3D('',#2137,#1751,#1752);
#1416=AXIS2_PLACEMENT_3D('',#2139,#1753,#1754);
#1417=AXIS2_PLACEMENT_3D('',#2140,#1755,#1756);
#1418=AXIS2_PLACEMENT_3D('',#2141,#1757,#1758);
#1419=AXIS2_PLACEMENT_3D('',#2145,#1761,#1762);
#1420=AXIS2_PLACEMENT_3D('',#2149,#1765,#1766);
#1421=AXIS2_PLACEMENT_3D('',#2150,#1767,#1768);
#1422=AXIS2_PLACEMENT_3D('',#2151,#1769,#1770);
#1423=AXIS2_PLACEMENT_3D('',#2152,#1771,#1772);
#1424=AXIS2_PLACEMENT_3D('',#2154,#1773,#1774);
#1425=AXIS2_PLACEMENT_3D('',#2156,#1775,#1776);
#1426=AXIS2_PLACEMENT_3D('',#2157,#1777,#1778);
#1427=AXIS2_PLACEMENT_3D('',#2158,#1779,#1780);
#1428=AXIS2_PLACEMENT_3D('',#2159,#1781,#1782);
#1429=AXIS2_PLACEMENT_3D('',#2163,#1785,#1786);
#1430=AXIS2_PLACEMENT_3D('',#2166,#1788,#1789);
#1431=AXIS2_PLACEMENT_3D('',#2167,#1790,#1791);
#1432=AXIS2_PLACEMENT_3D('',#2169,#1793,#1794);
#1433=AXIS2_PLACEMENT_3D('',#2170,#1795,#1796);
#1434=AXIS2_PLACEMENT_3D('',#2172,#1797,#1798);
#1435=AXIS2_PLACEMENT_3D('',#2174,#1799,#1800);
#1436=AXIS2_PLACEMENT_3D('',#2175,#1801,#1802);
#1437=AXIS2_PLACEMENT_3D('',#2176,#1803,#1804);
#1438=AXIS2_PLACEMENT_3D('',#2177,#1805,#1806);
#1439=AXIS2_PLACEMENT_3D('',#2178,#1807,#1808);
#1440=DIRECTION('',(0.,0.,1.));
#1441=DIRECTION('',(1.,0.,0.));
#1442=DIRECTION('',(2.27504718160893E-16,-1.,0.));
#1443=DIRECTION('',(1.,2.27504718160893E-16,0.));
#1444=DIRECTION('',(-1.,-2.27504718160893E-16,0.));
#1445=DIRECTION('',(1.02448053944497E-31,-4.50311777147609E-16,1.));
#1446=DIRECTION('',(-1.,-2.27504718160893E-16,0.));
#1447=DIRECTION('',(0.,0.,1.));
#1448=DIRECTION('',(-1.,-2.27504718160893E-16,0.));
#1449=DIRECTION('',(0.,0.,1.));
#1450=DIRECTION('',(-1.,-2.27504718160893E-16,0.));
#1451=DIRECTION('',(0.,0.,1.));
#1452=DIRECTION('',(-1.,-2.27504718160893E-16,0.));
#1453=DIRECTION('',(0.,0.,1.));
#1454=DIRECTION('',(-1.,-2.27504718160893E-16,0.));
#1455=DIRECTION('',(0.,0.,1.));
#1456=DIRECTION('',(0.,0.,1.));
#1457=DIRECTION('',(1.,0.,0.));
#1458=DIRECTION('',(-1.,-2.27504718160893E-16,0.));
#1459=DIRECTION('',(-2.27504718160893E-16,1.,0.));
#1460=DIRECTION('',(-1.,-2.27504718160893E-16,0.));
#1461=DIRECTION('',(-2.27504718160893E-16,1.,0.));
#1462=DIRECTION('',(-2.27504718160893E-16,1.,0.));
#1463=DIRECTION('',(-1.,-2.27504718160893E-16,0.));
#1464=DIRECTION('',(-2.27504718160893E-16,1.,0.));
#1465=DIRECTION('',(-1.,-2.27504718160893E-16,0.));
#1466=DIRECTION('',(-2.27504718160893E-16,1.,0.));
#1467=DIRECTION('',(1.,2.27504718160893E-16,0.));
#1468=DIRECTION('',(-2.27504718160893E-16,1.,0.));
#1469=DIRECTION('',(1.,2.27504718160893E-16,0.));
#1470=DIRECTION('',(-2.27504718160893E-16,1.,0.));
#1471=DIRECTION('',(-2.27504718160893E-16,1.,0.));
#1472=DIRECTION('',(1.,2.27504718160893E-16,0.));
#1473=DIRECTION('',(-2.27504718160893E-16,1.,0.));
#1474=DIRECTION('',(2.27504718160893E-16,-1.,1.35760967685135E-14));
#1475=DIRECTION('',(1.,2.27504718160893E-16,0.));
#1476=DIRECTION('',(-2.27504718160893E-16,1.,0.));
#1477=DIRECTION('',(3.00283090046114E-30,-1.31989829693884E-14,-1.));
#1478=DIRECTION('',(-2.27504718160893E-16,1.,0.));
#1479=DIRECTION('',(0.,0.,1.));
#1480=DIRECTION('',(-2.27504718160893E-16,1.,-1.37646536680765E-14));
#1481=DIRECTION('',(-1.,-2.27504718160893E-16,0.));
#1482=DIRECTION('',(-2.27504718160893E-16,1.,0.));
#1483=DIRECTION('',(-3.08862606904568E-30,1.35760967685135E-14,1.));
#1484=DIRECTION('',(0.,0.,1.));
#1485=DIRECTION('',(1.,2.27504718160893E-16,0.));
#1486=DIRECTION('',(-2.27504718160893E-16,1.,0.));
#1487=DIRECTION('',(2.27504718160893E-16,-1.,-3.77113799125384E-16));
#1488=DIRECTION('',(1.,2.27504718160893E-16,0.));
#1489=DIRECTION('',(-2.27504718160893E-16,1.,0.));
#1490=DIRECTION('',(1.,2.27504718160893E-16,0.));
#1491=DIRECTION('',(-2.27504718160893E-16,1.,0.));
#1492=DIRECTION('',(1.,2.27504718160893E-16,0.));
#1493=DIRECTION('',(-2.27504718160893E-16,1.,0.));
#1494=DIRECTION('',(0.,0.,1.));
#1495=DIRECTION('',(2.27504718160893E-16,-1.,0.));
#1496=DIRECTION('',(0.,0.,-1.));
#1497=DIRECTION('',(2.27504718160893E-16,-1.,0.));
#1498=DIRECTION('',(-6.71186693008822E-32,2.95020999315783E-16,-1.));
#1499=DIRECTION('',(-2.27504718160893E-16,1.,0.));
#1500=DIRECTION('',(-6.71186693008822E-32,2.95020999315783E-16,-1.));
#1501=DIRECTION('',(-2.27504718160893E-16,1.,0.));
#1502=DIRECTION('',(0.,0.,1.));
#1503=DIRECTION('',(1.,0.,0.));
#1504=DIRECTION('',(7.30409884621814E-17,1.,0.));
#1505=DIRECTION('',(0.,0.,1.));
#1506=DIRECTION('',(1.,0.,0.));
#1507=DIRECTION('',(-1.,-2.27504718160893E-16,0.));
#1508=DIRECTION('',(2.27504718160893E-16,-1.,0.));
#1509=DIRECTION('',(1.,2.27504718160893E-16,1.88223876285931E-16));
#1510=DIRECTION('',(2.27504718160893E-16,-1.,0.));
#1511=DIRECTION('',(1.,2.27504718160893E-16,1.88223876285931E-16));
#1512=DIRECTION('',(2.27504718160893E-16,-1.,0.));
#1513=DIRECTION('',(-1.,-2.27504718160893E-16,0.));
#1514=DIRECTION('',(-1.,-2.27504718160893E-16,-1.88223876285931E-16));
#1515=DIRECTION('',(2.27504718160893E-16,-1.,0.));
#1516=DIRECTION('',(1.88223876285931E-16,-4.02254719067086E-16,-1.));
#1517=DIRECTION('',(2.27504718160893E-16,-1.,0.));
#1518=DIRECTION('',(1.88223876285931E-16,4.28218199255814E-32,-1.));
#1519=DIRECTION('',(-1.,-2.27504718160893E-16,-1.88223876285931E-16));
#1520=DIRECTION('',(2.27504718160893E-16,-1.,0.));
#1521=DIRECTION('',(1.88223876285931E-16,-2.01127359533543E-16,-1.));
#1522=DIRECTION('',(-1.88223876285931E-16,-4.28218199255814E-32,1.));
#1523=DIRECTION('',(2.27504718160893E-16,-1.,0.));
#1524=DIRECTION('',(-1.,7.30409884621814E-17,0.));
#1525=DIRECTION('',(-7.30409884621814E-17,-1.,0.));
#1526=DIRECTION('',(7.30409884621814E-17,1.,0.));
#1527=DIRECTION('',(0.,0.,-1.));
#1528=DIRECTION('',(0.,0.,-1.));
#1529=DIRECTION('',(2.27504718160893E-16,-1.,0.));
#1530=DIRECTION('',(1.,2.27504718160893E-16,0.));
#1531=DIRECTION('',(1.,2.27504718160893E-16,0.));
#1532=DIRECTION('',(2.27504718160893E-16,-1.,0.));
#1533=DIRECTION('',(1.,2.27504718160893E-16,0.));
#1534=DIRECTION('',(2.27504718160893E-16,-1.,0.));
#1535=DIRECTION('',(1.,2.27504718160893E-16,0.));
#1536=DIRECTION('',(-1.,-2.27504718160893E-16,0.));
#1537=DIRECTION('',(2.27504718160893E-16,-1.,0.));
#1538=DIRECTION('',(1.,2.27504718160893E-16,0.));
#1539=DIRECTION('',(2.27504718160893E-16,-1.,0.));
#1540=DIRECTION('',(1.,2.27504718160893E-16,0.));
#1541=DIRECTION('',(-1.,-2.27504718160893E-16,0.));
#1542=DIRECTION('',(0.,0.,-1.));
#1543=DIRECTION('',(-1.,-2.27504718160893E-16,0.));
#1544=DIRECTION('',(2.27504718160893E-16,-1.,0.));
#1545=DIRECTION('',(1.,2.27504718160893E-16,0.));
#1546=DIRECTION('',(0.,-1.,0.));
#1547=DIRECTION('',(0.,0.,-1.));
#1548=DIRECTION('',(0.,0.,-1.));
#1549=DIRECTION('',(-1.,0.,0.));
#1550=DIRECTION('',(0.,0.,-1.));
#1551=DIRECTION('',(-1.,0.,0.));
#1552=DIRECTION('',(-1.,8.36011313723762E-17,0.));
#1553=DIRECTION('',(-8.36011313723762E-17,-1.,0.));
#1554=DIRECTION('',(8.36011313723762E-17,1.,0.));
#1555=DIRECTION('',(0.,0.,-1.));
#1556=DIRECTION('',(8.36011313723762E-17,1.,0.));
#1557=DIRECTION('',(0.,-1.,0.));
#1558=DIRECTION('',(0.,0.,-1.));
#1559=DIRECTION('',(-1.,0.,0.));
#1560=DIRECTION('',(0.,0.,-1.));
#1561=DIRECTION('',(-1.,0.,0.));
#1562=DIRECTION('',(-1.,8.36011313723762E-17,0.));
#1563=DIRECTION('',(-8.36011313723762E-17,-1.,0.));
#1564=DIRECTION('',(8.36011313723762E-17,1.,0.));
#1565=DIRECTION('',(8.36011313723762E-17,1.,0.));
#1566=DIRECTION('',(0.,0.,1.));
#1567=DIRECTION('',(1.,0.,0.));
#1568=DIRECTION('',(2.27504718160893E-16,-1.,0.));
#1569=DIRECTION('',(0.,0.,1.));
#1570=DIRECTION('',(1.,0.,0.));
#1571=DIRECTION('',(0.,0.,-1.));
#1572=DIRECTION('',(-1.,0.,0.));
#1573=DIRECTION('',(0.,0.,1.));
#1574=DIRECTION('',(1.,0.,0.));
#1575=DIRECTION('',(0.,0.,1.));
#1576=DIRECTION('',(1.,0.,0.));
#1577=DIRECTION('',(2.27504718160893E-16,-1.,0.));
#1578=DIRECTION('',(1.,2.27504718160893E-16,1.88223876285931E-16));
#1579=DIRECTION('',(0.,0.,-1.));
#1580=DIRECTION('',(-1.,0.,0.));
#1581=DIRECTION('',(2.27504718160893E-16,-1.,0.));
#1582=DIRECTION('',(0.,0.,-1.));
#1583=DIRECTION('',(-1.,0.,0.));
#1584=DIRECTION('',(1.,2.27504718160893E-16,1.88223876285931E-16));
#1585=DIRECTION('',(-2.27504718160893E-16,1.,-2.51409199416929E-16));
#1586=DIRECTION('',(0.,2.51409199416929E-16,1.));
#1587=DIRECTION('',(-1.88223876285931E-16,2.51409199416929E-16,1.));
#1588=DIRECTION('',(1.,2.27504718160893E-16,1.88223876285931E-16));
#1589=DIRECTION('',(-1.88223876285931E-16,2.51409199416929E-16,1.));
#1590=DIRECTION('',(1.,2.27504718160893E-16,1.88223876285931E-16));
#1591=DIRECTION('',(1.88223876285931E-16,-2.39272203583008E-16,-1.));
#1592=DIRECTION('',(0.,1.,-2.39272203583008E-16));
#1593=DIRECTION('',(0.,0.,1.));
#1594=DIRECTION('',(1.,0.,0.));
#1595=DIRECTION('',(0.,0.,1.));
#1596=DIRECTION('',(1.,0.,0.));
#1597=DIRECTION('',(1.,2.27504718160893E-16,1.88223876285931E-16));
#1598=DIRECTION('',(1.88223876285931E-16,-2.39272203583008E-16,-1.));
#1599=DIRECTION('',(0.,1.,-2.39272203583008E-16));
#1600=DIRECTION('',(2.27504718160893E-16,-1.,4.28218199255814E-32));
#1601=DIRECTION('',(1.88223876285931E-16,-2.39272203583008E-16,-1.));
#1602=DIRECTION('',(0.,1.,-2.39272203583008E-16));
#1603=DIRECTION('',(1.,2.27504718160893E-16,1.88223876285931E-16));
#1604=DIRECTION('',(-2.27504718160893E-16,1.,-4.28218199255814E-32));
#1605=DIRECTION('',(-2.27504718160893E-16,1.,-2.39272203583008E-16));
#1606=DIRECTION('',(1.,2.27504718160893E-16,1.88223876285931E-16));
#1607=DIRECTION('',(-2.27504718160893E-16,1.,-4.28218199255814E-32));
#1608=DIRECTION('',(-2.27504718160893E-16,1.,-2.51409199416929E-16));
#1609=DIRECTION('',(0.,2.51409199416929E-16,1.));
#1610=DIRECTION('',(-1.88223876285931E-16,2.51409199416929E-16,1.));
#1611=DIRECTION('',(1.,2.27504718160893E-16,1.88223876285931E-16));
#1612=DIRECTION('',(-1.88223876285931E-16,2.51409199416929E-16,1.));
#1613=DIRECTION('',(2.27504718160893E-16,-1.,4.02254719067086E-16));
#1614=DIRECTION('',(0.,-4.02254719067086E-16,-1.));
#1615=DIRECTION('',(-1.88223876285931E-16,4.02254719067086E-16,1.));
#1616=DIRECTION('',(1.88223876285931E-16,-4.02254719067086E-16,-1.));
#1617=DIRECTION('',(2.27504718160893E-16,-1.,2.01127359533543E-16));
#1618=DIRECTION('',(1.,2.27504718160893E-16,0.));
#1619=DIRECTION('',(1.88223876285931E-16,-2.01127359533543E-16,-1.));
#1620=DIRECTION('',(1.88223876285931E-16,-2.01127359533543E-16,-1.));
#1621=DIRECTION('',(1.88223876285931E-16,-4.26203612632233E-16,-1.));
#1622=DIRECTION('',(0.,1.,-4.26203612632233E-16));
#1623=DIRECTION('',(-2.27504718160893E-16,1.,-4.26203612632233E-16));
#1624=DIRECTION('',(-2.27504718160893E-16,1.,-4.26203612632233E-16));
#1625=DIRECTION('',(-1.,-2.27504718160893E-16,-1.88223876285931E-16));
#1626=DIRECTION('',(2.27504718160893E-16,-1.,4.28218199255814E-32));
#1627=DIRECTION('',(-1.,-2.27504718160893E-16,-1.88223876285931E-16));
#1628=DIRECTION('',(2.27504718160893E-16,-1.,0.));
#1629=DIRECTION('',(-1.,-2.27504718160893E-16,-1.88223876285931E-16));
#1630=DIRECTION('',(2.27504718160893E-16,-1.,4.28218199255814E-32));
#1631=DIRECTION('',(1.88223876285931E-16,-2.01127359533543E-16,-1.));
#1632=DIRECTION('',(-1.88223876285931E-16,4.02254719067086E-16,1.));
#1633=DIRECTION('',(0.,0.,1.));
#1634=DIRECTION('',(1.,0.,0.));
#1635=DIRECTION('',(0.,0.,1.));
#1636=DIRECTION('',(1.,0.,0.));
#1637=DIRECTION('',(0.,0.,-1.));
#1638=DIRECTION('',(-1.,0.,0.));
#1639=DIRECTION('',(0.,0.,1.));
#1640=DIRECTION('',(1.,0.,0.));
#1641=DIRECTION('',(0.,0.,1.));
#1642=DIRECTION('',(1.,0.,0.));
#1643=DIRECTION('',(0.,0.,-1.));
#1644=DIRECTION('',(-1.,0.,0.));
#1645=DIRECTION('',(0.,0.,1.));
#1646=DIRECTION('',(1.,0.,0.));
#1647=DIRECTION('',(0.,0.,1.));
#1648=DIRECTION('',(1.,0.,0.));
#1649=DIRECTION('',(0.,0.,1.));
#1650=DIRECTION('',(1.,0.,0.));
#1651=DIRECTION('',(0.,0.,1.));
#1652=DIRECTION('',(1.,0.,0.));
#1653=DIRECTION('',(0.,0.,1.));
#1654=DIRECTION('',(1.,0.,0.));
#1655=DIRECTION('',(0.,0.,1.));
#1656=DIRECTION('',(-1.,0.,0.));
#1657=DIRECTION('',(0.,0.,1.));
#1658=DIRECTION('',(1.,0.,0.));
#1659=DIRECTION('',(0.,0.,1.));
#1660=DIRECTION('',(-1.,0.,0.));
#1661=DIRECTION('',(0.,0.,1.));
#1662=DIRECTION('',(1.,0.,0.));
#1663=DIRECTION('',(0.,0.,1.));
#1664=DIRECTION('',(-1.,0.,0.));
#1665=DIRECTION('',(0.,0.,1.));
#1666=DIRECTION('',(1.,0.,0.));
#1667=DIRECTION('',(0.,0.,1.));
#1668=DIRECTION('',(-1.,0.,0.));
#1669=DIRECTION('',(0.,0.,1.));
#1670=DIRECTION('',(1.,0.,0.));
#1671=DIRECTION('',(0.,0.,1.));
#1672=DIRECTION('',(1.,0.,0.));
#1673=DIRECTION('',(0.,0.,1.));
#1674=DIRECTION('',(1.,0.,0.));
#1675=DIRECTION('',(0.,0.,1.));
#1676=DIRECTION('',(1.,0.,0.));
#1677=DIRECTION('',(0.,0.,1.));
#1678=DIRECTION('',(1.,0.,0.));
#1679=DIRECTION('',(0.,0.,1.));
#1680=DIRECTION('',(1.,0.,0.));
#1681=DIRECTION('',(0.,0.,1.));
#1682=DIRECTION('',(1.,0.,0.));
#1683=DIRECTION('',(0.,0.,1.));
#1684=DIRECTION('',(1.,0.,0.));
#1685=DIRECTION('',(0.,0.,1.));
#1686=DIRECTION('',(1.,0.,0.));
#1687=DIRECTION('',(0.,0.,1.));
#1688=DIRECTION('',(1.,0.,0.));
#1689=DIRECTION('',(0.,0.,1.));
#1690=DIRECTION('',(1.,0.,0.));
#1691=DIRECTION('',(0.,0.,1.));
#1692=DIRECTION('',(1.,0.,0.));
#1693=DIRECTION('',(0.,0.,1.));
#1694=DIRECTION('',(1.,0.,0.));
#1695=DIRECTION('',(-1.88223876285931E-16,2.01127359533543E-16,1.));
#1696=DIRECTION('',(0.,-1.,2.01127359533543E-16));
#1697=DIRECTION('',(-1.88223876285931E-16,4.02254719067086E-16,1.));
#1698=DIRECTION('',(0.,-1.,4.02254719067086E-16));
#1699=DIRECTION('',(0.,0.,1.));
#1700=DIRECTION('',(1.,0.,0.));
#1701=DIRECTION('',(0.,0.,1.));
#1702=DIRECTION('',(1.,0.,0.));
#1703=DIRECTION('',(-1.,-2.27504718160893E-16,0.));
#1704=DIRECTION('',(-2.27504718160893E-16,1.,0.));
#1705=DIRECTION('',(-1.,-2.27504718160893E-16,0.));
#1706=DIRECTION('',(-2.27504718160893E-16,1.,2.95020999315783E-16));
#1707=DIRECTION('',(0.,-2.95020999315783E-16,1.));
#1708=DIRECTION('',(-1.,-2.27504718160893E-16,0.));
#1709=DIRECTION('',(-6.71186693008822E-32,2.95020999315783E-16,-1.));
#1710=DIRECTION('',(0.,0.,1.));
#1711=DIRECTION('',(1.,0.,0.));
#1712=DIRECTION('',(-1.,-2.27504718160893E-16,0.));
#1713=DIRECTION('',(-2.27504718160893E-16,1.,0.));
#1714=DIRECTION('',(2.27504718160893E-16,-1.,0.));
#1715=DIRECTION('',(1.,2.27504718160893E-16,0.));
#1716=DIRECTION('',(1.02448053944485E-31,-4.50311777147555E-16,1.));
#1717=DIRECTION('',(-1.,-2.27504718160893E-16,0.));
#1718=DIRECTION('',(-1.,-2.27504718160893E-16,0.));
#1719=DIRECTION('',(0.,0.,1.));
#1720=DIRECTION('',(0.,0.,1.));
#1721=DIRECTION('',(1.,0.,0.));
#1722=DIRECTION('',(-1.,-2.27504718160893E-16,0.));
#1723=DIRECTION('',(-2.27504718160893E-16,1.,0.));
#1724=DIRECTION('',(-1.,-2.27504718160893E-16,0.));
#1725=DIRECTION('',(-2.27504718160893E-16,1.,0.));
#1726=DIRECTION('',(-2.27504718160893E-16,1.,2.95020999315783E-16));
#1727=DIRECTION('',(0.,-2.95020999315783E-16,1.));
#1728=DIRECTION('',(-6.71186693008822E-32,2.95020999315783E-16,-1.));
#1729=DIRECTION('',(1.,2.27504718160893E-16,0.));
#1730=DIRECTION('',(-2.27504718160893E-16,1.,0.));
#1731=DIRECTION('',(-8.5795168584604E-32,3.77113799125384E-16,-1.));
#1732=DIRECTION('',(0.,1.,3.77113799125384E-16));
#1733=DIRECTION('',(-1.,-2.27504718160893E-16,0.));
#1734=DIRECTION('',(2.27504718160893E-16,-1.,-3.77113799125384E-16));
#1735=DIRECTION('',(-1.,-2.27504718160893E-16,0.));
#1736=DIRECTION('',(2.27504718160893E-16,-1.,0.));
#1737=DIRECTION('',(-1.,-2.27504718160893E-16,0.));
#1738=DIRECTION('',(1.,2.27504718160893E-16,0.));
#1739=DIRECTION('',(-2.27504718160893E-16,1.,0.));
#1740=DIRECTION('',(2.27504718160893E-16,-1.,0.));
#1741=DIRECTION('',(1.,2.27504718160893E-16,0.));
#1742=DIRECTION('',(0.,0.,1.));
#1743=DIRECTION('',(-1.,-2.27504718160893E-16,0.));
#1744=DIRECTION('',(2.27504718160893E-16,-1.,0.));
#1745=DIRECTION('',(1.,2.27504718160893E-16,0.));
#1746=DIRECTION('',(-2.27504718160893E-16,1.,0.));
#1747=DIRECTION('',(-1.,-2.27504718160893E-16,0.));
#1748=DIRECTION('',(2.27504718160893E-16,-1.,0.));
#1749=DIRECTION('',(1.,2.27504718160893E-16,0.));
#1750=DIRECTION('',(-2.27504718160893E-16,1.,0.));
#1751=DIRECTION('',(1.,2.27504718160893E-16,0.));
#1752=DIRECTION('',(-2.27504718160893E-16,1.,0.));
#1753=DIRECTION('',(1.,2.27504718160893E-16,0.));
#1754=DIRECTION('',(-2.27504718160893E-16,1.,0.));
#1755=DIRECTION('',(1.,2.27504718160893E-16,0.));
#1756=DIRECTION('',(-2.27504718160893E-16,1.,0.));
#1757=DIRECTION('',(-3.13152365333805E-30,1.37646536680765E-14,1.));
#1758=DIRECTION('',(0.,-1.,1.37646536680765E-14));
#1759=DIRECTION('',(-2.27504718160893E-16,1.,-1.37646536680765E-14));
#1760=DIRECTION('',(-1.,-2.27504718160893E-16,0.));
#1761=DIRECTION('',(2.27504718160893E-16,-1.,1.35760967685135E-14));
#1762=DIRECTION('',(0.,-1.35760967685135E-14,-1.));
#1763=DIRECTION('',(-1.,-2.27504718160893E-16,0.));
#1764=DIRECTION('',(-3.08862606904568E-30,1.35760967685135E-14,1.));
#1765=DIRECTION('',(-1.,-2.27504718160893E-16,0.));
#1766=DIRECTION('',(2.27504718160893E-16,-1.,0.));
#1767=DIRECTION('',(-1.,-2.27504718160893E-16,0.));
#1768=DIRECTION('',(-2.27504718160893E-16,1.,0.));
#1769=DIRECTION('',(-1.,-2.27504718160893E-16,0.));
#1770=DIRECTION('',(2.27504718160893E-16,-1.,0.));
#1771=DIRECTION('',(-1.,-2.27504718160893E-16,0.));
#1772=DIRECTION('',(-2.27504718160893E-16,1.,0.));
#1773=DIRECTION('',(-1.,-2.27504718160893E-16,0.));
#1774=DIRECTION('',(-2.27504718160893E-16,1.,0.));
#1775=DIRECTION('',(1.,2.27504718160893E-16,0.));
#1776=DIRECTION('',(-2.27504718160893E-16,1.,0.));
#1777=DIRECTION('',(-1.,-2.27504718160893E-16,0.));
#1778=DIRECTION('',(2.27504718160893E-16,-1.,0.));
#1779=DIRECTION('',(1.,2.27504718160893E-16,0.));
#1780=DIRECTION('',(-2.27504718160893E-16,1.,0.));
#1781=DIRECTION('',(-2.27504718160893E-16,1.,-1.31989829693884E-14));
#1782=DIRECTION('',(0.,1.31989829693884E-14,1.));
#1783=DIRECTION('',(-1.,-2.27504718160893E-16,0.));
#1784=DIRECTION('',(3.00283090046114E-30,-1.31989829693884E-14,-1.));
#1785=DIRECTION('',(-1.,-2.27504718160893E-16,0.));
#1786=DIRECTION('',(2.27504718160893E-16,-1.,0.));
#1787=DIRECTION('',(-1.,-2.27504718160893E-16,0.));
#1788=DIRECTION('',(1.,2.27504718160893E-16,0.));
#1789=DIRECTION('',(-2.27504718160893E-16,1.,0.));
#1790=DIRECTION('',(3.08862606904568E-30,-1.35760967685135E-14,-1.));
#1791=DIRECTION('',(0.,1.,-1.35760967685135E-14));
#1792=DIRECTION('',(2.27504718160893E-16,-1.,1.35760967685135E-14));
#1793=DIRECTION('',(-1.,-2.27504718160893E-16,0.));
#1794=DIRECTION('',(2.27504718160893E-16,-1.,0.));
#1795=DIRECTION('',(1.,2.27504718160893E-16,0.));
#1796=DIRECTION('',(-2.27504718160893E-16,1.,0.));
#1797=DIRECTION('',(1.,2.27504718160893E-16,0.));
#1798=DIRECTION('',(-2.27504718160893E-16,1.,0.));
#1799=DIRECTION('',(1.,2.27504718160893E-16,0.));
#1800=DIRECTION('',(-2.27504718160893E-16,1.,0.));
#1801=DIRECTION('',(1.,2.27504718160893E-16,0.));
#1802=DIRECTION('',(-2.27504718160893E-16,1.,0.));
#1803=DIRECTION('',(1.,2.27504718160893E-16,0.));
#1804=DIRECTION('',(-2.27504718160893E-16,1.,0.));
#1805=DIRECTION('',(2.27504718160893E-16,-1.,0.));
#1806=DIRECTION('',(1.,2.27504718160893E-16,0.));
#1807=DIRECTION('',(2.27504718160893E-16,-1.,0.));
#1808=DIRECTION('',(1.,2.27504718160893E-16,0.));
#1809=CARTESIAN_POINT('',(0.,0.,0.));
#1810=CARTESIAN_POINT('',(0.0549707225233769,-0.0129,-0.0233688798319159));
#1811=CARTESIAN_POINT('',(0.0539707225233769,-0.0129,-0.0231819478461287));
#1812=CARTESIAN_POINT('',(0.0539707225233769,-0.0129,-0.0231819478461287));
#1813=CARTESIAN_POINT('',(0.0494707225233769,-0.0129,-0.0231819478461287));
#1814=CARTESIAN_POINT('',(0.0539707225233769,-0.0129,-0.021255811817703));
#1815=CARTESIAN_POINT('',(0.0539707225233769,-0.0129,-0.018255811817703));
#1816=CARTESIAN_POINT('',(0.0539707225233769,-0.0129,-0.018255811817703));
#1817=CARTESIAN_POINT('',(0.0494707225233769,-0.0129,-0.018255811817703));
#1818=CARTESIAN_POINT('',(0.0494707225233769,-0.0129,-0.0233688798319159));
#1819=CARTESIAN_POINT('',(0.0494707225233769,-0.0129,-0.00305581181770329));
#1820=CARTESIAN_POINT('',(0.0539707225233769,-0.0129,-0.00305581181770329));
#1821=CARTESIAN_POINT('',(0.0539707225233769,-0.0129,-0.00305581181770329));
#1822=CARTESIAN_POINT('',(0.0539707225233769,-0.0129,-5.58118177032829E-5));
#1823=CARTESIAN_POINT('',(0.0539707225233769,-0.0129,0.00187032421072244));
#1824=CARTESIAN_POINT('',(0.0539707225233769,-0.0129,0.00187032421072244));
#1825=CARTESIAN_POINT('',(0.0494707225233769,-0.0129,0.00187032421072244));
#1826=CARTESIAN_POINT('',(0.0494707225233769,-0.0129,-0.0233688798319159));
#1827=CARTESIAN_POINT('',(0.0494707225233769,-0.0129,0.00224418818229682));
#1828=CARTESIAN_POINT('',(0.0549707225233769,-0.0129,0.00224418818229682));
#1829=CARTESIAN_POINT('',(0.0549707225233769,-0.0129,0.00224418818229682));
#1830=CARTESIAN_POINT('',(0.0549707225233769,-0.0129,-0.0233688798319159));
#1831=CARTESIAN_POINT('',(0.0549707225233769,-0.0129,-0.0235558118177032));
#1832=CARTESIAN_POINT('',(0.0549707225233769,-0.0129,-0.0235558118177032));
#1833=CARTESIAN_POINT('',(0.0494707225233769,-0.0129,-0.0235558118177032));
#1834=CARTESIAN_POINT('',(0.0494707225233769,-0.0129,-0.0233688798319159));
#1835=CARTESIAN_POINT('',(0.0549707225233769,-0.0127130680142128,0.00224418818229682));
#1836=CARTESIAN_POINT('',(0.0539707225233769,0.00760000000000029,0.00224418818229671));
#1837=CARTESIAN_POINT('',(0.0539707225233769,0.00760000000000029,0.00224418818229671));
#1838=CARTESIAN_POINT('',(0.0494707225233769,0.00760000000000019,0.00224418818229682));
#1839=CARTESIAN_POINT('',(0.0539707225233769,0.00813693198578742,0.00224418818229682));
#1840=CARTESIAN_POINT('',(0.0539707225233769,0.0129,0.00224418818229682));
#1841=CARTESIAN_POINT('',(0.0549707225233769,0.0129,0.00224418818229682));
#1842=CARTESIAN_POINT('',(0.0549707225233769,0.0129,0.00224418818229682));
#1843=CARTESIAN_POINT('',(0.0549707225233769,-0.0127130680142128,0.00224418818229682));
#1844=CARTESIAN_POINT('',(0.0494707225233769,-0.0127130680142128,0.00224418818229682));
#1845=CARTESIAN_POINT('',(0.0494707225233769,-0.0125261360284256,0.00224418818229682));
#1846=CARTESIAN_POINT('',(0.0539707225233769,-0.0125261360284256,0.00224418818229682));
#1847=CARTESIAN_POINT('',(0.0539707225233769,-0.0125261360284256,0.00224418818229682));
#1848=CARTESIAN_POINT('',(0.0539707225233769,-0.0106,0.00224418818229682));
#1849=CARTESIAN_POINT('',(0.0539707225233769,-0.0076,0.00224418818229682));
#1850=CARTESIAN_POINT('',(0.0539707225233769,-0.0076,0.00224418818229682));
#1851=CARTESIAN_POINT('',(0.0494707225233769,-0.0076,0.00224418818229682));
#1852=CARTESIAN_POINT('',(0.0494707225233769,-0.0127130680142128,0.00224418818229682));
#1853=CARTESIAN_POINT('',(0.0494707225233769,0.023752,-0.0293969144402723));
#1854=CARTESIAN_POINT('',(0.0494707225233769,-0.0105999999999997,-0.0212558118177029));
#1855=CARTESIAN_POINT('',(0.0494707225233769,-0.0125261360284254,-0.0235558118177032));
#1856=CARTESIAN_POINT('',(0.0494707225233769,0.0127130680142128,-0.0235558118177032));
#1857=CARTESIAN_POINT('',(0.0494707225233769,0.023752,-0.0293969144402723));
#1858=CARTESIAN_POINT('',(0.0494707225233769,-0.01175,-0.018255811817703));
#1859=CARTESIAN_POINT('',(0.0494707225233769,-0.0105999999999999,-0.018255811817703));
#1860=CARTESIAN_POINT('',(0.0494707225233769,-0.0105999999999999,-0.021255811817703));
#1861=CARTESIAN_POINT('',(0.0494707225233769,-0.00759999999999987,-0.0212558118177031));
#1862=CARTESIAN_POINT('',(0.0494707225233769,-0.0075999999999999,-0.0224058118177031));
#1863=CARTESIAN_POINT('',(0.0494707225233769,-0.00759999999999991,-0.0235558118177031));
#1864=CARTESIAN_POINT('',(0.0494707225233769,0.0127130680142128,-0.0235558118177032));
#1865=CARTESIAN_POINT('',(0.0494707225233769,0.0129,-0.0235558118177032));
#1866=CARTESIAN_POINT('',(0.0494707225233769,0.0129,-0.0025188798319164));
#1867=CARTESIAN_POINT('',(0.0494707225233769,0.0129000000000003,-0.00305581181770346));
#1868=CARTESIAN_POINT('',(0.0494707225233769,0.0117500000000002,-0.00305581181770344));
#1869=CARTESIAN_POINT('',(0.0494707225233769,0.0106,-0.00305581181770342));
#1870=CARTESIAN_POINT('',(0.0494707225233769,0.0106,-5.58118177034228E-5));
#1871=CARTESIAN_POINT('',(0.0494707225233769,0.0076,-5.58118177034213E-5));
#1872=CARTESIAN_POINT('',(0.0494707225233769,0.00760000000000028,0.00109418818229667));
#1873=CARTESIAN_POINT('',(0.0494707225233769,-0.0076,0.00109418818229677));
#1874=CARTESIAN_POINT('',(0.0494707225233769,-0.0076,-5.58118177032829E-5));
#1875=CARTESIAN_POINT('',(0.0494707225233769,-0.0106,-5.58118177032851E-5));
#1876=CARTESIAN_POINT('',(0.0494707225233769,-0.0106,-0.00305581181770329));
#1877=CARTESIAN_POINT('',(0.0494707225233769,-0.01175,-0.00305581181770329));
#1878=CARTESIAN_POINT('',(0.0494707225233769,0.023752,-0.0293969144402723));
#1879=CARTESIAN_POINT('',(0.0494707225233769,-0.0106,-5.58118177031218E-5));
#1880=CARTESIAN_POINT('',(0.0494707225233769,0.023752,-0.0293969144402723));
#1881=CARTESIAN_POINT('',(0.0494707225233769,-0.02375,-0.0293969144402723));
#1882=CARTESIAN_POINT('',(0.0494707225233769,-0.02375,-0.0276910984629823));
#1883=CARTESIAN_POINT('',(0.0494707225233769,-0.02375,0.00582598846298223));
#1884=CARTESIAN_POINT('',(0.0494707225233769,0.023752,-0.0276910984629823));
#1885=CARTESIAN_POINT('',(0.0494707225233769,0.02375,-0.0276910984629823));
#1886=CARTESIAN_POINT('',(0.0494707225233769,0.02375,-0.0293969144402723));
#1887=CARTESIAN_POINT('',(0.0494707225233769,0.02375,0.00582598846298223));
#1888=CARTESIAN_POINT('',(0.0494707225233769,0.023752,0.00582598846298223));
#1889=CARTESIAN_POINT('',(0.0494707225233769,-0.0147,-0.0106558118177032));
#1890=CARTESIAN_POINT('',(0.0494707225233769,-0.0147,0.00404418818229682));
#1891=CARTESIAN_POINT('',(0.0494707225233769,-0.0147,-0.0253558118177032));
#1892=CARTESIAN_POINT('',(0.0494707225233769,5.20417042793042E-18,0.00404418818229682));
#1893=CARTESIAN_POINT('',(0.0494707225233769,0.0147,0.00404418818229682));
#1894=CARTESIAN_POINT('',(0.0494707225233769,0.0147,-0.0106558118177032));
#1895=CARTESIAN_POINT('',(0.0494707225233769,0.0147,-0.0253558118177032));
#1896=CARTESIAN_POINT('',(0.0494707225233769,1.56125112837912E-17,-0.0253558118177032));
#1897=CARTESIAN_POINT('',(0.,0.,0.));
#1898=CARTESIAN_POINT('',(-0.01525,-3.46944695195361E-18,0.));
#1899=CARTESIAN_POINT('',(-0.01525,-0.02375,0.));
#1900=CARTESIAN_POINT('',(-0.01525,0.02075,0.));
#1901=CARTESIAN_POINT('',(-0.01225,0.02075,0.));
#1902=CARTESIAN_POINT('',(-0.01225,0.02375,0.));
#1903=CARTESIAN_POINT('',(3.46944695195361E-18,0.02375,0.));
#1904=CARTESIAN_POINT('',(0.03525000000124,0.02375,2.88902939118331E-18));
#1905=CARTESIAN_POINT('',(0.03525000000124,0.023752,2.88902939118331E-18));
#1906=CARTESIAN_POINT('',(0.03525000000124,0.01675,2.90818762844708E-18));
#1907=CARTESIAN_POINT('',(0.02175000000124,0.01675,3.67165298587019E-19));
#1908=CARTESIAN_POINT('',(0.02175000000124,0.01675,3.67165298587019E-19));
#1909=CARTESIAN_POINT('',(0.02175000000124,0.023752,3.48007061323243E-19));
#1910=CARTESIAN_POINT('',(0.02175000000124,-0.01675,0.));
#1911=CARTESIAN_POINT('',(0.02175000000124,-0.01675,3.67165298587019E-19));
#1912=CARTESIAN_POINT('',(0.03525000000124,-0.01675,2.90818762844708E-18));
#1913=CARTESIAN_POINT('',(0.03525000000124,0.023752,2.88902939118331E-18));
#1914=CARTESIAN_POINT('',(0.03525000000124,-0.02375,2.88902939118331E-18));
#1915=CARTESIAN_POINT('',(0.,-0.02375,0.));
#1916=CARTESIAN_POINT('',(0.03525000000124,0.023752,-0.018432555));
#1917=CARTESIAN_POINT('',(0.03525000000124,-0.01675,-0.01786511));
#1918=CARTESIAN_POINT('',(0.03525000000124,-0.01675,-0.03686511));
#1919=CARTESIAN_POINT('',(0.03525000000124,0.023752,-0.03686511));
#1920=CARTESIAN_POINT('',(0.03525000000124,-0.02375,-0.03686511));
#1921=CARTESIAN_POINT('',(0.03525000000124,-0.02375,-0.018432555));
#1922=CARTESIAN_POINT('',(0.03525000000124,0.023752,-0.018432555));
#1923=CARTESIAN_POINT('',(0.03525000000124,0.01675,-0.01786511));
#1924=CARTESIAN_POINT('',(0.03525000000124,0.01675,-0.03686511));
#1925=CARTESIAN_POINT('',(0.03525000000124,0.02375,-0.018432555));
#1926=CARTESIAN_POINT('',(0.03525000000124,0.02375,-0.03686511));
#1927=CARTESIAN_POINT('',(0.03525000000124,0.023752,-0.03686511));
#1928=CARTESIAN_POINT('',(-0.01525,-3.46944695195361E-18,0.01));
#1929=CARTESIAN_POINT('',(-0.01525,-3.46944695195361E-18,0.015));
#1930=CARTESIAN_POINT('',(-0.01525,-0.02375,0.015));
#1931=CARTESIAN_POINT('',(-0.01525,0.02075,0.015));
#1932=CARTESIAN_POINT('',(-0.01525,0.02075,0.));
#1933=CARTESIAN_POINT('',(-0.01525,-0.02375,0.01));
#1934=CARTESIAN_POINT('',(0.,-0.02375,0.01));
#1935=CARTESIAN_POINT('',(0.0423603612623085,-0.02375,-0.03686511));
#1936=CARTESIAN_POINT('',(0.0402967109863591,-0.02375,-0.03686511));
#1937=CARTESIAN_POINT('',(0.0402967109863591,-0.02375,-0.0276910984629823));
#1938=CARTESIAN_POINT('',(0.0402967109863591,-0.02375,0.00582598846298223));
#1939=CARTESIAN_POINT('',(0.0402967109863591,-0.02375,0.015));
#1940=CARTESIAN_POINT('',(0.,-0.02375,0.015));
#1941=CARTESIAN_POINT('',(3.46944695195361E-18,0.02375,0.01));
#1942=CARTESIAN_POINT('',(0.0402967109863591,0.02375,-0.0276910984629823));
#1943=CARTESIAN_POINT('',(0.0402967109863591,0.02375,-0.03686511));
#1944=CARTESIAN_POINT('',(0.0423603612623085,0.02375,-0.03686511));
#1945=CARTESIAN_POINT('',(-0.01225,0.02375,0.015));
#1946=CARTESIAN_POINT('',(-0.01225,0.02375,0.015));
#1947=CARTESIAN_POINT('',(3.46944695195361E-18,0.02375,0.015));
#1948=CARTESIAN_POINT('',(0.0402967109863591,0.02375,0.015));
#1949=CARTESIAN_POINT('',(0.0402967109863591,0.02375,0.00582598846298223));
#1950=CARTESIAN_POINT('',(-1.7347234759768E-18,-0.02075,0.015));
#1951=CARTESIAN_POINT('',(0.01225,-0.02075,0.015));
#1952=CARTESIAN_POINT('',(0.01225,-0.02075,0.015));
#1953=CARTESIAN_POINT('',(0.01225,-0.02075,0.012));
#1954=CARTESIAN_POINT('',(-1.7347234759768E-18,-0.02075,0.012));
#1955=CARTESIAN_POINT('',(-0.01225,-0.02075,0.012));
#1956=CARTESIAN_POINT('',(-0.01225,-0.02075,0.015));
#1957=CARTESIAN_POINT('',(-0.01225,-0.02075,0.015));
#1958=CARTESIAN_POINT('',(-1.7347234759768E-18,-0.02075,0.015));
#1959=CARTESIAN_POINT('',(-0.01225,0.,0.015));
#1960=CARTESIAN_POINT('',(-0.01225,0.,0.012));
#1961=CARTESIAN_POINT('',(-0.01225,0.02075,0.012));
#1962=CARTESIAN_POINT('',(-0.01225,0.02075,0.015));
#1963=CARTESIAN_POINT('',(-0.01225,0.02075,0.015));
#1964=CARTESIAN_POINT('',(-0.01225,0.,0.015));
#1965=CARTESIAN_POINT('',(3.46944695195361E-18,0.02075,0.015));
#1966=CARTESIAN_POINT('',(3.46944695195361E-18,0.02075,0.012));
#1967=CARTESIAN_POINT('',(0.01225,0.02075,0.012));
#1968=CARTESIAN_POINT('',(0.01225,0.02075,0.015));
#1969=CARTESIAN_POINT('',(0.01225,0.02075,0.015));
#1970=CARTESIAN_POINT('',(3.46944695195361E-18,0.02075,0.015));
#1971=CARTESIAN_POINT('',(0.01225,0.,0.015));
#1972=CARTESIAN_POINT('',(0.01225,0.,0.012));
#1973=CARTESIAN_POINT('',(0.01225,0.,0.015));
#1974=CARTESIAN_POINT('',(0.,0.,0.015));
#1975=CARTESIAN_POINT('',(0.0402967109863591,9.16769187576258E-18,0.015));
#1976=CARTESIAN_POINT('',(-0.01225,0.02075,0.015));
#1977=CARTESIAN_POINT('',(0.0423603612623085,0.023752,-0.03686511));
#1978=CARTESIAN_POINT('',(0.03200000000124,0.011,-0.03686511));
#1979=CARTESIAN_POINT('',(0.03460000000124,0.011,-0.03686511));
#1980=CARTESIAN_POINT('',(0.03200000000124,-0.011,-0.03686511));
#1981=CARTESIAN_POINT('',(0.03460000000124,-0.011,-0.03686511));
#1982=CARTESIAN_POINT('',(0.0402967109863591,0.023752,-0.03686511));
#1983=CARTESIAN_POINT('',(0.02175000000124,-0.01675,-0.03686511));
#1984=CARTESIAN_POINT('',(0.01825000000124,-0.01675,-0.03686511));
#1985=CARTESIAN_POINT('',(0.01825000000124,-0.01375,-0.03686511));
#1986=CARTESIAN_POINT('',(0.01525000000124,-0.01375,-0.03686511));
#1987=CARTESIAN_POINT('',(0.01525000000124,0.023752,-0.03686511));
#1988=CARTESIAN_POINT('',(0.01525000000124,0.01375,-0.03686511));
#1989=CARTESIAN_POINT('',(0.01825000000124,0.01375,-0.03686511));
#1990=CARTESIAN_POINT('',(0.01825000000124,0.01675,-0.03686511));
#1991=CARTESIAN_POINT('',(0.02175000000124,0.01675,-0.03686511));
#1992=CARTESIAN_POINT('',(0.02175000000124,-0.0145,-0.01786511));
#1993=CARTESIAN_POINT('',(0.03525000000124,-0.0145,-0.01786511));
#1994=CARTESIAN_POINT('',(0.03525000000124,-0.0145,-0.03511511));
#1995=CARTESIAN_POINT('',(0.03525000000124,-0.0145,-0.000615109999999977));
#1996=CARTESIAN_POINT('',(0.02175000000124,-0.0145,-0.03511511));
#1997=CARTESIAN_POINT('',(0.02175000000124,-0.0145,-0.03511511));
#1998=CARTESIAN_POINT('',(0.02175000000124,-0.0145,-0.01786511));
#1999=CARTESIAN_POINT('',(0.02175000000124,-0.0145,-0.00061510999999998));
#2000=CARTESIAN_POINT('',(0.02175000000124,-0.0145,-0.00061510999999998));
#2001=CARTESIAN_POINT('',(0.02175000000124,5.60230368471198E-18,-0.03511511));
#2002=CARTESIAN_POINT('',(0.03200000000124,0.011,-0.03511511));
#2003=CARTESIAN_POINT('',(0.03335000000124,0.011,-0.03511511));
#2004=CARTESIAN_POINT('',(0.03200000000124,-0.011,-0.03511511));
#2005=CARTESIAN_POINT('',(0.03335000000124,-0.011,-0.03511511));
#2006=CARTESIAN_POINT('',(0.01525000000124,0.01675,-0.03511511));
#2007=CARTESIAN_POINT('',(0.01825000000124,0.01675,-0.03511511));
#2008=CARTESIAN_POINT('',(0.02175000000124,0.01675,-0.03511511));
#2009=CARTESIAN_POINT('',(0.01825000000124,0.01375,-0.03511511));
#2010=CARTESIAN_POINT('',(0.01525000000124,0.01375,-0.03511511));
#2011=CARTESIAN_POINT('',(0.01525000000124,-0.015625,-0.03511511));
#2012=CARTESIAN_POINT('',(0.01525000000124,-0.01375,-0.03511511));
#2013=CARTESIAN_POINT('',(0.01825000000124,-0.01375,-0.03511511));
#2014=CARTESIAN_POINT('',(0.01825000000124,-0.01675,-0.03511511));
#2015=CARTESIAN_POINT('',(0.01525000000124,-0.01675,-0.03511511));
#2016=CARTESIAN_POINT('',(0.02175000000124,-0.01675,-0.03511511));
#2017=CARTESIAN_POINT('',(0.02175000000124,4.94822762028152E-18,-0.03511511));
#2018=CARTESIAN_POINT('',(0.03525000000124,8.67361737988404E-18,-0.03511511));
#2019=CARTESIAN_POINT('',(0.03525000000124,0.0145,-0.03511511));
#2020=CARTESIAN_POINT('',(0.02175000000124,0.0145,-0.03511511));
#2021=CARTESIAN_POINT('',(0.02175000000124,0.0145,-0.03511511));
#2022=CARTESIAN_POINT('',(0.02175000000124,4.94822762028152E-18,-0.03511511));
#2023=CARTESIAN_POINT('',(0.02175000000124,0.0145,-0.01786511));
#2024=CARTESIAN_POINT('',(0.03525000000124,0.0145,-0.01786511));
#2025=CARTESIAN_POINT('',(0.03525000000124,0.0145,-0.000615109999999988));
#2026=CARTESIAN_POINT('',(0.02175000000124,0.0145,-0.000615109999999991));
#2027=CARTESIAN_POINT('',(0.02175000000124,0.0145,-0.000615109999999991));
#2028=CARTESIAN_POINT('',(0.02175000000124,0.0145,-0.01786511));
#2029=CARTESIAN_POINT('',(0.02175000000124,-0.01675,-0.01786511));
#2030=CARTESIAN_POINT('',(0.01825000000124,-0.01675,-0.01786511));
#2031=CARTESIAN_POINT('',(0.02175000000124,-0.01675,-0.01786511));
#2032=CARTESIAN_POINT('',(0.02175000000124,0.01675,-0.01786511));
#2033=CARTESIAN_POINT('',(0.01825000000124,0.01675,-0.03511511));
#2034=CARTESIAN_POINT('',(0.02175000000124,0.01675,-0.01786511));
#2035=CARTESIAN_POINT('',(0.02175000000124,1.51432828025844E-17,-0.000615109999999986));
#2036=CARTESIAN_POINT('',(0.03525000000124,1.82145964977565E-17,-0.000615109999999984));
#2037=CARTESIAN_POINT('',(0.02175000000124,1.51432828025844E-17,-0.000615109999999986));
#2038=CARTESIAN_POINT('',(0.02175000000124,4.94822762028152E-18,-0.01786511));
#2039=CARTESIAN_POINT('',(0.03525000000124,0.023752,-0.018432555));
#2040=CARTESIAN_POINT('',(0.01525000000124,3.46944695223572E-18,-0.01786511));
#2041=CARTESIAN_POINT('',(0.01525000000124,0.01375,-0.03686511));
#2042=CARTESIAN_POINT('',(0.01525000000124,-0.01375,-0.01786511));
#2043=CARTESIAN_POINT('',(0.03200000000124,-0.011,-0.03686511));
#2044=CARTESIAN_POINT('',(0.03200000000124,-0.011,-0.03561511));
#2045=CARTESIAN_POINT('',(0.03335000000124,-0.011,-0.03561511));
#2046=CARTESIAN_POINT('',(0.03200000000124,-0.011,-0.03686511));
#2047=CARTESIAN_POINT('',(0.03200000000124,0.011,-0.03686511));
#2048=CARTESIAN_POINT('',(0.03200000000124,0.011,-0.03561511));
#2049=CARTESIAN_POINT('',(0.03335000000124,0.011,-0.03561511));
#2050=CARTESIAN_POINT('',(0.03200000000124,0.011,-0.03686511));
#2051=CARTESIAN_POINT('',(0.,0.,0.012));
#2052=CARTESIAN_POINT('',(-0.006,-0.012,0.012));
#2053=CARTESIAN_POINT('',(-0.003815,-0.012,0.012));
#2054=CARTESIAN_POINT('',(0.006,-0.012,0.012));
#2055=CARTESIAN_POINT('',(0.008185,-0.012,0.012));
#2056=CARTESIAN_POINT('',(0.006,0.012,0.012));
#2057=CARTESIAN_POINT('',(0.008185,0.012,0.012));
#2058=CARTESIAN_POINT('',(-0.006,0.012,0.012));
#2059=CARTESIAN_POINT('',(-0.003815,0.012,0.012));
#2060=CARTESIAN_POINT('',(-0.006,-0.012,0.012));
#2061=CARTESIAN_POINT('',(-0.006,-0.012,0.00916052277016105));
#2062=CARTESIAN_POINT('',(-0.0042140625,-0.012,0.00916052277016105));
#2063=CARTESIAN_POINT('',(0.006,-0.012,0.012));
#2064=CARTESIAN_POINT('',(0.006,-0.012,0.00916052277016105));
#2065=CARTESIAN_POINT('',(0.0077859375,-0.012,0.00916052277016105));
#2066=CARTESIAN_POINT('',(0.006,0.012,0.012));
#2067=CARTESIAN_POINT('',(0.006,0.012,0.00916052277016105));
#2068=CARTESIAN_POINT('',(0.0077859375,0.012,0.00916052277016105));
#2069=CARTESIAN_POINT('',(-0.006,0.012,0.012));
#2070=CARTESIAN_POINT('',(-0.006,0.012,0.00916052277016105));
#2071=CARTESIAN_POINT('',(-0.0042140625,0.012,0.00916052277016105));
#2072=CARTESIAN_POINT('',(0.,0.,0.00825));
#2073=CARTESIAN_POINT('',(-0.006,-0.012,0.00825));
#2074=CARTESIAN_POINT('',(-0.0042140625,-0.012,0.00825));
#2075=CARTESIAN_POINT('',(-0.006,-0.012,0.00825));
#2076=CARTESIAN_POINT('',(0.,0.,0.00825));
#2077=CARTESIAN_POINT('',(0.006,-0.012,0.00825));
#2078=CARTESIAN_POINT('',(0.0077859375,-0.012,0.00825));
#2079=CARTESIAN_POINT('',(0.006,-0.012,0.00825));
#2080=CARTESIAN_POINT('',(0.,0.,0.00825));
#2081=CARTESIAN_POINT('',(0.006,0.012,0.00825));
#2082=CARTESIAN_POINT('',(0.0077859375,0.012,0.00825));
#2083=CARTESIAN_POINT('',(0.006,0.012,0.00825));
#2084=CARTESIAN_POINT('',(0.,0.,0.00825));
#2085=CARTESIAN_POINT('',(-0.006,0.012,0.00825));
#2086=CARTESIAN_POINT('',(-0.0042140625,0.012,0.00825));
#2087=CARTESIAN_POINT('',(-0.006,0.012,0.00825));
#2088=CARTESIAN_POINT('',(0.01825000000124,0.01375,-0.01786511));
#2089=CARTESIAN_POINT('',(0.01825000000124,-0.01375,-0.01786511));
#2090=CARTESIAN_POINT('',(-0.01225,0.02075,0.01));
#2091=CARTESIAN_POINT('',(0.0549707225233769,6.45544637781533E-18,0.00404418818229682));
#2092=CARTESIAN_POINT('',(0.0549707225233769,-0.0147,0.00404418818229682));
#2093=CARTESIAN_POINT('',(0.0549707225233769,-0.0147,0.00404418818229682));
#2094=CARTESIAN_POINT('',(0.0549707225233769,6.45544637781533E-18,0.00404418818229682));
#2095=CARTESIAN_POINT('',(0.0549707225233769,0.0147,0.00404418818229682));
#2096=CARTESIAN_POINT('',(0.0549707225233769,0.0147,0.00404418818229682));
#2097=CARTESIAN_POINT('',(0.0549707225233769,-0.0147,-0.0106558118177032));
#2098=CARTESIAN_POINT('',(0.0549707225233769,-0.0147,-0.0253558118177032));
#2099=CARTESIAN_POINT('',(0.0549707225233769,-0.0147,-0.0253558118177032));
#2100=CARTESIAN_POINT('',(0.0549707225233769,-0.0147,-0.0106558118177032));
#2101=CARTESIAN_POINT('',(0.0549707225233769,1.68637872336762E-17,-0.0253558118177032));
#2102=CARTESIAN_POINT('',(0.0549707225233769,0.0147,-0.0253558118177032));
#2103=CARTESIAN_POINT('',(0.0549707225233769,0.0147,-0.0253558118177032));
#2104=CARTESIAN_POINT('',(0.0549707225233769,1.68637872336762E-17,-0.0253558118177032));
#2105=CARTESIAN_POINT('',(0.0549707225233769,0.0129,-0.0025188798319164));
#2106=CARTESIAN_POINT('',(0.0539707225233769,0.0129,-5.58118177034215E-5));
#2107=CARTESIAN_POINT('',(0.0539707225233769,0.0129000000000003,-0.00305581181770346));
#2108=CARTESIAN_POINT('',(0.0539707225233769,0.0129000000000003,-0.00305581181770346));
#2109=CARTESIAN_POINT('',(0.0549707225233769,0.0129,-0.0235558118177032));
#2110=CARTESIAN_POINT('',(0.0549707225233769,0.0129,-0.0235558118177032));
#2111=CARTESIAN_POINT('',(0.0549707225233769,0.0129,-0.0025188798319164));
#2112=CARTESIAN_POINT('',(0.0549707225233769,0.0127130680142128,-0.0235558118177032));
#2113=CARTESIAN_POINT('',(0.0539707225233769,-0.00759999999999991,-0.0235558118177031));
#2114=CARTESIAN_POINT('',(0.0539707225233769,-0.00759999999999991,-0.0235558118177031));
#2115=CARTESIAN_POINT('',(0.0539707225233769,-0.0105999999999999,-0.0235558118177032));
#2116=CARTESIAN_POINT('',(0.0539707225233769,-0.0125261360284254,-0.0235558118177032));
#2117=CARTESIAN_POINT('',(0.0539707225233769,-0.0125261360284254,-0.0235558118177032));
#2118=CARTESIAN_POINT('',(0.0549707225233769,0.0127130680142128,-0.0235558118177032));
#2119=CARTESIAN_POINT('',(0.0549707225233769,0.0147,-0.0106558118177032));
#2120=CARTESIAN_POINT('',(0.0549707225233769,0.0147,-0.0106558118177032));
#2121=CARTESIAN_POINT('',(0.0549707225233769,1.25060987347815E-17,0.006117445));
#2122=CARTESIAN_POINT('',(0.0539707225233769,-0.01175,-0.00305581181770329));
#2123=CARTESIAN_POINT('',(0.0539707225233769,-0.0106,-0.00305581181770329));
#2124=CARTESIAN_POINT('',(0.0539707225233769,-0.0106,-0.00305581181770329));
#2125=CARTESIAN_POINT('',(0.0539707225233769,-0.01175,-0.00305581181770329));
#2126=CARTESIAN_POINT('',(0.0539707225233769,-0.0106,-5.58118177032851E-5));
#2127=CARTESIAN_POINT('',(0.0539707225233769,-0.0076,-5.58118177032829E-5));
#2128=CARTESIAN_POINT('',(0.0539707225233769,-0.0076,-5.58118177032829E-5));
#2129=CARTESIAN_POINT('',(0.0539707225233769,-0.0106,-5.58118177032851E-5));
#2130=CARTESIAN_POINT('',(0.0539707225233769,-0.0076,0.00109418818229677));
#2131=CARTESIAN_POINT('',(0.0539707225233769,-0.0076,0.00109418818229677));
#2132=CARTESIAN_POINT('',(0.0539707225233769,-0.0106,-5.58118177031218E-5));
#2133=CARTESIAN_POINT('',(0.0539707225233769,-0.0106,-5.58118177031218E-5));
#2134=CARTESIAN_POINT('',(0.0539707225233769,-0.0106,-5.5811817703283E-5));
#2135=CARTESIAN_POINT('',(0.0539707225233769,-0.0106,-5.5811817703283E-5));
#2136=CARTESIAN_POINT('',(0.0539707225233769,-0.009,-5.5811817703283E-5));
#2137=CARTESIAN_POINT('',(0.0494707225233769,-0.0106,-5.5811817703283E-5));
#2138=CARTESIAN_POINT('',(0.0494707225233769,-0.009,-5.5811817703283E-5));
#2139=CARTESIAN_POINT('',(0.0539707225233769,1.22785940166206E-17,0.006117445));
#2140=CARTESIAN_POINT('',(0.0494707225233769,0.023752,-0.0293969144402723));
#2141=CARTESIAN_POINT('',(0.0539707225233769,0.0117500000000002,-0.00305581181770344));
#2142=CARTESIAN_POINT('',(0.0539707225233769,0.0117500000000002,-0.00305581181770344));
#2143=CARTESIAN_POINT('',(0.0539707225233769,0.0106,-0.00305581181770342));
#2144=CARTESIAN_POINT('',(0.0539707225233769,0.0106,-0.00305581181770342));
#2145=CARTESIAN_POINT('',(0.0539707225233769,0.00760000000000028,0.00109418818229667));
#2146=CARTESIAN_POINT('',(0.0539707225233769,0.0076,-5.58118177034213E-5));
#2147=CARTESIAN_POINT('',(0.0539707225233769,0.0076,-5.58118177034213E-5));
#2148=CARTESIAN_POINT('',(0.0539707225233769,0.00760000000000028,0.00109418818229667));
#2149=CARTESIAN_POINT('',(0.0539707225233769,0.0106,-5.58118177034228E-5));
#2150=CARTESIAN_POINT('',(0.0539707225233769,0.0106,-5.58118177034228E-5));
#2151=CARTESIAN_POINT('',(0.0539707225233769,0.0106,-5.58118177034214E-5));
#2152=CARTESIAN_POINT('',(0.0539707225233769,0.0106,-5.58118177034214E-5));
#2153=CARTESIAN_POINT('',(0.0539707225233769,0.0122,-5.58118177034214E-5));
#2154=CARTESIAN_POINT('',(0.0494707225233769,0.0106,-5.58118177034214E-5));
#2155=CARTESIAN_POINT('',(0.0494707225233769,0.0122,-5.58118177034214E-5));
#2156=CARTESIAN_POINT('',(0.0539707225233769,1.22785940166206E-17,0.006117445));
#2157=CARTESIAN_POINT('',(0.0539707225233769,-0.0105999999999997,-0.0212558118177029));
#2158=CARTESIAN_POINT('',(0.0539707225233769,-0.0105999999999997,-0.0212558118177029));
#2159=CARTESIAN_POINT('',(0.0539707225233769,-0.0075999999999999,-0.0224058118177031));
#2160=CARTESIAN_POINT('',(0.0539707225233769,-0.00759999999999987,-0.0212558118177031));
#2161=CARTESIAN_POINT('',(0.0539707225233769,-0.00759999999999987,-0.0212558118177031));
#2162=CARTESIAN_POINT('',(0.0539707225233769,-0.0075999999999999,-0.0224058118177031));
#2163=CARTESIAN_POINT('',(0.0539707225233769,-0.0105999999999999,-0.021255811817703));
#2164=CARTESIAN_POINT('',(0.0539707225233769,-0.0105999999999999,-0.018255811817703));
#2165=CARTESIAN_POINT('',(0.0539707225233769,-0.0105999999999999,-0.018255811817703));
#2166=CARTESIAN_POINT('',(0.0539707225233769,-0.0105999999999999,-0.021255811817703));
#2167=CARTESIAN_POINT('',(0.0539707225233769,-0.01175,-0.018255811817703));
#2168=CARTESIAN_POINT('',(0.0539707225233769,-0.01175,-0.018255811817703));
#2169=CARTESIAN_POINT('',(0.0539707225233769,-0.0105999999999998,-0.0212558118177033));
#2170=CARTESIAN_POINT('',(0.0539707225233769,-0.0105999999999998,-0.0212558118177033));
#2171=CARTESIAN_POINT('',(0.0539707225233769,-0.00899999999999976,-0.0212558118177033));
#2172=CARTESIAN_POINT('',(0.0494707225233769,-0.0105999999999998,-0.0212558118177033));
#2173=CARTESIAN_POINT('',(0.0494707225233769,-0.00899999999999976,-0.0212558118177033));
#2174=CARTESIAN_POINT('',(0.0539707225233769,1.22785940166206E-17,0.006117445));
#2175=CARTESIAN_POINT('',(0.0494707225233769,0.023752,-0.0293969144402723));
#2176=CARTESIAN_POINT('',(0.0494707225233769,0.023752,-0.0293969144402723));
#2177=CARTESIAN_POINT('',(0.0402967109863591,0.023752,-0.0276910984629823));
#2178=CARTESIAN_POINT('',(0.0402967109863591,0.023752,0.00582598846298223));
#2179=MECHANICAL_DESIGN_GEOMETRIC_PRESENTATION_REPRESENTATION('',(#1308),
#2180);
#2180=(
GEOMETRIC_REPRESENTATION_CONTEXT(3)
GLOBAL_UNCERTAINTY_ASSIGNED_CONTEXT((#2181))
GLOBAL_UNIT_ASSIGNED_CONTEXT((#2184,#2183,#2182))
REPRESENTATION_CONTEXT('Part 5','TOP_LEVEL_ASSEMBLY_PART')
);
#2181=UNCERTAINTY_MEASURE_WITH_UNIT(LENGTH_MEASURE(1.E-8),#2184,
'DISTANCE_ACCURACY_VALUE','Maximum Tolerance applied to model');
#2182=(
NAMED_UNIT(*)
SI_UNIT($,.STERADIAN.)
SOLID_ANGLE_UNIT()
);
#2183=(
NAMED_UNIT(*)
PLANE_ANGLE_UNIT()
SI_UNIT($,.RADIAN.)
);
#2184=(
LENGTH_UNIT()
NAMED_UNIT(*)
SI_UNIT($,.METRE.)
);
#2185=PRODUCT_DEFINITION_SHAPE('','',#2186);
#2186=PRODUCT_DEFINITION('','',#2188,#2187);
#2187=PRODUCT_DEFINITION_CONTEXT('',#2194,'design');
#2188=PRODUCT_DEFINITION_FORMATION_WITH_SPECIFIED_SOURCE('','',#2190,
 .NOT_KNOWN.);
#2189=PRODUCT_RELATED_PRODUCT_CATEGORY('','',(#2190));
#2190=PRODUCT('Part 5','Part 5','Part 5',(#2192));
#2191=PRODUCT_CATEGORY('','');
#2192=PRODUCT_CONTEXT('',#2194,'mechanical');
#2193=APPLICATION_PROTOCOL_DEFINITION('international standard',
'ap242_managed_model_based_3d_engineering',2020,#2194);
#2194=APPLICATION_CONTEXT('managed model based 3d engineering');
ENDSEC;
END-ISO-10303-21;
