{"asset":{"version":"2.0","generator":"VECTARY"},"nodes":[{"translation":[-119.132352255,-7.275957614183426e-15,67.446783549],"scale":[-0.22145708300000003,0.221457083,0.22145708299999997],"rotation":[-0.6058380925710473,-0.13588546929141343,0.19727990646503682,0.758667241503463],"name":"Open CASCADE STEP translator 7.8 1","children":[1,2,3,4,5,6,7,8,9,10,11]},{"translation":[-10.981679402751018,-56.42661586777255,5.422004763109706],"scale":[1,1,1],"rotation":[-0.5194210114307313,-0.4280774184490892,0.5707180463971945,-0.4703535353484753],"name":"Open CASCADE STEP translator 7.8 1.1","mesh":0},{"translation":[31.094689548665436,159.7722933206965,-15.352438243466366],"scale":[1,1,1],"rotation":[-0.5194210114307313,-0.4280774184490892,0.5707180463971945,-0.4703535353484753],"name":"Open CASCADE STEP translator 7.8 1.1","mesh":1},{"translation":[-10.981679402751018,-56.42661586777255,5.422004763109706],"scale":[1,1,1],"rotation":[-0.5194210114307313,-0.4280774184490892,0.5707180463971945,-0.4703535353484753],"name":"Open CASCADE STEP translator 7.8 1.1","mesh":2},{"translation":[-2.1489014870757934,-11.041594775561357,-119.26186021948402],"scale":[1,1,1],"rotation":[-0.5194210114307313,-0.4280774184490892,0.5707180463971945,-0.4703535353484753],"name":"Open CASCADE STEP translator 7.8 1.4","mesh":3},{"translation":[3.4890680790773203,17.92770683310485,193.63975130820154],"scale":[1,1,1],"rotation":[-0.5194210114307313,-0.4280774184490892,0.5707180463971945,-0.4703535353484753],"name":"Open CASCADE STEP translator 7.8 1.5","mesh":4},{"translation":[-2.0704124297116167,-10.638298314116604,-114.90579687994796],"scale":[1,1,1],"rotation":[-0.5194210114307313,-0.4280774184490892,0.5707180463971945,-0.4703535353484753],"name":"Open CASCADE STEP translator 7.8 1.6","mesh":5},{"translation":[-2.035724643433582,-10.460062632068844,-112.98064447148036],"scale":[1,1,1],"rotation":[-0.5194210114307313,-0.4280774184490892,0.5707180463971945,-0.4703535353484753],"name":"Open CASCADE STEP translator 7.8 1.7","mesh":6},{"translation":[-2.0863806260674522,-10.720346911745786,-115.79201563553156],"scale":[1,1,1],"rotation":[-0.5194210114307313,-0.4280774184490892,0.5707180463971945,-0.4703535353484753],"name":"Open CASCADE STEP translator 7.8 1.8","mesh":7},{"translation":[-2.1313062977729693,-10.95118628012806,-118.28534500006266],"scale":[1,1,1],"rotation":[-0.5194210114307313,-0.4280774184490892,0.5707180463971945,-0.4703535353484753],"name":"Open CASCADE STEP translator 7.8 1.9","mesh":8},{"translation":[31.094689548665436,159.7722933206965,-15.352438243466366],"scale":[1,1,1],"rotation":[-0.5194210114307313,-0.4280774184490892,0.5707180463971945,-0.4703535353484753],"name":"Open CASCADE STEP translator 7.8 1.1","mesh":9},{"translation":[0,0,0],"scale":[1,1,1],"rotation":[-0.5194210114307313,-0.4280774184490892,0.5707180463971945,-0.4703535353484753],"name":"Open CASCADE STEP translator 7.8 1.11","mesh":10}],"materials":[{"pbrMetallicRoughness":{"baseColorFactor":[1,1,1,1],"metallicFactor":1,"roughnessFactor":1},"name":"Material","emissiveFactor":[0.7686274509803922,0.7686274509803922,0.7686274509803922],"extensions":{},"alphaMode":"OPAQUE","doubleSided":true},{"pbrMetallicRoughness":{"baseColorFactor":[1,1,1,1],"metallicFactor":1,"roughnessFactor":1},"name":"Material","emissiveFactor":[0.7686274509803922,0.7686274509803922,0.7686274509803922],"extensions":{},"alphaMode":"OPAQUE","doubleSided":true},{"pbrMetallicRoughness":{"baseColorFactor":[1,1,1,1],"metallicFactor":1,"roughnessFactor":1},"name":"Material","emissiveFactor":[0.7686274509803922,0.7686274509803922,0.7686274509803922],"extensions":{},"alphaMode":"OPAQUE","doubleSided":true},{"pbrMetallicRoughness":{"baseColorFactor":[1,1,1,1],"metallicFactor":1,"roughnessFactor":1},"name":"Material","emissiveFactor":[0.7686274509803922,0.7686274509803922,0.7686274509803922],"extensions":{},"alphaMode":"OPAQUE","doubleSided":true},{"pbrMetallicRoughness":{"baseColorFactor":[1,1,1,1],"metallicFactor":1,"roughnessFactor":1},"name":"Material","emissiveFactor":[0.7686274509803922,0.7686274509803922,0.7686274509803922],"extensions":{},"alphaMode":"OPAQUE","doubleSided":true},{"pbrMetallicRoughness":{"baseColorFactor":[1,1,1,1],"metallicFactor":1,"roughnessFactor":1},"name":"Material","emissiveFactor":[0.7686274509803922,0.7686274509803922,0.7686274509803922],"extensions":{},"alphaMode":"OPAQUE","doubleSided":true},{"pbrMetallicRoughness":{"baseColorFactor":[1,1,1,1],"metallicFactor":1,"roughnessFactor":1},"name":"Material","emissiveFactor":[0.7686274509803922,0.7686274509803922,0.7686274509803922],"extensions":{},"alphaMode":"OPAQUE","doubleSided":true},{"pbrMetallicRoughness":{"baseColorFactor":[1,1,1,1],"metallicFactor":1,"roughnessFactor":1},"name":"Material","emissiveFactor":[0.7686274509803922,0.7686274509803922,0.7686274509803922],"extensions":{},"alphaMode":"OPAQUE","doubleSided":true},{"pbrMetallicRoughness":{"baseColorFactor":[1,1,1,1],"metallicFactor":1,"roughnessFactor":1},"name":"Material","emissiveFactor":[0.7686274509803922,0.7686274509803922,0.7686274509803922],"extensions":{},"alphaMode":"OPAQUE","doubleSided":true},{"pbrMetallicRoughness":{"baseColorFactor":[1,1,1,1],"metallicFactor":1,"roughnessFactor":1},"name":"Material","emissiveFactor":[0.7686274509803922,0.7686274509803922,0.7686274509803922],"extensions":{},"alphaMode":"OPAQUE","doubleSided":true},{"pbrMetallicRoughness":{"baseColorFactor":[1,1,1,1],"metallicFactor":1,"roughnessFactor":1},"name":"Material","emissiveFactor":[0.7686274509803922,0.7686274509803922,0.7686274509803922],"extensions":{},"alphaMode":"OPAQUE","doubleSided":true}],"meshes":[{"primitives":[{"mode":4,"attributes":{"POSITION":1,"NORMAL":2,"TEXCOORD_0":3},"material":0,"indices":0}]},{"primitives":[{"mode":4,"attributes":{"POSITION":5,"NORMAL":6,"TEXCOORD_0":7},"material":1,"indices":4}]},{"primitives":[{"mode":4,"attributes":{"POSITION":9,"NORMAL":10,"TEXCOORD_0":11},"material":2,"indices":8}]},{"primitives":[{"mode":4,"attributes":{"POSITION":13,"NORMAL":14,"TEXCOORD_0":15},"material":3,"indices":12}]},{"primitives":[{"mode":4,"attributes":{"POSITION":17,"NORMAL":18,"TEXCOORD_0":19},"material":4,"indices":16}]},{"primitives":[{"mode":4,"attributes":{"POSITION":21,"NORMAL":22,"TEXCOORD_0":23},"material":5,"indices":20}]},{"primitives":[{"mode":4,"attributes":{"POSITION":25,"NORMAL":26,"TEXCOORD_0":27},"material":6,"indices":24}]},{"primitives":[{"mode":4,"attributes":{"POSITION":29,"NORMAL":30,"TEXCOORD_0":31},"material":7,"indices":28}]},{"primitives":[{"mode":4,"attributes":{"POSITION":33,"NORMAL":34,"TEXCOORD_0":35},"material":8,"indices":32}]},{"primitives":[{"mode":4,"attributes":{"POSITION":37,"NORMAL":38,"TEXCOORD_0":39},"material":9,"indices":36}]},{"primitives":[{"mode":4,"attributes":{"POSITION":41,"NORMAL":42,"TEXCOORD_0":43},"material":10,"indices":40}]}],"accessors":[{"bufferView":0,"byteOffset":0,"componentType":5125,"count":4176,"type":"SCALAR"},{"bufferView":1,"byteOffset":0,"componentType":5126,"count":2833,"max":[29.305362701416016,114.81446075439453,140.30332946777344],"min":[-27.694637298583984,57.81446075439453,120.30332946777344],"type":"VEC3"},{"bufferView":2,"byteOffset":0,"componentType":5126,"count":2833,"type":"VEC3"},{"bufferView":3,"byteOffset":0,"componentType":5126,"count":2833,"type":"VEC2"},{"bufferView":4,"byteOffset":0,"componentType":5125,"count":4176,"type":"SCALAR"},{"bufferView":5,"byteOffset":0,"componentType":5126,"count":2833,"max":[29.305362701416016,114.81446075439453,-109.69667053222656],"min":[-27.694637298583984,57.814456939697266,-129.69667053222656],"type":"VEC3"},{"bufferView":6,"byteOffset":0,"componentType":5126,"count":2833,"type":"VEC3"},{"bufferView":7,"byteOffset":0,"componentType":5126,"count":2833,"type":"VEC2"},{"bufferView":8,"byteOffset":0,"componentType":5125,"count":4176,"type":"SCALAR"},{"bufferView":9,"byteOffset":0,"componentType":5126,"count":2833,"max":[29.305362701416016,-61.114471435546875,140.30332946777344],"min":[-27.694637298583984,-118.11447143554688,120.30332946777344],"type":"VEC3"},{"bufferView":10,"byteOffset":0,"componentType":5126,"count":2833,"type":"VEC3"},{"bufferView":11,"byteOffset":0,"componentType":5126,"count":2833,"type":"VEC2"},{"bufferView":12,"byteOffset":0,"componentType":5125,"count":14148,"type":"SCALAR"},{"bufferView":13,"byteOffset":0,"componentType":5126,"count":8792,"max":[114.84089660644531,93.44999694824219,-78.99305725097656],"min":[29.840896606445312,-96.75000762939453,-129.19305419921875],"type":"VEC3"},{"bufferView":14,"byteOffset":0,"componentType":5126,"count":8792,"type":"VEC3"},{"bufferView":15,"byteOffset":0,"componentType":5126,"count":8792,"type":"VEC2"},{"bufferView":16,"byteOffset":0,"componentType":5125,"count":67302,"type":"SCALAR"},{"bufferView":17,"byteOffset":0,"componentType":5126,"count":43213,"max":[29.840896606445312,128.34999084472656,120.30332946777344],"min":[-45.15910339355469,-131.65000915527344,-139.69667053222656],"type":"VEC3"},{"bufferView":18,"byteOffset":0,"componentType":5126,"count":43213,"type":"VEC3"},{"bufferView":19,"byteOffset":0,"componentType":5126,"count":43213,"type":"VEC2"},{"bufferView":20,"byteOffset":0,"componentType":5125,"count":18360,"type":"SCALAR"},{"bufferView":21,"byteOffset":0,"componentType":5126,"count":11189,"max":[114.84089660644531,93.44999694824219,3.4069480895996094],"min":[29.840896606445312,-96.75001525878906,-38.793052673339844],"type":"VEC3"},{"bufferView":22,"byteOffset":0,"componentType":5126,"count":11189,"type":"VEC3"},{"bufferView":23,"byteOffset":0,"componentType":5126,"count":11189,"type":"VEC2"},{"bufferView":24,"byteOffset":0,"componentType":5125,"count":16176,"type":"SCALAR"},{"bufferView":25,"byteOffset":0,"componentType":5126,"count":9860,"max":[114.84089660644531,71.94999694824219,99.00694274902344],"min":[-2.259103536605835,-75.25000762939453,36.6069450378418],"type":"VEC3"},{"bufferView":26,"byteOffset":0,"componentType":5126,"count":9860,"type":"VEC3"},{"bufferView":27,"byteOffset":0,"componentType":5126,"count":9860,"type":"VEC2"},{"bufferView":28,"byteOffset":0,"componentType":5125,"count":18948,"type":"SCALAR"},{"bufferView":29,"byteOffset":0,"componentType":5126,"count":11502,"max":[114.84089660644531,85.44999694824219,37.6069450378418],"min":[40.84089660644531,-88.75000762939453,2.4069464206695557],"type":"VEC3"},{"bufferView":30,"byteOffset":0,"componentType":5126,"count":11502,"type":"VEC3"},{"bufferView":31,"byteOffset":0,"componentType":5126,"count":11502,"type":"VEC2"},{"bufferView":32,"byteOffset":0,"componentType":5125,"count":18324,"type":"SCALAR"},{"bufferView":33,"byteOffset":0,"componentType":5126,"count":11174,"max":[114.84089660644531,93.44999694824219,-37.793052673339844],"min":[29.840896606445312,-96.75000762939453,-79.99305725097656],"type":"VEC3"},{"bufferView":34,"byteOffset":0,"componentType":5126,"count":11174,"type":"VEC3"},{"bufferView":35,"byteOffset":0,"componentType":5126,"count":11174,"type":"VEC2"},{"bufferView":36,"byteOffset":0,"componentType":5125,"count":4176,"type":"SCALAR"},{"bufferView":37,"byteOffset":0,"componentType":5126,"count":2833,"max":[29.305362701416016,-61.114471435546875,-109.69667053222656],"min":[-27.694637298583984,-118.11447143554688,-129.69667053222656],"type":"VEC3"},{"bufferView":38,"byteOffset":0,"componentType":5126,"count":2833,"type":"VEC3"},{"bufferView":39,"byteOffset":0,"componentType":5126,"count":2833,"type":"VEC2"},{"bufferView":40,"byteOffset":0,"componentType":5125,"count":42096,"type":"SCALAR"},{"bufferView":41,"byteOffset":0,"componentType":5126,"count":27725,"max":[104.84089660644531,128.34999084472656,120.80694580078125],"min":[29.840896606445312,-131.65000915527344,-139.19305419921875],"type":"VEC3"},{"bufferView":42,"byteOffset":0,"componentType":5126,"count":27725,"type":"VEC3"},{"bufferView":43,"byteOffset":0,"componentType":5126,"count":27725,"type":"VEC2"},{"bufferView":44,"byteOffset":0,"componentType":5126,"count":14,"max":[1.7999999523162842],"min":[0],"type":"SCALAR"},{"bufferView":45,"byteOffset":0,"componentType":5126,"count":42,"max":[31.094690322875977,159.7722930908203,0],"min":[0,0,-15.352437973022461],"type":"VEC3"},{"bufferView":46,"byteOffset":0,"componentType":5126,"count":14,"max":[1.7999999523162842],"min":[0],"type":"SCALAR"},{"bufferView":47,"byteOffset":0,"componentType":5126,"count":42,"max":[31.094690322875977,159.7722930908203,0],"min":[0,0,-15.352437973022461],"type":"VEC3"},{"bufferView":48,"byteOffset":0,"componentType":5126,"count":14,"max":[1.7999999523162842],"min":[0],"type":"SCALAR"},{"bufferView":49,"byteOffset":0,"componentType":5126,"count":42,"max":[3.6298470497131348,18.651609420776367,201.45919799804688],"min":[0,0,0],"type":"VEC3"},{"bufferView":50,"byteOffset":0,"componentType":5126,"count":14,"max":[1.7999999523162842],"min":[0],"type":"SCALAR"},{"bufferView":51,"byteOffset":0,"componentType":5126,"count":42,"max":[0,0,5.640839099884033],"min":[-11.425065994262695,-58.7051887512207,0],"type":"VEC3"},{"bufferView":52,"byteOffset":0,"componentType":5126,"count":14,"max":[1.7999999523162842],"min":[0],"type":"SCALAR"},{"bufferView":53,"byteOffset":0,"componentType":5126,"count":42,"max":[0,0,7.624135494232178],"min":[-15.539607048034668,-80.06840515136719,0],"type":"VEC3"},{"bufferView":54,"byteOffset":0,"componentType":5126,"count":14,"max":[1.7999999523162842],"min":[0],"type":"SCALAR"},{"bufferView":55,"byteOffset":0,"componentType":5126,"count":42,"max":[0,0,0],"min":[-7.502949237823486,-38.46804428100586,-415.46099853515625],"type":"VEC3"},{"bufferView":56,"byteOffset":0,"componentType":5126,"count":14,"max":[1.7999999523162842],"min":[0],"type":"SCALAR"},{"bufferView":57,"byteOffset":0,"componentType":5126,"count":42,"max":[0,0,0],"min":[-6.240189552307129,-32.07888412475586,-346.4960632324219],"type":"VEC3"},{"bufferView":58,"byteOffset":0,"componentType":5126,"count":14,"max":[1.7999999523162842],"min":[0],"type":"SCALAR"},{"bufferView":59,"byteOffset":0,"componentType":5126,"count":42,"max":[0,0,0],"min":[-5.176031112670898,-26.595745086669922,-287.2644958496094],"type":"VEC3"},{"bufferView":60,"byteOffset":0,"componentType":5126,"count":14,"max":[1.7999999523162842],"min":[0],"type":"SCALAR"},{"bufferView":61,"byteOffset":0,"componentType":5126,"count":42,"max":[1.2321672240194533e-14,6.331183678449231e-14,1.2552854636554544e-14],"min":[-5.993637561798096,-30.790372848510742,-332.5684814453125],"type":"VEC3"},{"bufferView":62,"byteOffset":0,"componentType":5126,"count":14,"max":[1.7999999523162842],"min":[0],"type":"SCALAR"},{"bufferView":63,"byteOffset":0,"componentType":5126,"count":42,"max":[1.2321672240194533e-14,6.331183678449231e-14,1.2552854636554544e-14],"min":[-5.574481010437012,-28.63532829284668,-309.2909240722656],"type":"VEC3"},{"bufferView":64,"byteOffset":0,"componentType":5126,"count":3,"max":[4],"min":[0],"type":"SCALAR"},{"bufferView":65,"byteOffset":0,"componentType":5126,"count":9,"max":[0,0,6.453406810760498],"min":[-13.070671081542969,-67.1603775024414,0],"type":"VEC3"},{"bufferView":66,"byteOffset":0,"componentType":5126,"count":3,"max":[4],"min":[0],"type":"SCALAR"},{"bufferView":67,"byteOffset":0,"componentType":5126,"count":9,"max":[0,0,6.453406810760498],"min":[-13.070671081542969,-67.1603775024414,0],"type":"VEC3"}],"bufferViews":[{"buffer":0,"byteOffset":0,"byteLength":16704,"target":34963},{"buffer":0,"byteOffset":16704,"byteLength":33996,"target":34962},{"buffer":0,"byteOffset":50700,"byteLength":33996,"target":34962},{"buffer":0,"byteOffset":84696,"byteLength":22664,"target":34962},{"buffer":0,"byteOffset":107360,"byteLength":16704,"target":34963},{"buffer":0,"byteOffset":124064,"byteLength":33996,"target":34962},{"buffer":0,"byteOffset":158060,"byteLength":33996,"target":34962},{"buffer":0,"byteOffset":192056,"byteLength":22664,"target":34962},{"buffer":0,"byteOffset":214720,"byteLength":16704,"target":34963},{"buffer":0,"byteOffset":231424,"byteLength":33996,"target":34962},{"buffer":0,"byteOffset":265420,"byteLength":33996,"target":34962},{"buffer":0,"byteOffset":299416,"byteLength":22664,"target":34962},{"buffer":0,"byteOffset":322080,"byteLength":56592,"target":34963},{"buffer":0,"byteOffset":378672,"byteLength":105504,"target":34962},{"buffer":0,"byteOffset":484176,"byteLength":105504,"target":34962},{"buffer":0,"byteOffset":589680,"byteLength":70336,"target":34962},{"buffer":0,"byteOffset":660016,"byteLength":269208,"target":34963},{"buffer":0,"byteOffset":929224,"byteLength":518556,"target":34962},{"buffer":0,"byteOffset":1447780,"byteLength":518556,"target":34962},{"buffer":0,"byteOffset":1966336,"byteLength":345704,"target":34962},{"buffer":0,"byteOffset":2312040,"byteLength":73440,"target":34963},{"buffer":0,"byteOffset":2385480,"byteLength":134268,"target":34962},{"buffer":0,"byteOffset":2519748,"byteLength":134268,"target":34962},{"buffer":0,"byteOffset":2654016,"byteLength":89512,"target":34962},{"buffer":0,"byteOffset":2743528,"byteLength":64704,"target":34963},{"buffer":0,"byteOffset":2808232,"byteLength":118320,"target":34962},{"buffer":0,"byteOffset":2926552,"byteLength":118320,"target":34962},{"buffer":0,"byteOffset":3044872,"byteLength":78880,"target":34962},{"buffer":0,"byteOffset":3123752,"byteLength":75792,"target":34963},{"buffer":0,"byteOffset":3199544,"byteLength":138024,"target":34962},{"buffer":0,"byteOffset":3337568,"byteLength":138024,"target":34962},{"buffer":0,"byteOffset":3475592,"byteLength":92016,"target":34962},{"buffer":0,"byteOffset":3567608,"byteLength":73296,"target":34963},{"buffer":0,"byteOffset":3640904,"byteLength":134088,"target":34962},{"buffer":0,"byteOffset":3774992,"byteLength":134088,"target":34962},{"buffer":0,"byteOffset":3909080,"byteLength":89392,"target":34962},{"buffer":0,"byteOffset":3998472,"byteLength":16704,"target":34963},{"buffer":0,"byteOffset":4015176,"byteLength":33996,"target":34962},{"buffer":0,"byteOffset":4049172,"byteLength":33996,"target":34962},{"buffer":0,"byteOffset":4083168,"byteLength":22664,"target":34962},{"buffer":0,"byteOffset":4105832,"byteLength":168384,"target":34963},{"buffer":0,"byteOffset":4274216,"byteLength":332700,"target":34962},{"buffer":0,"byteOffset":4606916,"byteLength":332700,"target":34962},{"buffer":0,"byteOffset":4939616,"byteLength":221800,"target":34962},{"buffer":0,"byteOffset":5161416,"byteLength":56},{"buffer":0,"byteOffset":5161472,"byteLength":504},{"buffer":0,"byteOffset":5161976,"byteLength":56},{"buffer":0,"byteOffset":5162032,"byteLength":504},{"buffer":0,"byteOffset":5162536,"byteLength":56},{"buffer":0,"byteOffset":5162592,"byteLength":504},{"buffer":0,"byteOffset":5163096,"byteLength":56},{"buffer":0,"byteOffset":5163152,"byteLength":504},{"buffer":0,"byteOffset":5163656,"byteLength":56},{"buffer":0,"byteOffset":5163712,"byteLength":504},{"buffer":0,"byteOffset":5164216,"byteLength":56},{"buffer":0,"byteOffset":5164272,"byteLength":504},{"buffer":0,"byteOffset":5164776,"byteLength":56},{"buffer":0,"byteOffset":5164832,"byteLength":504},{"buffer":0,"byteOffset":5165336,"byteLength":56},{"buffer":0,"byteOffset":5165392,"byteLength":504},{"buffer":0,"byteOffset":5165896,"byteLength":56},{"buffer":0,"byteOffset":5165952,"byteLength":504},{"buffer":0,"byteOffset":5166456,"byteLength":56},{"buffer":0,"byteOffset":5166512,"byteLength":504},{"buffer":0,"byteOffset":5167016,"byteLength":12},{"buffer":0,"byteOffset":5167028,"byteLength":108},{"buffer":0,"byteOffset":5167136,"byteLength":12},{"buffer":0,"byteOffset":5167148,"byteLength":108}],"scene":0,"scenes":[{"nodes":[0],"name":"ModPack"}],"animations":[{"channels":[{"sampler":0,"target":{"node":10,"path":"translation"}},{"sampler":1,"target":{"node":2,"path":"translation"}},{"sampler":2,"target":{"node":5,"path":"translation"}},{"sampler":3,"target":{"node":3,"path":"translation"}},{"sampler":4,"target":{"node":1,"path":"translation"}},{"sampler":5,"target":{"node":4,"path":"translation"}},{"sampler":6,"target":{"node":9,"path":"translation"}},{"sampler":7,"target":{"node":6,"path":"translation"}},{"sampler":8,"target":{"node":8,"path":"translation"}},{"sampler":9,"target":{"node":7,"path":"translation"}}],"samplers":[{"interpolation":"CUBICSPLINE","input":44,"output":45},{"interpolation":"CUBICSPLINE","input":46,"output":47},{"interpolation":"CUBICSPLINE","input":48,"output":49},{"interpolation":"CUBICSPLINE","input":50,"output":51},{"interpolation":"CUBICSPLINE","input":52,"output":53},{"interpolation":"CUBICSPLINE","input":54,"output":55},{"interpolation":"CUBICSPLINE","input":56,"output":57},{"interpolation":"CUBICSPLINE","input":58,"output":59},{"interpolation":"CUBICSPLINE","input":60,"output":61},{"interpolation":"CUBICSPLINE","input":62,"output":63}],"name":"Animation 1"},{"channels":[{"sampler":0,"target":{"node":3,"path":"translation"}},{"sampler":1,"target":{"node":1,"path":"translation"}}],"samplers":[{"interpolation":"CUBICSPLINE","input":64,"output":65},{"interpolation":"CUBICSPLINE","input":66,"output":67}],"name":"Animation 2"}],"extensionsUsed":["KHR_texture_transform"],"buffers":[{"byteLength":5167256,"uri":"ProjectName.bin"}]}