ISO-10303-21;
HEADER;
/* Generated by software containing ST-Developer
 * from STEP Tools, Inc. (www.steptools.com) 
 */
/* OPTION: using custom renumber hook */

FILE_DESCRIPTION(
/* description */ ('STEP AP242 Edition 2',
'CAx-IF Rec.Pracs.---Representation and Presentation of Product Manufa
cturing Information (PMI)---4.0---2014-10-13',
'CAx-IF Rec.Pracs.---3D Tessellated Geometry---0.4---2014-09-14','2;1',
'CAx-IF Rec.Pracs.---User Defined Attributes---1.5---2016-08-15'),
/* implementation_level */ '2;1');

FILE_NAME(
/* name */ 'Assembly 9 - Part 3',
/* time_stamp */ '2026-05-31T16:39:11Z',
/* author */ (''),
/* organization */ (''),
/* preprocessor_version */ 'ST-DEVELOPER v20',
/* originating_system */ 'ONSHAPE BY PTC INC, 1.215',
/* authorisation */ '  ');

FILE_SCHEMA (('AP242_MANAGED_MODEL_BASED_3D_ENGINEERING_MIM_LF { 1 0 10303 442 3 1 4 }'));
ENDSEC;

DATA;
#10=SHAPE_REPRESENTATION_RELATIONSHIP('','',#600,#11);
#11=ADVANCED_BREP_SHAPE_REPRESENTATION('',(#598),#982);
#12=CONICAL_SURFACE('',#645,0.0026,0.785398163397443);
#13=CONICAL_SURFACE('',#648,0.0026,0.785398163397443);
#14=CONICAL_SURFACE('',#651,0.0026,0.785398163397443);
#15=CONICAL_SURFACE('',#654,0.0026,0.785398163397443);
#16=CYLINDRICAL_SURFACE('',#632,0.03);
#17=CYLINDRICAL_SURFACE('',#633,0.03);
#18=CYLINDRICAL_SURFACE('',#643,0.00135);
#19=CYLINDRICAL_SURFACE('',#646,0.00135);
#20=CYLINDRICAL_SURFACE('',#649,0.00135);
#21=CYLINDRICAL_SURFACE('',#652,0.00135);
#22=CYLINDRICAL_SURFACE('',#655,0.004);
#23=CYLINDRICAL_SURFACE('',#656,0.004);
#24=CYLINDRICAL_SURFACE('',#657,0.004);
#25=CYLINDRICAL_SURFACE('',#658,0.004);
#26=LINE('',#826,#73);
#27=LINE('',#829,#74);
#28=LINE('',#831,#75);
#29=LINE('',#833,#76);
#30=LINE('',#835,#77);
#31=LINE('',#838,#78);
#32=LINE('',#839,#79);
#33=LINE('',#840,#80);
#34=LINE('',#843,#81);
#35=LINE('',#845,#82);
#36=LINE('',#847,#83);
#37=LINE('',#851,#84);
#38=LINE('',#854,#85);
#39=LINE('',#855,#86);
#40=LINE('',#859,#87);
#41=LINE('',#863,#88);
#42=LINE('',#865,#89);
#43=LINE('',#867,#90);
#44=LINE('',#873,#91);
#45=LINE('',#876,#92);
#46=LINE('',#878,#93);
#47=LINE('',#880,#94);
#48=LINE('',#881,#95);
#49=LINE('',#885,#96);
#50=LINE('',#887,#97);
#51=LINE('',#889,#98);
#52=LINE('',#893,#99);
#53=LINE('',#897,#100);
#54=LINE('',#899,#101);
#55=LINE('',#901,#102);
#56=LINE('',#905,#103);
#57=LINE('',#907,#104);
#58=LINE('',#911,#105);
#59=LINE('',#913,#106);
#60=LINE('',#917,#107);
#61=LINE('',#924,#108);
#62=LINE('',#925,#109);
#63=LINE('',#931,#110);
#64=LINE('',#932,#111);
#65=LINE('',#941,#112);
#66=LINE('',#943,#113);
#67=LINE('',#945,#114);
#68=LINE('',#947,#115);
#69=LINE('',#949,#116);
#70=LINE('',#955,#117);
#71=LINE('',#957,#118);
#72=LINE('',#959,#119);
#73=VECTOR('',#665,1.);
#74=VECTOR('',#666,1.);
#75=VECTOR('',#667,1.);
#76=VECTOR('',#668,1.);
#77=VECTOR('',#671,1.);
#78=VECTOR('',#672,1.);
#79=VECTOR('',#673,1.);
#80=VECTOR('',#674,1.);
#81=VECTOR('',#675,1.);
#82=VECTOR('',#676,1.);
#83=VECTOR('',#677,1.);
#84=VECTOR('',#682,1.);
#85=VECTOR('',#683,1.);
#86=VECTOR('',#684,1.);
#87=VECTOR('',#689,1.);
#88=VECTOR('',#692,1.);
#89=VECTOR('',#693,1.);
#90=VECTOR('',#694,1.);
#91=VECTOR('',#701,1.);
#92=VECTOR('',#702,1.);
#93=VECTOR('',#703,1.);
#94=VECTOR('',#704,1.);
#95=VECTOR('',#705,1.);
#96=VECTOR('',#708,1.);
#97=VECTOR('',#709,1.);
#98=VECTOR('',#710,1.);
#99=VECTOR('',#715,1.);
#100=VECTOR('',#720,1.);
#101=VECTOR('',#721,1.);
#102=VECTOR('',#722,1.);
#103=VECTOR('',#727,1.);
#104=VECTOR('',#728,1.);
#105=VECTOR('',#733,1.);
#106=VECTOR('',#734,1.);
#107=VECTOR('',#739,1.);
#108=VECTOR('',#748,1.);
#109=VECTOR('',#749,1.);
#110=VECTOR('',#756,1.);
#111=VECTOR('',#757,1.);
#112=VECTOR('',#770,1.);
#113=VECTOR('',#771,1.);
#114=VECTOR('',#772,1.);
#115=VECTOR('',#775,1.);
#116=VECTOR('',#776,1.);
#117=VECTOR('',#783,1.);
#118=VECTOR('',#784,1.);
#119=VECTOR('',#787,1.);
#120=ORIENTED_EDGE('',*,*,#262,.F.);
#121=ORIENTED_EDGE('',*,*,#263,.T.);
#122=ORIENTED_EDGE('',*,*,#264,.T.);
#123=ORIENTED_EDGE('',*,*,#265,.F.);
#124=ORIENTED_EDGE('',*,*,#266,.T.);
#125=ORIENTED_EDGE('',*,*,#267,.T.);
#126=ORIENTED_EDGE('',*,*,#268,.T.);
#127=ORIENTED_EDGE('',*,*,#266,.F.);
#128=ORIENTED_EDGE('',*,*,#269,.F.);
#129=ORIENTED_EDGE('',*,*,#270,.F.);
#130=ORIENTED_EDGE('',*,*,#271,.T.);
#131=ORIENTED_EDGE('',*,*,#272,.T.);
#132=ORIENTED_EDGE('',*,*,#273,.F.);
#133=ORIENTED_EDGE('',*,*,#274,.F.);
#134=ORIENTED_EDGE('',*,*,#275,.T.);
#135=ORIENTED_EDGE('',*,*,#276,.F.);
#136=ORIENTED_EDGE('',*,*,#267,.F.);
#137=ORIENTED_EDGE('',*,*,#277,.T.);
#138=ORIENTED_EDGE('',*,*,#278,.F.);
#139=ORIENTED_EDGE('',*,*,#279,.T.);
#140=ORIENTED_EDGE('',*,*,#280,.T.);
#141=ORIENTED_EDGE('',*,*,#281,.T.);
#142=ORIENTED_EDGE('',*,*,#282,.T.);
#143=ORIENTED_EDGE('',*,*,#283,.F.);
#144=ORIENTED_EDGE('',*,*,#284,.T.);
#145=ORIENTED_EDGE('',*,*,#263,.F.);
#146=ORIENTED_EDGE('',*,*,#268,.F.);
#147=ORIENTED_EDGE('',*,*,#276,.T.);
#148=ORIENTED_EDGE('',*,*,#285,.F.);
#149=ORIENTED_EDGE('',*,*,#286,.F.);
#150=ORIENTED_EDGE('',*,*,#287,.F.);
#151=ORIENTED_EDGE('',*,*,#288,.F.);
#152=ORIENTED_EDGE('',*,*,#289,.F.);
#153=ORIENTED_EDGE('',*,*,#290,.F.);
#154=ORIENTED_EDGE('',*,*,#277,.F.);
#155=ORIENTED_EDGE('',*,*,#269,.T.);
#156=ORIENTED_EDGE('',*,*,#265,.T.);
#157=ORIENTED_EDGE('',*,*,#291,.T.);
#158=ORIENTED_EDGE('',*,*,#292,.F.);
#159=ORIENTED_EDGE('',*,*,#293,.T.);
#160=ORIENTED_EDGE('',*,*,#294,.T.);
#161=ORIENTED_EDGE('',*,*,#295,.T.);
#162=ORIENTED_EDGE('',*,*,#290,.T.);
#163=ORIENTED_EDGE('',*,*,#296,.T.);
#164=ORIENTED_EDGE('',*,*,#279,.F.);
#165=ORIENTED_EDGE('',*,*,#275,.F.);
#166=ORIENTED_EDGE('',*,*,#297,.T.);
#167=ORIENTED_EDGE('',*,*,#271,.F.);
#168=ORIENTED_EDGE('',*,*,#298,.F.);
#169=ORIENTED_EDGE('',*,*,#299,.T.);
#170=ORIENTED_EDGE('',*,*,#300,.T.);
#171=ORIENTED_EDGE('',*,*,#301,.F.);
#172=ORIENTED_EDGE('',*,*,#270,.T.);
#173=ORIENTED_EDGE('',*,*,#302,.F.);
#174=ORIENTED_EDGE('',*,*,#303,.F.);
#175=ORIENTED_EDGE('',*,*,#298,.T.);
#176=ORIENTED_EDGE('',*,*,#304,.F.);
#177=ORIENTED_EDGE('',*,*,#273,.T.);
#178=ORIENTED_EDGE('',*,*,#305,.F.);
#179=ORIENTED_EDGE('',*,*,#306,.F.);
#180=ORIENTED_EDGE('',*,*,#302,.T.);
#181=ORIENTED_EDGE('',*,*,#307,.T.);
#182=ORIENTED_EDGE('',*,*,#272,.F.);
#183=ORIENTED_EDGE('',*,*,#300,.F.);
#184=ORIENTED_EDGE('',*,*,#308,.T.);
#185=ORIENTED_EDGE('',*,*,#305,.T.);
#186=ORIENTED_EDGE('',*,*,#299,.F.);
#187=ORIENTED_EDGE('',*,*,#303,.T.);
#188=ORIENTED_EDGE('',*,*,#306,.T.);
#189=ORIENTED_EDGE('',*,*,#308,.F.);
#190=ORIENTED_EDGE('',*,*,#309,.T.);
#191=ORIENTED_EDGE('',*,*,#310,.T.);
#192=ORIENTED_EDGE('',*,*,#281,.F.);
#193=ORIENTED_EDGE('',*,*,#311,.T.);
#194=ORIENTED_EDGE('',*,*,#294,.F.);
#195=ORIENTED_EDGE('',*,*,#312,.F.);
#196=ORIENTED_EDGE('',*,*,#313,.T.);
#197=ORIENTED_EDGE('',*,*,#314,.T.);
#198=ORIENTED_EDGE('',*,*,#292,.T.);
#199=ORIENTED_EDGE('',*,*,#315,.T.);
#200=ORIENTED_EDGE('',*,*,#283,.T.);
#201=ORIENTED_EDGE('',*,*,#316,.T.);
#202=ORIENTED_EDGE('',*,*,#282,.F.);
#203=ORIENTED_EDGE('',*,*,#312,.T.);
#204=ORIENTED_EDGE('',*,*,#293,.F.);
#205=ORIENTED_EDGE('',*,*,#316,.F.);
#206=ORIENTED_EDGE('',*,*,#284,.F.);
#207=ORIENTED_EDGE('',*,*,#315,.F.);
#208=ORIENTED_EDGE('',*,*,#291,.F.);
#209=ORIENTED_EDGE('',*,*,#264,.F.);
#210=ORIENTED_EDGE('',*,*,#295,.F.);
#211=ORIENTED_EDGE('',*,*,#311,.F.);
#212=ORIENTED_EDGE('',*,*,#280,.F.);
#213=ORIENTED_EDGE('',*,*,#296,.F.);
#214=ORIENTED_EDGE('',*,*,#317,.F.);
#215=ORIENTED_EDGE('',*,*,#318,.F.);
#216=ORIENTED_EDGE('',*,*,#286,.T.);
#217=ORIENTED_EDGE('',*,*,#319,.F.);
#218=ORIENTED_EDGE('',*,*,#320,.F.);
#219=ORIENTED_EDGE('',*,*,#321,.T.);
#220=ORIENTED_EDGE('',*,*,#289,.T.);
#221=ORIENTED_EDGE('',*,*,#322,.F.);
#222=ORIENTED_EDGE('',*,*,#323,.F.);
#223=ORIENTED_EDGE('',*,*,#319,.T.);
#224=ORIENTED_EDGE('',*,*,#324,.F.);
#225=ORIENTED_EDGE('',*,*,#325,.F.);
#226=ORIENTED_EDGE('',*,*,#288,.T.);
#227=ORIENTED_EDGE('',*,*,#326,.F.);
#228=ORIENTED_EDGE('',*,*,#327,.F.);
#229=ORIENTED_EDGE('',*,*,#322,.T.);
#230=ORIENTED_EDGE('',*,*,#287,.T.);
#231=ORIENTED_EDGE('',*,*,#321,.F.);
#232=ORIENTED_EDGE('',*,*,#328,.F.);
#233=ORIENTED_EDGE('',*,*,#326,.T.);
#234=ORIENTED_EDGE('',*,*,#320,.T.);
#235=ORIENTED_EDGE('',*,*,#323,.T.);
#236=ORIENTED_EDGE('',*,*,#327,.T.);
#237=ORIENTED_EDGE('',*,*,#328,.T.);
#238=ORIENTED_EDGE('',*,*,#325,.T.);
#239=ORIENTED_EDGE('',*,*,#329,.F.);
#240=ORIENTED_EDGE('',*,*,#329,.T.);
#241=ORIENTED_EDGE('',*,*,#310,.F.);
#242=ORIENTED_EDGE('',*,*,#324,.T.);
#243=ORIENTED_EDGE('',*,*,#330,.F.);
#244=ORIENTED_EDGE('',*,*,#330,.T.);
#245=ORIENTED_EDGE('',*,*,#309,.F.);
#246=ORIENTED_EDGE('',*,*,#318,.T.);
#247=ORIENTED_EDGE('',*,*,#331,.F.);
#248=ORIENTED_EDGE('',*,*,#331,.T.);
#249=ORIENTED_EDGE('',*,*,#314,.F.);
#250=ORIENTED_EDGE('',*,*,#317,.T.);
#251=ORIENTED_EDGE('',*,*,#332,.F.);
#252=ORIENTED_EDGE('',*,*,#332,.T.);
#253=ORIENTED_EDGE('',*,*,#313,.F.);
#254=ORIENTED_EDGE('',*,*,#285,.T.);
#255=ORIENTED_EDGE('',*,*,#297,.F.);
#256=ORIENTED_EDGE('',*,*,#301,.T.);
#257=ORIENTED_EDGE('',*,*,#274,.T.);
#258=ORIENTED_EDGE('',*,*,#304,.T.);
#259=ORIENTED_EDGE('',*,*,#278,.T.);
#260=ORIENTED_EDGE('',*,*,#262,.T.);
#261=ORIENTED_EDGE('',*,*,#307,.F.);
#262=EDGE_CURVE('',#333,#333,#387,.T.);
#263=EDGE_CURVE('',#334,#335,#26,.T.);
#264=EDGE_CURVE('',#335,#336,#27,.T.);
#265=EDGE_CURVE('',#337,#336,#28,.T.);
#266=EDGE_CURVE('',#337,#334,#29,.T.);
#267=EDGE_CURVE('',#338,#339,#30,.T.);
#268=EDGE_CURVE('',#339,#334,#31,.T.);
#269=EDGE_CURVE('',#338,#337,#32,.T.);
#270=EDGE_CURVE('',#340,#341,#33,.T.);
#271=EDGE_CURVE('',#340,#342,#34,.T.);
#272=EDGE_CURVE('',#342,#343,#35,.T.);
#273=EDGE_CURVE('',#341,#343,#36,.T.);
#274=EDGE_CURVE('',#344,#344,#388,.T.);
#275=EDGE_CURVE('',#345,#346,#37,.T.);
#276=EDGE_CURVE('',#339,#346,#38,.T.);
#277=EDGE_CURVE('',#338,#345,#39,.T.);
#278=EDGE_CURVE('',#347,#347,#389,.T.);
#279=EDGE_CURVE('',#346,#348,#40,.T.);
#280=EDGE_CURVE('',#348,#349,#390,.T.);
#281=EDGE_CURVE('',#349,#350,#41,.T.);
#282=EDGE_CURVE('',#350,#351,#42,.T.);
#283=EDGE_CURVE('',#352,#351,#43,.T.);
#284=EDGE_CURVE('',#352,#335,#391,.T.);
#285=EDGE_CURVE('',#353,#353,#392,.T.);
#286=EDGE_CURVE('',#354,#355,#44,.T.);
#287=EDGE_CURVE('',#356,#354,#45,.T.);
#288=EDGE_CURVE('',#357,#356,#46,.T.);
#289=EDGE_CURVE('',#355,#357,#47,.T.);
#290=EDGE_CURVE('',#345,#358,#48,.T.);
#291=EDGE_CURVE('',#336,#359,#393,.F.);
#292=EDGE_CURVE('',#360,#359,#49,.T.);
#293=EDGE_CURVE('',#360,#361,#50,.T.);
#294=EDGE_CURVE('',#361,#362,#51,.T.);
#295=EDGE_CURVE('',#362,#358,#394,.F.);
#296=EDGE_CURVE('',#358,#348,#52,.T.);
#297=EDGE_CURVE('',#363,#363,#395,.F.);
#298=EDGE_CURVE('',#364,#340,#53,.T.);
#299=EDGE_CURVE('',#364,#365,#54,.T.);
#300=EDGE_CURVE('',#365,#342,#55,.T.);
#301=EDGE_CURVE('',#366,#366,#396,.F.);
#302=EDGE_CURVE('',#367,#341,#56,.T.);
#303=EDGE_CURVE('',#364,#367,#57,.T.);
#304=EDGE_CURVE('',#368,#368,#397,.F.);
#305=EDGE_CURVE('',#369,#343,#58,.T.);
#306=EDGE_CURVE('',#367,#369,#59,.T.);
#307=EDGE_CURVE('',#370,#370,#398,.F.);
#308=EDGE_CURVE('',#365,#369,#60,.T.);
#309=EDGE_CURVE('',#371,#371,#399,.T.);
#310=EDGE_CURVE('',#372,#372,#400,.T.);
#311=EDGE_CURVE('',#349,#362,#61,.F.);
#312=EDGE_CURVE('',#350,#361,#62,.T.);
#313=EDGE_CURVE('',#373,#373,#401,.T.);
#314=EDGE_CURVE('',#374,#374,#402,.T.);
#315=EDGE_CURVE('',#359,#352,#63,.F.);
#316=EDGE_CURVE('',#351,#360,#64,.T.);
#317=EDGE_CURVE('',#375,#375,#403,.T.);
#318=EDGE_CURVE('',#376,#376,#404,.T.);
#319=EDGE_CURVE('',#377,#355,#65,.T.);
#320=EDGE_CURVE('',#378,#377,#66,.T.);
#321=EDGE_CURVE('',#378,#354,#67,.T.);
#322=EDGE_CURVE('',#379,#357,#68,.T.);
#323=EDGE_CURVE('',#377,#379,#69,.T.);
#324=EDGE_CURVE('',#380,#380,#405,.T.);
#325=EDGE_CURVE('',#381,#381,#406,.T.);
#326=EDGE_CURVE('',#382,#356,#70,.T.);
#327=EDGE_CURVE('',#379,#382,#71,.T.);
#328=EDGE_CURVE('',#382,#378,#72,.T.);
#329=EDGE_CURVE('',#383,#383,#407,.T.);
#330=EDGE_CURVE('',#384,#384,#408,.T.);
#331=EDGE_CURVE('',#385,#385,#409,.T.);
#332=EDGE_CURVE('',#386,#386,#410,.T.);
#333=VERTEX_POINT('',#825);
#334=VERTEX_POINT('',#827);
#335=VERTEX_POINT('',#828);
#336=VERTEX_POINT('',#830);
#337=VERTEX_POINT('',#832);
#338=VERTEX_POINT('',#836);
#339=VERTEX_POINT('',#837);
#340=VERTEX_POINT('',#841);
#341=VERTEX_POINT('',#842);
#342=VERTEX_POINT('',#844);
#343=VERTEX_POINT('',#846);
#344=VERTEX_POINT('',#850);
#345=VERTEX_POINT('',#852);
#346=VERTEX_POINT('',#853);
#347=VERTEX_POINT('',#858);
#348=VERTEX_POINT('',#860);
#349=VERTEX_POINT('',#862);
#350=VERTEX_POINT('',#864);
#351=VERTEX_POINT('',#866);
#352=VERTEX_POINT('',#868);
#353=VERTEX_POINT('',#872);
#354=VERTEX_POINT('',#874);
#355=VERTEX_POINT('',#875);
#356=VERTEX_POINT('',#877);
#357=VERTEX_POINT('',#879);
#358=VERTEX_POINT('',#882);
#359=VERTEX_POINT('',#884);
#360=VERTEX_POINT('',#886);
#361=VERTEX_POINT('',#888);
#362=VERTEX_POINT('',#890);
#363=VERTEX_POINT('',#896);
#364=VERTEX_POINT('',#898);
#365=VERTEX_POINT('',#900);
#366=VERTEX_POINT('',#904);
#367=VERTEX_POINT('',#906);
#368=VERTEX_POINT('',#910);
#369=VERTEX_POINT('',#912);
#370=VERTEX_POINT('',#916);
#371=VERTEX_POINT('',#921);
#372=VERTEX_POINT('',#923);
#373=VERTEX_POINT('',#928);
#374=VERTEX_POINT('',#930);
#375=VERTEX_POINT('',#938);
#376=VERTEX_POINT('',#940);
#377=VERTEX_POINT('',#942);
#378=VERTEX_POINT('',#944);
#379=VERTEX_POINT('',#948);
#380=VERTEX_POINT('',#952);
#381=VERTEX_POINT('',#954);
#382=VERTEX_POINT('',#956);
#383=VERTEX_POINT('',#963);
#384=VERTEX_POINT('',#967);
#385=VERTEX_POINT('',#971);
#386=VERTEX_POINT('',#975);
#387=CIRCLE('',#603,0.004);
#388=CIRCLE('',#606,0.004);
#389=CIRCLE('',#608,0.004);
#390=CIRCLE('',#609,0.03);
#391=CIRCLE('',#610,0.03);
#392=CIRCLE('',#612,0.004);
#393=CIRCLE('',#613,0.03);
#394=CIRCLE('',#614,0.03);
#395=CIRCLE('',#617,0.004);
#396=CIRCLE('',#619,0.004);
#397=CIRCLE('',#621,0.004);
#398=CIRCLE('',#623,0.004);
#399=CIRCLE('',#626,0.0026);
#400=CIRCLE('',#627,0.0026);
#401=CIRCLE('',#629,0.0026);
#402=CIRCLE('',#630,0.0026);
#403=CIRCLE('',#635,0.00135);
#404=CIRCLE('',#636,0.00135);
#405=CIRCLE('',#639,0.00135);
#406=CIRCLE('',#640,0.00135);
#407=CIRCLE('',#644,0.00135);
#408=CIRCLE('',#647,0.00135);
#409=CIRCLE('',#650,0.00135);
#410=CIRCLE('',#653,0.00135);
#411=EDGE_LOOP('',(#120));
#412=EDGE_LOOP('',(#121,#122,#123,#124));
#413=EDGE_LOOP('',(#125,#126,#127,#128));
#414=EDGE_LOOP('',(#129,#130,#131,#132));
#415=EDGE_LOOP('',(#133));
#416=EDGE_LOOP('',(#134,#135,#136,#137));
#417=EDGE_LOOP('',(#138));
#418=EDGE_LOOP('',(#139,#140,#141,#142,#143,#144,#145,#146,#147));
#419=EDGE_LOOP('',(#148));
#420=EDGE_LOOP('',(#149,#150,#151,#152));
#421=EDGE_LOOP('',(#153,#154,#155,#156,#157,#158,#159,#160,#161));
#422=EDGE_LOOP('',(#162,#163,#164,#165));
#423=EDGE_LOOP('',(#166));
#424=EDGE_LOOP('',(#167,#168,#169,#170));
#425=EDGE_LOOP('',(#171));
#426=EDGE_LOOP('',(#172,#173,#174,#175));
#427=EDGE_LOOP('',(#176));
#428=EDGE_LOOP('',(#177,#178,#179,#180));
#429=EDGE_LOOP('',(#181));
#430=EDGE_LOOP('',(#182,#183,#184,#185));
#431=EDGE_LOOP('',(#186,#187,#188,#189));
#432=EDGE_LOOP('',(#190));
#433=EDGE_LOOP('',(#191));
#434=EDGE_LOOP('',(#192,#193,#194,#195));
#435=EDGE_LOOP('',(#196));
#436=EDGE_LOOP('',(#197));
#437=EDGE_LOOP('',(#198,#199,#200,#201));
#438=EDGE_LOOP('',(#202,#203,#204,#205));
#439=EDGE_LOOP('',(#206,#207,#208,#209));
#440=EDGE_LOOP('',(#210,#211,#212,#213));
#441=EDGE_LOOP('',(#214));
#442=EDGE_LOOP('',(#215));
#443=EDGE_LOOP('',(#216,#217,#218,#219));
#444=EDGE_LOOP('',(#220,#221,#222,#223));
#445=EDGE_LOOP('',(#224));
#446=EDGE_LOOP('',(#225));
#447=EDGE_LOOP('',(#226,#227,#228,#229));
#448=EDGE_LOOP('',(#230,#231,#232,#233));
#449=EDGE_LOOP('',(#234,#235,#236,#237));
#450=EDGE_LOOP('',(#238));
#451=EDGE_LOOP('',(#239));
#452=EDGE_LOOP('',(#240));
#453=EDGE_LOOP('',(#241));
#454=EDGE_LOOP('',(#242));
#455=EDGE_LOOP('',(#243));
#456=EDGE_LOOP('',(#244));
#457=EDGE_LOOP('',(#245));
#458=EDGE_LOOP('',(#246));
#459=EDGE_LOOP('',(#247));
#460=EDGE_LOOP('',(#248));
#461=EDGE_LOOP('',(#249));
#462=EDGE_LOOP('',(#250));
#463=EDGE_LOOP('',(#251));
#464=EDGE_LOOP('',(#252));
#465=EDGE_LOOP('',(#253));
#466=EDGE_LOOP('',(#254));
#467=EDGE_LOOP('',(#255));
#468=EDGE_LOOP('',(#256));
#469=EDGE_LOOP('',(#257));
#470=EDGE_LOOP('',(#258));
#471=EDGE_LOOP('',(#259));
#472=EDGE_LOOP('',(#260));
#473=EDGE_LOOP('',(#261));
#474=FACE_BOUND('',#411,.T.);
#475=FACE_BOUND('',#412,.T.);
#476=FACE_BOUND('',#413,.T.);
#477=FACE_BOUND('',#414,.T.);
#478=FACE_BOUND('',#415,.T.);
#479=FACE_BOUND('',#416,.T.);
#480=FACE_BOUND('',#417,.T.);
#481=FACE_BOUND('',#418,.T.);
#482=FACE_BOUND('',#419,.T.);
#483=FACE_BOUND('',#420,.T.);
#484=FACE_BOUND('',#421,.T.);
#485=FACE_BOUND('',#422,.T.);
#486=FACE_BOUND('',#423,.T.);
#487=FACE_BOUND('',#424,.T.);
#488=FACE_BOUND('',#425,.T.);
#489=FACE_BOUND('',#426,.T.);
#490=FACE_BOUND('',#427,.T.);
#491=FACE_BOUND('',#428,.T.);
#492=FACE_BOUND('',#429,.T.);
#493=FACE_BOUND('',#430,.T.);
#494=FACE_BOUND('',#431,.T.);
#495=FACE_BOUND('',#432,.T.);
#496=FACE_BOUND('',#433,.T.);
#497=FACE_BOUND('',#434,.T.);
#498=FACE_BOUND('',#435,.T.);
#499=FACE_BOUND('',#436,.T.);
#500=FACE_BOUND('',#437,.T.);
#501=FACE_BOUND('',#438,.T.);
#502=FACE_BOUND('',#439,.T.);
#503=FACE_BOUND('',#440,.T.);
#504=FACE_BOUND('',#441,.T.);
#505=FACE_BOUND('',#442,.T.);
#506=FACE_BOUND('',#443,.T.);
#507=FACE_BOUND('',#444,.T.);
#508=FACE_BOUND('',#445,.T.);
#509=FACE_BOUND('',#446,.T.);
#510=FACE_BOUND('',#447,.T.);
#511=FACE_BOUND('',#448,.T.);
#512=FACE_BOUND('',#449,.T.);
#513=FACE_BOUND('',#450,.T.);
#514=FACE_BOUND('',#451,.T.);
#515=FACE_BOUND('',#452,.T.);
#516=FACE_BOUND('',#453,.T.);
#517=FACE_BOUND('',#454,.T.);
#518=FACE_BOUND('',#455,.T.);
#519=FACE_BOUND('',#456,.T.);
#520=FACE_BOUND('',#457,.T.);
#521=FACE_BOUND('',#458,.T.);
#522=FACE_BOUND('',#459,.T.);
#523=FACE_BOUND('',#460,.T.);
#524=FACE_BOUND('',#461,.T.);
#525=FACE_BOUND('',#462,.T.);
#526=FACE_BOUND('',#463,.T.);
#527=FACE_BOUND('',#464,.T.);
#528=FACE_BOUND('',#465,.T.);
#529=FACE_BOUND('',#466,.T.);
#530=FACE_BOUND('',#467,.T.);
#531=FACE_BOUND('',#468,.T.);
#532=FACE_BOUND('',#469,.T.);
#533=FACE_BOUND('',#470,.T.);
#534=FACE_BOUND('',#471,.T.);
#535=FACE_BOUND('',#472,.T.);
#536=FACE_BOUND('',#473,.T.);
#537=PLANE('',#602);
#538=PLANE('',#604);
#539=PLANE('',#605);
#540=PLANE('',#607);
#541=PLANE('',#611);
#542=PLANE('',#615);
#543=PLANE('',#616);
#544=PLANE('',#618);
#545=PLANE('',#620);
#546=PLANE('',#622);
#547=PLANE('',#624);
#548=PLANE('',#625);
#549=PLANE('',#628);
#550=PLANE('',#631);
#551=PLANE('',#634);
#552=PLANE('',#637);
#553=PLANE('',#638);
#554=PLANE('',#641);
#555=PLANE('',#642);
#556=ADVANCED_FACE('',(#474,#475),#537,.T.);
#557=ADVANCED_FACE('',(#476,#477),#538,.T.);
#558=ADVANCED_FACE('',(#478,#479),#539,.F.);
#559=ADVANCED_FACE('',(#480,#481),#540,.F.);
#560=ADVANCED_FACE('',(#482,#483,#484),#541,.T.);
#561=ADVANCED_FACE('',(#485),#542,.F.);
#562=ADVANCED_FACE('',(#486,#487),#543,.T.);
#563=ADVANCED_FACE('',(#488,#489),#544,.F.);
#564=ADVANCED_FACE('',(#490,#491),#545,.F.);
#565=ADVANCED_FACE('',(#492,#493),#546,.T.);
#566=ADVANCED_FACE('',(#494),#547,.T.);
#567=ADVANCED_FACE('',(#495,#496,#497),#548,.T.);
#568=ADVANCED_FACE('',(#498,#499,#500),#549,.F.);
#569=ADVANCED_FACE('',(#501),#550,.T.);
#570=ADVANCED_FACE('',(#502),#16,.F.);
#571=ADVANCED_FACE('',(#503),#17,.F.);
#572=ADVANCED_FACE('',(#504,#505,#506),#551,.F.);
#573=ADVANCED_FACE('',(#507),#552,.F.);
#574=ADVANCED_FACE('',(#508,#509,#510),#553,.F.);
#575=ADVANCED_FACE('',(#511),#554,.F.);
#576=ADVANCED_FACE('',(#512),#555,.T.);
#577=ADVANCED_FACE('',(#513,#514),#18,.F.);
#578=ADVANCED_FACE('',(#515,#516),#12,.F.);
#579=ADVANCED_FACE('',(#517,#518),#19,.F.);
#580=ADVANCED_FACE('',(#519,#520),#13,.F.);
#581=ADVANCED_FACE('',(#521,#522),#20,.F.);
#582=ADVANCED_FACE('',(#523,#524),#14,.F.);
#583=ADVANCED_FACE('',(#525,#526),#21,.F.);
#584=ADVANCED_FACE('',(#527,#528),#15,.F.);
#585=ADVANCED_FACE('',(#529,#530),#22,.F.);
#586=ADVANCED_FACE('',(#531,#532),#23,.F.);
#587=ADVANCED_FACE('',(#533,#534),#24,.F.);
#588=ADVANCED_FACE('',(#535,#536),#25,.F.);
#589=CLOSED_SHELL('',(#556,#557,#558,#559,#560,#561,#562,#563,#564,#565,
#566,#567,#568,#569,#570,#571,#572,#573,#574,#575,#576,#577,#578,#579,#580,
#581,#582,#583,#584,#585,#586,#587,#588));
#590=STYLED_ITEM('',(#591),#598);
#591=PRESENTATION_STYLE_ASSIGNMENT((#592));
#592=SURFACE_STYLE_USAGE(.BOTH.,#593);
#593=SURFACE_SIDE_STYLE('',(#594));
#594=SURFACE_STYLE_FILL_AREA(#595);
#595=FILL_AREA_STYLE('',(#596));
#596=FILL_AREA_STYLE_COLOUR('',#597);
#597=DRAUGHTING_PRE_DEFINED_COLOUR('white');
#598=MANIFOLD_SOLID_BREP('Part 3',#589);
#599=SHAPE_DEFINITION_REPRESENTATION(#987,#600);
#600=SHAPE_REPRESENTATION('Part 3',(#601),#982);
#601=AXIS2_PLACEMENT_3D('',#822,#659,#660);
#602=AXIS2_PLACEMENT_3D('',#823,#661,#662);
#603=AXIS2_PLACEMENT_3D('',#824,#663,#664);
#604=AXIS2_PLACEMENT_3D('',#834,#669,#670);
#605=AXIS2_PLACEMENT_3D('',#848,#678,#679);
#606=AXIS2_PLACEMENT_3D('',#849,#680,#681);
#607=AXIS2_PLACEMENT_3D('',#856,#685,#686);
#608=AXIS2_PLACEMENT_3D('',#857,#687,#688);
#609=AXIS2_PLACEMENT_3D('',#861,#690,#691);
#610=AXIS2_PLACEMENT_3D('',#869,#695,#696);
#611=AXIS2_PLACEMENT_3D('',#870,#697,#698);
#612=AXIS2_PLACEMENT_3D('',#871,#699,#700);
#613=AXIS2_PLACEMENT_3D('',#883,#706,#707);
#614=AXIS2_PLACEMENT_3D('',#891,#711,#712);
#615=AXIS2_PLACEMENT_3D('',#892,#713,#714);
#616=AXIS2_PLACEMENT_3D('',#894,#716,#717);
#617=AXIS2_PLACEMENT_3D('',#895,#718,#719);
#618=AXIS2_PLACEMENT_3D('',#902,#723,#724);
#619=AXIS2_PLACEMENT_3D('',#903,#725,#726);
#620=AXIS2_PLACEMENT_3D('',#908,#729,#730);
#621=AXIS2_PLACEMENT_3D('',#909,#731,#732);
#622=AXIS2_PLACEMENT_3D('',#914,#735,#736);
#623=AXIS2_PLACEMENT_3D('',#915,#737,#738);
#624=AXIS2_PLACEMENT_3D('',#918,#740,#741);
#625=AXIS2_PLACEMENT_3D('',#919,#742,#743);
#626=AXIS2_PLACEMENT_3D('',#920,#744,#745);
#627=AXIS2_PLACEMENT_3D('',#922,#746,#747);
#628=AXIS2_PLACEMENT_3D('',#926,#750,#751);
#629=AXIS2_PLACEMENT_3D('',#927,#752,#753);
#630=AXIS2_PLACEMENT_3D('',#929,#754,#755);
#631=AXIS2_PLACEMENT_3D('',#933,#758,#759);
#632=AXIS2_PLACEMENT_3D('',#934,#760,#761);
#633=AXIS2_PLACEMENT_3D('',#935,#762,#763);
#634=AXIS2_PLACEMENT_3D('',#936,#764,#765);
#635=AXIS2_PLACEMENT_3D('',#937,#766,#767);
#636=AXIS2_PLACEMENT_3D('',#939,#768,#769);
#637=AXIS2_PLACEMENT_3D('',#946,#773,#774);
#638=AXIS2_PLACEMENT_3D('',#950,#777,#778);
#639=AXIS2_PLACEMENT_3D('',#951,#779,#780);
#640=AXIS2_PLACEMENT_3D('',#953,#781,#782);
#641=AXIS2_PLACEMENT_3D('',#958,#785,#786);
#642=AXIS2_PLACEMENT_3D('',#960,#788,#789);
#643=AXIS2_PLACEMENT_3D('',#961,#790,#791);
#644=AXIS2_PLACEMENT_3D('',#962,#792,#793);
#645=AXIS2_PLACEMENT_3D('',#964,#794,#795);
#646=AXIS2_PLACEMENT_3D('',#965,#796,#797);
#647=AXIS2_PLACEMENT_3D('',#966,#798,#799);
#648=AXIS2_PLACEMENT_3D('',#968,#800,#801);
#649=AXIS2_PLACEMENT_3D('',#969,#802,#803);
#650=AXIS2_PLACEMENT_3D('',#970,#804,#805);
#651=AXIS2_PLACEMENT_3D('',#972,#806,#807);
#652=AXIS2_PLACEMENT_3D('',#973,#808,#809);
#653=AXIS2_PLACEMENT_3D('',#974,#810,#811);
#654=AXIS2_PLACEMENT_3D('',#976,#812,#813);
#655=AXIS2_PLACEMENT_3D('',#977,#814,#815);
#656=AXIS2_PLACEMENT_3D('',#978,#816,#817);
#657=AXIS2_PLACEMENT_3D('',#979,#818,#819);
#658=AXIS2_PLACEMENT_3D('',#980,#820,#821);
#659=DIRECTION('',(0.,0.,1.));
#660=DIRECTION('',(1.,0.,0.));
#661=DIRECTION('',(0.,-1.,0.));
#662=DIRECTION('',(0.,0.,-1.));
#663=DIRECTION('',(0.,-1.,0.));
#664=DIRECTION('',(0.,0.,-1.));
#665=DIRECTION('',(0.,0.,-1.));
#666=DIRECTION('',(1.,0.,-1.01022033590138E-16));
#667=DIRECTION('',(0.,0.,-1.));
#668=DIRECTION('',(-1.,0.,0.));
#669=DIRECTION('',(0.,0.,1.));
#670=DIRECTION('',(1.,0.,0.));
#671=DIRECTION('',(-1.,0.,0.));
#672=DIRECTION('',(2.77555756156289E-16,-1.,0.));
#673=DIRECTION('',(2.77555756156289E-16,-1.,0.));
#674=DIRECTION('',(-1.,0.,0.));
#675=DIRECTION('',(0.,-1.,0.));
#676=DIRECTION('',(-1.,0.,0.));
#677=DIRECTION('',(0.,-1.,0.));
#678=DIRECTION('',(0.,-1.,0.));
#679=DIRECTION('',(0.,0.,-1.));
#680=DIRECTION('',(0.,1.,0.));
#681=DIRECTION('',(0.,0.,1.));
#682=DIRECTION('',(-1.,0.,0.));
#683=DIRECTION('',(0.,0.,-1.));
#684=DIRECTION('',(0.,0.,-1.));
#685=DIRECTION('',(1.,2.77555756156289E-16,0.));
#686=DIRECTION('',(-2.77555756156289E-16,1.,0.));
#687=DIRECTION('',(-1.,-2.77555756156289E-16,0.));
#688=DIRECTION('',(2.77555756156289E-16,-1.,0.));
#689=DIRECTION('',(2.77555756156289E-16,-1.,0.));
#690=DIRECTION('',(1.,2.77555756156289E-16,0.));
#691=DIRECTION('',(-2.77555756156289E-16,1.,0.));
#692=DIRECTION('',(2.60817095916718E-16,-0.939692620785909,-0.342020143325668));
#693=DIRECTION('',(9.49296595014383E-17,-0.342020143325669,0.939692620785908));
#694=DIRECTION('',(2.60817095916718E-16,-0.939692620785908,-0.342020143325669));
#695=DIRECTION('',(1.,2.77555756156289E-16,0.));
#696=DIRECTION('',(-2.77555756156289E-16,1.,0.));
#697=DIRECTION('',(1.,2.77555756156289E-16,0.));
#698=DIRECTION('',(-2.77555756156289E-16,1.,0.));
#699=DIRECTION('',(1.,2.77555756156289E-16,0.));
#700=DIRECTION('',(-2.77555756156289E-16,1.,0.));
#701=DIRECTION('',(2.60817095916718E-16,-0.939692620785908,-0.342020143325669));
#702=DIRECTION('',(9.49296595014383E-17,-0.342020143325669,0.939692620785908));
#703=DIRECTION('',(-2.60817095916718E-16,0.939692620785908,0.342020143325669));
#704=DIRECTION('',(-9.49296595014383E-17,0.342020143325669,-0.939692620785908));
#705=DIRECTION('',(2.77555756156289E-16,-1.,0.));
#706=DIRECTION('',(1.,2.77555756156289E-16,0.));
#707=DIRECTION('',(-2.77555756156289E-16,1.,0.));
#708=DIRECTION('',(-2.60817095916718E-16,0.939692620785908,0.342020143325669));
#709=DIRECTION('',(-9.49296595014383E-17,0.342020143325669,-0.939692620785908));
#710=DIRECTION('',(-2.60817095916718E-16,0.939692620785908,0.342020143325668));
#711=DIRECTION('',(1.,2.77555756156289E-16,0.));
#712=DIRECTION('',(-2.77555756156289E-16,1.,0.));
#713=DIRECTION('',(0.,0.,1.));
#714=DIRECTION('',(1.,0.,0.));
#715=DIRECTION('',(-1.,-2.77555756156289E-16,0.));
#716=DIRECTION('',(-1.,0.,0.));
#717=DIRECTION('',(0.,0.,1.));
#718=DIRECTION('',(-1.,0.,0.));
#719=DIRECTION('',(0.,0.,1.));
#720=DIRECTION('',(0.,0.,1.));
#721=DIRECTION('',(0.,-1.,0.));
#722=DIRECTION('',(0.,0.,1.));
#723=DIRECTION('',(0.,1.,0.));
#724=DIRECTION('',(0.,0.,1.));
#725=DIRECTION('',(0.,1.,0.));
#726=DIRECTION('',(0.,0.,1.));
#727=DIRECTION('',(0.,0.,1.));
#728=DIRECTION('',(-1.,0.,0.));
#729=DIRECTION('',(-1.,0.,0.));
#730=DIRECTION('',(0.,0.,1.));
#731=DIRECTION('',(-1.,0.,0.));
#732=DIRECTION('',(0.,0.,1.));
#733=DIRECTION('',(0.,0.,1.));
#734=DIRECTION('',(0.,-1.,0.));
#735=DIRECTION('',(0.,1.,0.));
#736=DIRECTION('',(0.,0.,1.));
#737=DIRECTION('',(0.,1.,0.));
#738=DIRECTION('',(0.,0.,1.));
#739=DIRECTION('',(-1.,0.,0.));
#740=DIRECTION('',(0.,0.,1.));
#741=DIRECTION('',(1.,0.,0.));
#742=DIRECTION('',(-9.49296595014383E-17,0.342020143325668,-0.939692620785908));
#743=DIRECTION('',(0.,0.939692620785909,0.342020143325668));
#744=DIRECTION('',(9.49296595014383E-17,-0.342020143325668,0.939692620785908));
#745=DIRECTION('',(0.,-0.939692620785908,-0.342020143325668));
#746=DIRECTION('',(9.49296595014383E-17,-0.342020143325668,0.939692620785908));
#747=DIRECTION('',(0.,-0.939692620785908,-0.342020143325668));
#748=DIRECTION('',(-1.,-2.77555756156289E-16,1.27319657538418E-33));
#749=DIRECTION('',(1.,2.77555756156289E-16,0.));
#750=DIRECTION('',(-9.49296595014384E-17,0.342020143325669,-0.939692620785908));
#751=DIRECTION('',(0.,0.939692620785908,0.342020143325669));
#752=DIRECTION('',(-9.49296595014384E-17,0.342020143325669,-0.939692620785908));
#753=DIRECTION('',(0.,0.939692620785908,0.342020143325669));
#754=DIRECTION('',(-9.49296595014384E-17,0.342020143325669,-0.939692620785908));
#755=DIRECTION('',(0.,0.939692620785908,0.342020143325669));
#756=DIRECTION('',(1.,-9.17479333583985E-33,-1.01022033590137E-16));
#757=DIRECTION('',(1.,2.77555756156289E-16,0.));
#758=DIRECTION('',(2.60817095916718E-16,-0.939692620785908,-0.342020143325669));
#759=DIRECTION('',(0.,0.342020143325669,-0.939692620785908));
#760=DIRECTION('',(1.,0.,-1.01022033590137E-16));
#761=DIRECTION('',(-1.01022033590138E-16,0.,-1.));
#762=DIRECTION('',(-1.,-2.77555756156289E-16,0.));
#763=DIRECTION('',(2.77555756156289E-16,-1.,0.));
#764=DIRECTION('',(9.49296595014384E-17,-0.342020143325669,0.939692620785908));
#765=DIRECTION('',(0.,-0.939692620785908,-0.342020143325669));
#766=DIRECTION('',(-9.49296595014384E-17,0.342020143325669,-0.939692620785908));
#767=DIRECTION('',(0.,0.939692620785908,0.342020143325669));
#768=DIRECTION('',(-9.49296595014384E-17,0.342020143325669,-0.939692620785908));
#769=DIRECTION('',(0.,0.939692620785908,0.342020143325669));
#770=DIRECTION('',(1.,2.77555756156289E-16,0.));
#771=DIRECTION('',(2.60817095916718E-16,-0.939692620785908,-0.342020143325669));
#772=DIRECTION('',(1.,2.77555756156289E-16,0.));
#773=DIRECTION('',(2.60817095916718E-16,-0.939692620785908,-0.342020143325669));
#774=DIRECTION('',(0.,0.342020143325669,-0.939692620785908));
#775=DIRECTION('',(1.,2.77555756156289E-16,0.));
#776=DIRECTION('',(-9.49296595014383E-17,0.342020143325669,-0.939692620785908));
#777=DIRECTION('',(-9.49296595014383E-17,0.342020143325669,-0.939692620785908));
#778=DIRECTION('',(0.,0.939692620785908,0.342020143325669));
#779=DIRECTION('',(9.49296595014383E-17,-0.342020143325668,0.939692620785908));
#780=DIRECTION('',(0.,-0.939692620785908,-0.342020143325668));
#781=DIRECTION('',(9.49296595014383E-17,-0.342020143325668,0.939692620785908));
#782=DIRECTION('',(0.,-0.939692620785908,-0.342020143325668));
#783=DIRECTION('',(1.,2.77555756156289E-16,0.));
#784=DIRECTION('',(-2.60817095916718E-16,0.939692620785908,0.342020143325669));
#785=DIRECTION('',(-2.60817095916718E-16,0.939692620785908,0.342020143325669));
#786=DIRECTION('',(0.,-0.342020143325669,0.939692620785908));
#787=DIRECTION('',(9.49296595014383E-17,-0.342020143325669,0.939692620785908));
#788=DIRECTION('',(1.,2.77555756156289E-16,0.));
#789=DIRECTION('',(-2.77555756156289E-16,1.,0.));
#790=DIRECTION('',(9.49296595014383E-17,-0.342020143325668,0.939692620785908));
#791=DIRECTION('',(0.,-0.939692620785908,-0.342020143325668));
#792=DIRECTION('',(9.49296595014383E-17,-0.342020143325668,0.939692620785908));
#793=DIRECTION('',(0.,-0.939692620785908,-0.342020143325668));
#794=DIRECTION('',(-9.49296595014383E-17,0.342020143325668,-0.939692620785908));
#795=DIRECTION('',(0.,0.939692620785908,0.342020143325668));
#796=DIRECTION('',(9.49296595014383E-17,-0.342020143325668,0.939692620785908));
#797=DIRECTION('',(0.,-0.939692620785908,-0.342020143325668));
#798=DIRECTION('',(9.49296595014383E-17,-0.342020143325668,0.939692620785908));
#799=DIRECTION('',(0.,-0.939692620785908,-0.342020143325668));
#800=DIRECTION('',(-9.49296595014383E-17,0.342020143325668,-0.939692620785908));
#801=DIRECTION('',(0.,0.939692620785908,0.342020143325668));
#802=DIRECTION('',(-9.49296595014384E-17,0.342020143325669,-0.939692620785908));
#803=DIRECTION('',(0.,0.939692620785908,0.342020143325669));
#804=DIRECTION('',(-9.49296595014384E-17,0.342020143325669,-0.939692620785908));
#805=DIRECTION('',(0.,0.939692620785908,0.342020143325669));
#806=DIRECTION('',(9.49296595014384E-17,-0.342020143325669,0.939692620785908));
#807=DIRECTION('',(0.,-0.939692620785908,-0.342020143325669));
#808=DIRECTION('',(-9.49296595014384E-17,0.342020143325669,-0.939692620785908));
#809=DIRECTION('',(0.,0.939692620785908,0.342020143325669));
#810=DIRECTION('',(-9.49296595014384E-17,0.342020143325669,-0.939692620785908));
#811=DIRECTION('',(0.,0.939692620785908,0.342020143325669));
#812=DIRECTION('',(9.49296595014384E-17,-0.342020143325669,0.939692620785908));
#813=DIRECTION('',(0.,-0.939692620785908,-0.342020143325669));
#814=DIRECTION('',(1.,2.77555756156289E-16,0.));
#815=DIRECTION('',(-2.77555756156289E-16,1.,0.));
#816=DIRECTION('',(0.,1.,0.));
#817=DIRECTION('',(0.,0.,1.));
#818=DIRECTION('',(-1.,-2.77555756156289E-16,0.));
#819=DIRECTION('',(2.77555756156289E-16,-1.,0.));
#820=DIRECTION('',(0.,-1.,0.));
#821=DIRECTION('',(0.,0.,-1.));
#822=CARTESIAN_POINT('',(0.,0.,0.));
#823=CARTESIAN_POINT('',(-1.38777878078145E-17,0.075,0.1));
#824=CARTESIAN_POINT('',(-2.75106462557994E-17,0.075,0.0798617956667759));
#825=CARTESIAN_POINT('',(-2.75106462557994E-17,0.075,0.0758617956667759));
#826=CARTESIAN_POINT('',(-0.025,0.075,0.1));
#827=CARTESIAN_POINT('',(-0.025,0.075,0.1));
#828=CARTESIAN_POINT('',(-0.025,0.075,0.0672979592489935));
#829=CARTESIAN_POINT('',(-1.71814144670287E-17,0.075,0.0672979592489935));
#830=CARTESIAN_POINT('',(0.025,0.075,0.0672979592489935));
#831=CARTESIAN_POINT('',(0.025,0.075,0.1));
#832=CARTESIAN_POINT('',(0.025,0.075,0.1));
#833=CARTESIAN_POINT('',(-1.38777878078145E-17,0.075,0.1));
#834=CARTESIAN_POINT('',(-2.08166817117217E-17,0.1,0.1));
#835=CARTESIAN_POINT('',(-2.77555756156289E-17,0.125,0.1));
#836=CARTESIAN_POINT('',(0.025,0.125,0.1));
#837=CARTESIAN_POINT('',(-0.025,0.125,0.1));
#838=CARTESIAN_POINT('',(-0.025,0.1,0.1));
#839=CARTESIAN_POINT('',(0.025,0.1,0.1));
#840=CARTESIAN_POINT('',(-2.08166817117217E-17,0.1205,0.1));
#841=CARTESIAN_POINT('',(0.0205,0.1205,0.1));
#842=CARTESIAN_POINT('',(-0.0205,0.1205,0.1));
#843=CARTESIAN_POINT('',(0.0205,0.1,0.1));
#844=CARTESIAN_POINT('',(0.0205,0.0795,0.1));
#845=CARTESIAN_POINT('',(-2.08166817117217E-17,0.0795,0.1));
#846=CARTESIAN_POINT('',(-0.0205,0.0795,0.1));
#847=CARTESIAN_POINT('',(-0.0205,0.1,0.1));
#848=CARTESIAN_POINT('',(-2.77555756156289E-17,0.125,0.1));
#849=CARTESIAN_POINT('',(-2.77555756156289E-17,0.125,0.0798617956667759));
#850=CARTESIAN_POINT('',(-2.77555756156289E-17,0.125,0.0838617956667759));
#851=CARTESIAN_POINT('',(-2.77555756156289E-17,0.125,0.));
#852=CARTESIAN_POINT('',(0.025,0.125,0.));
#853=CARTESIAN_POINT('',(-0.025,0.125,0.));
#854=CARTESIAN_POINT('',(-0.025,0.125,0.1));
#855=CARTESIAN_POINT('',(0.025,0.125,0.1));
#856=CARTESIAN_POINT('',(-0.025,0.1,0.1));
#857=CARTESIAN_POINT('',(-0.025,0.1,0.08));
#858=CARTESIAN_POINT('',(-0.025,0.096,0.08));
#859=CARTESIAN_POINT('',(-0.025,0.1,0.));
#860=CARTESIAN_POINT('',(-0.025,0.0802898094212539,0.));
#861=CARTESIAN_POINT('',(-0.025,0.0802898094212539,-0.03));
#862=CARTESIAN_POINT('',(-0.025,0.0700292051214839,-0.00180922137642275));
#863=CARTESIAN_POINT('',(-0.025,0.0713239372158361,-0.00133797743272939));
#864=CARTESIAN_POINT('',(-0.025,0.0169044729092332,-0.021145042605045));
#865=CARTESIAN_POINT('',(-0.025,0.00946553479189988,-0.00070672810295141));
#866=CARTESIAN_POINT('',(-0.025,0.00202659667456659,0.0197315863991421));
#867=CARTESIAN_POINT('',(-0.025,0.0638849990985028,0.0422462036207152));
#868=CARTESIAN_POINT('',(-0.025,0.0552606042997701,0.0391071806254163));
#869=CARTESIAN_POINT('',(-0.025,0.045,0.0672979592489935));
#870=CARTESIAN_POINT('',(0.025,0.1,0.1));
#871=CARTESIAN_POINT('',(0.025,0.1,0.08));
#872=CARTESIAN_POINT('',(0.025,0.104,0.08));
#873=CARTESIAN_POINT('',(0.025,0.029022893116583,0.0245025903202021));
#874=CARTESIAN_POINT('',(0.025,0.0499310539290695,0.0321125385091982));
#875=CARTESIAN_POINT('',(0.025,0.0081147323040966,0.0168926421312059));
#876=CARTESIAN_POINT('',(0.025,0.0557453963656059,0.0161377639558378));
#877=CARTESIAN_POINT('',(0.025,0.0615597388021423,0.000162989402477317));
#878=CARTESIAN_POINT('',(0.025,0.0406515779896558,-0.00744695878651879));
#879=CARTESIAN_POINT('',(0.025,0.0197434171771693,-0.015056906975515));
#880=CARTESIAN_POINT('',(0.025,0.013929074740633,0.000917867577845519));
#881=CARTESIAN_POINT('',(0.025,0.1,0.));
#882=CARTESIAN_POINT('',(0.025,0.080289809421254,0.));
#883=CARTESIAN_POINT('',(0.025,0.045,0.0672979592489935));
#884=CARTESIAN_POINT('',(0.025,0.0552606042997701,0.0391071806254163));
#885=CARTESIAN_POINT('',(0.025,0.0638849990985028,0.0422462036207152));
#886=CARTESIAN_POINT('',(0.025,0.0020265966745666,0.0197315863991421));
#887=CARTESIAN_POINT('',(0.025,0.00946553479189989,-0.00070672810295141));
#888=CARTESIAN_POINT('',(0.025,0.0169044729092332,-0.021145042605045));
#889=CARTESIAN_POINT('',(0.025,0.0713239372158361,-0.00133797743272939));
#890=CARTESIAN_POINT('',(0.025,0.0700292051214839,-0.00180922137642275));
#891=CARTESIAN_POINT('',(0.025,0.0802898094212539,-0.03));
#892=CARTESIAN_POINT('',(-2.08166817117217E-17,0.1,0.));
#893=CARTESIAN_POINT('',(-1.53460048616532E-17,0.0802898094212539,0.));
#894=CARTESIAN_POINT('',(0.0205,0.1,0.0025));
#895=CARTESIAN_POINT('',(0.0205,0.1,0.08));
#896=CARTESIAN_POINT('',(0.0205,0.1,0.084));
#897=CARTESIAN_POINT('',(0.0205,0.1205,0.0025));
#898=CARTESIAN_POINT('',(0.0205,0.1205,0.0025));
#899=CARTESIAN_POINT('',(0.0205,0.1,0.0025));
#900=CARTESIAN_POINT('',(0.0205,0.0795,0.0025));
#901=CARTESIAN_POINT('',(0.0205,0.0795,0.0025));
#902=CARTESIAN_POINT('',(-2.08166817117217E-17,0.1205,0.0025));
#903=CARTESIAN_POINT('',(-2.77555756156289E-17,0.1205,0.0798617956667759));
#904=CARTESIAN_POINT('',(-2.77555756156289E-17,0.1205,0.0838617956667759));
#905=CARTESIAN_POINT('',(-0.0205,0.1205,0.0025));
#906=CARTESIAN_POINT('',(-0.0205,0.1205,0.0025));
#907=CARTESIAN_POINT('',(-2.08166817117217E-17,0.1205,0.0025));
#908=CARTESIAN_POINT('',(-0.0205,0.1,0.0025));
#909=CARTESIAN_POINT('',(-0.0205,0.1,0.08));
#910=CARTESIAN_POINT('',(-0.0205,0.1,0.084));
#911=CARTESIAN_POINT('',(-0.0205,0.0795,0.0025));
#912=CARTESIAN_POINT('',(-0.0205,0.0795,0.0025));
#913=CARTESIAN_POINT('',(-0.0205,0.1,0.0025));
#914=CARTESIAN_POINT('',(-2.08166817117217E-17,0.0795,0.0025));
#915=CARTESIAN_POINT('',(-2.75106462557994E-17,0.0795,0.0798617956667759));
#916=CARTESIAN_POINT('',(-2.75106462557994E-17,0.0795,0.0838617956667759));
#917=CARTESIAN_POINT('',(-2.08166817117217E-17,0.0795,0.0025));
#918=CARTESIAN_POINT('',(-2.08166817117217E-17,0.1,0.0025));
#919=CARTESIAN_POINT('',(-0.025002,0.0713239372158361,-0.00133797743272939));
#920=CARTESIAN_POINT('',(0.01125,0.04979371463674,-0.0091743375886465));
#921=CARTESIAN_POINT('',(0.01125,0.0473505138226966,-0.0100635899612932));
#922=CARTESIAN_POINT('',(0.01125,0.0347586327041654,-0.0146466598818572));
#923=CARTESIAN_POINT('',(0.01125,0.032315431890122,-0.0155359122545039));
#924=CARTESIAN_POINT('',(-0.025002,0.0700292051214839,-0.00180922137642275));
#925=CARTESIAN_POINT('',(-0.025002,0.0169044729092332,-0.021145042605045));
#926=CARTESIAN_POINT('',(-0.025002,0.0638849990985028,0.0422462036207152));
#927=CARTESIAN_POINT('',(0.01125,0.0198807564694988,0.0262299691223298));
#928=CARTESIAN_POINT('',(0.01125,0.0223239572835422,0.0271192214949765));
#929=CARTESIAN_POINT('',(0.01125,0.0349158384020734,0.0317022914155405));
#930=CARTESIAN_POINT('',(0.01125,0.0373590392161167,0.0325915437881872));
#931=CARTESIAN_POINT('',(-0.025002,0.0552606042997701,0.0391071806254163));
#932=CARTESIAN_POINT('',(-0.025002,0.00202659667456659,0.0197315863991421));
#933=CARTESIAN_POINT('',(-0.025002,0.00946553479189988,-0.00070672810295141));
#934=CARTESIAN_POINT('',(-1.71814144670287E-17,0.045,0.0672979592489935));
#935=CARTESIAN_POINT('',(-1.53460048616532E-17,0.0802898094212539,-0.03));
#936=CARTESIAN_POINT('',(0.0045,0.029022893116583,0.0245025903202021));
#937=CARTESIAN_POINT('',(0.01125,0.0215053521502957,0.0217664291735968));
#938=CARTESIAN_POINT('',(0.01125,0.0227739371883567,0.0222281563670864));
#939=CARTESIAN_POINT('',(0.01125,0.0365404340828703,0.0272387514668074));
#940=CARTESIAN_POINT('',(0.01125,0.0378090191209313,0.0277004786602971));
#941=CARTESIAN_POINT('',(0.0045,0.00811473230409659,0.0168926421312059));
#942=CARTESIAN_POINT('',(0.0045,0.00811473230409659,0.0168926421312059));
#943=CARTESIAN_POINT('',(0.0045,0.029022893116583,0.0245025903202021));
#944=CARTESIAN_POINT('',(0.0045,0.0499310539290695,0.0321125385091982));
#945=CARTESIAN_POINT('',(0.0045,0.0499310539290695,0.0321125385091982));
#946=CARTESIAN_POINT('',(0.0045,0.013929074740633,0.000917867577845519));
#947=CARTESIAN_POINT('',(0.0045,0.0197434171771693,-0.015056906975515));
#948=CARTESIAN_POINT('',(0.0045,0.0197434171771693,-0.015056906975515));
#949=CARTESIAN_POINT('',(0.0045,0.013929074740633,0.000917867577845519));
#950=CARTESIAN_POINT('',(0.0045,0.0406515779896558,-0.00744695878651879));
#951=CARTESIAN_POINT('',(0.01125,0.0481691189559431,-0.00471079763991344));
#952=CARTESIAN_POINT('',(0.01125,0.0469005339178821,-0.00517252483340309));
#953=CARTESIAN_POINT('',(0.01125,0.0331340370233685,-0.0101831199331241));
#954=CARTESIAN_POINT('',(0.01125,0.0318654519853075,-0.0106448471266138));
#955=CARTESIAN_POINT('',(0.0045,0.0615597388021423,0.000162989402477321));
#956=CARTESIAN_POINT('',(0.0045,0.0615597388021423,0.000162989402477321));
#957=CARTESIAN_POINT('',(0.0045,0.0406515779896558,-0.00744695878651879));
#958=CARTESIAN_POINT('',(0.0045,0.0557453963656059,0.0161377639558378));
#959=CARTESIAN_POINT('',(0.0045,0.0557453963656059,0.0161377639558378));
#960=CARTESIAN_POINT('',(0.0045,0.0635132983372833,0.0394274786974775));
#961=CARTESIAN_POINT('',(0.01125,0.0347586327041654,-0.0146466598818572));
#962=CARTESIAN_POINT('',(0.01125,0.0343311075250083,-0.0134720441058748));
#963=CARTESIAN_POINT('',(0.01125,0.0330625224869473,-0.0139337712993645));
#964=CARTESIAN_POINT('',(0.01125,0.0347586327041654,-0.0146466598818572));
#965=CARTESIAN_POINT('',(0.01125,0.04979371463674,-0.0091743375886465));
#966=CARTESIAN_POINT('',(0.01125,0.0493661894575829,-0.0079997218126641));
#967=CARTESIAN_POINT('',(0.01125,0.0480976044195219,-0.00846144900615375));
#968=CARTESIAN_POINT('',(0.01125,0.04979371463674,-0.0091743375886465));
#969=CARTESIAN_POINT('',(0.01125,0.0349158384020734,0.0317022914155405));
#970=CARTESIAN_POINT('',(0.01125,0.0353433635812305,0.0305276756395581));
#971=CARTESIAN_POINT('',(0.01125,0.0366119486192914,0.0309894028330478));
#972=CARTESIAN_POINT('',(0.01125,0.0349158384020734,0.0317022914155405));
#973=CARTESIAN_POINT('',(0.01125,0.0198807564694988,0.0262299691223298));
#974=CARTESIAN_POINT('',(0.01125,0.0203082816486559,0.0250553533463474));
#975=CARTESIAN_POINT('',(0.01125,0.0215768666867169,0.0255170805398371));
#976=CARTESIAN_POINT('',(0.01125,0.0198807564694988,0.0262299691223298));
#977=CARTESIAN_POINT('',(0.020498,0.1,0.08));
#978=CARTESIAN_POINT('',(-2.77555756156289E-17,0.120498,0.0798617956667759));
#979=CARTESIAN_POINT('',(-0.020498,0.1,0.08));
#980=CARTESIAN_POINT('',(-2.75106462557994E-17,0.079502,0.0798617956667759));
#981=MECHANICAL_DESIGN_GEOMETRIC_PRESENTATION_REPRESENTATION('',(#590),
#982);
#982=(
GEOMETRIC_REPRESENTATION_CONTEXT(3)
GLOBAL_UNCERTAINTY_ASSIGNED_CONTEXT((#983))
GLOBAL_UNIT_ASSIGNED_CONTEXT((#986,#985,#984))
REPRESENTATION_CONTEXT('Part 3','TOP_LEVEL_ASSEMBLY_PART')
);
#983=UNCERTAINTY_MEASURE_WITH_UNIT(LENGTH_MEASURE(1.E-8),#986,
'DISTANCE_ACCURACY_VALUE','Maximum Tolerance applied to model');
#984=(
NAMED_UNIT(*)
SI_UNIT($,.STERADIAN.)
SOLID_ANGLE_UNIT()
);
#985=(
NAMED_UNIT(*)
PLANE_ANGLE_UNIT()
SI_UNIT($,.RADIAN.)
);
#986=(
LENGTH_UNIT()
NAMED_UNIT(*)
SI_UNIT($,.METRE.)
);
#987=PRODUCT_DEFINITION_SHAPE('','',#988);
#988=PRODUCT_DEFINITION('','',#990,#989);
#989=PRODUCT_DEFINITION_CONTEXT('',#996,'design');
#990=PRODUCT_DEFINITION_FORMATION_WITH_SPECIFIED_SOURCE('','',#992,
 .NOT_KNOWN.);
#991=PRODUCT_RELATED_PRODUCT_CATEGORY('','',(#992));
#992=PRODUCT('Part 3','Part 3','Part 3',(#994));
#993=PRODUCT_CATEGORY('','');
#994=PRODUCT_CONTEXT('',#996,'mechanical');
#995=APPLICATION_PROTOCOL_DEFINITION('international standard',
'ap242_managed_model_based_3d_engineering',2020,#996);
#996=APPLICATION_CONTEXT('managed model based 3d engineering');
ENDSEC;
END-ISO-10303-21;
