ISO-10303-21;
HEADER;
/* Generated by software containing ST-Developer
 * from STEP Tools, Inc. (www.steptools.com) 
 */
/* OPTION: using custom renumber hook */

FILE_DESCRIPTION(
/* description */ ('STEP AP242 Edition 2',
'CAx-IF Rec.Pracs.---Representation and Presentation of Product Manufa
cturing Information (PMI)---4.0---2014-10-13',
'CAx-IF Rec.Pracs.---3D Tessellated Geometry---0.4---2014-09-14','2;1',
'CAx-IF Rec.Pracs.---User Defined Attributes---1.5---2016-08-15'),
/* implementation_level */ '2;1');

FILE_NAME(
/* name */ 'Battery Holder - Part 2',
/* time_stamp */ '2026-06-01T00:53:49Z',
/* author */ (''),
/* organization */ (''),
/* preprocessor_version */ 'ST-DEVELOPER v20',
/* originating_system */ 'ONSHAPE BY PTC INC, 1.215',
/* authorisation */ '  ');

FILE_SCHEMA (('AP242_MANAGED_MODEL_BASED_3D_ENGINEERING_MIM_LF { 1 0 10303 442 3 1 4 }'));
ENDSEC;

DATA;
#10=SHAPE_REPRESENTATION_RELATIONSHIP('','',#153,#11);
#11=ADVANCED_BREP_SHAPE_REPRESENTATION('',(#151),#255);
#12=PLANE('',#161);
#13=PLANE('',#165);
#14=PLANE('',#166);
#15=PLANE('',#168);
#16=PLANE('',#171);
#17=LINE('',#226,#25);
#18=LINE('',#230,#26);
#19=LINE('',#232,#27);
#20=LINE('',#234,#28);
#21=LINE('',#236,#29);
#22=LINE('',#240,#30);
#23=LINE('',#244,#31);
#24=LINE('',#245,#32);
#25=VECTOR('',#184,1.);
#26=VECTOR('',#187,1.);
#27=VECTOR('',#190,1.);
#28=VECTOR('',#191,1.);
#29=VECTOR('',#192,1.);
#30=VECTOR('',#197,1.);
#31=VECTOR('',#202,1.);
#32=VECTOR('',#203,1.);
#33=ORIENTED_EDGE('',*,*,#65,.F.);
#34=ORIENTED_EDGE('',*,*,#66,.T.);
#35=ORIENTED_EDGE('',*,*,#67,.T.);
#36=ORIENTED_EDGE('',*,*,#68,.F.);
#37=ORIENTED_EDGE('',*,*,#69,.F.);
#38=ORIENTED_EDGE('',*,*,#70,.T.);
#39=ORIENTED_EDGE('',*,*,#71,.T.);
#40=ORIENTED_EDGE('',*,*,#72,.F.);
#41=ORIENTED_EDGE('',*,*,#73,.F.);
#42=ORIENTED_EDGE('',*,*,#68,.T.);
#43=ORIENTED_EDGE('',*,*,#74,.T.);
#44=ORIENTED_EDGE('',*,*,#75,.F.);
#45=ORIENTED_EDGE('',*,*,#76,.F.);
#46=ORIENTED_EDGE('',*,*,#72,.T.);
#47=ORIENTED_EDGE('',*,*,#77,.F.);
#48=ORIENTED_EDGE('',*,*,#70,.F.);
#49=ORIENTED_EDGE('',*,*,#78,.T.);
#50=ORIENTED_EDGE('',*,*,#75,.T.);
#51=ORIENTED_EDGE('',*,*,#79,.F.);
#52=ORIENTED_EDGE('',*,*,#69,.T.);
#53=ORIENTED_EDGE('',*,*,#73,.T.);
#54=ORIENTED_EDGE('',*,*,#76,.T.);
#55=ORIENTED_EDGE('',*,*,#78,.F.);
#56=ORIENTED_EDGE('',*,*,#65,.T.);
#57=ORIENTED_EDGE('',*,*,#67,.F.);
#58=ORIENTED_EDGE('',*,*,#77,.T.);
#59=ORIENTED_EDGE('',*,*,#74,.F.);
#60=ORIENTED_EDGE('',*,*,#71,.F.);
#61=ORIENTED_EDGE('',*,*,#80,.F.);
#62=ORIENTED_EDGE('',*,*,#79,.T.);
#63=ORIENTED_EDGE('',*,*,#66,.F.);
#64=ORIENTED_EDGE('',*,*,#80,.T.);
#65=EDGE_CURVE('',#81,#81,#93,.T.);
#66=EDGE_CURVE('',#82,#82,#94,.T.);
#67=EDGE_CURVE('',#83,#84,#95,.T.);
#68=EDGE_CURVE('',#85,#84,#17,.T.);
#69=EDGE_CURVE('',#86,#85,#96,.T.);
#70=EDGE_CURVE('',#86,#83,#18,.T.);
#71=EDGE_CURVE('',#84,#87,#19,.T.);
#72=EDGE_CURVE('',#88,#87,#20,.T.);
#73=EDGE_CURVE('',#85,#88,#21,.T.);
#74=EDGE_CURVE('',#87,#89,#97,.T.);
#75=EDGE_CURVE('',#90,#89,#22,.T.);
#76=EDGE_CURVE('',#88,#90,#98,.T.);
#77=EDGE_CURVE('',#83,#89,#23,.T.);
#78=EDGE_CURVE('',#86,#90,#24,.T.);
#79=EDGE_CURVE('',#91,#91,#99,.T.);
#80=EDGE_CURVE('',#92,#92,#100,.T.);
#81=VERTEX_POINT('',#219);
#82=VERTEX_POINT('',#221);
#83=VERTEX_POINT('',#224);
#84=VERTEX_POINT('',#225);
#85=VERTEX_POINT('',#227);
#86=VERTEX_POINT('',#229);
#87=VERTEX_POINT('',#233);
#88=VERTEX_POINT('',#235);
#89=VERTEX_POINT('',#239);
#90=VERTEX_POINT('',#241);
#91=VERTEX_POINT('',#248);
#92=VERTEX_POINT('',#252);
#93=CIRCLE('',#156,0.00145);
#94=CIRCLE('',#157,0.00145);
#95=CIRCLE('',#159,0.004);
#96=CIRCLE('',#160,0.004);
#97=CIRCLE('',#163,0.004);
#98=CIRCLE('',#164,0.004);
#99=CIRCLE('',#167,0.0025);
#100=CIRCLE('',#170,0.0025);
#101=EDGE_LOOP('',(#33));
#102=EDGE_LOOP('',(#34));
#103=EDGE_LOOP('',(#35,#36,#37,#38));
#104=EDGE_LOOP('',(#39,#40,#41,#42));
#105=EDGE_LOOP('',(#43,#44,#45,#46));
#106=EDGE_LOOP('',(#47,#48,#49,#50));
#107=EDGE_LOOP('',(#51));
#108=EDGE_LOOP('',(#52,#53,#54,#55));
#109=EDGE_LOOP('',(#56));
#110=EDGE_LOOP('',(#57,#58,#59,#60));
#111=EDGE_LOOP('',(#61));
#112=EDGE_LOOP('',(#62));
#113=EDGE_LOOP('',(#63));
#114=EDGE_LOOP('',(#64));
#115=FACE_BOUND('',#101,.T.);
#116=FACE_BOUND('',#102,.T.);
#117=FACE_BOUND('',#103,.T.);
#118=FACE_BOUND('',#104,.T.);
#119=FACE_BOUND('',#105,.T.);
#120=FACE_BOUND('',#106,.T.);
#121=FACE_BOUND('',#107,.T.);
#122=FACE_BOUND('',#108,.T.);
#123=FACE_BOUND('',#109,.T.);
#124=FACE_BOUND('',#110,.T.);
#125=FACE_BOUND('',#111,.T.);
#126=FACE_BOUND('',#112,.T.);
#127=FACE_BOUND('',#113,.T.);
#128=FACE_BOUND('',#114,.T.);
#129=CYLINDRICAL_SURFACE('',#155,0.00145);
#130=CYLINDRICAL_SURFACE('',#158,0.004);
#131=CYLINDRICAL_SURFACE('',#162,0.004);
#132=CYLINDRICAL_SURFACE('',#169,0.0025);
#133=ADVANCED_FACE('',(#115,#116),#129,.F.);
#134=ADVANCED_FACE('',(#117),#130,.T.);
#135=ADVANCED_FACE('',(#118),#12,.F.);
#136=ADVANCED_FACE('',(#119),#131,.T.);
#137=ADVANCED_FACE('',(#120),#13,.T.);
#138=ADVANCED_FACE('',(#121,#122),#14,.T.);
#139=ADVANCED_FACE('',(#123,#124),#15,.F.);
#140=ADVANCED_FACE('',(#125,#126),#132,.F.);
#141=ADVANCED_FACE('',(#127,#128),#16,.T.);
#142=CLOSED_SHELL('',(#133,#134,#135,#136,#137,#138,#139,#140,#141));
#143=STYLED_ITEM('',(#144),#151);
#144=PRESENTATION_STYLE_ASSIGNMENT((#145));
#145=SURFACE_STYLE_USAGE(.BOTH.,#146);
#146=SURFACE_SIDE_STYLE('',(#147));
#147=SURFACE_STYLE_FILL_AREA(#148);
#148=FILL_AREA_STYLE('',(#149));
#149=FILL_AREA_STYLE_COLOUR('',#150);
#150=DRAUGHTING_PRE_DEFINED_COLOUR('white');
#151=MANIFOLD_SOLID_BREP('Part 2',#142);
#152=SHAPE_DEFINITION_REPRESENTATION(#260,#153);
#153=SHAPE_REPRESENTATION('Part 2',(#154),#255);
#154=AXIS2_PLACEMENT_3D('',#216,#172,#173);
#155=AXIS2_PLACEMENT_3D('',#217,#174,#175);
#156=AXIS2_PLACEMENT_3D('',#218,#176,#177);
#157=AXIS2_PLACEMENT_3D('',#220,#178,#179);
#158=AXIS2_PLACEMENT_3D('',#222,#180,#181);
#159=AXIS2_PLACEMENT_3D('',#223,#182,#183);
#160=AXIS2_PLACEMENT_3D('',#228,#185,#186);
#161=AXIS2_PLACEMENT_3D('',#231,#188,#189);
#162=AXIS2_PLACEMENT_3D('',#237,#193,#194);
#163=AXIS2_PLACEMENT_3D('',#238,#195,#196);
#164=AXIS2_PLACEMENT_3D('',#242,#198,#199);
#165=AXIS2_PLACEMENT_3D('',#243,#200,#201);
#166=AXIS2_PLACEMENT_3D('',#246,#204,#205);
#167=AXIS2_PLACEMENT_3D('',#247,#206,#207);
#168=AXIS2_PLACEMENT_3D('',#249,#208,#209);
#169=AXIS2_PLACEMENT_3D('',#250,#210,#211);
#170=AXIS2_PLACEMENT_3D('',#251,#212,#213);
#171=AXIS2_PLACEMENT_3D('',#253,#214,#215);
#172=DIRECTION('',(0.,0.,1.));
#173=DIRECTION('',(1.,0.,0.));
#174=DIRECTION('',(0.,0.,-1.));
#175=DIRECTION('',(-1.,0.,0.));
#176=DIRECTION('',(0.,0.,1.));
#177=DIRECTION('',(1.,0.,0.));
#178=DIRECTION('',(0.,0.,1.));
#179=DIRECTION('',(1.,0.,0.));
#180=DIRECTION('',(0.,0.,-1.));
#181=DIRECTION('',(-1.,0.,0.));
#182=DIRECTION('',(0.,0.,1.));
#183=DIRECTION('',(1.,0.,0.));
#184=DIRECTION('',(0.,0.,-1.));
#185=DIRECTION('',(0.,0.,1.));
#186=DIRECTION('',(1.,0.,0.));
#187=DIRECTION('',(0.,0.,-1.));
#188=DIRECTION('',(-1.,-2.54787510534094E-15,0.));
#189=DIRECTION('',(2.54787510534094E-15,-1.,0.));
#190=DIRECTION('',(-2.54787510534094E-15,1.,0.));
#191=DIRECTION('',(0.,0.,-1.));
#192=DIRECTION('',(-2.54787510534094E-15,1.,0.));
#193=DIRECTION('',(0.,0.,-1.));
#194=DIRECTION('',(-1.,0.,0.));
#195=DIRECTION('',(0.,0.,1.));
#196=DIRECTION('',(1.,0.,0.));
#197=DIRECTION('',(0.,0.,-1.));
#198=DIRECTION('',(0.,0.,1.));
#199=DIRECTION('',(1.,0.,0.));
#200=DIRECTION('',(-1.,-3.03576608295941E-15,0.));
#201=DIRECTION('',(3.03576608295941E-15,-1.,0.));
#202=DIRECTION('',(-3.03576608295941E-15,1.,0.));
#203=DIRECTION('',(-3.03576608295941E-15,1.,0.));
#204=DIRECTION('',(0.,0.,1.));
#205=DIRECTION('',(1.,0.,0.));
#206=DIRECTION('',(0.,0.,1.));
#207=DIRECTION('',(1.,0.,0.));
#208=DIRECTION('',(0.,0.,1.));
#209=DIRECTION('',(1.,0.,0.));
#210=DIRECTION('',(0.,0.,1.));
#211=DIRECTION('',(1.,0.,0.));
#212=DIRECTION('',(0.,0.,1.));
#213=DIRECTION('',(1.,0.,0.));
#214=DIRECTION('',(0.,0.,1.));
#215=DIRECTION('',(1.,0.,0.));
#216=CARTESIAN_POINT('',(0.,0.,0.));
#217=CARTESIAN_POINT('',(-0.0086,-0.0901,0.09));
#218=CARTESIAN_POINT('',(-0.0086,-0.0901,0.085));
#219=CARTESIAN_POINT('',(-0.00715,-0.0901,0.085));
#220=CARTESIAN_POINT('',(-0.0086,-0.0901,0.088));
#221=CARTESIAN_POINT('',(-0.00715,-0.0901,0.088));
#222=CARTESIAN_POINT('',(-0.0086,-0.0901,0.09));
#223=CARTESIAN_POINT('',(-0.0086,-0.0901,0.085));
#224=CARTESIAN_POINT('',(-0.0126,-0.0901,0.085));
#225=CARTESIAN_POINT('',(-0.0046,-0.0901,0.085));
#226=CARTESIAN_POINT('',(-0.0046,-0.0901,0.09));
#227=CARTESIAN_POINT('',(-0.0046,-0.0901,0.09));
#228=CARTESIAN_POINT('',(-0.0086,-0.0901,0.09));
#229=CARTESIAN_POINT('',(-0.0126,-0.0901,0.09));
#230=CARTESIAN_POINT('',(-0.0126,-0.0901,0.09));
#231=CARTESIAN_POINT('',(-0.0046,-0.0821,0.09));
#232=CARTESIAN_POINT('',(-0.0046,-0.0821,0.085));
#233=CARTESIAN_POINT('',(-0.00460000000000007,-0.0741,0.085));
#234=CARTESIAN_POINT('',(-0.00460000000000007,-0.0741,0.09));
#235=CARTESIAN_POINT('',(-0.00460000000000007,-0.0741,0.09));
#236=CARTESIAN_POINT('',(-0.0046,-0.0821,0.09));
#237=CARTESIAN_POINT('',(-0.0086,-0.0741,0.09));
#238=CARTESIAN_POINT('',(-0.0086,-0.0741,0.085));
#239=CARTESIAN_POINT('',(-0.0126,-0.0741,0.085));
#240=CARTESIAN_POINT('',(-0.0126,-0.0741,0.09));
#241=CARTESIAN_POINT('',(-0.0126,-0.0741,0.09));
#242=CARTESIAN_POINT('',(-0.0086,-0.0741,0.09));
#243=CARTESIAN_POINT('',(-0.0126,-0.0821,0.09));
#244=CARTESIAN_POINT('',(-0.0126,-0.0821,0.085));
#245=CARTESIAN_POINT('',(-0.0126,-0.0821,0.09));
#246=CARTESIAN_POINT('',(-0.0015,0.,0.09));
#247=CARTESIAN_POINT('',(-0.0086,-0.0901,0.09));
#248=CARTESIAN_POINT('',(-0.0061,-0.0901,0.09));
#249=CARTESIAN_POINT('',(-0.0015,0.,0.085));
#250=CARTESIAN_POINT('',(-0.0086,-0.0901,0.088));
#251=CARTESIAN_POINT('',(-0.0086,-0.0901,0.088));
#252=CARTESIAN_POINT('',(-0.0061,-0.0901,0.088));
#253=CARTESIAN_POINT('',(-0.0086,-0.0821,0.088));
#254=MECHANICAL_DESIGN_GEOMETRIC_PRESENTATION_REPRESENTATION('',(#143),
#255);
#255=(
GEOMETRIC_REPRESENTATION_CONTEXT(3)
GLOBAL_UNCERTAINTY_ASSIGNED_CONTEXT((#256))
GLOBAL_UNIT_ASSIGNED_CONTEXT((#259,#258,#257))
REPRESENTATION_CONTEXT('Part 2','TOP_LEVEL_ASSEMBLY_PART')
);
#256=UNCERTAINTY_MEASURE_WITH_UNIT(LENGTH_MEASURE(1.E-8),#259,
'DISTANCE_ACCURACY_VALUE','Maximum Tolerance applied to model');
#257=(
NAMED_UNIT(*)
SI_UNIT($,.STERADIAN.)
SOLID_ANGLE_UNIT()
);
#258=(
NAMED_UNIT(*)
PLANE_ANGLE_UNIT()
SI_UNIT($,.RADIAN.)
);
#259=(
LENGTH_UNIT()
NAMED_UNIT(*)
SI_UNIT($,.METRE.)
);
#260=PRODUCT_DEFINITION_SHAPE('','',#261);
#261=PRODUCT_DEFINITION('','',#263,#262);
#262=PRODUCT_DEFINITION_CONTEXT('',#269,'design');
#263=PRODUCT_DEFINITION_FORMATION_WITH_SPECIFIED_SOURCE('','',#265,
 .NOT_KNOWN.);
#264=PRODUCT_RELATED_PRODUCT_CATEGORY('','',(#265));
#265=PRODUCT('Part 2','Part 2','Part 2',(#267));
#266=PRODUCT_CATEGORY('','');
#267=PRODUCT_CONTEXT('',#269,'mechanical');
#268=APPLICATION_PROTOCOL_DEFINITION('international standard',
'ap242_managed_model_based_3d_engineering',2020,#269);
#269=APPLICATION_CONTEXT('managed model based 3d engineering');
ENDSEC;
END-ISO-10303-21;
