ISO-10303-21;
HEADER;
/* Generated by software containing ST-Developer
 * from STEP Tools, Inc. (www.steptools.com) 
 */
/* OPTION: using custom renumber hook */

FILE_DESCRIPTION(
/* description */ ('STEP AP242 Edition 2',
'CAx-IF Rec.Pracs.---Representation and Presentation of Product Manufa
cturing Information (PMI)---4.0---2014-10-13',
'CAx-IF Rec.Pracs.---3D Tessellated Geometry---0.4---2014-09-14','2;1',
'CAx-IF Rec.Pracs.---User Defined Attributes---1.5---2016-08-15'),
/* implementation_level */ '2;1');

FILE_NAME(
/* name */ 'ModPack Right Shoulder - Part 3',
/* time_stamp */ '2026-05-31T16:26:58Z',
/* author */ (''),
/* organization */ (''),
/* preprocessor_version */ 'ST-DEVELOPER v20',
/* originating_system */ 'ONSHAPE BY PTC INC, 1.215',
/* authorisation */ '  ');

FILE_SCHEMA (('AP242_MANAGED_MODEL_BASED_3D_ENGINEERING_MIM_LF { 1 0 10303 442 3 1 4 }'));
ENDSEC;

DATA;
#10=SHAPE_REPRESENTATION_RELATIONSHIP('','',#619,#11);
#11=ADVANCED_BREP_SHAPE_REPRESENTATION('',(#617),#1017);
#12=CONICAL_SURFACE('',#667,0.0026,0.785398163397443);
#13=CONICAL_SURFACE('',#670,0.0026,0.785398163397443);
#14=CONICAL_SURFACE('',#673,0.0026,0.785398163397443);
#15=CONICAL_SURFACE('',#676,0.0026,0.785398163397443);
#16=CYLINDRICAL_SURFACE('',#646,0.0614215391733284);
#17=CYLINDRICAL_SURFACE('',#647,0.00896076958666399);
#18=CYLINDRICAL_SURFACE('',#655,0.005);
#19=CYLINDRICAL_SURFACE('',#665,0.00135);
#20=CYLINDRICAL_SURFACE('',#668,0.00135);
#21=CYLINDRICAL_SURFACE('',#671,0.00135);
#22=CYLINDRICAL_SURFACE('',#674,0.00135);
#23=CYLINDRICAL_SURFACE('',#677,0.004);
#24=CYLINDRICAL_SURFACE('',#678,0.004);
#25=CYLINDRICAL_SURFACE('',#679,0.004);
#26=CYLINDRICAL_SURFACE('',#680,0.004);
#27=LINE('',#855,#75);
#28=LINE('',#858,#76);
#29=LINE('',#860,#77);
#30=LINE('',#862,#78);
#31=LINE('',#864,#79);
#32=LINE('',#867,#80);
#33=LINE('',#868,#81);
#34=LINE('',#869,#82);
#35=LINE('',#872,#83);
#36=LINE('',#874,#84);
#37=LINE('',#876,#85);
#38=LINE('',#880,#86);
#39=LINE('',#883,#87);
#40=LINE('',#884,#88);
#41=LINE('',#888,#89);
#42=LINE('',#892,#90);
#43=LINE('',#894,#91);
#44=LINE('',#896,#92);
#45=LINE('',#904,#93);
#46=LINE('',#907,#94);
#47=LINE('',#909,#95);
#48=LINE('',#911,#96);
#49=LINE('',#912,#97);
#50=LINE('',#918,#98);
#51=LINE('',#920,#99);
#52=LINE('',#922,#100);
#53=LINE('',#926,#101);
#54=LINE('',#930,#102);
#55=LINE('',#932,#103);
#56=LINE('',#934,#104);
#57=LINE('',#938,#105);
#58=LINE('',#940,#106);
#59=LINE('',#944,#107);
#60=LINE('',#946,#108);
#61=LINE('',#950,#109);
#62=LINE('',#953,#110);
#63=LINE('',#955,#111);
#64=LINE('',#956,#112);
#65=LINE('',#962,#113);
#66=LINE('',#964,#114);
#67=LINE('',#972,#115);
#68=LINE('',#974,#116);
#69=LINE('',#976,#117);
#70=LINE('',#982,#118);
#71=LINE('',#984,#119);
#72=LINE('',#986,#120);
#73=LINE('',#988,#121);
#74=LINE('',#994,#122);
#75=VECTOR('',#687,1.);
#76=VECTOR('',#688,1.);
#77=VECTOR('',#689,1.);
#78=VECTOR('',#690,1.);
#79=VECTOR('',#693,1.);
#80=VECTOR('',#694,1.);
#81=VECTOR('',#695,1.);
#82=VECTOR('',#696,1.);
#83=VECTOR('',#697,1.);
#84=VECTOR('',#698,1.);
#85=VECTOR('',#699,1.);
#86=VECTOR('',#704,1.);
#87=VECTOR('',#705,1.);
#88=VECTOR('',#706,1.);
#89=VECTOR('',#711,1.);
#90=VECTOR('',#714,1.);
#91=VECTOR('',#715,1.);
#92=VECTOR('',#716,1.);
#93=VECTOR('',#725,1.);
#94=VECTOR('',#726,1.);
#95=VECTOR('',#727,1.);
#96=VECTOR('',#728,1.);
#97=VECTOR('',#729,1.);
#98=VECTOR('',#734,1.);
#99=VECTOR('',#735,1.);
#100=VECTOR('',#736,1.);
#101=VECTOR('',#741,1.);
#102=VECTOR('',#746,1.);
#103=VECTOR('',#747,1.);
#104=VECTOR('',#748,1.);
#105=VECTOR('',#753,1.);
#106=VECTOR('',#754,1.);
#107=VECTOR('',#759,1.);
#108=VECTOR('',#760,1.);
#109=VECTOR('',#765,1.);
#110=VECTOR('',#770,1.);
#111=VECTOR('',#773,1.);
#112=VECTOR('',#774,1.);
#113=VECTOR('',#781,1.);
#114=VECTOR('',#784,1.);
#115=VECTOR('',#795,1.);
#116=VECTOR('',#796,1.);
#117=VECTOR('',#797,1.);
#118=VECTOR('',#804,1.);
#119=VECTOR('',#805,1.);
#120=VECTOR('',#808,1.);
#121=VECTOR('',#809,1.);
#122=VECTOR('',#816,1.);
#123=ORIENTED_EDGE('',*,*,#271,.F.);
#124=ORIENTED_EDGE('',*,*,#272,.T.);
#125=ORIENTED_EDGE('',*,*,#273,.T.);
#126=ORIENTED_EDGE('',*,*,#274,.F.);
#127=ORIENTED_EDGE('',*,*,#275,.T.);
#128=ORIENTED_EDGE('',*,*,#276,.T.);
#129=ORIENTED_EDGE('',*,*,#277,.T.);
#130=ORIENTED_EDGE('',*,*,#275,.F.);
#131=ORIENTED_EDGE('',*,*,#278,.F.);
#132=ORIENTED_EDGE('',*,*,#279,.F.);
#133=ORIENTED_EDGE('',*,*,#280,.T.);
#134=ORIENTED_EDGE('',*,*,#281,.T.);
#135=ORIENTED_EDGE('',*,*,#282,.F.);
#136=ORIENTED_EDGE('',*,*,#283,.F.);
#137=ORIENTED_EDGE('',*,*,#284,.T.);
#138=ORIENTED_EDGE('',*,*,#285,.F.);
#139=ORIENTED_EDGE('',*,*,#276,.F.);
#140=ORIENTED_EDGE('',*,*,#286,.T.);
#141=ORIENTED_EDGE('',*,*,#287,.F.);
#142=ORIENTED_EDGE('',*,*,#288,.T.);
#143=ORIENTED_EDGE('',*,*,#289,.T.);
#144=ORIENTED_EDGE('',*,*,#290,.T.);
#145=ORIENTED_EDGE('',*,*,#291,.T.);
#146=ORIENTED_EDGE('',*,*,#292,.T.);
#147=ORIENTED_EDGE('',*,*,#293,.F.);
#148=ORIENTED_EDGE('',*,*,#294,.T.);
#149=ORIENTED_EDGE('',*,*,#272,.F.);
#150=ORIENTED_EDGE('',*,*,#277,.F.);
#151=ORIENTED_EDGE('',*,*,#285,.T.);
#152=ORIENTED_EDGE('',*,*,#295,.F.);
#153=ORIENTED_EDGE('',*,*,#296,.F.);
#154=ORIENTED_EDGE('',*,*,#297,.F.);
#155=ORIENTED_EDGE('',*,*,#298,.F.);
#156=ORIENTED_EDGE('',*,*,#299,.F.);
#157=ORIENTED_EDGE('',*,*,#300,.F.);
#158=ORIENTED_EDGE('',*,*,#286,.F.);
#159=ORIENTED_EDGE('',*,*,#278,.T.);
#160=ORIENTED_EDGE('',*,*,#274,.T.);
#161=ORIENTED_EDGE('',*,*,#301,.T.);
#162=ORIENTED_EDGE('',*,*,#302,.F.);
#163=ORIENTED_EDGE('',*,*,#303,.T.);
#164=ORIENTED_EDGE('',*,*,#304,.T.);
#165=ORIENTED_EDGE('',*,*,#305,.T.);
#166=ORIENTED_EDGE('',*,*,#306,.T.);
#167=ORIENTED_EDGE('',*,*,#284,.F.);
#168=ORIENTED_EDGE('',*,*,#300,.T.);
#169=ORIENTED_EDGE('',*,*,#307,.T.);
#170=ORIENTED_EDGE('',*,*,#288,.F.);
#171=ORIENTED_EDGE('',*,*,#308,.T.);
#172=ORIENTED_EDGE('',*,*,#280,.F.);
#173=ORIENTED_EDGE('',*,*,#309,.F.);
#174=ORIENTED_EDGE('',*,*,#310,.T.);
#175=ORIENTED_EDGE('',*,*,#311,.T.);
#176=ORIENTED_EDGE('',*,*,#312,.F.);
#177=ORIENTED_EDGE('',*,*,#279,.T.);
#178=ORIENTED_EDGE('',*,*,#313,.F.);
#179=ORIENTED_EDGE('',*,*,#314,.F.);
#180=ORIENTED_EDGE('',*,*,#309,.T.);
#181=ORIENTED_EDGE('',*,*,#315,.F.);
#182=ORIENTED_EDGE('',*,*,#282,.T.);
#183=ORIENTED_EDGE('',*,*,#316,.F.);
#184=ORIENTED_EDGE('',*,*,#317,.F.);
#185=ORIENTED_EDGE('',*,*,#313,.T.);
#186=ORIENTED_EDGE('',*,*,#318,.T.);
#187=ORIENTED_EDGE('',*,*,#281,.F.);
#188=ORIENTED_EDGE('',*,*,#311,.F.);
#189=ORIENTED_EDGE('',*,*,#319,.T.);
#190=ORIENTED_EDGE('',*,*,#316,.T.);
#191=ORIENTED_EDGE('',*,*,#310,.F.);
#192=ORIENTED_EDGE('',*,*,#314,.T.);
#193=ORIENTED_EDGE('',*,*,#317,.T.);
#194=ORIENTED_EDGE('',*,*,#319,.F.);
#195=ORIENTED_EDGE('',*,*,#289,.F.);
#196=ORIENTED_EDGE('',*,*,#307,.F.);
#197=ORIENTED_EDGE('',*,*,#306,.F.);
#198=ORIENTED_EDGE('',*,*,#320,.F.);
#199=ORIENTED_EDGE('',*,*,#302,.T.);
#200=ORIENTED_EDGE('',*,*,#321,.T.);
#201=ORIENTED_EDGE('',*,*,#293,.T.);
#202=ORIENTED_EDGE('',*,*,#322,.T.);
#203=ORIENTED_EDGE('',*,*,#323,.T.);
#204=ORIENTED_EDGE('',*,*,#324,.T.);
#205=ORIENTED_EDGE('',*,*,#290,.F.);
#206=ORIENTED_EDGE('',*,*,#320,.T.);
#207=ORIENTED_EDGE('',*,*,#305,.F.);
#208=ORIENTED_EDGE('',*,*,#325,.F.);
#209=ORIENTED_EDGE('',*,*,#291,.F.);
#210=ORIENTED_EDGE('',*,*,#325,.T.);
#211=ORIENTED_EDGE('',*,*,#304,.F.);
#212=ORIENTED_EDGE('',*,*,#326,.F.);
#213=ORIENTED_EDGE('',*,*,#327,.T.);
#214=ORIENTED_EDGE('',*,*,#328,.T.);
#215=ORIENTED_EDGE('',*,*,#292,.F.);
#216=ORIENTED_EDGE('',*,*,#326,.T.);
#217=ORIENTED_EDGE('',*,*,#303,.F.);
#218=ORIENTED_EDGE('',*,*,#322,.F.);
#219=ORIENTED_EDGE('',*,*,#294,.F.);
#220=ORIENTED_EDGE('',*,*,#321,.F.);
#221=ORIENTED_EDGE('',*,*,#301,.F.);
#222=ORIENTED_EDGE('',*,*,#273,.F.);
#223=ORIENTED_EDGE('',*,*,#296,.T.);
#224=ORIENTED_EDGE('',*,*,#329,.F.);
#225=ORIENTED_EDGE('',*,*,#330,.F.);
#226=ORIENTED_EDGE('',*,*,#331,.T.);
#227=ORIENTED_EDGE('',*,*,#332,.F.);
#228=ORIENTED_EDGE('',*,*,#333,.F.);
#229=ORIENTED_EDGE('',*,*,#299,.T.);
#230=ORIENTED_EDGE('',*,*,#334,.F.);
#231=ORIENTED_EDGE('',*,*,#335,.F.);
#232=ORIENTED_EDGE('',*,*,#329,.T.);
#233=ORIENTED_EDGE('',*,*,#298,.T.);
#234=ORIENTED_EDGE('',*,*,#336,.F.);
#235=ORIENTED_EDGE('',*,*,#337,.F.);
#236=ORIENTED_EDGE('',*,*,#334,.T.);
#237=ORIENTED_EDGE('',*,*,#338,.F.);
#238=ORIENTED_EDGE('',*,*,#339,.F.);
#239=ORIENTED_EDGE('',*,*,#297,.T.);
#240=ORIENTED_EDGE('',*,*,#331,.F.);
#241=ORIENTED_EDGE('',*,*,#340,.F.);
#242=ORIENTED_EDGE('',*,*,#336,.T.);
#243=ORIENTED_EDGE('',*,*,#330,.T.);
#244=ORIENTED_EDGE('',*,*,#335,.T.);
#245=ORIENTED_EDGE('',*,*,#337,.T.);
#246=ORIENTED_EDGE('',*,*,#340,.T.);
#247=ORIENTED_EDGE('',*,*,#339,.T.);
#248=ORIENTED_EDGE('',*,*,#341,.F.);
#249=ORIENTED_EDGE('',*,*,#341,.T.);
#250=ORIENTED_EDGE('',*,*,#324,.F.);
#251=ORIENTED_EDGE('',*,*,#338,.T.);
#252=ORIENTED_EDGE('',*,*,#342,.F.);
#253=ORIENTED_EDGE('',*,*,#342,.T.);
#254=ORIENTED_EDGE('',*,*,#323,.F.);
#255=ORIENTED_EDGE('',*,*,#333,.T.);
#256=ORIENTED_EDGE('',*,*,#343,.F.);
#257=ORIENTED_EDGE('',*,*,#343,.T.);
#258=ORIENTED_EDGE('',*,*,#328,.F.);
#259=ORIENTED_EDGE('',*,*,#332,.T.);
#260=ORIENTED_EDGE('',*,*,#344,.F.);
#261=ORIENTED_EDGE('',*,*,#344,.T.);
#262=ORIENTED_EDGE('',*,*,#327,.F.);
#263=ORIENTED_EDGE('',*,*,#295,.T.);
#264=ORIENTED_EDGE('',*,*,#308,.F.);
#265=ORIENTED_EDGE('',*,*,#312,.T.);
#266=ORIENTED_EDGE('',*,*,#283,.T.);
#267=ORIENTED_EDGE('',*,*,#315,.T.);
#268=ORIENTED_EDGE('',*,*,#287,.T.);
#269=ORIENTED_EDGE('',*,*,#271,.T.);
#270=ORIENTED_EDGE('',*,*,#318,.F.);
#271=EDGE_CURVE('',#345,#345,#401,.T.);
#272=EDGE_CURVE('',#346,#347,#27,.T.);
#273=EDGE_CURVE('',#347,#348,#28,.T.);
#274=EDGE_CURVE('',#349,#348,#29,.T.);
#275=EDGE_CURVE('',#349,#346,#30,.T.);
#276=EDGE_CURVE('',#350,#351,#31,.T.);
#277=EDGE_CURVE('',#351,#346,#32,.T.);
#278=EDGE_CURVE('',#350,#349,#33,.T.);
#279=EDGE_CURVE('',#352,#353,#34,.T.);
#280=EDGE_CURVE('',#352,#354,#35,.T.);
#281=EDGE_CURVE('',#354,#355,#36,.T.);
#282=EDGE_CURVE('',#353,#355,#37,.T.);
#283=EDGE_CURVE('',#356,#356,#402,.T.);
#284=EDGE_CURVE('',#357,#358,#38,.T.);
#285=EDGE_CURVE('',#351,#358,#39,.T.);
#286=EDGE_CURVE('',#350,#357,#40,.T.);
#287=EDGE_CURVE('',#359,#359,#403,.T.);
#288=EDGE_CURVE('',#358,#360,#41,.T.);
#289=EDGE_CURVE('',#360,#361,#404,.F.);
#290=EDGE_CURVE('',#361,#362,#42,.T.);
#291=EDGE_CURVE('',#362,#363,#43,.T.);
#292=EDGE_CURVE('',#363,#364,#44,.T.);
#293=EDGE_CURVE('',#365,#364,#405,.F.);
#294=EDGE_CURVE('',#365,#347,#406,.T.);
#295=EDGE_CURVE('',#366,#366,#407,.T.);
#296=EDGE_CURVE('',#367,#368,#45,.T.);
#297=EDGE_CURVE('',#369,#367,#46,.T.);
#298=EDGE_CURVE('',#370,#369,#47,.T.);
#299=EDGE_CURVE('',#368,#370,#48,.T.);
#300=EDGE_CURVE('',#357,#371,#49,.T.);
#301=EDGE_CURVE('',#348,#372,#408,.F.);
#302=EDGE_CURVE('',#373,#372,#409,.T.);
#303=EDGE_CURVE('',#373,#374,#50,.T.);
#304=EDGE_CURVE('',#374,#375,#51,.T.);
#305=EDGE_CURVE('',#375,#376,#52,.T.);
#306=EDGE_CURVE('',#376,#371,#410,.T.);
#307=EDGE_CURVE('',#371,#360,#53,.T.);
#308=EDGE_CURVE('',#377,#377,#411,.F.);
#309=EDGE_CURVE('',#378,#352,#54,.T.);
#310=EDGE_CURVE('',#378,#379,#55,.T.);
#311=EDGE_CURVE('',#379,#354,#56,.T.);
#312=EDGE_CURVE('',#380,#380,#412,.F.);
#313=EDGE_CURVE('',#381,#353,#57,.T.);
#314=EDGE_CURVE('',#378,#381,#58,.T.);
#315=EDGE_CURVE('',#382,#382,#413,.F.);
#316=EDGE_CURVE('',#383,#355,#59,.T.);
#317=EDGE_CURVE('',#381,#383,#60,.T.);
#318=EDGE_CURVE('',#384,#384,#414,.F.);
#319=EDGE_CURVE('',#379,#383,#61,.T.);
#320=EDGE_CURVE('',#361,#376,#62,.T.);
#321=EDGE_CURVE('',#372,#365,#63,.F.);
#322=EDGE_CURVE('',#364,#373,#64,.T.);
#323=EDGE_CURVE('',#385,#385,#415,.T.);
#324=EDGE_CURVE('',#386,#386,#416,.T.);
#325=EDGE_CURVE('',#362,#375,#65,.T.);
#326=EDGE_CURVE('',#363,#374,#66,.T.);
#327=EDGE_CURVE('',#387,#387,#417,.T.);
#328=EDGE_CURVE('',#388,#388,#418,.T.);
#329=EDGE_CURVE('',#389,#368,#67,.T.);
#330=EDGE_CURVE('',#390,#389,#68,.T.);
#331=EDGE_CURVE('',#390,#367,#69,.T.);
#332=EDGE_CURVE('',#391,#391,#419,.T.);
#333=EDGE_CURVE('',#392,#392,#420,.T.);
#334=EDGE_CURVE('',#393,#370,#70,.T.);
#335=EDGE_CURVE('',#389,#393,#71,.T.);
#336=EDGE_CURVE('',#394,#369,#72,.T.);
#337=EDGE_CURVE('',#393,#394,#73,.T.);
#338=EDGE_CURVE('',#395,#395,#421,.T.);
#339=EDGE_CURVE('',#396,#396,#422,.T.);
#340=EDGE_CURVE('',#394,#390,#74,.T.);
#341=EDGE_CURVE('',#397,#397,#423,.T.);
#342=EDGE_CURVE('',#398,#398,#424,.T.);
#343=EDGE_CURVE('',#399,#399,#425,.T.);
#344=EDGE_CURVE('',#400,#400,#426,.T.);
#345=VERTEX_POINT('',#854);
#346=VERTEX_POINT('',#856);
#347=VERTEX_POINT('',#857);
#348=VERTEX_POINT('',#859);
#349=VERTEX_POINT('',#861);
#350=VERTEX_POINT('',#865);
#351=VERTEX_POINT('',#866);
#352=VERTEX_POINT('',#870);
#353=VERTEX_POINT('',#871);
#354=VERTEX_POINT('',#873);
#355=VERTEX_POINT('',#875);
#356=VERTEX_POINT('',#879);
#357=VERTEX_POINT('',#881);
#358=VERTEX_POINT('',#882);
#359=VERTEX_POINT('',#887);
#360=VERTEX_POINT('',#889);
#361=VERTEX_POINT('',#891);
#362=VERTEX_POINT('',#893);
#363=VERTEX_POINT('',#895);
#364=VERTEX_POINT('',#897);
#365=VERTEX_POINT('',#899);
#366=VERTEX_POINT('',#903);
#367=VERTEX_POINT('',#905);
#368=VERTEX_POINT('',#906);
#369=VERTEX_POINT('',#908);
#370=VERTEX_POINT('',#910);
#371=VERTEX_POINT('',#913);
#372=VERTEX_POINT('',#915);
#373=VERTEX_POINT('',#917);
#374=VERTEX_POINT('',#919);
#375=VERTEX_POINT('',#921);
#376=VERTEX_POINT('',#923);
#377=VERTEX_POINT('',#929);
#378=VERTEX_POINT('',#931);
#379=VERTEX_POINT('',#933);
#380=VERTEX_POINT('',#937);
#381=VERTEX_POINT('',#939);
#382=VERTEX_POINT('',#943);
#383=VERTEX_POINT('',#945);
#384=VERTEX_POINT('',#949);
#385=VERTEX_POINT('',#959);
#386=VERTEX_POINT('',#961);
#387=VERTEX_POINT('',#967);
#388=VERTEX_POINT('',#969);
#389=VERTEX_POINT('',#973);
#390=VERTEX_POINT('',#975);
#391=VERTEX_POINT('',#979);
#392=VERTEX_POINT('',#981);
#393=VERTEX_POINT('',#983);
#394=VERTEX_POINT('',#987);
#395=VERTEX_POINT('',#991);
#396=VERTEX_POINT('',#993);
#397=VERTEX_POINT('',#998);
#398=VERTEX_POINT('',#1002);
#399=VERTEX_POINT('',#1006);
#400=VERTEX_POINT('',#1010);
#401=CIRCLE('',#622,0.004);
#402=CIRCLE('',#625,0.004);
#403=CIRCLE('',#627,0.004);
#404=CIRCLE('',#628,0.0614215391733284);
#405=CIRCLE('',#629,0.00896076958666399);
#406=CIRCLE('',#630,0.005);
#407=CIRCLE('',#632,0.004);
#408=CIRCLE('',#633,0.005);
#409=CIRCLE('',#634,0.00896076958666399);
#410=CIRCLE('',#635,0.0614215391733284);
#411=CIRCLE('',#638,0.004);
#412=CIRCLE('',#640,0.004);
#413=CIRCLE('',#642,0.004);
#414=CIRCLE('',#644,0.004);
#415=CIRCLE('',#649,0.0026);
#416=CIRCLE('',#650,0.0026);
#417=CIRCLE('',#653,0.0026);
#418=CIRCLE('',#654,0.0026);
#419=CIRCLE('',#658,0.00135);
#420=CIRCLE('',#659,0.00135);
#421=CIRCLE('',#662,0.00135);
#422=CIRCLE('',#663,0.00135);
#423=CIRCLE('',#666,0.00135);
#424=CIRCLE('',#669,0.00135);
#425=CIRCLE('',#672,0.00135);
#426=CIRCLE('',#675,0.00135);
#427=EDGE_LOOP('',(#123));
#428=EDGE_LOOP('',(#124,#125,#126,#127));
#429=EDGE_LOOP('',(#128,#129,#130,#131));
#430=EDGE_LOOP('',(#132,#133,#134,#135));
#431=EDGE_LOOP('',(#136));
#432=EDGE_LOOP('',(#137,#138,#139,#140));
#433=EDGE_LOOP('',(#141));
#434=EDGE_LOOP('',(#142,#143,#144,#145,#146,#147,#148,#149,#150,#151));
#435=EDGE_LOOP('',(#152));
#436=EDGE_LOOP('',(#153,#154,#155,#156));
#437=EDGE_LOOP('',(#157,#158,#159,#160,#161,#162,#163,#164,#165,#166));
#438=EDGE_LOOP('',(#167,#168,#169,#170));
#439=EDGE_LOOP('',(#171));
#440=EDGE_LOOP('',(#172,#173,#174,#175));
#441=EDGE_LOOP('',(#176));
#442=EDGE_LOOP('',(#177,#178,#179,#180));
#443=EDGE_LOOP('',(#181));
#444=EDGE_LOOP('',(#182,#183,#184,#185));
#445=EDGE_LOOP('',(#186));
#446=EDGE_LOOP('',(#187,#188,#189,#190));
#447=EDGE_LOOP('',(#191,#192,#193,#194));
#448=EDGE_LOOP('',(#195,#196,#197,#198));
#449=EDGE_LOOP('',(#199,#200,#201,#202));
#450=EDGE_LOOP('',(#203));
#451=EDGE_LOOP('',(#204));
#452=EDGE_LOOP('',(#205,#206,#207,#208));
#453=EDGE_LOOP('',(#209,#210,#211,#212));
#454=EDGE_LOOP('',(#213));
#455=EDGE_LOOP('',(#214));
#456=EDGE_LOOP('',(#215,#216,#217,#218));
#457=EDGE_LOOP('',(#219,#220,#221,#222));
#458=EDGE_LOOP('',(#223,#224,#225,#226));
#459=EDGE_LOOP('',(#227));
#460=EDGE_LOOP('',(#228));
#461=EDGE_LOOP('',(#229,#230,#231,#232));
#462=EDGE_LOOP('',(#233,#234,#235,#236));
#463=EDGE_LOOP('',(#237));
#464=EDGE_LOOP('',(#238));
#465=EDGE_LOOP('',(#239,#240,#241,#242));
#466=EDGE_LOOP('',(#243,#244,#245,#246));
#467=EDGE_LOOP('',(#247));
#468=EDGE_LOOP('',(#248));
#469=EDGE_LOOP('',(#249));
#470=EDGE_LOOP('',(#250));
#471=EDGE_LOOP('',(#251));
#472=EDGE_LOOP('',(#252));
#473=EDGE_LOOP('',(#253));
#474=EDGE_LOOP('',(#254));
#475=EDGE_LOOP('',(#255));
#476=EDGE_LOOP('',(#256));
#477=EDGE_LOOP('',(#257));
#478=EDGE_LOOP('',(#258));
#479=EDGE_LOOP('',(#259));
#480=EDGE_LOOP('',(#260));
#481=EDGE_LOOP('',(#261));
#482=EDGE_LOOP('',(#262));
#483=EDGE_LOOP('',(#263));
#484=EDGE_LOOP('',(#264));
#485=EDGE_LOOP('',(#265));
#486=EDGE_LOOP('',(#266));
#487=EDGE_LOOP('',(#267));
#488=EDGE_LOOP('',(#268));
#489=EDGE_LOOP('',(#269));
#490=EDGE_LOOP('',(#270));
#491=FACE_BOUND('',#427,.T.);
#492=FACE_BOUND('',#428,.T.);
#493=FACE_BOUND('',#429,.T.);
#494=FACE_BOUND('',#430,.T.);
#495=FACE_BOUND('',#431,.T.);
#496=FACE_BOUND('',#432,.T.);
#497=FACE_BOUND('',#433,.T.);
#498=FACE_BOUND('',#434,.T.);
#499=FACE_BOUND('',#435,.T.);
#500=FACE_BOUND('',#436,.T.);
#501=FACE_BOUND('',#437,.T.);
#502=FACE_BOUND('',#438,.T.);
#503=FACE_BOUND('',#439,.T.);
#504=FACE_BOUND('',#440,.T.);
#505=FACE_BOUND('',#441,.T.);
#506=FACE_BOUND('',#442,.T.);
#507=FACE_BOUND('',#443,.T.);
#508=FACE_BOUND('',#444,.T.);
#509=FACE_BOUND('',#445,.T.);
#510=FACE_BOUND('',#446,.T.);
#511=FACE_BOUND('',#447,.T.);
#512=FACE_BOUND('',#448,.T.);
#513=FACE_BOUND('',#449,.T.);
#514=FACE_BOUND('',#450,.T.);
#515=FACE_BOUND('',#451,.T.);
#516=FACE_BOUND('',#452,.T.);
#517=FACE_BOUND('',#453,.T.);
#518=FACE_BOUND('',#454,.T.);
#519=FACE_BOUND('',#455,.T.);
#520=FACE_BOUND('',#456,.T.);
#521=FACE_BOUND('',#457,.T.);
#522=FACE_BOUND('',#458,.T.);
#523=FACE_BOUND('',#459,.T.);
#524=FACE_BOUND('',#460,.T.);
#525=FACE_BOUND('',#461,.T.);
#526=FACE_BOUND('',#462,.T.);
#527=FACE_BOUND('',#463,.T.);
#528=FACE_BOUND('',#464,.T.);
#529=FACE_BOUND('',#465,.T.);
#530=FACE_BOUND('',#466,.T.);
#531=FACE_BOUND('',#467,.T.);
#532=FACE_BOUND('',#468,.T.);
#533=FACE_BOUND('',#469,.T.);
#534=FACE_BOUND('',#470,.T.);
#535=FACE_BOUND('',#471,.T.);
#536=FACE_BOUND('',#472,.T.);
#537=FACE_BOUND('',#473,.T.);
#538=FACE_BOUND('',#474,.T.);
#539=FACE_BOUND('',#475,.T.);
#540=FACE_BOUND('',#476,.T.);
#541=FACE_BOUND('',#477,.T.);
#542=FACE_BOUND('',#478,.T.);
#543=FACE_BOUND('',#479,.T.);
#544=FACE_BOUND('',#480,.T.);
#545=FACE_BOUND('',#481,.T.);
#546=FACE_BOUND('',#482,.T.);
#547=FACE_BOUND('',#483,.T.);
#548=FACE_BOUND('',#484,.T.);
#549=FACE_BOUND('',#485,.T.);
#550=FACE_BOUND('',#486,.T.);
#551=FACE_BOUND('',#487,.T.);
#552=FACE_BOUND('',#488,.T.);
#553=FACE_BOUND('',#489,.T.);
#554=FACE_BOUND('',#490,.T.);
#555=PLANE('',#621);
#556=PLANE('',#623);
#557=PLANE('',#624);
#558=PLANE('',#626);
#559=PLANE('',#631);
#560=PLANE('',#636);
#561=PLANE('',#637);
#562=PLANE('',#639);
#563=PLANE('',#641);
#564=PLANE('',#643);
#565=PLANE('',#645);
#566=PLANE('',#648);
#567=PLANE('',#651);
#568=PLANE('',#652);
#569=PLANE('',#656);
#570=PLANE('',#657);
#571=PLANE('',#660);
#572=PLANE('',#661);
#573=PLANE('',#664);
#574=ADVANCED_FACE('',(#491,#492),#555,.T.);
#575=ADVANCED_FACE('',(#493,#494),#556,.T.);
#576=ADVANCED_FACE('',(#495,#496),#557,.F.);
#577=ADVANCED_FACE('',(#497,#498),#558,.F.);
#578=ADVANCED_FACE('',(#499,#500,#501),#559,.T.);
#579=ADVANCED_FACE('',(#502),#560,.F.);
#580=ADVANCED_FACE('',(#503,#504),#561,.T.);
#581=ADVANCED_FACE('',(#505,#506),#562,.F.);
#582=ADVANCED_FACE('',(#507,#508),#563,.F.);
#583=ADVANCED_FACE('',(#509,#510),#564,.T.);
#584=ADVANCED_FACE('',(#511),#565,.T.);
#585=ADVANCED_FACE('',(#512),#16,.T.);
#586=ADVANCED_FACE('',(#513),#17,.F.);
#587=ADVANCED_FACE('',(#514,#515,#516),#566,.T.);
#588=ADVANCED_FACE('',(#517),#567,.T.);
#589=ADVANCED_FACE('',(#518,#519,#520),#568,.T.);
#590=ADVANCED_FACE('',(#521),#18,.F.);
#591=ADVANCED_FACE('',(#522),#569,.F.);
#592=ADVANCED_FACE('',(#523,#524,#525),#570,.F.);
#593=ADVANCED_FACE('',(#526),#571,.F.);
#594=ADVANCED_FACE('',(#527,#528,#529),#572,.F.);
#595=ADVANCED_FACE('',(#530),#573,.T.);
#596=ADVANCED_FACE('',(#531,#532),#19,.F.);
#597=ADVANCED_FACE('',(#533,#534),#12,.F.);
#598=ADVANCED_FACE('',(#535,#536),#20,.F.);
#599=ADVANCED_FACE('',(#537,#538),#13,.F.);
#600=ADVANCED_FACE('',(#539,#540),#21,.F.);
#601=ADVANCED_FACE('',(#541,#542),#14,.F.);
#602=ADVANCED_FACE('',(#543,#544),#22,.F.);
#603=ADVANCED_FACE('',(#545,#546),#15,.F.);
#604=ADVANCED_FACE('',(#547,#548),#23,.F.);
#605=ADVANCED_FACE('',(#549,#550),#24,.F.);
#606=ADVANCED_FACE('',(#551,#552),#25,.F.);
#607=ADVANCED_FACE('',(#553,#554),#26,.F.);
#608=CLOSED_SHELL('',(#574,#575,#576,#577,#578,#579,#580,#581,#582,#583,
#584,#585,#586,#587,#588,#589,#590,#591,#592,#593,#594,#595,#596,#597,#598,
#599,#600,#601,#602,#603,#604,#605,#606,#607));
#609=STYLED_ITEM('',(#610),#617);
#610=PRESENTATION_STYLE_ASSIGNMENT((#611));
#611=SURFACE_STYLE_USAGE(.BOTH.,#612);
#612=SURFACE_SIDE_STYLE('',(#613));
#613=SURFACE_STYLE_FILL_AREA(#614);
#614=FILL_AREA_STYLE('',(#615));
#615=FILL_AREA_STYLE_COLOUR('',#616);
#616=COLOUR_RGB('',0.866666666666667,0.32156862745098,0.156862745098039);
#617=MANIFOLD_SOLID_BREP('Part 3',#608);
#618=SHAPE_DEFINITION_REPRESENTATION(#1022,#619);
#619=SHAPE_REPRESENTATION('Part 3',(#620),#1017);
#620=AXIS2_PLACEMENT_3D('',#851,#681,#682);
#621=AXIS2_PLACEMENT_3D('',#852,#683,#684);
#622=AXIS2_PLACEMENT_3D('',#853,#685,#686);
#623=AXIS2_PLACEMENT_3D('',#863,#691,#692);
#624=AXIS2_PLACEMENT_3D('',#877,#700,#701);
#625=AXIS2_PLACEMENT_3D('',#878,#702,#703);
#626=AXIS2_PLACEMENT_3D('',#885,#707,#708);
#627=AXIS2_PLACEMENT_3D('',#886,#709,#710);
#628=AXIS2_PLACEMENT_3D('',#890,#712,#713);
#629=AXIS2_PLACEMENT_3D('',#898,#717,#718);
#630=AXIS2_PLACEMENT_3D('',#900,#719,#720);
#631=AXIS2_PLACEMENT_3D('',#901,#721,#722);
#632=AXIS2_PLACEMENT_3D('',#902,#723,#724);
#633=AXIS2_PLACEMENT_3D('',#914,#730,#731);
#634=AXIS2_PLACEMENT_3D('',#916,#732,#733);
#635=AXIS2_PLACEMENT_3D('',#924,#737,#738);
#636=AXIS2_PLACEMENT_3D('',#925,#739,#740);
#637=AXIS2_PLACEMENT_3D('',#927,#742,#743);
#638=AXIS2_PLACEMENT_3D('',#928,#744,#745);
#639=AXIS2_PLACEMENT_3D('',#935,#749,#750);
#640=AXIS2_PLACEMENT_3D('',#936,#751,#752);
#641=AXIS2_PLACEMENT_3D('',#941,#755,#756);
#642=AXIS2_PLACEMENT_3D('',#942,#757,#758);
#643=AXIS2_PLACEMENT_3D('',#947,#761,#762);
#644=AXIS2_PLACEMENT_3D('',#948,#763,#764);
#645=AXIS2_PLACEMENT_3D('',#951,#766,#767);
#646=AXIS2_PLACEMENT_3D('',#952,#768,#769);
#647=AXIS2_PLACEMENT_3D('',#954,#771,#772);
#648=AXIS2_PLACEMENT_3D('',#957,#775,#776);
#649=AXIS2_PLACEMENT_3D('',#958,#777,#778);
#650=AXIS2_PLACEMENT_3D('',#960,#779,#780);
#651=AXIS2_PLACEMENT_3D('',#963,#782,#783);
#652=AXIS2_PLACEMENT_3D('',#965,#785,#786);
#653=AXIS2_PLACEMENT_3D('',#966,#787,#788);
#654=AXIS2_PLACEMENT_3D('',#968,#789,#790);
#655=AXIS2_PLACEMENT_3D('',#970,#791,#792);
#656=AXIS2_PLACEMENT_3D('',#971,#793,#794);
#657=AXIS2_PLACEMENT_3D('',#977,#798,#799);
#658=AXIS2_PLACEMENT_3D('',#978,#800,#801);
#659=AXIS2_PLACEMENT_3D('',#980,#802,#803);
#660=AXIS2_PLACEMENT_3D('',#985,#806,#807);
#661=AXIS2_PLACEMENT_3D('',#989,#810,#811);
#662=AXIS2_PLACEMENT_3D('',#990,#812,#813);
#663=AXIS2_PLACEMENT_3D('',#992,#814,#815);
#664=AXIS2_PLACEMENT_3D('',#995,#817,#818);
#665=AXIS2_PLACEMENT_3D('',#996,#819,#820);
#666=AXIS2_PLACEMENT_3D('',#997,#821,#822);
#667=AXIS2_PLACEMENT_3D('',#999,#823,#824);
#668=AXIS2_PLACEMENT_3D('',#1000,#825,#826);
#669=AXIS2_PLACEMENT_3D('',#1001,#827,#828);
#670=AXIS2_PLACEMENT_3D('',#1003,#829,#830);
#671=AXIS2_PLACEMENT_3D('',#1004,#831,#832);
#672=AXIS2_PLACEMENT_3D('',#1005,#833,#834);
#673=AXIS2_PLACEMENT_3D('',#1007,#835,#836);
#674=AXIS2_PLACEMENT_3D('',#1008,#837,#838);
#675=AXIS2_PLACEMENT_3D('',#1009,#839,#840);
#676=AXIS2_PLACEMENT_3D('',#1011,#841,#842);
#677=AXIS2_PLACEMENT_3D('',#1012,#843,#844);
#678=AXIS2_PLACEMENT_3D('',#1013,#845,#846);
#679=AXIS2_PLACEMENT_3D('',#1014,#847,#848);
#680=AXIS2_PLACEMENT_3D('',#1015,#849,#850);
#681=DIRECTION('',(0.,0.,1.));
#682=DIRECTION('',(1.,0.,0.));
#683=DIRECTION('',(0.,-1.,0.));
#684=DIRECTION('',(0.,0.,-1.));
#685=DIRECTION('',(0.,-1.,0.));
#686=DIRECTION('',(0.,0.,-1.));
#687=DIRECTION('',(0.,0.,-1.));
#688=DIRECTION('',(1.,0.,0.));
#689=DIRECTION('',(0.,0.,-1.));
#690=DIRECTION('',(-1.,0.,0.));
#691=DIRECTION('',(0.,0.,1.));
#692=DIRECTION('',(1.,0.,0.));
#693=DIRECTION('',(-1.,0.,0.));
#694=DIRECTION('',(2.77555756156289E-16,-1.,0.));
#695=DIRECTION('',(2.77555756156289E-16,-1.,0.));
#696=DIRECTION('',(-1.,0.,0.));
#697=DIRECTION('',(0.,-1.,0.));
#698=DIRECTION('',(-1.,0.,0.));
#699=DIRECTION('',(0.,-1.,0.));
#700=DIRECTION('',(0.,-1.,0.));
#701=DIRECTION('',(0.,0.,-1.));
#702=DIRECTION('',(0.,1.,0.));
#703=DIRECTION('',(0.,0.,1.));
#704=DIRECTION('',(-1.,0.,0.));
#705=DIRECTION('',(0.,0.,-1.));
#706=DIRECTION('',(0.,0.,-1.));
#707=DIRECTION('',(1.,2.77555756156289E-16,0.));
#708=DIRECTION('',(-2.77555756156289E-16,1.,0.));
#709=DIRECTION('',(-1.,-2.77555756156289E-16,0.));
#710=DIRECTION('',(2.77555756156289E-16,-1.,0.));
#711=DIRECTION('',(2.77555756156289E-16,-1.,0.));
#712=DIRECTION('',(1.,2.77555756156289E-16,0.));
#713=DIRECTION('',(-2.77555756156289E-16,1.,0.));
#714=DIRECTION('',(1.96261557335472E-16,-0.707106781186548,0.707106781186547));
#715=DIRECTION('',(-1.96261557335471E-16,0.707106781186547,0.707106781186548));
#716=DIRECTION('',(-1.96261557335472E-16,0.707106781186548,-0.707106781186547));
#717=DIRECTION('',(1.,2.77555756156289E-16,0.));
#718=DIRECTION('',(-2.77555756156289E-16,1.,0.));
#719=DIRECTION('',(1.,2.77555756156289E-16,0.));
#720=DIRECTION('',(-2.77555756156289E-16,1.,0.));
#721=DIRECTION('',(1.,2.77555756156289E-16,0.));
#722=DIRECTION('',(-2.77555756156289E-16,1.,0.));
#723=DIRECTION('',(1.,2.77555756156289E-16,0.));
#724=DIRECTION('',(-2.77555756156289E-16,1.,0.));
#725=DIRECTION('',(-1.96261557335471E-16,0.707106781186547,0.707106781186548));
#726=DIRECTION('',(-1.96261557335472E-16,0.707106781186548,-0.707106781186547));
#727=DIRECTION('',(1.96261557335471E-16,-0.707106781186547,-0.707106781186548));
#728=DIRECTION('',(1.96261557335471E-16,-0.707106781186548,0.707106781186547));
#729=DIRECTION('',(2.77555756156289E-16,-1.,0.));
#730=DIRECTION('',(1.,2.77555756156289E-16,0.));
#731=DIRECTION('',(-2.77555756156289E-16,1.,0.));
#732=DIRECTION('',(1.,2.77555756156289E-16,0.));
#733=DIRECTION('',(-2.77555756156289E-16,1.,0.));
#734=DIRECTION('',(1.96261557335472E-16,-0.707106781186548,0.707106781186547));
#735=DIRECTION('',(1.96261557335471E-16,-0.707106781186547,-0.707106781186548));
#736=DIRECTION('',(-1.96261557335472E-16,0.707106781186548,-0.707106781186547));
#737=DIRECTION('',(1.,2.77555756156289E-16,0.));
#738=DIRECTION('',(-2.77555756156289E-16,1.,0.));
#739=DIRECTION('',(0.,0.,1.));
#740=DIRECTION('',(1.,0.,0.));
#741=DIRECTION('',(-1.,0.,0.));
#742=DIRECTION('',(-1.,0.,0.));
#743=DIRECTION('',(0.,0.,1.));
#744=DIRECTION('',(-1.,0.,0.));
#745=DIRECTION('',(0.,0.,1.));
#746=DIRECTION('',(0.,0.,1.));
#747=DIRECTION('',(0.,-1.,0.));
#748=DIRECTION('',(0.,0.,1.));
#749=DIRECTION('',(0.,1.,0.));
#750=DIRECTION('',(0.,0.,1.));
#751=DIRECTION('',(0.,1.,0.));
#752=DIRECTION('',(0.,0.,1.));
#753=DIRECTION('',(0.,0.,1.));
#754=DIRECTION('',(-1.,0.,0.));
#755=DIRECTION('',(-1.,0.,0.));
#756=DIRECTION('',(0.,0.,1.));
#757=DIRECTION('',(-1.,0.,0.));
#758=DIRECTION('',(0.,0.,1.));
#759=DIRECTION('',(0.,0.,1.));
#760=DIRECTION('',(0.,-1.,0.));
#761=DIRECTION('',(0.,1.,0.));
#762=DIRECTION('',(0.,0.,1.));
#763=DIRECTION('',(0.,1.,0.));
#764=DIRECTION('',(0.,0.,1.));
#765=DIRECTION('',(-1.,0.,0.));
#766=DIRECTION('',(0.,0.,1.));
#767=DIRECTION('',(1.,0.,0.));
#768=DIRECTION('',(1.,2.77555756156289E-16,0.));
#769=DIRECTION('',(-2.77555756156289E-16,1.,0.));
#770=DIRECTION('',(1.,2.77555756156289E-16,0.));
#771=DIRECTION('',(1.,2.77555756156289E-16,0.));
#772=DIRECTION('',(-2.77555756156289E-16,1.,0.));
#773=DIRECTION('',(1.,2.77555756156289E-16,0.));
#774=DIRECTION('',(1.,2.77555756156289E-16,0.));
#775=DIRECTION('',(1.96261557335471E-16,-0.707106781186547,-0.707106781186548));
#776=DIRECTION('',(0.,0.707106781186548,-0.707106781186547));
#777=DIRECTION('',(-1.96261557335471E-16,0.707106781186547,0.707106781186548));
#778=DIRECTION('',(0.,-0.707106781186548,0.707106781186547));
#779=DIRECTION('',(-1.96261557335471E-16,0.707106781186547,0.707106781186548));
#780=DIRECTION('',(0.,-0.707106781186548,0.707106781186547));
#781=DIRECTION('',(1.,2.77555756156289E-16,0.));
#782=DIRECTION('',(1.96261557335472E-16,-0.707106781186548,0.707106781186547));
#783=DIRECTION('',(0.,-0.707106781186547,-0.707106781186548));
#784=DIRECTION('',(1.,2.77555756156289E-16,0.));
#785=DIRECTION('',(-1.96261557335471E-16,0.707106781186547,0.707106781186548));
#786=DIRECTION('',(0.,-0.707106781186548,0.707106781186547));
#787=DIRECTION('',(1.96261557335471E-16,-0.707106781186547,-0.707106781186548));
#788=DIRECTION('',(-2.46519032881566E-32,0.707106781186548,-0.707106781186547));
#789=DIRECTION('',(1.96261557335471E-16,-0.707106781186547,-0.707106781186548));
#790=DIRECTION('',(-2.46519032881566E-32,0.707106781186548,-0.707106781186547));
#791=DIRECTION('',(1.,2.77555756156289E-16,0.));
#792=DIRECTION('',(-2.77555756156289E-16,1.,0.));
#793=DIRECTION('',(-1.96261557335472E-16,0.707106781186548,-0.707106781186547));
#794=DIRECTION('',(0.,0.707106781186547,0.707106781186548));
#795=DIRECTION('',(1.,2.77555756156289E-16,0.));
#796=DIRECTION('',(-1.96261557335471E-16,0.707106781186547,0.707106781186548));
#797=DIRECTION('',(1.,2.77555756156289E-16,0.));
#798=DIRECTION('',(-1.96261557335471E-16,0.707106781186547,0.707106781186548));
#799=DIRECTION('',(0.,-0.707106781186548,0.707106781186547));
#800=DIRECTION('',(1.96261557335471E-16,-0.707106781186547,-0.707106781186548));
#801=DIRECTION('',(-2.46519032881566E-32,0.707106781186548,-0.707106781186547));
#802=DIRECTION('',(1.96261557335471E-16,-0.707106781186547,-0.707106781186548));
#803=DIRECTION('',(-2.46519032881566E-32,0.707106781186548,-0.707106781186547));
#804=DIRECTION('',(1.,2.77555756156289E-16,0.));
#805=DIRECTION('',(1.96261557335471E-16,-0.707106781186548,0.707106781186547));
#806=DIRECTION('',(1.96261557335472E-16,-0.707106781186548,0.707106781186547));
#807=DIRECTION('',(0.,-0.707106781186547,-0.707106781186548));
#808=DIRECTION('',(1.,2.77555756156289E-16,0.));
#809=DIRECTION('',(1.96261557335471E-16,-0.707106781186547,-0.707106781186548));
#810=DIRECTION('',(1.96261557335471E-16,-0.707106781186547,-0.707106781186548));
#811=DIRECTION('',(0.,0.707106781186548,-0.707106781186547));
#812=DIRECTION('',(-1.96261557335471E-16,0.707106781186547,0.707106781186548));
#813=DIRECTION('',(0.,-0.707106781186548,0.707106781186547));
#814=DIRECTION('',(-1.96261557335471E-16,0.707106781186547,0.707106781186548));
#815=DIRECTION('',(0.,-0.707106781186548,0.707106781186547));
#816=DIRECTION('',(-1.96261557335472E-16,0.707106781186548,-0.707106781186547));
#817=DIRECTION('',(1.,2.77555756156289E-16,0.));
#818=DIRECTION('',(-2.77555756156289E-16,1.,0.));
#819=DIRECTION('',(-1.96261557335471E-16,0.707106781186547,0.707106781186548));
#820=DIRECTION('',(0.,-0.707106781186548,0.707106781186547));
#821=DIRECTION('',(-1.96261557335471E-16,0.707106781186547,0.707106781186548));
#822=DIRECTION('',(0.,-0.707106781186548,0.707106781186547));
#823=DIRECTION('',(1.96261557335471E-16,-0.707106781186547,-0.707106781186548));
#824=DIRECTION('',(0.,0.707106781186548,-0.707106781186547));
#825=DIRECTION('',(-1.96261557335471E-16,0.707106781186547,0.707106781186548));
#826=DIRECTION('',(0.,-0.707106781186548,0.707106781186547));
#827=DIRECTION('',(-1.96261557335471E-16,0.707106781186547,0.707106781186548));
#828=DIRECTION('',(0.,-0.707106781186548,0.707106781186547));
#829=DIRECTION('',(1.96261557335471E-16,-0.707106781186547,-0.707106781186548));
#830=DIRECTION('',(0.,0.707106781186548,-0.707106781186547));
#831=DIRECTION('',(1.96261557335471E-16,-0.707106781186547,-0.707106781186548));
#832=DIRECTION('',(-2.46519032881566E-32,0.707106781186548,-0.707106781186547));
#833=DIRECTION('',(1.96261557335471E-16,-0.707106781186547,-0.707106781186548));
#834=DIRECTION('',(-2.46519032881566E-32,0.707106781186548,-0.707106781186547));
#835=DIRECTION('',(-1.96261557335471E-16,0.707106781186547,0.707106781186548));
#836=DIRECTION('',(2.46519032881566E-32,-0.707106781186548,0.707106781186547));
#837=DIRECTION('',(1.96261557335471E-16,-0.707106781186547,-0.707106781186548));
#838=DIRECTION('',(-2.46519032881566E-32,0.707106781186548,-0.707106781186547));
#839=DIRECTION('',(1.96261557335471E-16,-0.707106781186547,-0.707106781186548));
#840=DIRECTION('',(-2.46519032881566E-32,0.707106781186548,-0.707106781186547));
#841=DIRECTION('',(-1.96261557335471E-16,0.707106781186547,0.707106781186548));
#842=DIRECTION('',(2.46519032881566E-32,-0.707106781186548,0.707106781186547));
#843=DIRECTION('',(1.,2.77555756156289E-16,0.));
#844=DIRECTION('',(-2.77555756156289E-16,1.,0.));
#845=DIRECTION('',(0.,1.,0.));
#846=DIRECTION('',(0.,0.,1.));
#847=DIRECTION('',(-1.,-2.77555756156289E-16,0.));
#848=DIRECTION('',(2.77555756156289E-16,-1.,0.));
#849=DIRECTION('',(0.,-1.,0.));
#850=DIRECTION('',(0.,0.,-1.));
#851=CARTESIAN_POINT('',(0.,0.,0.));
#852=CARTESIAN_POINT('',(-1.38777878078145E-17,0.075,0.1));
#853=CARTESIAN_POINT('',(-2.75106462557994E-17,0.075,0.0798617956667759));
#854=CARTESIAN_POINT('',(-2.75106462557994E-17,0.075,0.0758617956667759));
#855=CARTESIAN_POINT('',(-0.025,0.075,0.1));
#856=CARTESIAN_POINT('',(-0.025,0.075,0.1));
#857=CARTESIAN_POINT('',(-0.025,0.075,0.0513567515763967));
#858=CARTESIAN_POINT('',(-1.38777878078145E-17,0.075,0.0513567515763967));
#859=CARTESIAN_POINT('',(0.025,0.075,0.0513567515763967));
#860=CARTESIAN_POINT('',(0.025,0.075,0.1));
#861=CARTESIAN_POINT('',(0.025,0.075,0.1));
#862=CARTESIAN_POINT('',(-1.38777878078145E-17,0.075,0.1));
#863=CARTESIAN_POINT('',(-2.08166817117217E-17,0.1,0.1));
#864=CARTESIAN_POINT('',(-2.77555756156289E-17,0.125,0.1));
#865=CARTESIAN_POINT('',(0.025,0.125,0.1));
#866=CARTESIAN_POINT('',(-0.025,0.125,0.1));
#867=CARTESIAN_POINT('',(-0.025,0.1,0.1));
#868=CARTESIAN_POINT('',(0.025,0.1,0.1));
#869=CARTESIAN_POINT('',(-2.08166817117217E-17,0.1205,0.1));
#870=CARTESIAN_POINT('',(0.0205,0.1205,0.1));
#871=CARTESIAN_POINT('',(-0.0205,0.1205,0.1));
#872=CARTESIAN_POINT('',(0.0205,0.1,0.1));
#873=CARTESIAN_POINT('',(0.0205,0.0795,0.1));
#874=CARTESIAN_POINT('',(-2.08166817117217E-17,0.0795,0.1));
#875=CARTESIAN_POINT('',(-0.0205,0.0795,0.1));
#876=CARTESIAN_POINT('',(-0.0205,0.1,0.1));
#877=CARTESIAN_POINT('',(-2.77555756156289E-17,0.125,0.1));
#878=CARTESIAN_POINT('',(-2.77555756156289E-17,0.125,0.0798617956667759));
#879=CARTESIAN_POINT('',(-2.77555756156289E-17,0.125,0.0838617956667759));
#880=CARTESIAN_POINT('',(-2.77555756156289E-17,0.125,0.));
#881=CARTESIAN_POINT('',(0.025,0.125,0.));
#882=CARTESIAN_POINT('',(-0.025,0.125,0.));
#883=CARTESIAN_POINT('',(-0.025,0.125,0.1));
#884=CARTESIAN_POINT('',(0.025,0.125,0.1));
#885=CARTESIAN_POINT('',(-0.025,0.1,0.1));
#886=CARTESIAN_POINT('',(-0.025,0.1,0.08));
#887=CARTESIAN_POINT('',(-0.025,0.096,0.08));
#888=CARTESIAN_POINT('',(-0.025,0.1,0.));
#889=CARTESIAN_POINT('',(-0.025,0.075,0.));
#890=CARTESIAN_POINT('',(-0.025,0.075,0.0614215391733284));
#891=CARTESIAN_POINT('',(-0.025,0.0315684131396245,0.0179899523129528));
#892=CARTESIAN_POINT('',(-0.025,0.0124765300475877,0.0370818354049895));
#893=CARTESIAN_POINT('',(-0.025,-0.00661535304444905,0.0561737184970263));
#894=CARTESIAN_POINT('',(-0.025,0.00876421944635841,0.0715532909878338));
#895=CARTESIAN_POINT('',(-0.025,0.0241437919371658,0.0869328634786414));
#896=CARTESIAN_POINT('',(-0.025,0.0432356750292026,0.0678409803866046));
#897=CARTESIAN_POINT('',(-0.025,0.0623275581212395,0.0487490972945678));
#898=CARTESIAN_POINT('',(-0.025,0.0686637790606197,0.0550853182339481));
#899=CARTESIAN_POINT('',(-0.025,0.0716868198340537,0.046649880126331));
#900=CARTESIAN_POINT('',(-0.025,0.07,0.0513567515763967));
#901=CARTESIAN_POINT('',(0.025,0.1,0.1));
#902=CARTESIAN_POINT('',(0.025,0.1,0.08));
#903=CARTESIAN_POINT('',(0.025,0.104,0.08));
#904=CARTESIAN_POINT('',(0.025,0.0435892284197959,0.0367282820143964));
#905=CARTESIAN_POINT('',(0.025,0.0315684131396245,0.024707466734225));
#906=CARTESIAN_POINT('',(0.025,0.0556100436999673,0.0487490972945678));
#907=CARTESIAN_POINT('',(0.025,0.0158352872582238,0.0404405926156256));
#908=CARTESIAN_POINT('',(0.025,0.000102161376823152,0.0561737184970263));
#909=CARTESIAN_POINT('',(0.025,0.0121229766569945,0.0681945337771977));
#910=CARTESIAN_POINT('',(0.025,0.024143791937166,0.0802153490573692));
#911=CARTESIAN_POINT('',(0.025,0.0398769178185666,0.0644822231759685));
#912=CARTESIAN_POINT('',(0.025,0.1,0.));
#913=CARTESIAN_POINT('',(0.025,0.075,0.));
#914=CARTESIAN_POINT('',(0.025,0.07,0.0513567515763967));
#915=CARTESIAN_POINT('',(0.025,0.0716868198340537,0.046649880126331));
#916=CARTESIAN_POINT('',(0.025,0.0686637790606197,0.0550853182339481));
#917=CARTESIAN_POINT('',(0.025,0.0623275581212395,0.0487490972945678));
#918=CARTESIAN_POINT('',(0.025,0.0432356750292026,0.0678409803866046));
#919=CARTESIAN_POINT('',(0.025,0.0241437919371658,0.0869328634786414));
#920=CARTESIAN_POINT('',(0.025,0.00876421944635843,0.0715532909878338));
#921=CARTESIAN_POINT('',(0.025,-0.00661535304444904,0.0561737184970263));
#922=CARTESIAN_POINT('',(0.025,0.0124765300475877,0.0370818354049895));
#923=CARTESIAN_POINT('',(0.025,0.0315684131396245,0.0179899523129528));
#924=CARTESIAN_POINT('',(0.025,0.075,0.0614215391733284));
#925=CARTESIAN_POINT('',(-2.08166817117217E-17,0.1,0.));
#926=CARTESIAN_POINT('',(-1.38777878078145E-17,0.075,0.));
#927=CARTESIAN_POINT('',(0.0205,0.1,0.0025));
#928=CARTESIAN_POINT('',(0.0205,0.1,0.08));
#929=CARTESIAN_POINT('',(0.0205,0.1,0.084));
#930=CARTESIAN_POINT('',(0.0205,0.1205,0.0025));
#931=CARTESIAN_POINT('',(0.0205,0.1205,0.0025));
#932=CARTESIAN_POINT('',(0.0205,0.1,0.0025));
#933=CARTESIAN_POINT('',(0.0205,0.0795,0.0025));
#934=CARTESIAN_POINT('',(0.0205,0.0795,0.0025));
#935=CARTESIAN_POINT('',(-2.08166817117217E-17,0.1205,0.0025));
#936=CARTESIAN_POINT('',(-2.77555756156289E-17,0.1205,0.0798617956667759));
#937=CARTESIAN_POINT('',(-2.77555756156289E-17,0.1205,0.0838617956667759));
#938=CARTESIAN_POINT('',(-0.0205,0.1205,0.0025));
#939=CARTESIAN_POINT('',(-0.0205,0.1205,0.0025));
#940=CARTESIAN_POINT('',(-2.08166817117217E-17,0.1205,0.0025));
#941=CARTESIAN_POINT('',(-0.0205,0.1,0.0025));
#942=CARTESIAN_POINT('',(-0.0205,0.1,0.08));
#943=CARTESIAN_POINT('',(-0.0205,0.1,0.084));
#944=CARTESIAN_POINT('',(-0.0205,0.0795,0.0025));
#945=CARTESIAN_POINT('',(-0.0205,0.0795,0.0025));
#946=CARTESIAN_POINT('',(-0.0205,0.1,0.0025));
#947=CARTESIAN_POINT('',(-2.08166817117217E-17,0.0795,0.0025));
#948=CARTESIAN_POINT('',(-2.75106462557994E-17,0.0795,0.0798617956667759));
#949=CARTESIAN_POINT('',(-2.75106462557994E-17,0.0795,0.0838617956667759));
#950=CARTESIAN_POINT('',(-2.08166817117217E-17,0.0795,0.0025));
#951=CARTESIAN_POINT('',(-2.08166817117217E-17,0.1,0.0025));
#952=CARTESIAN_POINT('',(-0.025002,0.075,0.0614215391733284));
#953=CARTESIAN_POINT('',(-0.025002,0.0315684131396245,0.0179899523129528));
#954=CARTESIAN_POINT('',(-0.025002,0.0686637790606197,0.0550853182339481));
#955=CARTESIAN_POINT('',(-0.025002,0.0716868198340537,0.046649880126331));
#956=CARTESIAN_POINT('',(-0.025002,0.0623275581212395,0.0487490972945678));
#957=CARTESIAN_POINT('',(-0.025002,0.0124765300475877,0.0370818354049895));
#958=CARTESIAN_POINT('',(0.01125,0.00681967579809535,0.0427386896544819));
#959=CARTESIAN_POINT('',(0.01125,0.00498119816701032,0.044577167285567));
#960=CARTESIAN_POINT('',(0.01125,0.0181333842970801,0.0314249811554972));
#961=CARTESIAN_POINT('',(0.01125,0.0162949066659951,0.0332634587865822));
#962=CARTESIAN_POINT('',(-0.025002,-0.00661535304444905,0.0561737184970263));
#963=CARTESIAN_POINT('',(-0.025002,0.00876421944635841,0.0715532909878338));
#964=CARTESIAN_POINT('',(-0.025002,0.0241437919371658,0.0869328634786414));
#965=CARTESIAN_POINT('',(-0.025002,0.0432356750292026,0.0678409803866046));
#966=CARTESIAN_POINT('',(0.01125,0.0488925292786951,0.0621841261371122));
#967=CARTESIAN_POINT('',(0.01125,0.0507310069097801,0.0603456485060272));
#968=CARTESIAN_POINT('',(0.01125,0.0375788207797103,0.0734978346360969));
#969=CARTESIAN_POINT('',(0.01125,0.0394172984107953,0.0716593570050119));
#970=CARTESIAN_POINT('',(-0.025002,0.07,0.0513567515763967));
#971=CARTESIAN_POINT('',(0.0045,0.0435892284197959,0.0367282820143964));
#972=CARTESIAN_POINT('',(0.0045,0.0556100436999673,0.0487490972945678));
#973=CARTESIAN_POINT('',(0.0045,0.0556100436999673,0.0487490972945678));
#974=CARTESIAN_POINT('',(0.0045,0.0435892284197959,0.0367282820143964));
#975=CARTESIAN_POINT('',(0.0045,0.0315684131396245,0.024707466734225));
#976=CARTESIAN_POINT('',(0.0045,0.0315684131396245,0.024707466734225));
#977=CARTESIAN_POINT('',(0.0045,0.0398769178185666,0.0644822231759685));
#978=CARTESIAN_POINT('',(0.01125,0.045533772068059,0.0588253689264761));
#979=CARTESIAN_POINT('',(0.01125,0.0464883662226608,0.0578707747718743));
#980=CARTESIAN_POINT('',(0.01125,0.0342200635690742,0.0701390774254608));
#981=CARTESIAN_POINT('',(0.01125,0.035174657723676,0.069184483270859));
#982=CARTESIAN_POINT('',(0.0045,0.024143791937166,0.0802153490573692));
#983=CARTESIAN_POINT('',(0.0045,0.024143791937166,0.0802153490573692));
#984=CARTESIAN_POINT('',(0.0045,0.0398769178185666,0.0644822231759685));
#985=CARTESIAN_POINT('',(0.0045,0.0121229766569945,0.0681945337771977));
#986=CARTESIAN_POINT('',(0.0045,0.000102161376823154,0.0561737184970263));
#987=CARTESIAN_POINT('',(0.0045,0.000102161376823154,0.0561737184970263));
#988=CARTESIAN_POINT('',(0.0045,0.0121229766569945,0.0681945337771977));
#989=CARTESIAN_POINT('',(0.0045,0.0158352872582238,0.0404405926156256));
#990=CARTESIAN_POINT('',(0.01125,0.0101784330087315,0.046097446865118));
#991=CARTESIAN_POINT('',(0.01125,0.00922383885412962,0.0470520410197198));
#992=CARTESIAN_POINT('',(0.01125,0.0214921415077163,0.0347837383661333));
#993=CARTESIAN_POINT('',(0.01125,0.0205375473531144,0.0357383325207351));
#994=CARTESIAN_POINT('',(0.0045,0.0158352872582238,0.0404405926156256));
#995=CARTESIAN_POINT('',(0.0045,0.0591923234777755,0.05));
#996=CARTESIAN_POINT('',(0.01125,0.0181333842970801,0.0314249811554972));
#997=CARTESIAN_POINT('',(0.01125,0.0190172677735633,0.0323088646319803));
#998=CARTESIAN_POINT('',(0.01125,0.0180626736189615,0.0332634587865822));
#999=CARTESIAN_POINT('',(0.01125,0.0181333842970801,0.0314249811554972));
#1000=CARTESIAN_POINT('',(0.01125,0.00681967579809536,0.0427386896544819));
#1001=CARTESIAN_POINT('',(0.01125,0.00770355927457855,0.0436225731309651));
#1002=CARTESIAN_POINT('',(0.01125,0.00674896511997671,0.044577167285567));
#1003=CARTESIAN_POINT('',(0.01125,0.00681967579809535,0.0427386896544819));
#1004=CARTESIAN_POINT('',(0.01125,0.0375788207797103,0.0734978346360969));
#1005=CARTESIAN_POINT('',(0.01125,0.0366949373032271,0.0726139511596138));
#1006=CARTESIAN_POINT('',(0.01125,0.0376495314578289,0.071659357005012));
#1007=CARTESIAN_POINT('',(0.01125,0.0375788207797103,0.0734978346360969));
#1008=CARTESIAN_POINT('',(0.01125,0.0488925292786951,0.0621841261371122));
#1009=CARTESIAN_POINT('',(0.01125,0.0480086458022119,0.061300242660629));
#1010=CARTESIAN_POINT('',(0.01125,0.0489632399568137,0.0603456485060272));
#1011=CARTESIAN_POINT('',(0.01125,0.0488925292786951,0.0621841261371122));
#1012=CARTESIAN_POINT('',(0.020498,0.1,0.08));
#1013=CARTESIAN_POINT('',(-2.77555756156289E-17,0.120498,0.0798617956667759));
#1014=CARTESIAN_POINT('',(-0.020498,0.1,0.08));
#1015=CARTESIAN_POINT('',(-2.75106462557994E-17,0.079502,0.0798617956667759));
#1016=MECHANICAL_DESIGN_GEOMETRIC_PRESENTATION_REPRESENTATION('',(#609),
#1017);
#1017=(
GEOMETRIC_REPRESENTATION_CONTEXT(3)
GLOBAL_UNCERTAINTY_ASSIGNED_CONTEXT((#1018))
GLOBAL_UNIT_ASSIGNED_CONTEXT((#1021,#1020,#1019))
REPRESENTATION_CONTEXT('Part 3','TOP_LEVEL_ASSEMBLY_PART')
);
#1018=UNCERTAINTY_MEASURE_WITH_UNIT(LENGTH_MEASURE(1.E-8),#1021,
'DISTANCE_ACCURACY_VALUE','Maximum Tolerance applied to model');
#1019=(
NAMED_UNIT(*)
SI_UNIT($,.STERADIAN.)
SOLID_ANGLE_UNIT()
);
#1020=(
NAMED_UNIT(*)
PLANE_ANGLE_UNIT()
SI_UNIT($,.RADIAN.)
);
#1021=(
LENGTH_UNIT()
NAMED_UNIT(*)
SI_UNIT($,.METRE.)
);
#1022=PRODUCT_DEFINITION_SHAPE('','',#1023);
#1023=PRODUCT_DEFINITION('','',#1025,#1024);
#1024=PRODUCT_DEFINITION_CONTEXT('',#1031,'design');
#1025=PRODUCT_DEFINITION_FORMATION_WITH_SPECIFIED_SOURCE('','',#1027,
 .NOT_KNOWN.);
#1026=PRODUCT_RELATED_PRODUCT_CATEGORY('','',(#1027));
#1027=PRODUCT('Part 3','Part 3','Part 3',(#1029));
#1028=PRODUCT_CATEGORY('','');
#1029=PRODUCT_CONTEXT('',#1031,'mechanical');
#1030=APPLICATION_PROTOCOL_DEFINITION('international standard',
'ap242_managed_model_based_3d_engineering',2020,#1031);
#1031=APPLICATION_CONTEXT('managed model based 3d engineering');
ENDSEC;
END-ISO-10303-21;
