ISO-10303-21;
HEADER;
/* Generated by software containing ST-Developer
 * from STEP Tools, Inc. (www.steptools.com) 
 */
/* OPTION: using custom renumber hook */

FILE_DESCRIPTION(
/* description */ ('STEP AP242 Edition 2',
'CAx-IF Rec.Pracs.---Representation and Presentation of Product Manufa
cturing Information (PMI)---4.0---2014-10-13',
'CAx-IF Rec.Pracs.---3D Tessellated Geometry---0.4---2014-09-14','2;1',
'CAx-IF Rec.Pracs.---User Defined Attributes---1.5---2016-08-15'),
/* implementation_level */ '2;1');

FILE_NAME(
/* name */ 'Right Arm - Part 2 (3)',
/* time_stamp */ '2026-05-31T15:23:16Z',
/* author */ (''),
/* organization */ (''),
/* preprocessor_version */ 'ST-DEVELOPER v20',
/* originating_system */ 'ONSHAPE BY PTC INC, 1.215',
/* authorisation */ '  ');

FILE_SCHEMA (('AP242_MANAGED_MODEL_BASED_3D_ENGINEERING_MIM_LF { 1 0 10303 442 3 1 4 }'));
ENDSEC;

DATA;
#10=SHAPE_REPRESENTATION_RELATIONSHIP('','',#875,#11);
#11=ADVANCED_BREP_SHAPE_REPRESENTATION('',(#873),#1489);
#12=B_SPLINE_CURVE_WITH_KNOTS('',3,(#1423,#1424,#1425,#1426),
 .UNSPECIFIED.,.F.,.F.,(4,4),(0.,0.00195980406571489),.UNSPECIFIED.);
#13=B_SPLINE_CURVE_WITH_KNOTS('',3,(#1427,#1428,#1429,#1430),
 .UNSPECIFIED.,.F.,.F.,(4,4),(0.,0.00195980406571488),.UNSPECIFIED.);
#14=B_SPLINE_CURVE_WITH_KNOTS('',3,(#1432,#1433,#1434,#1435),
 .UNSPECIFIED.,.F.,.F.,(4,4),(0.,0.00196093717327104),.UNSPECIFIED.);
#15=B_SPLINE_CURVE_WITH_KNOTS('',3,(#1437,#1438,#1439,#1440),
 .UNSPECIFIED.,.F.,.F.,(4,4),(0.,0.00195980406571489),.UNSPECIFIED.);
#16=CYLINDRICAL_SURFACE('',#939,0.004);
#17=CYLINDRICAL_SURFACE('',#940,0.004);
#18=CYLINDRICAL_SURFACE('',#941,0.004);
#19=CYLINDRICAL_SURFACE('',#942,0.004);
#20=CYLINDRICAL_SURFACE('',#943,0.00135);
#21=CYLINDRICAL_SURFACE('',#946,0.00135);
#22=CYLINDRICAL_SURFACE('',#949,0.00135);
#23=CYLINDRICAL_SURFACE('',#952,0.00135);
#24=CYLINDRICAL_SURFACE('',#965,0.00178594);
#25=CYLINDRICAL_SURFACE('',#968,0.00178594);
#26=CYLINDRICAL_SURFACE('',#971,0.00178594);
#27=CYLINDRICAL_SURFACE('',#974,0.00178594);
#28=CYLINDRICAL_SURFACE('',#975,0.004);
#29=CYLINDRICAL_SURFACE('',#976,0.004);
#30=ELLIPSE('',#932,0.00447213602527451,0.004);
#31=ELLIPSE('',#933,0.00447213602527451,0.004);
#32=ELLIPSE('',#935,0.00447213602527451,0.004);
#33=ELLIPSE('',#936,0.00447213602527451,0.004);
#34=CONICAL_SURFACE('',#919,0.00134,0.139626340159546);
#35=CONICAL_SURFACE('',#922,0.00134,0.139626340159546);
#36=CONICAL_SURFACE('',#925,0.00134,0.139626340159546);
#37=CONICAL_SURFACE('',#928,0.00134,0.139626340159546);
#38=CONICAL_SURFACE('',#945,0.0026,0.785398163397446);
#39=CONICAL_SURFACE('',#948,0.0026,0.785398163397446);
#40=CONICAL_SURFACE('',#951,0.0026,0.785398163397446);
#41=CONICAL_SURFACE('',#954,0.0026,0.785398163397446);
#42=CONICAL_SURFACE('',#955,0.002185,0.139626340159546);
#43=CONICAL_SURFACE('',#957,0.002185,0.139626340159546);
#44=CONICAL_SURFACE('',#959,0.002185,0.139626340159546);
#45=CONICAL_SURFACE('',#961,0.002185,0.139626340159546);
#46=LINE('',#1253,#102);
#47=LINE('',#1256,#103);
#48=LINE('',#1258,#104);
#49=LINE('',#1260,#105);
#50=LINE('',#1262,#106);
#51=LINE('',#1265,#107);
#52=LINE('',#1267,#108);
#53=LINE('',#1269,#109);
#54=LINE('',#1270,#110);
#55=LINE('',#1273,#111);
#56=LINE('',#1275,#112);
#57=LINE('',#1277,#113);
#58=LINE('',#1283,#114);
#59=LINE('',#1286,#115);
#60=LINE('',#1288,#116);
#61=LINE('',#1290,#117);
#62=LINE('',#1292,#118);
#63=LINE('',#1294,#119);
#64=LINE('',#1296,#120);
#65=LINE('',#1297,#121);
#66=LINE('',#1300,#122);
#67=LINE('',#1302,#123);
#68=LINE('',#1304,#124);
#69=LINE('',#1306,#125);
#70=LINE('',#1308,#126);
#71=LINE('',#1310,#127);
#72=LINE('',#1312,#128);
#73=LINE('',#1314,#129);
#74=LINE('',#1316,#130);
#75=LINE('',#1324,#131);
#76=LINE('',#1328,#132);
#77=LINE('',#1332,#133);
#78=LINE('',#1340,#134);
#79=LINE('',#1342,#135);
#80=LINE('',#1344,#136);
#81=LINE('',#1350,#137);
#82=LINE('',#1355,#138);
#83=LINE('',#1360,#139);
#84=LINE('',#1364,#140);
#85=LINE('',#1365,#141);
#86=LINE('',#1369,#142);
#87=LINE('',#1371,#143);
#88=LINE('',#1373,#144);
#89=LINE('',#1375,#145);
#90=LINE('',#1377,#146);
#91=LINE('',#1379,#147);
#92=LINE('',#1381,#148);
#93=LINE('',#1382,#149);
#94=LINE('',#1384,#150);
#95=LINE('',#1386,#151);
#96=LINE('',#1405,#152);
#97=LINE('',#1413,#153);
#98=LINE('',#1417,#154);
#99=LINE('',#1418,#155);
#100=LINE('',#1420,#156);
#101=LINE('',#1421,#157);
#102=VECTOR('',#997,1.);
#103=VECTOR('',#998,1.);
#104=VECTOR('',#999,1.);
#105=VECTOR('',#1000,1.);
#106=VECTOR('',#1003,1.);
#107=VECTOR('',#1004,1.);
#108=VECTOR('',#1005,1.);
#109=VECTOR('',#1006,1.);
#110=VECTOR('',#1007,1.);
#111=VECTOR('',#1008,1.);
#112=VECTOR('',#1009,1.);
#113=VECTOR('',#1010,1.);
#114=VECTOR('',#1017,1.);
#115=VECTOR('',#1018,1.);
#116=VECTOR('',#1019,1.);
#117=VECTOR('',#1020,1.);
#118=VECTOR('',#1023,1.);
#119=VECTOR('',#1024,1.);
#120=VECTOR('',#1025,1.);
#121=VECTOR('',#1026,1.);
#122=VECTOR('',#1027,1.);
#123=VECTOR('',#1028,1.);
#124=VECTOR('',#1029,1.);
#125=VECTOR('',#1032,1.);
#126=VECTOR('',#1033,1.);
#127=VECTOR('',#1034,1.);
#128=VECTOR('',#1037,1.);
#129=VECTOR('',#1038,1.);
#130=VECTOR('',#1039,1.);
#131=VECTOR('',#1048,1.);
#132=VECTOR('',#1051,1.);
#133=VECTOR('',#1054,1.);
#134=VECTOR('',#1063,1.);
#135=VECTOR('',#1064,1.);
#136=VECTOR('',#1065,1.);
#137=VECTOR('',#1072,1.);
#138=VECTOR('',#1075,1.);
#139=VECTOR('',#1080,1.);
#140=VECTOR('',#1085,1.);
#141=VECTOR('',#1086,1.);
#142=VECTOR('',#1093,1.);
#143=VECTOR('',#1094,1.);
#144=VECTOR('',#1095,1.);
#145=VECTOR('',#1098,1.);
#146=VECTOR('',#1099,1.);
#147=VECTOR('',#1100,1.);
#148=VECTOR('',#1103,1.);
#149=VECTOR('',#1104,1.);
#150=VECTOR('',#1107,1.);
#151=VECTOR('',#1110,1.);
#152=VECTOR('',#1139,1.);
#153=VECTOR('',#1148,1.);
#154=VECTOR('',#1153,1.);
#155=VECTOR('',#1154,1.);
#156=VECTOR('',#1157,1.);
#157=VECTOR('',#1158,1.);
#158=ORIENTED_EDGE('',*,*,#366,.F.);
#159=ORIENTED_EDGE('',*,*,#367,.F.);
#160=ORIENTED_EDGE('',*,*,#368,.F.);
#161=ORIENTED_EDGE('',*,*,#369,.F.);
#162=ORIENTED_EDGE('',*,*,#370,.F.);
#163=ORIENTED_EDGE('',*,*,#371,.F.);
#164=ORIENTED_EDGE('',*,*,#372,.F.);
#165=ORIENTED_EDGE('',*,*,#373,.F.);
#166=ORIENTED_EDGE('',*,*,#374,.F.);
#167=ORIENTED_EDGE('',*,*,#375,.T.);
#168=ORIENTED_EDGE('',*,*,#376,.T.);
#169=ORIENTED_EDGE('',*,*,#377,.F.);
#170=ORIENTED_EDGE('',*,*,#378,.F.);
#171=ORIENTED_EDGE('',*,*,#379,.T.);
#172=ORIENTED_EDGE('',*,*,#380,.T.);
#173=ORIENTED_EDGE('',*,*,#381,.F.);
#174=ORIENTED_EDGE('',*,*,#382,.F.);
#175=ORIENTED_EDGE('',*,*,#383,.T.);
#176=ORIENTED_EDGE('',*,*,#384,.T.);
#177=ORIENTED_EDGE('',*,*,#385,.F.);
#178=ORIENTED_EDGE('',*,*,#386,.F.);
#179=ORIENTED_EDGE('',*,*,#387,.F.);
#180=ORIENTED_EDGE('',*,*,#388,.F.);
#181=ORIENTED_EDGE('',*,*,#389,.T.);
#182=ORIENTED_EDGE('',*,*,#390,.T.);
#183=ORIENTED_EDGE('',*,*,#391,.F.);
#184=ORIENTED_EDGE('',*,*,#390,.F.);
#185=ORIENTED_EDGE('',*,*,#392,.F.);
#186=ORIENTED_EDGE('',*,*,#393,.T.);
#187=ORIENTED_EDGE('',*,*,#394,.T.);
#188=ORIENTED_EDGE('',*,*,#395,.T.);
#189=ORIENTED_EDGE('',*,*,#396,.F.);
#190=ORIENTED_EDGE('',*,*,#397,.F.);
#191=ORIENTED_EDGE('',*,*,#398,.T.);
#192=ORIENTED_EDGE('',*,*,#399,.F.);
#193=ORIENTED_EDGE('',*,*,#400,.T.);
#194=ORIENTED_EDGE('',*,*,#401,.T.);
#195=ORIENTED_EDGE('',*,*,#396,.T.);
#196=ORIENTED_EDGE('',*,*,#402,.F.);
#197=ORIENTED_EDGE('',*,*,#403,.T.);
#198=ORIENTED_EDGE('',*,*,#404,.T.);
#199=ORIENTED_EDGE('',*,*,#398,.F.);
#200=ORIENTED_EDGE('',*,*,#405,.T.);
#201=ORIENTED_EDGE('',*,*,#406,.T.);
#202=ORIENTED_EDGE('',*,*,#404,.F.);
#203=ORIENTED_EDGE('',*,*,#407,.T.);
#204=ORIENTED_EDGE('',*,*,#408,.T.);
#205=ORIENTED_EDGE('',*,*,#409,.T.);
#206=ORIENTED_EDGE('',*,*,#410,.T.);
#207=ORIENTED_EDGE('',*,*,#411,.T.);
#208=ORIENTED_EDGE('',*,*,#412,.T.);
#209=ORIENTED_EDGE('',*,*,#413,.T.);
#210=ORIENTED_EDGE('',*,*,#399,.T.);
#211=ORIENTED_EDGE('',*,*,#395,.F.);
#212=ORIENTED_EDGE('',*,*,#414,.F.);
#213=ORIENTED_EDGE('',*,*,#415,.F.);
#214=ORIENTED_EDGE('',*,*,#416,.F.);
#215=ORIENTED_EDGE('',*,*,#393,.F.);
#216=ORIENTED_EDGE('',*,*,#417,.T.);
#217=ORIENTED_EDGE('',*,*,#418,.F.);
#218=ORIENTED_EDGE('',*,*,#419,.T.);
#219=ORIENTED_EDGE('',*,*,#420,.T.);
#220=ORIENTED_EDGE('',*,*,#421,.T.);
#221=ORIENTED_EDGE('',*,*,#422,.T.);
#222=ORIENTED_EDGE('',*,*,#423,.T.);
#223=ORIENTED_EDGE('',*,*,#424,.T.);
#224=ORIENTED_EDGE('',*,*,#402,.T.);
#225=ORIENTED_EDGE('',*,*,#397,.T.);
#226=ORIENTED_EDGE('',*,*,#401,.F.);
#227=ORIENTED_EDGE('',*,*,#425,.T.);
#228=ORIENTED_EDGE('',*,*,#426,.T.);
#229=ORIENTED_EDGE('',*,*,#427,.T.);
#230=ORIENTED_EDGE('',*,*,#428,.F.);
#231=ORIENTED_EDGE('',*,*,#418,.T.);
#232=ORIENTED_EDGE('',*,*,#429,.T.);
#233=ORIENTED_EDGE('',*,*,#388,.T.);
#234=ORIENTED_EDGE('',*,*,#417,.F.);
#235=ORIENTED_EDGE('',*,*,#392,.T.);
#236=ORIENTED_EDGE('',*,*,#389,.F.);
#237=ORIENTED_EDGE('',*,*,#429,.F.);
#238=ORIENTED_EDGE('',*,*,#394,.F.);
#239=ORIENTED_EDGE('',*,*,#416,.T.);
#240=ORIENTED_EDGE('',*,*,#428,.T.);
#241=ORIENTED_EDGE('',*,*,#391,.T.);
#242=ORIENTED_EDGE('',*,*,#430,.T.);
#243=ORIENTED_EDGE('',*,*,#431,.T.);
#244=ORIENTED_EDGE('',*,*,#432,.F.);
#245=ORIENTED_EDGE('',*,*,#378,.T.);
#246=ORIENTED_EDGE('',*,*,#433,.F.);
#247=ORIENTED_EDGE('',*,*,#434,.T.);
#248=ORIENTED_EDGE('',*,*,#435,.T.);
#249=ORIENTED_EDGE('',*,*,#380,.F.);
#250=ORIENTED_EDGE('',*,*,#383,.F.);
#251=ORIENTED_EDGE('',*,*,#436,.F.);
#252=ORIENTED_EDGE('',*,*,#374,.T.);
#253=ORIENTED_EDGE('',*,*,#437,.T.);
#254=ORIENTED_EDGE('',*,*,#382,.T.);
#255=ORIENTED_EDGE('',*,*,#438,.F.);
#256=ORIENTED_EDGE('',*,*,#375,.F.);
#257=ORIENTED_EDGE('',*,*,#436,.T.);
#258=ORIENTED_EDGE('',*,*,#385,.T.);
#259=ORIENTED_EDGE('',*,*,#439,.F.);
#260=ORIENTED_EDGE('',*,*,#376,.F.);
#261=ORIENTED_EDGE('',*,*,#438,.T.);
#262=ORIENTED_EDGE('',*,*,#384,.F.);
#263=ORIENTED_EDGE('',*,*,#437,.F.);
#264=ORIENTED_EDGE('',*,*,#377,.T.);
#265=ORIENTED_EDGE('',*,*,#439,.T.);
#266=ORIENTED_EDGE('',*,*,#440,.F.);
#267=ORIENTED_EDGE('',*,*,#373,.T.);
#268=ORIENTED_EDGE('',*,*,#440,.T.);
#269=ORIENTED_EDGE('',*,*,#441,.F.);
#270=ORIENTED_EDGE('',*,*,#372,.T.);
#271=ORIENTED_EDGE('',*,*,#441,.T.);
#272=ORIENTED_EDGE('',*,*,#442,.F.);
#273=ORIENTED_EDGE('',*,*,#371,.T.);
#274=ORIENTED_EDGE('',*,*,#442,.T.);
#275=ORIENTED_EDGE('',*,*,#443,.F.);
#276=ORIENTED_EDGE('',*,*,#370,.T.);
#277=ORIENTED_EDGE('',*,*,#443,.T.);
#278=ORIENTED_EDGE('',*,*,#444,.T.);
#279=ORIENTED_EDGE('',*,*,#445,.T.);
#280=ORIENTED_EDGE('',*,*,#433,.T.);
#281=ORIENTED_EDGE('',*,*,#379,.F.);
#282=ORIENTED_EDGE('',*,*,#432,.T.);
#283=ORIENTED_EDGE('',*,*,#446,.T.);
#284=ORIENTED_EDGE('',*,*,#435,.F.);
#285=ORIENTED_EDGE('',*,*,#447,.T.);
#286=ORIENTED_EDGE('',*,*,#448,.T.);
#287=ORIENTED_EDGE('',*,*,#449,.T.);
#288=ORIENTED_EDGE('',*,*,#430,.F.);
#289=ORIENTED_EDGE('',*,*,#381,.T.);
#290=ORIENTED_EDGE('',*,*,#408,.F.);
#291=ORIENTED_EDGE('',*,*,#450,.T.);
#292=ORIENTED_EDGE('',*,*,#423,.F.);
#293=ORIENTED_EDGE('',*,*,#451,.T.);
#294=ORIENTED_EDGE('',*,*,#426,.F.);
#295=ORIENTED_EDGE('',*,*,#452,.T.);
#296=ORIENTED_EDGE('',*,*,#412,.F.);
#297=ORIENTED_EDGE('',*,*,#453,.T.);
#298=ORIENTED_EDGE('',*,*,#453,.F.);
#299=ORIENTED_EDGE('',*,*,#411,.F.);
#300=ORIENTED_EDGE('',*,*,#454,.F.);
#301=ORIENTED_EDGE('',*,*,#446,.F.);
#302=ORIENTED_EDGE('',*,*,#431,.F.);
#303=ORIENTED_EDGE('',*,*,#449,.F.);
#304=ORIENTED_EDGE('',*,*,#455,.F.);
#305=ORIENTED_EDGE('',*,*,#427,.F.);
#306=ORIENTED_EDGE('',*,*,#454,.T.);
#307=ORIENTED_EDGE('',*,*,#410,.F.);
#308=ORIENTED_EDGE('',*,*,#456,.F.);
#309=ORIENTED_EDGE('',*,*,#444,.F.);
#310=ORIENTED_EDGE('',*,*,#455,.T.);
#311=ORIENTED_EDGE('',*,*,#448,.F.);
#312=ORIENTED_EDGE('',*,*,#457,.F.);
#313=ORIENTED_EDGE('',*,*,#421,.F.);
#314=ORIENTED_EDGE('',*,*,#409,.F.);
#315=ORIENTED_EDGE('',*,*,#451,.F.);
#316=ORIENTED_EDGE('',*,*,#422,.F.);
#317=ORIENTED_EDGE('',*,*,#457,.T.);
#318=ORIENTED_EDGE('',*,*,#447,.F.);
#319=ORIENTED_EDGE('',*,*,#434,.F.);
#320=ORIENTED_EDGE('',*,*,#445,.F.);
#321=ORIENTED_EDGE('',*,*,#456,.T.);
#322=ORIENTED_EDGE('',*,*,#415,.T.);
#323=ORIENTED_EDGE('',*,*,#458,.F.);
#324=ORIENTED_EDGE('',*,*,#458,.T.);
#325=ORIENTED_EDGE('',*,*,#420,.F.);
#326=ORIENTED_EDGE('',*,*,#414,.T.);
#327=ORIENTED_EDGE('',*,*,#459,.F.);
#328=ORIENTED_EDGE('',*,*,#459,.T.);
#329=ORIENTED_EDGE('',*,*,#419,.F.);
#330=ORIENTED_EDGE('',*,*,#387,.T.);
#331=ORIENTED_EDGE('',*,*,#460,.F.);
#332=ORIENTED_EDGE('',*,*,#460,.T.);
#333=ORIENTED_EDGE('',*,*,#406,.F.);
#334=ORIENTED_EDGE('',*,*,#386,.T.);
#335=ORIENTED_EDGE('',*,*,#461,.F.);
#336=ORIENTED_EDGE('',*,*,#461,.T.);
#337=ORIENTED_EDGE('',*,*,#405,.F.);
#338=ORIENTED_EDGE('',*,*,#462,.T.);
#339=ORIENTED_EDGE('',*,*,#366,.T.);
#340=ORIENTED_EDGE('',*,*,#369,.T.);
#341=ORIENTED_EDGE('',*,*,#463,.F.);
#342=ORIENTED_EDGE('',*,*,#464,.T.);
#343=ORIENTED_EDGE('',*,*,#367,.T.);
#344=ORIENTED_EDGE('',*,*,#368,.T.);
#345=ORIENTED_EDGE('',*,*,#465,.F.);
#346=ORIENTED_EDGE('',*,*,#466,.F.);
#347=ORIENTED_EDGE('',*,*,#462,.F.);
#348=ORIENTED_EDGE('',*,*,#466,.T.);
#349=ORIENTED_EDGE('',*,*,#467,.T.);
#350=ORIENTED_EDGE('',*,*,#463,.T.);
#351=ORIENTED_EDGE('',*,*,#467,.F.);
#352=ORIENTED_EDGE('',*,*,#468,.F.);
#353=ORIENTED_EDGE('',*,*,#464,.F.);
#354=ORIENTED_EDGE('',*,*,#468,.T.);
#355=ORIENTED_EDGE('',*,*,#469,.T.);
#356=ORIENTED_EDGE('',*,*,#465,.T.);
#357=ORIENTED_EDGE('',*,*,#469,.F.);
#358=ORIENTED_EDGE('',*,*,#424,.F.);
#359=ORIENTED_EDGE('',*,*,#450,.F.);
#360=ORIENTED_EDGE('',*,*,#407,.F.);
#361=ORIENTED_EDGE('',*,*,#403,.F.);
#362=ORIENTED_EDGE('',*,*,#425,.F.);
#363=ORIENTED_EDGE('',*,*,#400,.F.);
#364=ORIENTED_EDGE('',*,*,#413,.F.);
#365=ORIENTED_EDGE('',*,*,#452,.F.);
#366=EDGE_CURVE('',#470,#470,#550,.T.);
#367=EDGE_CURVE('',#471,#471,#551,.T.);
#368=EDGE_CURVE('',#472,#472,#552,.T.);
#369=EDGE_CURVE('',#473,#473,#553,.T.);
#370=EDGE_CURVE('',#474,#474,#554,.T.);
#371=EDGE_CURVE('',#475,#475,#555,.T.);
#372=EDGE_CURVE('',#476,#476,#556,.T.);
#373=EDGE_CURVE('',#477,#477,#557,.T.);
#374=EDGE_CURVE('',#478,#479,#46,.T.);
#375=EDGE_CURVE('',#478,#480,#47,.T.);
#376=EDGE_CURVE('',#480,#481,#48,.T.);
#377=EDGE_CURVE('',#479,#481,#49,.T.);
#378=EDGE_CURVE('',#482,#483,#50,.T.);
#379=EDGE_CURVE('',#482,#484,#51,.T.);
#380=EDGE_CURVE('',#484,#485,#52,.T.);
#381=EDGE_CURVE('',#483,#485,#53,.T.);
#382=EDGE_CURVE('',#486,#487,#54,.T.);
#383=EDGE_CURVE('',#486,#488,#55,.T.);
#384=EDGE_CURVE('',#488,#489,#56,.T.);
#385=EDGE_CURVE('',#487,#489,#57,.T.);
#386=EDGE_CURVE('',#490,#490,#558,.T.);
#387=EDGE_CURVE('',#491,#491,#559,.T.);
#388=EDGE_CURVE('',#492,#493,#58,.T.);
#389=EDGE_CURVE('',#492,#494,#59,.T.);
#390=EDGE_CURVE('',#494,#495,#60,.T.);
#391=EDGE_CURVE('',#493,#495,#61,.T.);
#392=EDGE_CURVE('',#496,#494,#62,.T.);
#393=EDGE_CURVE('',#496,#497,#63,.T.);
#394=EDGE_CURVE('',#497,#495,#64,.T.);
#395=EDGE_CURVE('',#498,#499,#65,.T.);
#396=EDGE_CURVE('',#500,#499,#66,.T.);
#397=EDGE_CURVE('',#501,#500,#67,.T.);
#398=EDGE_CURVE('',#501,#498,#68,.T.);
#399=EDGE_CURVE('',#502,#499,#69,.T.);
#400=EDGE_CURVE('',#502,#503,#70,.F.);
#401=EDGE_CURVE('',#503,#500,#71,.T.);
#402=EDGE_CURVE('',#504,#501,#72,.T.);
#403=EDGE_CURVE('',#504,#505,#73,.T.);
#404=EDGE_CURVE('',#505,#498,#74,.T.);
#405=EDGE_CURVE('',#506,#506,#560,.T.);
#406=EDGE_CURVE('',#507,#507,#561,.T.);
#407=EDGE_CURVE('',#505,#508,#562,.T.);
#408=EDGE_CURVE('',#508,#509,#75,.T.);
#409=EDGE_CURVE('',#509,#510,#563,.F.);
#410=EDGE_CURVE('',#510,#511,#76,.T.);
#411=EDGE_CURVE('',#511,#512,#564,.F.);
#412=EDGE_CURVE('',#512,#513,#77,.T.);
#413=EDGE_CURVE('',#513,#502,#565,.T.);
#414=EDGE_CURVE('',#514,#514,#566,.T.);
#415=EDGE_CURVE('',#515,#515,#567,.T.);
#416=EDGE_CURVE('',#497,#516,#78,.T.);
#417=EDGE_CURVE('',#496,#517,#79,.T.);
#418=EDGE_CURVE('',#516,#517,#80,.T.);
#419=EDGE_CURVE('',#518,#518,#568,.T.);
#420=EDGE_CURVE('',#519,#519,#569,.T.);
#421=EDGE_CURVE('',#520,#521,#81,.F.);
#422=EDGE_CURVE('',#521,#522,#570,.F.);
#423=EDGE_CURVE('',#522,#523,#82,.T.);
#424=EDGE_CURVE('',#523,#504,#571,.T.);
#425=EDGE_CURVE('',#503,#524,#572,.T.);
#426=EDGE_CURVE('',#524,#525,#83,.T.);
#427=EDGE_CURVE('',#525,#520,#573,.F.);
#428=EDGE_CURVE('',#516,#493,#84,.T.);
#429=EDGE_CURVE('',#517,#492,#85,.T.);
#430=EDGE_CURVE('',#483,#526,#86,.T.);
#431=EDGE_CURVE('',#526,#527,#87,.F.);
#432=EDGE_CURVE('',#482,#527,#88,.T.);
#433=EDGE_CURVE('',#528,#484,#89,.T.);
#434=EDGE_CURVE('',#528,#529,#90,.T.);
#435=EDGE_CURVE('',#529,#485,#91,.T.);
#436=EDGE_CURVE('',#478,#486,#92,.T.);
#437=EDGE_CURVE('',#479,#488,#93,.T.);
#438=EDGE_CURVE('',#480,#487,#94,.T.);
#439=EDGE_CURVE('',#481,#489,#95,.T.);
#440=EDGE_CURVE('',#530,#530,#574,.T.);
#441=EDGE_CURVE('',#531,#531,#575,.T.);
#442=EDGE_CURVE('',#532,#532,#576,.T.);
#443=EDGE_CURVE('',#533,#533,#577,.T.);
#444=EDGE_CURVE('',#534,#535,#96,.F.);
#445=EDGE_CURVE('',#535,#528,#30,.F.);
#446=EDGE_CURVE('',#527,#534,#31,.F.);
#447=EDGE_CURVE('',#529,#536,#32,.T.);
#448=EDGE_CURVE('',#536,#537,#97,.T.);
#449=EDGE_CURVE('',#537,#526,#33,.T.);
#450=EDGE_CURVE('',#508,#523,#98,.F.);
#451=EDGE_CURVE('',#522,#509,#99,.F.);
#452=EDGE_CURVE('',#524,#513,#100,.T.);
#453=EDGE_CURVE('',#512,#525,#101,.T.);
#454=EDGE_CURVE('',#534,#511,#12,.T.);
#455=EDGE_CURVE('',#520,#537,#13,.F.);
#456=EDGE_CURVE('',#535,#510,#14,.F.);
#457=EDGE_CURVE('',#521,#536,#15,.F.);
#458=EDGE_CURVE('',#538,#538,#578,.T.);
#459=EDGE_CURVE('',#539,#539,#579,.T.);
#460=EDGE_CURVE('',#540,#540,#580,.T.);
#461=EDGE_CURVE('',#541,#541,#581,.T.);
#462=EDGE_CURVE('',#542,#542,#582,.F.);
#463=EDGE_CURVE('',#543,#543,#583,.T.);
#464=EDGE_CURVE('',#544,#544,#584,.F.);
#465=EDGE_CURVE('',#545,#545,#585,.T.);
#466=EDGE_CURVE('',#546,#546,#586,.T.);
#467=EDGE_CURVE('',#547,#547,#587,.T.);
#468=EDGE_CURVE('',#548,#548,#588,.T.);
#469=EDGE_CURVE('',#549,#549,#589,.T.);
#470=VERTEX_POINT('',#1238);
#471=VERTEX_POINT('',#1240);
#472=VERTEX_POINT('',#1242);
#473=VERTEX_POINT('',#1244);
#474=VERTEX_POINT('',#1246);
#475=VERTEX_POINT('',#1248);
#476=VERTEX_POINT('',#1250);
#477=VERTEX_POINT('',#1252);
#478=VERTEX_POINT('',#1254);
#479=VERTEX_POINT('',#1255);
#480=VERTEX_POINT('',#1257);
#481=VERTEX_POINT('',#1259);
#482=VERTEX_POINT('',#1263);
#483=VERTEX_POINT('',#1264);
#484=VERTEX_POINT('',#1266);
#485=VERTEX_POINT('',#1268);
#486=VERTEX_POINT('',#1271);
#487=VERTEX_POINT('',#1272);
#488=VERTEX_POINT('',#1274);
#489=VERTEX_POINT('',#1276);
#490=VERTEX_POINT('',#1280);
#491=VERTEX_POINT('',#1282);
#492=VERTEX_POINT('',#1284);
#493=VERTEX_POINT('',#1285);
#494=VERTEX_POINT('',#1287);
#495=VERTEX_POINT('',#1289);
#496=VERTEX_POINT('',#1293);
#497=VERTEX_POINT('',#1295);
#498=VERTEX_POINT('',#1298);
#499=VERTEX_POINT('',#1299);
#500=VERTEX_POINT('',#1301);
#501=VERTEX_POINT('',#1303);
#502=VERTEX_POINT('',#1307);
#503=VERTEX_POINT('',#1309);
#504=VERTEX_POINT('',#1313);
#505=VERTEX_POINT('',#1315);
#506=VERTEX_POINT('',#1319);
#507=VERTEX_POINT('',#1321);
#508=VERTEX_POINT('',#1323);
#509=VERTEX_POINT('',#1325);
#510=VERTEX_POINT('',#1327);
#511=VERTEX_POINT('',#1329);
#512=VERTEX_POINT('',#1331);
#513=VERTEX_POINT('',#1333);
#514=VERTEX_POINT('',#1337);
#515=VERTEX_POINT('',#1339);
#516=VERTEX_POINT('',#1341);
#517=VERTEX_POINT('',#1343);
#518=VERTEX_POINT('',#1347);
#519=VERTEX_POINT('',#1349);
#520=VERTEX_POINT('',#1351);
#521=VERTEX_POINT('',#1352);
#522=VERTEX_POINT('',#1354);
#523=VERTEX_POINT('',#1356);
#524=VERTEX_POINT('',#1359);
#525=VERTEX_POINT('',#1361);
#526=VERTEX_POINT('',#1370);
#527=VERTEX_POINT('',#1372);
#528=VERTEX_POINT('',#1376);
#529=VERTEX_POINT('',#1378);
#530=VERTEX_POINT('',#1390);
#531=VERTEX_POINT('',#1394);
#532=VERTEX_POINT('',#1398);
#533=VERTEX_POINT('',#1402);
#534=VERTEX_POINT('',#1406);
#535=VERTEX_POINT('',#1407);
#536=VERTEX_POINT('',#1412);
#537=VERTEX_POINT('',#1414);
#538=VERTEX_POINT('',#1444);
#539=VERTEX_POINT('',#1448);
#540=VERTEX_POINT('',#1452);
#541=VERTEX_POINT('',#1456);
#542=VERTEX_POINT('',#1460);
#543=VERTEX_POINT('',#1463);
#544=VERTEX_POINT('',#1466);
#545=VERTEX_POINT('',#1469);
#546=VERTEX_POINT('',#1472);
#547=VERTEX_POINT('',#1476);
#548=VERTEX_POINT('',#1480);
#549=VERTEX_POINT('',#1484);
#550=CIRCLE('',#878,0.002185);
#551=CIRCLE('',#879,0.002185);
#552=CIRCLE('',#880,0.002185);
#553=CIRCLE('',#881,0.002185);
#554=CIRCLE('',#882,0.00134);
#555=CIRCLE('',#883,0.00134);
#556=CIRCLE('',#884,0.00134);
#557=CIRCLE('',#885,0.00134);
#558=CIRCLE('',#888,0.00135);
#559=CIRCLE('',#889,0.00135);
#560=CIRCLE('',#894,0.0026);
#561=CIRCLE('',#895,0.0026);
#562=CIRCLE('',#896,0.004);
#563=CIRCLE('',#897,0.004);
#564=CIRCLE('',#898,0.004);
#565=CIRCLE('',#899,0.004);
#566=CIRCLE('',#901,0.00135);
#567=CIRCLE('',#902,0.00135);
#568=CIRCLE('',#904,0.0026);
#569=CIRCLE('',#905,0.0026);
#570=CIRCLE('',#906,0.004);
#571=CIRCLE('',#907,0.004);
#572=CIRCLE('',#908,0.004);
#573=CIRCLE('',#909,0.004);
#574=CIRCLE('',#920,0.000777836661190435);
#575=CIRCLE('',#923,0.000777836661190435);
#576=CIRCLE('',#926,0.000777836661190435);
#577=CIRCLE('',#929,0.000777836661190435);
#578=CIRCLE('',#944,0.00135);
#579=CIRCLE('',#947,0.00135);
#580=CIRCLE('',#950,0.00135);
#581=CIRCLE('',#953,0.00135);
#582=CIRCLE('',#956,0.00178594);
#583=CIRCLE('',#958,0.00178594);
#584=CIRCLE('',#960,0.00178594);
#585=CIRCLE('',#962,0.00178594);
#586=CIRCLE('',#964,0.00178594);
#587=CIRCLE('',#967,0.00178594);
#588=CIRCLE('',#970,0.00178594);
#589=CIRCLE('',#973,0.00178594);
#590=EDGE_LOOP('',(#158));
#591=EDGE_LOOP('',(#159));
#592=EDGE_LOOP('',(#160));
#593=EDGE_LOOP('',(#161));
#594=EDGE_LOOP('',(#162));
#595=EDGE_LOOP('',(#163));
#596=EDGE_LOOP('',(#164));
#597=EDGE_LOOP('',(#165));
#598=EDGE_LOOP('',(#166,#167,#168,#169));
#599=EDGE_LOOP('',(#170,#171,#172,#173));
#600=EDGE_LOOP('',(#174,#175,#176,#177));
#601=EDGE_LOOP('',(#178));
#602=EDGE_LOOP('',(#179));
#603=EDGE_LOOP('',(#180,#181,#182,#183));
#604=EDGE_LOOP('',(#184,#185,#186,#187));
#605=EDGE_LOOP('',(#188,#189,#190,#191));
#606=EDGE_LOOP('',(#192,#193,#194,#195));
#607=EDGE_LOOP('',(#196,#197,#198,#199));
#608=EDGE_LOOP('',(#200));
#609=EDGE_LOOP('',(#201));
#610=EDGE_LOOP('',(#202,#203,#204,#205,#206,#207,#208,#209,#210,#211));
#611=EDGE_LOOP('',(#212));
#612=EDGE_LOOP('',(#213));
#613=EDGE_LOOP('',(#214,#215,#216,#217));
#614=EDGE_LOOP('',(#218));
#615=EDGE_LOOP('',(#219));
#616=EDGE_LOOP('',(#220,#221,#222,#223,#224,#225,#226,#227,#228,#229));
#617=EDGE_LOOP('',(#230,#231,#232,#233));
#618=EDGE_LOOP('',(#234,#235,#236,#237));
#619=EDGE_LOOP('',(#238,#239,#240,#241));
#620=EDGE_LOOP('',(#242,#243,#244,#245));
#621=EDGE_LOOP('',(#246,#247,#248,#249));
#622=EDGE_LOOP('',(#250,#251,#252,#253));
#623=EDGE_LOOP('',(#254,#255,#256,#257));
#624=EDGE_LOOP('',(#258,#259,#260,#261));
#625=EDGE_LOOP('',(#262,#263,#264,#265));
#626=EDGE_LOOP('',(#266));
#627=EDGE_LOOP('',(#267));
#628=EDGE_LOOP('',(#268));
#629=EDGE_LOOP('',(#269));
#630=EDGE_LOOP('',(#270));
#631=EDGE_LOOP('',(#271));
#632=EDGE_LOOP('',(#272));
#633=EDGE_LOOP('',(#273));
#634=EDGE_LOOP('',(#274));
#635=EDGE_LOOP('',(#275));
#636=EDGE_LOOP('',(#276));
#637=EDGE_LOOP('',(#277));
#638=EDGE_LOOP('',(#278,#279,#280,#281,#282,#283));
#639=EDGE_LOOP('',(#284,#285,#286,#287,#288,#289));
#640=EDGE_LOOP('',(#290,#291,#292,#293));
#641=EDGE_LOOP('',(#294,#295,#296,#297));
#642=EDGE_LOOP('',(#298,#299,#300,#301,#302,#303,#304,#305));
#643=EDGE_LOOP('',(#306,#307,#308,#309));
#644=EDGE_LOOP('',(#310,#311,#312,#313));
#645=EDGE_LOOP('',(#314,#315,#316,#317,#318,#319,#320,#321));
#646=EDGE_LOOP('',(#322));
#647=EDGE_LOOP('',(#323));
#648=EDGE_LOOP('',(#324));
#649=EDGE_LOOP('',(#325));
#650=EDGE_LOOP('',(#326));
#651=EDGE_LOOP('',(#327));
#652=EDGE_LOOP('',(#328));
#653=EDGE_LOOP('',(#329));
#654=EDGE_LOOP('',(#330));
#655=EDGE_LOOP('',(#331));
#656=EDGE_LOOP('',(#332));
#657=EDGE_LOOP('',(#333));
#658=EDGE_LOOP('',(#334));
#659=EDGE_LOOP('',(#335));
#660=EDGE_LOOP('',(#336));
#661=EDGE_LOOP('',(#337));
#662=EDGE_LOOP('',(#338));
#663=EDGE_LOOP('',(#339));
#664=EDGE_LOOP('',(#340));
#665=EDGE_LOOP('',(#341));
#666=EDGE_LOOP('',(#342));
#667=EDGE_LOOP('',(#343));
#668=EDGE_LOOP('',(#344));
#669=EDGE_LOOP('',(#345));
#670=EDGE_LOOP('',(#346));
#671=EDGE_LOOP('',(#347));
#672=EDGE_LOOP('',(#348));
#673=EDGE_LOOP('',(#349));
#674=EDGE_LOOP('',(#350));
#675=EDGE_LOOP('',(#351));
#676=EDGE_LOOP('',(#352));
#677=EDGE_LOOP('',(#353));
#678=EDGE_LOOP('',(#354));
#679=EDGE_LOOP('',(#355));
#680=EDGE_LOOP('',(#356));
#681=EDGE_LOOP('',(#357));
#682=EDGE_LOOP('',(#358,#359,#360,#361));
#683=EDGE_LOOP('',(#362,#363,#364,#365));
#684=FACE_BOUND('',#590,.T.);
#685=FACE_BOUND('',#591,.T.);
#686=FACE_BOUND('',#592,.T.);
#687=FACE_BOUND('',#593,.T.);
#688=FACE_BOUND('',#594,.T.);
#689=FACE_BOUND('',#595,.T.);
#690=FACE_BOUND('',#596,.T.);
#691=FACE_BOUND('',#597,.T.);
#692=FACE_BOUND('',#598,.T.);
#693=FACE_BOUND('',#599,.T.);
#694=FACE_BOUND('',#600,.T.);
#695=FACE_BOUND('',#601,.T.);
#696=FACE_BOUND('',#602,.T.);
#697=FACE_BOUND('',#603,.T.);
#698=FACE_BOUND('',#604,.T.);
#699=FACE_BOUND('',#605,.T.);
#700=FACE_BOUND('',#606,.T.);
#701=FACE_BOUND('',#607,.T.);
#702=FACE_BOUND('',#608,.T.);
#703=FACE_BOUND('',#609,.T.);
#704=FACE_BOUND('',#610,.T.);
#705=FACE_BOUND('',#611,.T.);
#706=FACE_BOUND('',#612,.T.);
#707=FACE_BOUND('',#613,.T.);
#708=FACE_BOUND('',#614,.T.);
#709=FACE_BOUND('',#615,.T.);
#710=FACE_BOUND('',#616,.T.);
#711=FACE_BOUND('',#617,.T.);
#712=FACE_BOUND('',#618,.T.);
#713=FACE_BOUND('',#619,.T.);
#714=FACE_BOUND('',#620,.T.);
#715=FACE_BOUND('',#621,.T.);
#716=FACE_BOUND('',#622,.T.);
#717=FACE_BOUND('',#623,.T.);
#718=FACE_BOUND('',#624,.T.);
#719=FACE_BOUND('',#625,.T.);
#720=FACE_BOUND('',#626,.T.);
#721=FACE_BOUND('',#627,.T.);
#722=FACE_BOUND('',#628,.T.);
#723=FACE_BOUND('',#629,.T.);
#724=FACE_BOUND('',#630,.T.);
#725=FACE_BOUND('',#631,.T.);
#726=FACE_BOUND('',#632,.T.);
#727=FACE_BOUND('',#633,.T.);
#728=FACE_BOUND('',#634,.T.);
#729=FACE_BOUND('',#635,.T.);
#730=FACE_BOUND('',#636,.T.);
#731=FACE_BOUND('',#637,.T.);
#732=FACE_BOUND('',#638,.T.);
#733=FACE_BOUND('',#639,.T.);
#734=FACE_BOUND('',#640,.T.);
#735=FACE_BOUND('',#641,.T.);
#736=FACE_BOUND('',#642,.T.);
#737=FACE_BOUND('',#643,.T.);
#738=FACE_BOUND('',#644,.T.);
#739=FACE_BOUND('',#645,.T.);
#740=FACE_BOUND('',#646,.T.);
#741=FACE_BOUND('',#647,.T.);
#742=FACE_BOUND('',#648,.T.);
#743=FACE_BOUND('',#649,.T.);
#744=FACE_BOUND('',#650,.T.);
#745=FACE_BOUND('',#651,.T.);
#746=FACE_BOUND('',#652,.T.);
#747=FACE_BOUND('',#653,.T.);
#748=FACE_BOUND('',#654,.T.);
#749=FACE_BOUND('',#655,.T.);
#750=FACE_BOUND('',#656,.T.);
#751=FACE_BOUND('',#657,.T.);
#752=FACE_BOUND('',#658,.T.);
#753=FACE_BOUND('',#659,.T.);
#754=FACE_BOUND('',#660,.T.);
#755=FACE_BOUND('',#661,.T.);
#756=FACE_BOUND('',#662,.T.);
#757=FACE_BOUND('',#663,.T.);
#758=FACE_BOUND('',#664,.T.);
#759=FACE_BOUND('',#665,.T.);
#760=FACE_BOUND('',#666,.T.);
#761=FACE_BOUND('',#667,.T.);
#762=FACE_BOUND('',#668,.T.);
#763=FACE_BOUND('',#669,.T.);
#764=FACE_BOUND('',#670,.T.);
#765=FACE_BOUND('',#671,.T.);
#766=FACE_BOUND('',#672,.T.);
#767=FACE_BOUND('',#673,.T.);
#768=FACE_BOUND('',#674,.T.);
#769=FACE_BOUND('',#675,.T.);
#770=FACE_BOUND('',#676,.T.);
#771=FACE_BOUND('',#677,.T.);
#772=FACE_BOUND('',#678,.T.);
#773=FACE_BOUND('',#679,.T.);
#774=FACE_BOUND('',#680,.T.);
#775=FACE_BOUND('',#681,.T.);
#776=FACE_BOUND('',#682,.T.);
#777=FACE_BOUND('',#683,.T.);
#778=PLANE('',#877);
#779=PLANE('',#886);
#780=PLANE('',#887);
#781=PLANE('',#890);
#782=PLANE('',#891);
#783=PLANE('',#892);
#784=PLANE('',#893);
#785=PLANE('',#900);
#786=PLANE('',#903);
#787=PLANE('',#910);
#788=PLANE('',#911);
#789=PLANE('',#912);
#790=PLANE('',#913);
#791=PLANE('',#914);
#792=PLANE('',#915);
#793=PLANE('',#916);
#794=PLANE('',#917);
#795=PLANE('',#918);
#796=PLANE('',#921);
#797=PLANE('',#924);
#798=PLANE('',#927);
#799=PLANE('',#930);
#800=PLANE('',#931);
#801=PLANE('',#934);
#802=PLANE('',#937);
#803=PLANE('',#938);
#804=PLANE('',#963);
#805=PLANE('',#966);
#806=PLANE('',#969);
#807=PLANE('',#972);
#808=ADVANCED_FACE('',(#684,#685,#686,#687,#688,#689,#690,#691,#692),#778,
 .T.);
#809=ADVANCED_FACE('',(#693,#694),#779,.T.);
#810=ADVANCED_FACE('',(#695,#696,#697),#780,.T.);
#811=ADVANCED_FACE('',(#698,#699),#781,.F.);
#812=ADVANCED_FACE('',(#700),#782,.T.);
#813=ADVANCED_FACE('',(#701),#783,.F.);
#814=ADVANCED_FACE('',(#702,#703,#704),#784,.F.);
#815=ADVANCED_FACE('',(#705,#706,#707),#785,.T.);
#816=ADVANCED_FACE('',(#708,#709,#710),#786,.F.);
#817=ADVANCED_FACE('',(#711),#787,.F.);
#818=ADVANCED_FACE('',(#712),#788,.T.);
#819=ADVANCED_FACE('',(#713),#789,.F.);
#820=ADVANCED_FACE('',(#714),#790,.T.);
#821=ADVANCED_FACE('',(#715),#791,.F.);
#822=ADVANCED_FACE('',(#716),#792,.T.);
#823=ADVANCED_FACE('',(#717),#793,.F.);
#824=ADVANCED_FACE('',(#718),#794,.F.);
#825=ADVANCED_FACE('',(#719),#795,.T.);
#826=ADVANCED_FACE('',(#720,#721),#34,.F.);
#827=ADVANCED_FACE('',(#722),#796,.T.);
#828=ADVANCED_FACE('',(#723,#724),#35,.F.);
#829=ADVANCED_FACE('',(#725),#797,.T.);
#830=ADVANCED_FACE('',(#726,#727),#36,.F.);
#831=ADVANCED_FACE('',(#728),#798,.T.);
#832=ADVANCED_FACE('',(#729,#730),#37,.F.);
#833=ADVANCED_FACE('',(#731),#799,.T.);
#834=ADVANCED_FACE('',(#732),#800,.F.);
#835=ADVANCED_FACE('',(#733),#801,.T.);
#836=ADVANCED_FACE('',(#734),#802,.T.);
#837=ADVANCED_FACE('',(#735),#803,.T.);
#838=ADVANCED_FACE('',(#736),#16,.T.);
#839=ADVANCED_FACE('',(#737),#17,.T.);
#840=ADVANCED_FACE('',(#738),#18,.T.);
#841=ADVANCED_FACE('',(#739),#19,.T.);
#842=ADVANCED_FACE('',(#740,#741),#20,.F.);
#843=ADVANCED_FACE('',(#742,#743),#38,.F.);
#844=ADVANCED_FACE('',(#744,#745),#21,.F.);
#845=ADVANCED_FACE('',(#746,#747),#39,.F.);
#846=ADVANCED_FACE('',(#748,#749),#22,.F.);
#847=ADVANCED_FACE('',(#750,#751),#40,.F.);
#848=ADVANCED_FACE('',(#752,#753),#23,.F.);
#849=ADVANCED_FACE('',(#754,#755),#41,.F.);
#850=ADVANCED_FACE('',(#756,#757),#42,.F.);
#851=ADVANCED_FACE('',(#758,#759),#43,.F.);
#852=ADVANCED_FACE('',(#760,#761),#44,.F.);
#853=ADVANCED_FACE('',(#762,#763),#45,.F.);
#854=ADVANCED_FACE('',(#764),#804,.T.);
#855=ADVANCED_FACE('',(#765,#766),#24,.F.);
#856=ADVANCED_FACE('',(#767),#805,.T.);
#857=ADVANCED_FACE('',(#768,#769),#25,.F.);
#858=ADVANCED_FACE('',(#770),#806,.T.);
#859=ADVANCED_FACE('',(#771,#772),#26,.F.);
#860=ADVANCED_FACE('',(#773),#807,.T.);
#861=ADVANCED_FACE('',(#774,#775),#27,.F.);
#862=ADVANCED_FACE('',(#776),#28,.F.);
#863=ADVANCED_FACE('',(#777),#29,.F.);
#864=CLOSED_SHELL('',(#808,#809,#810,#811,#812,#813,#814,#815,#816,#817,
#818,#819,#820,#821,#822,#823,#824,#825,#826,#827,#828,#829,#830,#831,#832,
#833,#834,#835,#836,#837,#838,#839,#840,#841,#842,#843,#844,#845,#846,#847,
#848,#849,#850,#851,#852,#853,#854,#855,#856,#857,#858,#859,#860,#861,#862,
#863));
#865=STYLED_ITEM('',(#866),#873);
#866=PRESENTATION_STYLE_ASSIGNMENT((#867));
#867=SURFACE_STYLE_USAGE(.BOTH.,#868);
#868=SURFACE_SIDE_STYLE('',(#869));
#869=SURFACE_STYLE_FILL_AREA(#870);
#870=FILL_AREA_STYLE('',(#871));
#871=FILL_AREA_STYLE_COLOUR('',#872);
#872=COLOUR_RGB('',0.866666666666667,0.32156862745098,0.156862745098039);
#873=MANIFOLD_SOLID_BREP('Part 2',#864);
#874=SHAPE_DEFINITION_REPRESENTATION(#1494,#875);
#875=SHAPE_REPRESENTATION('Part 2',(#876),#1489);
#876=AXIS2_PLACEMENT_3D('',#1235,#977,#978);
#877=AXIS2_PLACEMENT_3D('',#1236,#979,#980);
#878=AXIS2_PLACEMENT_3D('',#1237,#981,#982);
#879=AXIS2_PLACEMENT_3D('',#1239,#983,#984);
#880=AXIS2_PLACEMENT_3D('',#1241,#985,#986);
#881=AXIS2_PLACEMENT_3D('',#1243,#987,#988);
#882=AXIS2_PLACEMENT_3D('',#1245,#989,#990);
#883=AXIS2_PLACEMENT_3D('',#1247,#991,#992);
#884=AXIS2_PLACEMENT_3D('',#1249,#993,#994);
#885=AXIS2_PLACEMENT_3D('',#1251,#995,#996);
#886=AXIS2_PLACEMENT_3D('',#1261,#1001,#1002);
#887=AXIS2_PLACEMENT_3D('',#1278,#1011,#1012);
#888=AXIS2_PLACEMENT_3D('',#1279,#1013,#1014);
#889=AXIS2_PLACEMENT_3D('',#1281,#1015,#1016);
#890=AXIS2_PLACEMENT_3D('',#1291,#1021,#1022);
#891=AXIS2_PLACEMENT_3D('',#1305,#1030,#1031);
#892=AXIS2_PLACEMENT_3D('',#1311,#1035,#1036);
#893=AXIS2_PLACEMENT_3D('',#1317,#1040,#1041);
#894=AXIS2_PLACEMENT_3D('',#1318,#1042,#1043);
#895=AXIS2_PLACEMENT_3D('',#1320,#1044,#1045);
#896=AXIS2_PLACEMENT_3D('',#1322,#1046,#1047);
#897=AXIS2_PLACEMENT_3D('',#1326,#1049,#1050);
#898=AXIS2_PLACEMENT_3D('',#1330,#1052,#1053);
#899=AXIS2_PLACEMENT_3D('',#1334,#1055,#1056);
#900=AXIS2_PLACEMENT_3D('',#1335,#1057,#1058);
#901=AXIS2_PLACEMENT_3D('',#1336,#1059,#1060);
#902=AXIS2_PLACEMENT_3D('',#1338,#1061,#1062);
#903=AXIS2_PLACEMENT_3D('',#1345,#1066,#1067);
#904=AXIS2_PLACEMENT_3D('',#1346,#1068,#1069);
#905=AXIS2_PLACEMENT_3D('',#1348,#1070,#1071);
#906=AXIS2_PLACEMENT_3D('',#1353,#1073,#1074);
#907=AXIS2_PLACEMENT_3D('',#1357,#1076,#1077);
#908=AXIS2_PLACEMENT_3D('',#1358,#1078,#1079);
#909=AXIS2_PLACEMENT_3D('',#1362,#1081,#1082);
#910=AXIS2_PLACEMENT_3D('',#1363,#1083,#1084);
#911=AXIS2_PLACEMENT_3D('',#1366,#1087,#1088);
#912=AXIS2_PLACEMENT_3D('',#1367,#1089,#1090);
#913=AXIS2_PLACEMENT_3D('',#1368,#1091,#1092);
#914=AXIS2_PLACEMENT_3D('',#1374,#1096,#1097);
#915=AXIS2_PLACEMENT_3D('',#1380,#1101,#1102);
#916=AXIS2_PLACEMENT_3D('',#1383,#1105,#1106);
#917=AXIS2_PLACEMENT_3D('',#1385,#1108,#1109);
#918=AXIS2_PLACEMENT_3D('',#1387,#1111,#1112);
#919=AXIS2_PLACEMENT_3D('',#1388,#1113,#1114);
#920=AXIS2_PLACEMENT_3D('',#1389,#1115,#1116);
#921=AXIS2_PLACEMENT_3D('',#1391,#1117,#1118);
#922=AXIS2_PLACEMENT_3D('',#1392,#1119,#1120);
#923=AXIS2_PLACEMENT_3D('',#1393,#1121,#1122);
#924=AXIS2_PLACEMENT_3D('',#1395,#1123,#1124);
#925=AXIS2_PLACEMENT_3D('',#1396,#1125,#1126);
#926=AXIS2_PLACEMENT_3D('',#1397,#1127,#1128);
#927=AXIS2_PLACEMENT_3D('',#1399,#1129,#1130);
#928=AXIS2_PLACEMENT_3D('',#1400,#1131,#1132);
#929=AXIS2_PLACEMENT_3D('',#1401,#1133,#1134);
#930=AXIS2_PLACEMENT_3D('',#1403,#1135,#1136);
#931=AXIS2_PLACEMENT_3D('',#1404,#1137,#1138);
#932=AXIS2_PLACEMENT_3D('',#1408,#1140,#1141);
#933=AXIS2_PLACEMENT_3D('',#1409,#1142,#1143);
#934=AXIS2_PLACEMENT_3D('',#1410,#1144,#1145);
#935=AXIS2_PLACEMENT_3D('',#1411,#1146,#1147);
#936=AXIS2_PLACEMENT_3D('',#1415,#1149,#1150);
#937=AXIS2_PLACEMENT_3D('',#1416,#1151,#1152);
#938=AXIS2_PLACEMENT_3D('',#1419,#1155,#1156);
#939=AXIS2_PLACEMENT_3D('',#1422,#1159,#1160);
#940=AXIS2_PLACEMENT_3D('',#1431,#1161,#1162);
#941=AXIS2_PLACEMENT_3D('',#1436,#1163,#1164);
#942=AXIS2_PLACEMENT_3D('',#1441,#1165,#1166);
#943=AXIS2_PLACEMENT_3D('',#1442,#1167,#1168);
#944=AXIS2_PLACEMENT_3D('',#1443,#1169,#1170);
#945=AXIS2_PLACEMENT_3D('',#1445,#1171,#1172);
#946=AXIS2_PLACEMENT_3D('',#1446,#1173,#1174);
#947=AXIS2_PLACEMENT_3D('',#1447,#1175,#1176);
#948=AXIS2_PLACEMENT_3D('',#1449,#1177,#1178);
#949=AXIS2_PLACEMENT_3D('',#1450,#1179,#1180);
#950=AXIS2_PLACEMENT_3D('',#1451,#1181,#1182);
#951=AXIS2_PLACEMENT_3D('',#1453,#1183,#1184);
#952=AXIS2_PLACEMENT_3D('',#1454,#1185,#1186);
#953=AXIS2_PLACEMENT_3D('',#1455,#1187,#1188);
#954=AXIS2_PLACEMENT_3D('',#1457,#1189,#1190);
#955=AXIS2_PLACEMENT_3D('',#1458,#1191,#1192);
#956=AXIS2_PLACEMENT_3D('',#1459,#1193,#1194);
#957=AXIS2_PLACEMENT_3D('',#1461,#1195,#1196);
#958=AXIS2_PLACEMENT_3D('',#1462,#1197,#1198);
#959=AXIS2_PLACEMENT_3D('',#1464,#1199,#1200);
#960=AXIS2_PLACEMENT_3D('',#1465,#1201,#1202);
#961=AXIS2_PLACEMENT_3D('',#1467,#1203,#1204);
#962=AXIS2_PLACEMENT_3D('',#1468,#1205,#1206);
#963=AXIS2_PLACEMENT_3D('',#1470,#1207,#1208);
#964=AXIS2_PLACEMENT_3D('',#1471,#1209,#1210);
#965=AXIS2_PLACEMENT_3D('',#1473,#1211,#1212);
#966=AXIS2_PLACEMENT_3D('',#1474,#1213,#1214);
#967=AXIS2_PLACEMENT_3D('',#1475,#1215,#1216);
#968=AXIS2_PLACEMENT_3D('',#1477,#1217,#1218);
#969=AXIS2_PLACEMENT_3D('',#1478,#1219,#1220);
#970=AXIS2_PLACEMENT_3D('',#1479,#1221,#1222);
#971=AXIS2_PLACEMENT_3D('',#1481,#1223,#1224);
#972=AXIS2_PLACEMENT_3D('',#1482,#1225,#1226);
#973=AXIS2_PLACEMENT_3D('',#1483,#1227,#1228);
#974=AXIS2_PLACEMENT_3D('',#1485,#1229,#1230);
#975=AXIS2_PLACEMENT_3D('',#1486,#1231,#1232);
#976=AXIS2_PLACEMENT_3D('',#1487,#1233,#1234);
#977=DIRECTION('',(0.,0.,1.));
#978=DIRECTION('',(1.,0.,0.));
#979=DIRECTION('',(0.,-1.,0.));
#980=DIRECTION('',(1.,0.,0.));
#981=DIRECTION('',(0.,-1.,0.));
#982=DIRECTION('',(0.,0.,-1.));
#983=DIRECTION('',(0.,-1.,0.));
#984=DIRECTION('',(0.,0.,-1.));
#985=DIRECTION('',(0.,-1.,0.));
#986=DIRECTION('',(0.,0.,-1.));
#987=DIRECTION('',(0.,-1.,0.));
#988=DIRECTION('',(0.,0.,-1.));
#989=DIRECTION('',(0.,-1.,0.));
#990=DIRECTION('',(0.,0.,-1.));
#991=DIRECTION('',(0.,-1.,0.));
#992=DIRECTION('',(0.,0.,-1.));
#993=DIRECTION('',(0.,-1.,0.));
#994=DIRECTION('',(0.,0.,-1.));
#995=DIRECTION('',(0.,-1.,0.));
#996=DIRECTION('',(0.,0.,-1.));
#997=DIRECTION('',(-1.,0.,0.));
#998=DIRECTION('',(8.46206573647223E-17,0.,1.));
#999=DIRECTION('',(-1.,0.,0.));
#1000=DIRECTION('',(1.26930986047083E-16,0.,1.));
#1001=DIRECTION('',(0.,-1.,0.));
#1002=DIRECTION('',(1.,0.,0.));
#1003=DIRECTION('',(-1.,0.,0.));
#1004=DIRECTION('',(1.10963122130713E-16,0.,1.));
#1005=DIRECTION('',(-1.,0.,1.23908819712629E-16));
#1006=DIRECTION('',(1.10963122130713E-16,0.,1.));
#1007=DIRECTION('',(8.46206573647223E-17,0.,1.));
#1008=DIRECTION('',(-1.,0.,0.));
#1009=DIRECTION('',(1.26930986047083E-16,0.,1.));
#1010=DIRECTION('',(-1.,0.,0.));
#1011=DIRECTION('',(-1.,0.,0.));
#1012=DIRECTION('',(0.,-1.,0.));
#1013=DIRECTION('',(-1.,0.,0.));
#1014=DIRECTION('',(0.,0.,1.));
#1015=DIRECTION('',(-1.,0.,0.));
#1016=DIRECTION('',(0.,0.,1.));
#1017=DIRECTION('',(0.,0.,-1.));
#1018=DIRECTION('',(0.,1.,0.));
#1019=DIRECTION('',(0.,0.,-1.));
#1020=DIRECTION('',(0.,1.,0.));
#1021=DIRECTION('',(0.,-1.,0.));
#1022=DIRECTION('',(0.,0.,-1.));
#1023=DIRECTION('',(1.,0.,0.));
#1024=DIRECTION('',(0.,0.,-1.));
#1025=DIRECTION('',(1.,0.,0.));
#1026=DIRECTION('',(0.,0.,-1.));
#1027=DIRECTION('',(1.,0.,0.));
#1028=DIRECTION('',(0.,0.,-1.));
#1029=DIRECTION('',(1.,0.,0.));
#1030=DIRECTION('',(0.,-1.57523130622184E-16,-1.));
#1031=DIRECTION('',(0.,1.,-1.57523130622184E-16));
#1032=DIRECTION('',(0.,1.,-1.57523130622184E-16));
#1033=DIRECTION('',(1.,0.,0.));
#1034=DIRECTION('',(0.,1.,-1.57523130622184E-16));
#1035=DIRECTION('',(0.,-7.87615653110923E-17,-1.));
#1036=DIRECTION('',(0.,1.,-7.87615653110923E-17));
#1037=DIRECTION('',(0.,1.,-7.87615653110923E-17));
#1038=DIRECTION('',(1.,0.,0.));
#1039=DIRECTION('',(0.,1.,-7.87615653110923E-17));
#1040=DIRECTION('',(-1.,0.,0.));
#1041=DIRECTION('',(0.,-1.,0.));
#1042=DIRECTION('',(-1.,0.,0.));
#1043=DIRECTION('',(0.,0.,1.));
#1044=DIRECTION('',(-1.,0.,0.));
#1045=DIRECTION('',(0.,0.,1.));
#1046=DIRECTION('',(-1.,0.,0.));
#1047=DIRECTION('',(0.,0.,1.));
#1048=DIRECTION('',(0.,-0.83546568032597,0.549542625278026));
#1049=DIRECTION('',(-1.,0.,0.));
#1050=DIRECTION('',(0.,0.,1.));
#1051=DIRECTION('',(0.,0.,-1.));
#1052=DIRECTION('',(-1.,0.,0.));
#1053=DIRECTION('',(0.,0.,1.));
#1054=DIRECTION('',(0.,0.83546568032597,0.549542625278025));
#1055=DIRECTION('',(-1.,0.,0.));
#1056=DIRECTION('',(0.,0.,1.));
#1057=DIRECTION('',(1.,0.,0.));
#1058=DIRECTION('',(0.,-1.,0.));
#1059=DIRECTION('',(1.,0.,0.));
#1060=DIRECTION('',(0.,0.,-1.));
#1061=DIRECTION('',(1.,0.,0.));
#1062=DIRECTION('',(0.,0.,-1.));
#1063=DIRECTION('',(0.,-1.,0.));
#1064=DIRECTION('',(0.,-1.,0.));
#1065=DIRECTION('',(0.,0.,1.));
#1066=DIRECTION('',(1.,0.,0.));
#1067=DIRECTION('',(0.,-1.,0.));
#1068=DIRECTION('',(1.,0.,0.));
#1069=DIRECTION('',(0.,0.,-1.));
#1070=DIRECTION('',(1.,0.,0.));
#1071=DIRECTION('',(0.,0.,-1.));
#1072=DIRECTION('',(0.,0.,-1.));
#1073=DIRECTION('',(1.,0.,0.));
#1074=DIRECTION('',(0.,0.,-1.));
#1075=DIRECTION('',(0.,0.83546568032597,-0.549542625278026));
#1076=DIRECTION('',(1.,0.,0.));
#1077=DIRECTION('',(0.,0.,-1.));
#1078=DIRECTION('',(1.,0.,0.));
#1079=DIRECTION('',(0.,0.,-1.));
#1080=DIRECTION('',(0.,-0.83546568032597,-0.549542625278025));
#1081=DIRECTION('',(1.,0.,0.));
#1082=DIRECTION('',(0.,0.,-1.));
#1083=DIRECTION('',(0.,-1.,0.));
#1084=DIRECTION('',(0.,0.,-1.));
#1085=DIRECTION('',(1.,0.,0.));
#1086=DIRECTION('',(1.,0.,0.));
#1087=DIRECTION('',(0.,0.,-1.));
#1088=DIRECTION('',(-1.,0.,0.));
#1089=DIRECTION('',(0.,0.,-1.));
#1090=DIRECTION('',(-1.,0.,0.));
#1091=DIRECTION('',(0.,0.,-1.));
#1092=DIRECTION('',(-1.,0.,0.));
#1093=DIRECTION('',(-0.447213623609928,0.89442717694493,0.));
#1094=DIRECTION('',(-1.,0.,0.));
#1095=DIRECTION('',(0.447213623609929,0.89442717694493,0.));
#1096=DIRECTION('',(-1.23908819712629E-16,0.,-1.));
#1097=DIRECTION('',(-1.,0.,1.23908819712629E-16));
#1098=DIRECTION('',(-0.447213623609929,-0.89442717694493,5.54137122609142E-17));
#1099=DIRECTION('',(-1.,-1.88377682818008E-16,1.23908819712629E-16));
#1100=DIRECTION('',(0.447213623609928,-0.89442717694493,-5.54137122609141E-17));
#1101=DIRECTION('',(0.,0.,1.));
#1102=DIRECTION('',(1.,0.,0.));
#1103=DIRECTION('',(0.,-1.,0.));
#1104=DIRECTION('',(0.,-1.,0.));
#1105=DIRECTION('',(1.,0.,-8.46206573647223E-17));
#1106=DIRECTION('',(-8.46206573647223E-17,0.,-1.));
#1107=DIRECTION('',(0.,-1.,0.));
#1108=DIRECTION('',(0.,0.,1.));
#1109=DIRECTION('',(1.,0.,0.));
#1110=DIRECTION('',(0.,-1.,0.));
#1111=DIRECTION('',(1.,0.,-1.26930986047083E-16));
#1112=DIRECTION('',(-1.26930986047083E-16,0.,-1.));
#1113=DIRECTION('',(0.,-1.,0.));
#1114=DIRECTION('',(0.,0.,1.));
#1115=DIRECTION('',(0.,-1.,0.));
#1116=DIRECTION('',(0.,0.,-1.));
#1117=DIRECTION('',(0.,-1.,0.));
#1118=DIRECTION('',(1.,0.,0.));
#1119=DIRECTION('',(0.,-1.,0.));
#1120=DIRECTION('',(0.,0.,1.));
#1121=DIRECTION('',(0.,-1.,0.));
#1122=DIRECTION('',(0.,0.,-1.));
#1123=DIRECTION('',(0.,-1.,0.));
#1124=DIRECTION('',(1.,0.,0.));
#1125=DIRECTION('',(0.,-1.,0.));
#1126=DIRECTION('',(0.,0.,1.));
#1127=DIRECTION('',(0.,-1.,0.));
#1128=DIRECTION('',(0.,0.,-1.));
#1129=DIRECTION('',(0.,-1.,0.));
#1130=DIRECTION('',(1.,0.,0.));
#1131=DIRECTION('',(0.,-1.,0.));
#1132=DIRECTION('',(0.,0.,1.));
#1133=DIRECTION('',(0.,-1.,0.));
#1134=DIRECTION('',(0.,0.,-1.));
#1135=DIRECTION('',(0.,-1.,0.));
#1136=DIRECTION('',(1.,0.,0.));
#1137=DIRECTION('',(-0.89442717694493,0.447213623609929,0.));
#1138=DIRECTION('',(-0.447213623609929,-0.89442717694493,0.));
#1139=DIRECTION('',(0.,0.,-1.));
#1140=DIRECTION('',(-0.89442717694493,0.447213623609929,0.));
#1141=DIRECTION('',(0.447213623609929,0.89442717694493,-2.77068526473839E-16));
#1142=DIRECTION('',(-0.89442717694493,0.447213623609929,0.));
#1143=DIRECTION('',(-0.447213623609929,-0.89442717694493,0.));
#1144=DIRECTION('',(-0.89442717694493,-0.447213623609928,0.));
#1145=DIRECTION('',(0.447213623609928,-0.89442717694493,0.));
#1146=DIRECTION('',(-0.89442717694493,-0.447213623609928,0.));
#1147=DIRECTION('',(0.447213623609928,-0.89442717694493,-2.7706852647384E-16));
#1148=DIRECTION('',(0.,0.,-1.));
#1149=DIRECTION('',(-0.89442717694493,-0.447213623609928,0.));
#1150=DIRECTION('',(-0.447213623609928,0.89442717694493,0.));
#1151=DIRECTION('',(0.,0.549542625278025,0.83546568032597));
#1152=DIRECTION('',(0.,-0.83546568032597,0.549542625278026));
#1153=DIRECTION('',(1.,0.,0.));
#1154=DIRECTION('',(-1.,-1.88377682818008E-16,1.23908819712629E-16));
#1155=DIRECTION('',(0.,0.549542625278025,-0.83546568032597));
#1156=DIRECTION('',(0.,0.83546568032597,0.549542625278025));
#1157=DIRECTION('',(1.,0.,0.));
#1158=DIRECTION('',(-1.,0.,0.));
#1159=DIRECTION('',(-1.,0.,0.));
#1160=DIRECTION('',(0.,0.,1.));
#1161=DIRECTION('',(0.,0.,-1.));
#1162=DIRECTION('',(-1.,0.,0.));
#1163=DIRECTION('',(0.,0.,1.));
#1164=DIRECTION('',(1.,0.,0.));
#1165=DIRECTION('',(1.,1.88377682818008E-16,-1.23908819712629E-16));
#1166=DIRECTION('',(-1.88377682818008E-16,1.,0.));
#1167=DIRECTION('',(1.,0.,0.));
#1168=DIRECTION('',(0.,0.,-1.));
#1169=DIRECTION('',(1.,0.,0.));
#1170=DIRECTION('',(0.,0.,-1.));
#1171=DIRECTION('',(-1.,0.,0.));
#1172=DIRECTION('',(0.,0.,1.));
#1173=DIRECTION('',(1.,0.,0.));
#1174=DIRECTION('',(0.,0.,-1.));
#1175=DIRECTION('',(1.,0.,0.));
#1176=DIRECTION('',(0.,0.,-1.));
#1177=DIRECTION('',(-1.,0.,0.));
#1178=DIRECTION('',(0.,0.,1.));
#1179=DIRECTION('',(-1.,0.,0.));
#1180=DIRECTION('',(0.,0.,1.));
#1181=DIRECTION('',(-1.,0.,0.));
#1182=DIRECTION('',(0.,0.,1.));
#1183=DIRECTION('',(1.,0.,0.));
#1184=DIRECTION('',(0.,0.,-1.));
#1185=DIRECTION('',(-1.,0.,0.));
#1186=DIRECTION('',(0.,0.,1.));
#1187=DIRECTION('',(-1.,0.,0.));
#1188=DIRECTION('',(0.,0.,1.));
#1189=DIRECTION('',(1.,0.,0.));
#1190=DIRECTION('',(0.,0.,-1.));
#1191=DIRECTION('',(0.,-1.,0.));
#1192=DIRECTION('',(0.,0.,1.));
#1193=DIRECTION('',(0.,-1.,0.));
#1194=DIRECTION('',(0.,0.,-1.));
#1195=DIRECTION('',(0.,-1.,0.));
#1196=DIRECTION('',(0.,0.,1.));
#1197=DIRECTION('',(0.,-1.,0.));
#1198=DIRECTION('',(0.,0.,-1.));
#1199=DIRECTION('',(0.,-1.,0.));
#1200=DIRECTION('',(0.,0.,1.));
#1201=DIRECTION('',(0.,-1.,0.));
#1202=DIRECTION('',(0.,0.,-1.));
#1203=DIRECTION('',(0.,-1.,0.));
#1204=DIRECTION('',(0.,0.,1.));
#1205=DIRECTION('',(0.,-1.,0.));
#1206=DIRECTION('',(0.,0.,-1.));
#1207=DIRECTION('',(0.,-1.,0.));
#1208=DIRECTION('',(1.,0.,0.));
#1209=DIRECTION('',(0.,1.,0.));
#1210=DIRECTION('',(0.,0.,-1.));
#1211=DIRECTION('',(0.,-1.,0.));
#1212=DIRECTION('',(0.,0.,-1.));
#1213=DIRECTION('',(0.,-1.,0.));
#1214=DIRECTION('',(1.,0.,0.));
#1215=DIRECTION('',(0.,-1.,0.));
#1216=DIRECTION('',(0.,0.,-1.));
#1217=DIRECTION('',(0.,-1.,0.));
#1218=DIRECTION('',(0.,0.,-1.));
#1219=DIRECTION('',(0.,-1.,0.));
#1220=DIRECTION('',(1.,0.,0.));
#1221=DIRECTION('',(0.,1.,0.));
#1222=DIRECTION('',(0.,0.,-1.));
#1223=DIRECTION('',(0.,-1.,0.));
#1224=DIRECTION('',(0.,0.,-1.));
#1225=DIRECTION('',(0.,-1.,0.));
#1226=DIRECTION('',(1.,0.,0.));
#1227=DIRECTION('',(0.,-1.,0.));
#1228=DIRECTION('',(0.,0.,-1.));
#1229=DIRECTION('',(0.,-1.,0.));
#1230=DIRECTION('',(0.,0.,-1.));
#1231=DIRECTION('',(1.,0.,0.));
#1232=DIRECTION('',(0.,0.,-1.));
#1233=DIRECTION('',(-1.,0.,0.));
#1234=DIRECTION('',(0.,0.,1.));
#1235=CARTESIAN_POINT('',(0.,0.,0.));
#1236=CARTESIAN_POINT('',(0.,-0.00350000011175871,-0.0453503094114403));
#1237=CARTESIAN_POINT('',(-0.006,-0.00350000011175871,-0.0573503094114403));
#1238=CARTESIAN_POINT('',(-0.006,-0.00350000011175871,-0.0595353094114403));
#1239=CARTESIAN_POINT('',(0.006,-0.00350000011175871,-0.0333503094114403));
#1240=CARTESIAN_POINT('',(0.006,-0.00350000011175871,-0.0355353094114403));
#1241=CARTESIAN_POINT('',(-0.006,-0.00350000011175871,-0.0333503094114403));
#1242=CARTESIAN_POINT('',(-0.006,-0.00350000011175871,-0.0355353094114403));
#1243=CARTESIAN_POINT('',(0.006,-0.00350000011175871,-0.0573503094114403));
#1244=CARTESIAN_POINT('',(0.006,-0.00350000011175871,-0.0595353094114403));
#1245=CARTESIAN_POINT('',(0.00800000035157954,-0.00350000011175871,-0.048850309610062));
#1246=CARTESIAN_POINT('',(0.00800000035157954,-0.00350000011175871,-0.050190309610062));
#1247=CARTESIAN_POINT('',(-0.00350000019862174,-0.00350000011175871,-0.0533503097630198));
#1248=CARTESIAN_POINT('',(-0.00350000019862174,-0.00350000011175871,-0.0546903097630198));
#1249=CARTESIAN_POINT('',(0.00350000019862174,-0.00350000011175871,-0.0373503090598607));
#1250=CARTESIAN_POINT('',(0.00350000019862174,-0.00350000011175871,-0.0386903090598607));
#1251=CARTESIAN_POINT('',(-0.00800000035157954,-0.00350000011175871,-0.0418503092128185));
#1252=CARTESIAN_POINT('',(-0.00800000035157954,-0.00350000011175871,-0.0431903092128186));
#1253=CARTESIAN_POINT('',(-1.56125112837912E-17,-0.00350000011175871,-0.0658503094114403));
#1254=CARTESIAN_POINT('',(0.012,-0.00350000011175871,-0.0658503094114403));
#1255=CARTESIAN_POINT('',(-0.012,-0.00350000011175871,-0.0658503094114403));
#1256=CARTESIAN_POINT('',(0.012,-0.00350000011175871,-0.0453503094114403));
#1257=CARTESIAN_POINT('',(0.012,-0.00350000011175871,-0.0248503094114403));
#1258=CARTESIAN_POINT('',(-1.21430643318376E-17,-0.00350000011175871,-0.0248503094114403));
#1259=CARTESIAN_POINT('',(-0.012,-0.00350000011175871,-0.0248503094114403));
#1260=CARTESIAN_POINT('',(-0.012,-0.00350000011175871,-0.0453503094114403));
#1261=CARTESIAN_POINT('',(0.,-0.00850000011175871,-0.0453503094114403));
#1262=CARTESIAN_POINT('',(-1.7347234759768E-18,-0.00850000011175871,-0.0688003094114403));
#1263=CARTESIAN_POINT('',(0.014,-0.00850000011175871,-0.0688003094114403));
#1264=CARTESIAN_POINT('',(-0.014,-0.00850000011175871,-0.0688003094114403));
#1265=CARTESIAN_POINT('',(0.014,-0.00850000011175871,-0.0453503094114403));
#1266=CARTESIAN_POINT('',(0.014,-0.00850000011175871,-0.0219003094114403));
#1267=CARTESIAN_POINT('',(3.46944695195361E-18,-0.00850000011175871,-0.0219003094114403));
#1268=CARTESIAN_POINT('',(-0.014,-0.00850000011175871,-0.0219003094114403));
#1269=CARTESIAN_POINT('',(-0.014,-0.00850000011175871,-0.0453503094114403));
#1270=CARTESIAN_POINT('',(0.012,-0.00850000011175871,-0.0453503094114403));
#1271=CARTESIAN_POINT('',(0.012,-0.00850000011175871,-0.0658503094114403));
#1272=CARTESIAN_POINT('',(0.012,-0.00850000011175871,-0.0248503094114403));
#1273=CARTESIAN_POINT('',(-1.56125112837912E-17,-0.00850000011175871,-0.0658503094114403));
#1274=CARTESIAN_POINT('',(-0.012,-0.00850000011175871,-0.0658503094114403));
#1275=CARTESIAN_POINT('',(-0.012,-0.00850000011175871,-0.0453503094114403));
#1276=CARTESIAN_POINT('',(-0.012,-0.00850000011175871,-0.0248503094114403));
#1277=CARTESIAN_POINT('',(-1.21430643318376E-17,-0.00850000011175871,-0.0248503094114403));
#1278=CARTESIAN_POINT('',(0.0170000004321337,0.0445249998882409,-0.0210501546759179));
#1279=CARTESIAN_POINT('',(0.0170000004321337,0.0392999998882404,-0.0343503094114403));
#1280=CARTESIAN_POINT('',(0.0170000004321337,0.0392999998882404,-0.0330003094114403));
#1281=CARTESIAN_POINT('',(0.0170000004321337,0.0392999998882404,-0.0563503094114403));
#1282=CARTESIAN_POINT('',(0.0170000004321337,0.0392999998882404,-0.0550003094114403));
#1283=CARTESIAN_POINT('',(0.0170000004321337,0.0360499998882404,-0.0453503094114403));
#1284=CARTESIAN_POINT('',(0.0170000004321337,0.0360499998882404,-0.0308503094114403));
#1285=CARTESIAN_POINT('',(0.0170000004321337,0.0360499998882404,-0.0596003094114403));
#1286=CARTESIAN_POINT('',(0.0170000004321337,0.0412999998882409,-0.0308503094114403));
#1287=CARTESIAN_POINT('',(0.0170000004321337,0.0465499998882413,-0.0308503094114403));
#1288=CARTESIAN_POINT('',(0.0170000004321337,0.0465499998882413,-0.0453503094114403));
#1289=CARTESIAN_POINT('',(0.0170000004321337,0.0465499998882413,-0.0596003094114403));
#1290=CARTESIAN_POINT('',(0.0170000004321337,0.0412999998882409,-0.0596003094114403));
#1291=CARTESIAN_POINT('',(0.0170000004321337,0.0465499998882413,-0.0453503094114403));
#1292=CARTESIAN_POINT('',(-0.0170020004321337,0.0465499998882413,-0.0308503094114403));
#1293=CARTESIAN_POINT('',(-0.0170000004321337,0.0465499998882413,-0.0308503094114403));
#1294=CARTESIAN_POINT('',(-0.0170000004321337,0.0465499998882413,-0.0453503094114403));
#1295=CARTESIAN_POINT('',(-0.0170000004321337,0.0465499998882413,-0.0596003094114403));
#1296=CARTESIAN_POINT('',(-0.0170020004321337,0.0465499998882413,-0.0596003094114403));
#1297=CARTESIAN_POINT('',(0.0195000004321337,0.0465499998882413,-0.0453503094114403));
#1298=CARTESIAN_POINT('',(0.0195000004321337,0.0465499998882413,-0.0283503094114403));
#1299=CARTESIAN_POINT('',(0.0195000004321337,0.0465499998882413,-0.0623503094114403));
#1300=CARTESIAN_POINT('',(0.0170000004321337,0.0465499998882413,-0.0623503094114403));
#1301=CARTESIAN_POINT('',(-0.0195000004321337,0.0465499998882413,-0.0623503094114403));
#1302=CARTESIAN_POINT('',(-0.0195000004321337,0.0465499998882413,-0.0453503094114403));
#1303=CARTESIAN_POINT('',(-0.0195000004321337,0.0465499998882413,-0.0283503094114403));
#1304=CARTESIAN_POINT('',(0.0170000004321337,0.0465499998882413,-0.0283503094114403));
#1305=CARTESIAN_POINT('',(0.0170000004321337,0.0245249998882413,-0.0623503094114403));
#1306=CARTESIAN_POINT('',(0.0195000004321337,0.0245249998882413,-0.0623503094114403));
#1307=CARTESIAN_POINT('',(0.0195000004321337,0.0135034974126406,-0.0623503094114403));
#1308=CARTESIAN_POINT('',(-0.0195000004321337,0.0135034974126406,-0.0623503094114403));
#1309=CARTESIAN_POINT('',(-0.0195000004321337,0.0135034974126406,-0.0623503094114403));
#1310=CARTESIAN_POINT('',(-0.0195000004321337,0.0245249998882413,-0.0623503094114403));
#1311=CARTESIAN_POINT('',(0.0170000004321337,0.0245249998882413,-0.0283503094114403));
#1312=CARTESIAN_POINT('',(-0.0195000004321337,0.0245249998882413,-0.0283503094114403));
#1313=CARTESIAN_POINT('',(-0.0195000004321337,0.0135034974126405,-0.0283503094114403));
#1314=CARTESIAN_POINT('',(0.0170000004321337,0.0135034974126405,-0.0283503094114403));
#1315=CARTESIAN_POINT('',(0.0195000004321337,0.0135034974126405,-0.0283503094114403));
#1316=CARTESIAN_POINT('',(0.0195000004321337,0.0245249998882413,-0.0283503094114403));
#1317=CARTESIAN_POINT('',(0.0195000004321337,0.0445249998882409,-0.0210501546759179));
#1318=CARTESIAN_POINT('',(0.0195000004321337,0.0392999998882404,-0.0343503094114403));
#1319=CARTESIAN_POINT('',(0.0195000004321337,0.0392999998882404,-0.0317503094114403));
#1320=CARTESIAN_POINT('',(0.0195000004321337,0.0392999998882404,-0.0563503094114403));
#1321=CARTESIAN_POINT('',(0.0195000004321337,0.0392999998882404,-0.0537503094114403));
#1322=CARTESIAN_POINT('',(0.0195000004321337,0.0135034974126405,-0.0243503094114403));
#1323=CARTESIAN_POINT('',(0.0195000004321337,0.0113053269115284,-0.0276921721327442));
#1324=CARTESIAN_POINT('',(0.0195000004321337,0.00740294407330448,-0.0251253094114403));
#1325=CARTESIAN_POINT('',(0.0195000004321337,0.0035005612350805,-0.0225584466901364));
#1326=CARTESIAN_POINT('',(0.0195000004321337,0.00130239073396839,-0.0259003094114403));
#1327=CARTESIAN_POINT('',(0.0195000004321337,0.00344427186459908,-0.0225220931332473));
#1328=CARTESIAN_POINT('',(0.0195000004321337,0.00344427186459908,-0.0210501546759179));
#1329=CARTESIAN_POINT('',(0.0195000004321337,0.00344427186459908,-0.0681785256896333));
#1330=CARTESIAN_POINT('',(0.0195000004321337,0.00130239073396842,-0.0648003094114403));
#1331=CARTESIAN_POINT('',(0.0195000004321337,0.00350056123508052,-0.0681421721327442));
#1332=CARTESIAN_POINT('',(0.0195000004321337,0.00740294407330448,-0.0655753094114403));
#1333=CARTESIAN_POINT('',(0.0195000004321337,0.0113053269115285,-0.0630084466901364));
#1334=CARTESIAN_POINT('',(0.0195000004321337,0.0135034974126406,-0.0663503094114403));
#1335=CARTESIAN_POINT('',(-0.0170000004321337,0.0445249998882409,-0.0210501546759179));
#1336=CARTESIAN_POINT('',(-0.0170000004321337,0.0392999998882404,-0.0343503094114403));
#1337=CARTESIAN_POINT('',(-0.0170000004321337,0.0392999998882404,-0.0357003094114403));
#1338=CARTESIAN_POINT('',(-0.0170000004321337,0.0392999998882404,-0.0563503094114403));
#1339=CARTESIAN_POINT('',(-0.0170000004321337,0.0392999998882404,-0.0577003094114403));
#1340=CARTESIAN_POINT('',(-0.0170000004321337,0.0412999998882409,-0.0596003094114403));
#1341=CARTESIAN_POINT('',(-0.0170000004321337,0.0360499998882404,-0.0596003094114403));
#1342=CARTESIAN_POINT('',(-0.0170000004321337,0.0412999998882409,-0.0308503094114403));
#1343=CARTESIAN_POINT('',(-0.0170000004321337,0.0360499998882404,-0.0308503094114403));
#1344=CARTESIAN_POINT('',(-0.0170000004321337,0.0360499998882404,-0.0453503094114403));
#1345=CARTESIAN_POINT('',(-0.0195000004321337,0.0445249998882409,-0.0210501546759179));
#1346=CARTESIAN_POINT('',(-0.0195000004321337,0.0392999998882404,-0.0343503094114403));
#1347=CARTESIAN_POINT('',(-0.0195000004321337,0.0392999998882404,-0.0369503094114403));
#1348=CARTESIAN_POINT('',(-0.0195000004321337,0.0392999998882404,-0.0563503094114403));
#1349=CARTESIAN_POINT('',(-0.0195000004321337,0.0392999998882404,-0.0589503094114403));
#1350=CARTESIAN_POINT('',(-0.0195000004321337,0.00344427186459909,-0.0219003094114403));
#1351=CARTESIAN_POINT('',(-0.0195000004321337,0.00344427186459909,-0.0681785256896333));
#1352=CARTESIAN_POINT('',(-0.0195000004321337,0.00344427186459909,-0.0225220931332473));
#1353=CARTESIAN_POINT('',(-0.0195000004321337,0.00130239073396839,-0.0259003094114403));
#1354=CARTESIAN_POINT('',(-0.0195000004321337,0.00350056123508049,-0.0225584466901364));
#1355=CARTESIAN_POINT('',(-0.0195000004321337,0.00740294407330448,-0.0251253094114403));
#1356=CARTESIAN_POINT('',(-0.0195000004321337,0.0113053269115284,-0.0276921721327442));
#1357=CARTESIAN_POINT('',(-0.0195000004321337,0.0135034974126405,-0.0243503094114403));
#1358=CARTESIAN_POINT('',(-0.0195000004321337,0.0135034974126406,-0.0663503094114403));
#1359=CARTESIAN_POINT('',(-0.0195000004321337,0.0113053269115285,-0.0630084466901364));
#1360=CARTESIAN_POINT('',(-0.0195000004321337,0.00740294407330448,-0.0655753094114403));
#1361=CARTESIAN_POINT('',(-0.0195000004321337,0.00350056123508053,-0.0681421721327442));
#1362=CARTESIAN_POINT('',(-0.0195000004321337,0.00130239073396842,-0.0648003094114403));
#1363=CARTESIAN_POINT('',(-0.0170020004321337,0.0360499998882404,-0.0453503094114403));
#1364=CARTESIAN_POINT('',(-0.0170020004321337,0.0360499998882404,-0.0596003094114403));
#1365=CARTESIAN_POINT('',(-0.0170020004321337,0.0360499998882404,-0.0308503094114403));
#1366=CARTESIAN_POINT('',(-0.0170020004321337,0.0412999998882409,-0.0308503094114403));
#1367=CARTESIAN_POINT('',(-0.0170020004321337,0.0412999998882409,-0.0596003094114403));
#1368=CARTESIAN_POINT('',(-1.7347234759768E-18,-0.00850000011175871,-0.0688003094114403));
#1369=CARTESIAN_POINT('',(-0.0167500002160668,-0.00300000011175871,-0.0688003094114403));
#1370=CARTESIAN_POINT('',(-0.0189011958079493,0.00130239073396842,-0.0688003094114403));
#1371=CARTESIAN_POINT('',(-1.7347234759768E-18,0.00130239073396842,-0.0688003094114403));
#1372=CARTESIAN_POINT('',(0.0189011958079493,0.00130239073396842,-0.0688003094114403));
#1373=CARTESIAN_POINT('',(0.0167500002160668,-0.00300000011175871,-0.0688003094114403));
#1374=CARTESIAN_POINT('',(3.46944695195361E-18,-0.00850000011175871,-0.0219003094114403));
#1375=CARTESIAN_POINT('',(0.0167500002160668,-0.00300000011175871,-0.0219003094114403));
#1376=CARTESIAN_POINT('',(0.0189011958079493,0.00130239073396839,-0.0219003094114403));
#1377=CARTESIAN_POINT('',(-0.0195000004321337,0.00130239073396839,-0.0219003094114403));
#1378=CARTESIAN_POINT('',(-0.0189011958079493,0.00130239073396839,-0.0219003094114403));
#1379=CARTESIAN_POINT('',(-0.0167500002160668,-0.00300000011175871,-0.0219003094114403));
#1380=CARTESIAN_POINT('',(-1.56125112837912E-17,-0.00350000011175871,-0.0658503094114403));
#1381=CARTESIAN_POINT('',(0.012,-0.00350000011175871,-0.0658503094114403));
#1382=CARTESIAN_POINT('',(-0.012,-0.00350000011175871,-0.0658503094114403));
#1383=CARTESIAN_POINT('',(0.012,-0.00350000011175871,-0.0453503094114403));
#1384=CARTESIAN_POINT('',(0.012,-0.00350000011175871,-0.0248503094114403));
#1385=CARTESIAN_POINT('',(-1.21430643318376E-17,-0.00350000011175871,-0.0248503094114403));
#1386=CARTESIAN_POINT('',(-0.012,-0.00350000011175871,-0.0248503094114403));
#1387=CARTESIAN_POINT('',(-0.012,-0.00350000011175871,-0.0453503094114403));
#1388=CARTESIAN_POINT('',(-0.00800000035157954,-0.00350000011175871,-0.0418503092128185));
#1389=CARTESIAN_POINT('',(-0.00800000035157954,0.000499999888241291,-0.0418503092128185));
#1390=CARTESIAN_POINT('',(-0.00800000035157954,0.000499999888241291,-0.042628145874009));
#1391=CARTESIAN_POINT('',(-1.56125112837912E-17,0.000499999888241291,-0.0453503094114403));
#1392=CARTESIAN_POINT('',(0.00350000019862174,-0.00350000011175871,-0.0373503090598607));
#1393=CARTESIAN_POINT('',(0.00350000019862174,0.000499999888241291,-0.0373503090598607));
#1394=CARTESIAN_POINT('',(0.00350000019862174,0.000499999888241291,-0.0381281457210512));
#1395=CARTESIAN_POINT('',(-1.56125112837912E-17,0.000499999888241291,-0.0453503094114403));
#1396=CARTESIAN_POINT('',(-0.00350000019862174,-0.00350000011175871,-0.0533503097630198));
#1397=CARTESIAN_POINT('',(-0.00350000019862174,0.000499999888241291,-0.0533503097630198));
#1398=CARTESIAN_POINT('',(-0.00350000019862174,0.000499999888241291,-0.0541281464242102));
#1399=CARTESIAN_POINT('',(-1.56125112837912E-17,0.000499999888241291,-0.0453503094114403));
#1400=CARTESIAN_POINT('',(0.00800000035157954,-0.00350000011175871,-0.048850309610062));
#1401=CARTESIAN_POINT('',(0.00800000035157954,0.000499999888241291,-0.048850309610062));
#1402=CARTESIAN_POINT('',(0.00800000035157954,0.000499999888241291,-0.0496281462712524));
#1403=CARTESIAN_POINT('',(-1.56125112837912E-17,0.000499999888241291,-0.0453503094114403));
#1404=CARTESIAN_POINT('',(0.0167500002160668,-0.00300000011175871,-0.0218983094114403));
#1405=CARTESIAN_POINT('',(0.0190777091399134,0.00165541737015936,-0.0218983094114403));
#1406=CARTESIAN_POINT('',(0.0190777091399134,0.00165541737015936,-0.0687847004808685));
#1407=CARTESIAN_POINT('',(0.0190777091399134,0.00165541737015936,-0.0219159183420121));
#1408=CARTESIAN_POINT('',(0.0189011958079493,0.00130239073396839,-0.0259003094114403));
#1409=CARTESIAN_POINT('',(0.0189011958079493,0.00130239073396842,-0.0648003094114403));
#1410=CARTESIAN_POINT('',(-0.0167500002160668,-0.00300000011175871,-0.0218983094114403));
#1411=CARTESIAN_POINT('',(-0.0189011958079493,0.00130239073396839,-0.0259003094114403));
#1412=CARTESIAN_POINT('',(-0.0190777091399134,0.00165541737015938,-0.0219159183420121));
#1413=CARTESIAN_POINT('',(-0.0190777091399134,0.00165541737015938,-0.0688003094114403));
#1414=CARTESIAN_POINT('',(-0.0190777091399134,0.00165541737015938,-0.0687847004808685));
#1415=CARTESIAN_POINT('',(-0.0189011958079493,0.00130239073396842,-0.0648003094114403));
#1416=CARTESIAN_POINT('',(-0.0195020004321337,0.00740294407330448,-0.0251253094114403));
#1417=CARTESIAN_POINT('',(-0.0195020004321337,0.0113053269115284,-0.0276921721327442));
#1418=CARTESIAN_POINT('',(0.0195000004321337,0.0035005612350805,-0.0225584466901364));
#1419=CARTESIAN_POINT('',(-0.0195020004321337,0.00740294407330448,-0.0655753094114403));
#1420=CARTESIAN_POINT('',(0.0195000004321337,0.0113053269115285,-0.0630084466901364));
#1421=CARTESIAN_POINT('',(-0.0195020004321337,0.00350056123508053,-0.0681421721327442));
#1422=CARTESIAN_POINT('',(-0.0195020004321337,0.00130239073396842,-0.0648003094114403));
#1423=CARTESIAN_POINT('',(0.0190777091399134,0.00165541737015936,-0.0687847004808685));
#1424=CARTESIAN_POINT('',(0.0193732258654109,0.00224645077471696,-0.0687323334990508));
#1425=CARTESIAN_POINT('',(0.0195000004321337,0.00288466683033031,-0.0685333305229542));
#1426=CARTESIAN_POINT('',(0.0195000004321337,0.00344427186459908,-0.0681785256896333));
#1427=CARTESIAN_POINT('',(-0.0190777091399134,0.00165541737015938,-0.0687847004808685));
#1428=CARTESIAN_POINT('',(-0.0193732258654109,0.00224645077471697,-0.0687323334990508));
#1429=CARTESIAN_POINT('',(-0.0195000004321337,0.00288466683033033,-0.0685333305229542));
#1430=CARTESIAN_POINT('',(-0.0195000004321337,0.0034442718645991,-0.0681785256896333));
#1431=CARTESIAN_POINT('',(0.0155000004321336,0.00344427186459908,-0.0210501546759179));
#1432=CARTESIAN_POINT('',(0.0195000004321337,0.00344427186459908,-0.0225220931332473));
#1433=CARTESIAN_POINT('',(0.0195000004321337,0.00288475209117116,-0.0221673423576217));
#1434=CARTESIAN_POINT('',(0.0193732376722285,0.00224647438835027,-0.0219682874160545));
#1435=CARTESIAN_POINT('',(0.0190777091399134,0.00165541737015936,-0.0219159183420121));
#1436=CARTESIAN_POINT('',(-0.0155000004321336,0.00344427186459909,-0.0218983094114403));
#1437=CARTESIAN_POINT('',(-0.0190777091399134,0.00165541737015938,-0.0219159183420121));
#1438=CARTESIAN_POINT('',(-0.0193732258654109,0.00224645077471698,-0.0219682853238298));
#1439=CARTESIAN_POINT('',(-0.0195000004321337,0.00288466683033033,-0.0221672882999264));
#1440=CARTESIAN_POINT('',(-0.0195000004321337,0.00344427186459909,-0.0225220931332473));
#1441=CARTESIAN_POINT('',(1.12725999950857E-18,0.00130239073396839,-0.0259003094114403));
#1442=CARTESIAN_POINT('',(-0.0195000004321337,0.0392999998882404,-0.0563503094114403));
#1443=CARTESIAN_POINT('',(-0.0182500004321337,0.0392999998882404,-0.0563503094114403));
#1444=CARTESIAN_POINT('',(-0.0182500004321337,0.0392999998882404,-0.0577003094114403));
#1445=CARTESIAN_POINT('',(-0.0195000004321337,0.0392999998882404,-0.0563503094114403));
#1446=CARTESIAN_POINT('',(-0.0195000004321337,0.0392999998882404,-0.0343503094114403));
#1447=CARTESIAN_POINT('',(-0.0182500004321337,0.0392999998882404,-0.0343503094114403));
#1448=CARTESIAN_POINT('',(-0.0182500004321337,0.0392999998882404,-0.0357003094114403));
#1449=CARTESIAN_POINT('',(-0.0195000004321337,0.0392999998882404,-0.0343503094114403));
#1450=CARTESIAN_POINT('',(0.0195000004321337,0.0392999998882404,-0.0563503094114403));
#1451=CARTESIAN_POINT('',(0.0182500004321337,0.0392999998882404,-0.0563503094114403));
#1452=CARTESIAN_POINT('',(0.0182500004321337,0.0392999998882404,-0.0550003094114403));
#1453=CARTESIAN_POINT('',(0.0195000004321337,0.0392999998882404,-0.0563503094114403));
#1454=CARTESIAN_POINT('',(0.0195000004321337,0.0392999998882404,-0.0343503094114403));
#1455=CARTESIAN_POINT('',(0.0182500004321337,0.0392999998882404,-0.0343503094114403));
#1456=CARTESIAN_POINT('',(0.0182500004321337,0.0392999998882404,-0.0330003094114403));
#1457=CARTESIAN_POINT('',(0.0195000004321337,0.0392999998882404,-0.0343503094114403));
#1458=CARTESIAN_POINT('',(-0.006,-0.00350000011175871,-0.0573503094114403));
#1459=CARTESIAN_POINT('',(-0.006,-0.000660540670344062,-0.0573503094114403));
#1460=CARTESIAN_POINT('',(-0.006,-0.000660540670344062,-0.0591362494114403));
#1461=CARTESIAN_POINT('',(0.006,-0.00350000011175871,-0.0573503094114403));
#1462=CARTESIAN_POINT('',(0.006,-0.000660540670344062,-0.0573503094114403));
#1463=CARTESIAN_POINT('',(0.006,-0.000660540670344062,-0.0591362494114403));
#1464=CARTESIAN_POINT('',(0.006,-0.00350000011175871,-0.0333503094114403));
#1465=CARTESIAN_POINT('',(0.006,-0.000660540670344065,-0.0333503094114403));
#1466=CARTESIAN_POINT('',(0.006,-0.000660540670344065,-0.0351362494114403));
#1467=CARTESIAN_POINT('',(-0.006,-0.00350000011175871,-0.0333503094114403));
#1468=CARTESIAN_POINT('',(-0.006,-0.000660540670344065,-0.0333503094114403));
#1469=CARTESIAN_POINT('',(-0.006,-0.000660540670344065,-0.0351362494114403));
#1470=CARTESIAN_POINT('',(-1.56125112837912E-17,0.000249999888241291,-0.0453503094114403));
#1471=CARTESIAN_POINT('',(-0.006,0.000249999888241291,-0.0573503094114403));
#1472=CARTESIAN_POINT('',(-0.006,0.000249999888241291,-0.0591362494114403));
#1473=CARTESIAN_POINT('',(-0.006,0.000249999888241291,-0.0573503094114403));
#1474=CARTESIAN_POINT('',(-1.56125112837912E-17,0.000249999888241291,-0.0453503094114403));
#1475=CARTESIAN_POINT('',(0.006,0.000249999888241291,-0.0573503094114403));
#1476=CARTESIAN_POINT('',(0.006,0.000249999888241291,-0.0591362494114403));
#1477=CARTESIAN_POINT('',(0.006,0.000249999888241291,-0.0573503094114403));
#1478=CARTESIAN_POINT('',(-1.56125112837912E-17,0.000249999888241291,-0.0453503094114403));
#1479=CARTESIAN_POINT('',(0.006,0.000249999888241291,-0.0333503094114403));
#1480=CARTESIAN_POINT('',(0.006,0.000249999888241291,-0.0351362494114403));
#1481=CARTESIAN_POINT('',(0.006,0.000249999888241291,-0.0333503094114403));
#1482=CARTESIAN_POINT('',(-1.56125112837912E-17,0.000249999888241291,-0.0453503094114403));
#1483=CARTESIAN_POINT('',(-0.006,0.000249999888241291,-0.0333503094114403));
#1484=CARTESIAN_POINT('',(-0.006,0.000249999888241291,-0.0351362494114403));
#1485=CARTESIAN_POINT('',(-0.006,0.000249999888241291,-0.0333503094114403));
#1486=CARTESIAN_POINT('',(0.0170000004321337,0.0135034974126405,-0.0243503094114403));
#1487=CARTESIAN_POINT('',(-0.0195020004321337,0.0135034974126406,-0.0663503094114403));
#1488=MECHANICAL_DESIGN_GEOMETRIC_PRESENTATION_REPRESENTATION('',(#865),
#1489);
#1489=(
GEOMETRIC_REPRESENTATION_CONTEXT(3)
GLOBAL_UNCERTAINTY_ASSIGNED_CONTEXT((#1490))
GLOBAL_UNIT_ASSIGNED_CONTEXT((#1493,#1492,#1491))
REPRESENTATION_CONTEXT('Part 2','TOP_LEVEL_ASSEMBLY_PART')
);
#1490=UNCERTAINTY_MEASURE_WITH_UNIT(LENGTH_MEASURE(2.E-5),#1493,
'DISTANCE_ACCURACY_VALUE','Maximum Tolerance applied to model');
#1491=(
NAMED_UNIT(*)
SI_UNIT($,.STERADIAN.)
SOLID_ANGLE_UNIT()
);
#1492=(
NAMED_UNIT(*)
PLANE_ANGLE_UNIT()
SI_UNIT($,.RADIAN.)
);
#1493=(
LENGTH_UNIT()
NAMED_UNIT(*)
SI_UNIT($,.METRE.)
);
#1494=PRODUCT_DEFINITION_SHAPE('','',#1495);
#1495=PRODUCT_DEFINITION('','',#1497,#1496);
#1496=PRODUCT_DEFINITION_CONTEXT('',#1503,'design');
#1497=PRODUCT_DEFINITION_FORMATION_WITH_SPECIFIED_SOURCE('','',#1499,
 .NOT_KNOWN.);
#1498=PRODUCT_RELATED_PRODUCT_CATEGORY('','',(#1499));
#1499=PRODUCT('Part 2','Part 2','Part 2',(#1501));
#1500=PRODUCT_CATEGORY('','');
#1501=PRODUCT_CONTEXT('',#1503,'mechanical');
#1502=APPLICATION_PROTOCOL_DEFINITION('international standard',
'ap242_managed_model_based_3d_engineering',2020,#1503);
#1503=APPLICATION_CONTEXT('managed model based 3d engineering');
ENDSEC;
END-ISO-10303-21;
