ISO-10303-21;
HEADER;
/* Generated by software containing ST-Developer
 * from STEP Tools, Inc. (www.steptools.com) 
 */
/* OPTION: using custom renumber hook */

FILE_DESCRIPTION(
/* description */ ('STEP AP242 Edition 2',
'CAx-IF Rec.Pracs.---Representation and Presentation of Product Manufa
cturing Information (PMI)---4.0---2014-10-13',
'CAx-IF Rec.Pracs.---3D Tessellated Geometry---0.4---2014-09-14','2;1',
'CAx-IF Rec.Pracs.---User Defined Attributes---1.5---2016-08-15'),
/* implementation_level */ '2;1');

FILE_NAME(
/* name */ 'Right Arm - Part 2',
/* time_stamp */ '2026-05-31T15:23:16Z',
/* author */ (''),
/* organization */ (''),
/* preprocessor_version */ 'ST-DEVELOPER v20',
/* originating_system */ 'ONSHAPE BY PTC INC, 1.215',
/* authorisation */ '  ');

FILE_SCHEMA (('AP242_MANAGED_MODEL_BASED_3D_ENGINEERING_MIM_LF { 1 0 10303 442 3 1 4 }'));
ENDSEC;

DATA;
#10=SHAPE_REPRESENTATION_RELATIONSHIP('','',#1000,#11);
#11=ADVANCED_BREP_SHAPE_REPRESENTATION('',(#998),#1668);
#12=(
BOUNDED_SURFACE()
B_SPLINE_SURFACE(2,3,((#1586,#1587,#1588,#1589,#1590,#1591),(#1592,#1593,
#1594,#1595,#1596,#1597),(#1598,#1599,#1600,#1601,#1602,#1603)),
 .UNSPECIFIED.,.F.,.F.,.F.)
B_SPLINE_SURFACE_WITH_KNOTS((3,3),(4,2,4),(0.,1.),(0.00397890610667818,
0.00595547325557821,0.00793204040447823),.UNSPECIFIED.)
GEOMETRIC_REPRESENTATION_ITEM()
RATIONAL_B_SPLINE_SURFACE(((1.,1.,1.,1.,1.,1.),(0.77093425312507,0.770846080802717,
0.765810076198339,0.744409328966692,0.728479909943593,0.707106781186554),
(1.,1.,1.,1.,1.,1.)))
REPRESENTATION_ITEM('')
SURFACE()
);
#13=(
BOUNDED_SURFACE()
B_SPLINE_SURFACE(2,3,((#1615,#1616,#1617,#1618,#1619,#1620),(#1621,#1622,
#1623,#1624,#1625,#1626),(#1627,#1628,#1629,#1630,#1631,#1632)),
 .UNSPECIFIED.,.F.,.F.,.F.)
B_SPLINE_SURFACE_WITH_KNOTS((3,3),(4,2,4),(0.,1.),(0.,0.00197738041915348,
0.00395476083830697),.UNSPECIFIED.)
GEOMETRIC_REPRESENTATION_ITEM()
RATIONAL_B_SPLINE_SURFACE(((1.,1.,1.,1.,1.,1.),(0.707106781186534,0.728313577117031,
0.744542335779656,0.765695121766895,0.770961919644928,0.77093425312507),
(1.,1.,1.,1.,1.,1.)))
REPRESENTATION_ITEM('')
SURFACE()
);
#14=CONICAL_SURFACE('',#1036,0.002815,0.785398163397446);
#15=CONICAL_SURFACE('',#1039,0.002815,0.785398163397446);
#16=CONICAL_SURFACE('',#1060,0.002185,0.139626340159546);
#17=CONICAL_SURFACE('',#1062,0.002185,0.139626340159546);
#18=CONICAL_SURFACE('',#1064,0.002185,0.139626340159546);
#19=CONICAL_SURFACE('',#1066,0.002185,0.139626340159546);
#20=CYLINDRICAL_SURFACE('',#1034,0.00135);
#21=CYLINDRICAL_SURFACE('',#1037,0.00135);
#22=CYLINDRICAL_SURFACE('',#1052,0.01075);
#23=CYLINDRICAL_SURFACE('',#1057,0.0025);
#24=CYLINDRICAL_SURFACE('',#1058,0.0025);
#25=CYLINDRICAL_SURFACE('',#1059,0.0025);
#26=CYLINDRICAL_SURFACE('',#1070,0.0017859375);
#27=CYLINDRICAL_SURFACE('',#1073,0.0017859375);
#28=CYLINDRICAL_SURFACE('',#1076,0.0017859375);
#29=CYLINDRICAL_SURFACE('',#1079,0.0017859375);
#30=B_SPLINE_CURVE_WITH_KNOTS('',3,(#1450,#1451,#1452,#1453,#1454),
 .UNSPECIFIED.,.F.,.F.,(4,1,4),(0.,0.5,1.),.UNSPECIFIED.);
#31=B_SPLINE_CURVE_WITH_KNOTS('',3,(#1467,#1468,#1469,#1470,#1471),
 .UNSPECIFIED.,.F.,.F.,(4,1,4),(0.,0.5,1.),.UNSPECIFIED.);
#32=B_SPLINE_CURVE_WITH_KNOTS('',3,(#1581,#1582,#1583,#1584,#1585),
 .UNSPECIFIED.,.F.,.F.,(4,1,4),(0.,0.5,1.),.UNSPECIFIED.);
#33=B_SPLINE_CURVE_WITH_KNOTS('',3,(#1604,#1605,#1606,#1607,#1608),
 .UNSPECIFIED.,.F.,.F.,(4,1,4),(0.,0.5,1.),.UNSPECIFIED.);
#34=B_SPLINE_CURVE_WITH_KNOTS('',3,(#1610,#1611,#1612,#1613,#1614),
 .UNSPECIFIED.,.F.,.F.,(4,1,4),(0.,0.5,1.),.UNSPECIFIED.);
#35=B_SPLINE_CURVE_WITH_KNOTS('',3,(#1633,#1634,#1635,#1636,#1637),
 .UNSPECIFIED.,.F.,.F.,(4,1,4),(0.,0.5,1.),.UNSPECIFIED.);
#36=CIRCLE('',#1009,0.0025);
#37=CIRCLE('',#1010,0.01075);
#38=CIRCLE('',#1011,0.0025);
#39=CIRCLE('',#1017,0.002815);
#40=CIRCLE('',#1018,0.002815);
#41=CIRCLE('',#1020,0.00135);
#42=CIRCLE('',#1021,0.00135);
#43=CIRCLE('',#1030,0.002185);
#44=CIRCLE('',#1031,0.002185);
#45=CIRCLE('',#1032,0.002185);
#46=CIRCLE('',#1033,0.002185);
#47=CIRCLE('',#1035,0.00135);
#48=CIRCLE('',#1038,0.00135);
#49=CIRCLE('',#1053,0.01075);
#50=CIRCLE('',#1054,0.01075);
#51=CIRCLE('',#1055,0.01075);
#52=CIRCLE('',#1061,0.0017859375);
#53=CIRCLE('',#1063,0.0017859375);
#54=CIRCLE('',#1065,0.0017859375);
#55=CIRCLE('',#1067,0.0017859375);
#56=CIRCLE('',#1069,0.0017859375);
#57=CIRCLE('',#1072,0.0017859375);
#58=CIRCLE('',#1075,0.0017859375);
#59=CIRCLE('',#1078,0.0017859375);
#60=ORIENTED_EDGE('',*,*,#314,.F.);
#61=ORIENTED_EDGE('',*,*,#315,.T.);
#62=ORIENTED_EDGE('',*,*,#316,.F.);
#63=ORIENTED_EDGE('',*,*,#317,.F.);
#64=ORIENTED_EDGE('',*,*,#318,.T.);
#65=ORIENTED_EDGE('',*,*,#319,.F.);
#66=ORIENTED_EDGE('',*,*,#320,.T.);
#67=ORIENTED_EDGE('',*,*,#321,.F.);
#68=ORIENTED_EDGE('',*,*,#322,.F.);
#69=ORIENTED_EDGE('',*,*,#323,.T.);
#70=ORIENTED_EDGE('',*,*,#324,.F.);
#71=ORIENTED_EDGE('',*,*,#325,.T.);
#72=ORIENTED_EDGE('',*,*,#326,.T.);
#73=ORIENTED_EDGE('',*,*,#327,.T.);
#74=ORIENTED_EDGE('',*,*,#328,.F.);
#75=ORIENTED_EDGE('',*,*,#329,.T.);
#76=ORIENTED_EDGE('',*,*,#330,.T.);
#77=ORIENTED_EDGE('',*,*,#331,.F.);
#78=ORIENTED_EDGE('',*,*,#332,.F.);
#79=ORIENTED_EDGE('',*,*,#333,.T.);
#80=ORIENTED_EDGE('',*,*,#334,.T.);
#81=ORIENTED_EDGE('',*,*,#335,.F.);
#82=ORIENTED_EDGE('',*,*,#336,.T.);
#83=ORIENTED_EDGE('',*,*,#337,.T.);
#84=ORIENTED_EDGE('',*,*,#338,.F.);
#85=ORIENTED_EDGE('',*,*,#339,.F.);
#86=ORIENTED_EDGE('',*,*,#340,.T.);
#87=ORIENTED_EDGE('',*,*,#341,.T.);
#88=ORIENTED_EDGE('',*,*,#342,.F.);
#89=ORIENTED_EDGE('',*,*,#343,.T.);
#90=ORIENTED_EDGE('',*,*,#344,.T.);
#91=ORIENTED_EDGE('',*,*,#345,.F.);
#92=ORIENTED_EDGE('',*,*,#346,.F.);
#93=ORIENTED_EDGE('',*,*,#347,.F.);
#94=ORIENTED_EDGE('',*,*,#348,.F.);
#95=ORIENTED_EDGE('',*,*,#349,.T.);
#96=ORIENTED_EDGE('',*,*,#350,.F.);
#97=ORIENTED_EDGE('',*,*,#351,.F.);
#98=ORIENTED_EDGE('',*,*,#344,.F.);
#99=ORIENTED_EDGE('',*,*,#352,.T.);
#100=ORIENTED_EDGE('',*,*,#353,.F.);
#101=ORIENTED_EDGE('',*,*,#354,.T.);
#102=ORIENTED_EDGE('',*,*,#355,.T.);
#103=ORIENTED_EDGE('',*,*,#356,.F.);
#104=ORIENTED_EDGE('',*,*,#357,.F.);
#105=ORIENTED_EDGE('',*,*,#358,.T.);
#106=ORIENTED_EDGE('',*,*,#356,.T.);
#107=ORIENTED_EDGE('',*,*,#359,.F.);
#108=ORIENTED_EDGE('',*,*,#360,.F.);
#109=ORIENTED_EDGE('',*,*,#361,.T.);
#110=ORIENTED_EDGE('',*,*,#357,.T.);
#111=ORIENTED_EDGE('',*,*,#362,.F.);
#112=ORIENTED_EDGE('',*,*,#363,.F.);
#113=ORIENTED_EDGE('',*,*,#364,.T.);
#114=ORIENTED_EDGE('',*,*,#365,.F.);
#115=ORIENTED_EDGE('',*,*,#366,.T.);
#116=ORIENTED_EDGE('',*,*,#367,.F.);
#117=ORIENTED_EDGE('',*,*,#342,.T.);
#118=ORIENTED_EDGE('',*,*,#368,.T.);
#119=ORIENTED_EDGE('',*,*,#362,.T.);
#120=ORIENTED_EDGE('',*,*,#359,.T.);
#121=ORIENTED_EDGE('',*,*,#355,.F.);
#122=ORIENTED_EDGE('',*,*,#369,.T.);
#123=ORIENTED_EDGE('',*,*,#323,.F.);
#124=ORIENTED_EDGE('',*,*,#370,.T.);
#125=ORIENTED_EDGE('',*,*,#371,.T.);
#126=ORIENTED_EDGE('',*,*,#363,.T.);
#127=ORIENTED_EDGE('',*,*,#322,.T.);
#128=ORIENTED_EDGE('',*,*,#372,.F.);
#129=ORIENTED_EDGE('',*,*,#373,.F.);
#130=ORIENTED_EDGE('',*,*,#374,.F.);
#131=ORIENTED_EDGE('',*,*,#375,.T.);
#132=ORIENTED_EDGE('',*,*,#352,.F.);
#133=ORIENTED_EDGE('',*,*,#343,.F.);
#134=ORIENTED_EDGE('',*,*,#367,.T.);
#135=ORIENTED_EDGE('',*,*,#376,.T.);
#136=ORIENTED_EDGE('',*,*,#377,.T.);
#137=ORIENTED_EDGE('',*,*,#378,.T.);
#138=ORIENTED_EDGE('',*,*,#345,.T.);
#139=ORIENTED_EDGE('',*,*,#351,.T.);
#140=ORIENTED_EDGE('',*,*,#379,.F.);
#141=ORIENTED_EDGE('',*,*,#380,.T.);
#142=ORIENTED_EDGE('',*,*,#381,.T.);
#143=ORIENTED_EDGE('',*,*,#382,.T.);
#144=ORIENTED_EDGE('',*,*,#320,.F.);
#145=ORIENTED_EDGE('',*,*,#383,.F.);
#146=ORIENTED_EDGE('',*,*,#382,.F.);
#147=ORIENTED_EDGE('',*,*,#384,.T.);
#148=ORIENTED_EDGE('',*,*,#372,.T.);
#149=ORIENTED_EDGE('',*,*,#321,.T.);
#150=ORIENTED_EDGE('',*,*,#324,.T.);
#151=ORIENTED_EDGE('',*,*,#369,.F.);
#152=ORIENTED_EDGE('',*,*,#354,.F.);
#153=ORIENTED_EDGE('',*,*,#385,.F.);
#154=ORIENTED_EDGE('',*,*,#360,.T.);
#155=ORIENTED_EDGE('',*,*,#368,.F.);
#156=ORIENTED_EDGE('',*,*,#341,.F.);
#157=ORIENTED_EDGE('',*,*,#386,.T.);
#158=ORIENTED_EDGE('',*,*,#387,.T.);
#159=ORIENTED_EDGE('',*,*,#388,.T.);
#160=ORIENTED_EDGE('',*,*,#386,.F.);
#161=ORIENTED_EDGE('',*,*,#346,.T.);
#162=ORIENTED_EDGE('',*,*,#383,.T.);
#163=ORIENTED_EDGE('',*,*,#325,.F.);
#164=ORIENTED_EDGE('',*,*,#389,.F.);
#165=ORIENTED_EDGE('',*,*,#390,.F.);
#166=ORIENTED_EDGE('',*,*,#385,.T.);
#167=ORIENTED_EDGE('',*,*,#353,.T.);
#168=ORIENTED_EDGE('',*,*,#358,.F.);
#169=ORIENTED_EDGE('',*,*,#361,.F.);
#170=ORIENTED_EDGE('',*,*,#391,.T.);
#171=ORIENTED_EDGE('',*,*,#392,.F.);
#172=ORIENTED_EDGE('',*,*,#393,.F.);
#173=ORIENTED_EDGE('',*,*,#394,.T.);
#174=ORIENTED_EDGE('',*,*,#395,.F.);
#175=ORIENTED_EDGE('',*,*,#394,.F.);
#176=ORIENTED_EDGE('',*,*,#396,.T.);
#177=ORIENTED_EDGE('',*,*,#397,.T.);
#178=ORIENTED_EDGE('',*,*,#398,.F.);
#179=ORIENTED_EDGE('',*,*,#397,.F.);
#180=ORIENTED_EDGE('',*,*,#399,.T.);
#181=ORIENTED_EDGE('',*,*,#400,.T.);
#182=ORIENTED_EDGE('',*,*,#350,.T.);
#183=ORIENTED_EDGE('',*,*,#375,.F.);
#184=ORIENTED_EDGE('',*,*,#401,.F.);
#185=ORIENTED_EDGE('',*,*,#379,.T.);
#186=ORIENTED_EDGE('',*,*,#384,.F.);
#187=ORIENTED_EDGE('',*,*,#381,.F.);
#188=ORIENTED_EDGE('',*,*,#402,.T.);
#189=ORIENTED_EDGE('',*,*,#373,.T.);
#190=ORIENTED_EDGE('',*,*,#403,.T.);
#191=ORIENTED_EDGE('',*,*,#400,.F.);
#192=ORIENTED_EDGE('',*,*,#404,.F.);
#193=ORIENTED_EDGE('',*,*,#392,.T.);
#194=ORIENTED_EDGE('',*,*,#401,.T.);
#195=ORIENTED_EDGE('',*,*,#374,.T.);
#196=ORIENTED_EDGE('',*,*,#402,.F.);
#197=ORIENTED_EDGE('',*,*,#380,.F.);
#198=ORIENTED_EDGE('',*,*,#393,.T.);
#199=ORIENTED_EDGE('',*,*,#404,.T.);
#200=ORIENTED_EDGE('',*,*,#399,.F.);
#201=ORIENTED_EDGE('',*,*,#396,.F.);
#202=ORIENTED_EDGE('',*,*,#405,.T.);
#203=ORIENTED_EDGE('',*,*,#406,.T.);
#204=ORIENTED_EDGE('',*,*,#407,.T.);
#205=ORIENTED_EDGE('',*,*,#408,.T.);
#206=ORIENTED_EDGE('',*,*,#391,.F.);
#207=ORIENTED_EDGE('',*,*,#395,.T.);
#208=ORIENTED_EDGE('',*,*,#398,.T.);
#209=ORIENTED_EDGE('',*,*,#403,.F.);
#210=ORIENTED_EDGE('',*,*,#390,.T.);
#211=ORIENTED_EDGE('',*,*,#409,.F.);
#212=ORIENTED_EDGE('',*,*,#409,.T.);
#213=ORIENTED_EDGE('',*,*,#388,.F.);
#214=ORIENTED_EDGE('',*,*,#389,.T.);
#215=ORIENTED_EDGE('',*,*,#410,.F.);
#216=ORIENTED_EDGE('',*,*,#410,.T.);
#217=ORIENTED_EDGE('',*,*,#387,.F.);
#218=ORIENTED_EDGE('',*,*,#411,.T.);
#219=ORIENTED_EDGE('',*,*,#338,.T.);
#220=ORIENTED_EDGE('',*,*,#412,.F.);
#221=ORIENTED_EDGE('',*,*,#327,.F.);
#222=ORIENTED_EDGE('',*,*,#413,.T.);
#223=ORIENTED_EDGE('',*,*,#339,.T.);
#224=ORIENTED_EDGE('',*,*,#411,.F.);
#225=ORIENTED_EDGE('',*,*,#326,.F.);
#226=ORIENTED_EDGE('',*,*,#328,.T.);
#227=ORIENTED_EDGE('',*,*,#412,.T.);
#228=ORIENTED_EDGE('',*,*,#340,.F.);
#229=ORIENTED_EDGE('',*,*,#413,.F.);
#230=ORIENTED_EDGE('',*,*,#414,.T.);
#231=ORIENTED_EDGE('',*,*,#347,.T.);
#232=ORIENTED_EDGE('',*,*,#415,.F.);
#233=ORIENTED_EDGE('',*,*,#330,.F.);
#234=ORIENTED_EDGE('',*,*,#416,.T.);
#235=ORIENTED_EDGE('',*,*,#348,.T.);
#236=ORIENTED_EDGE('',*,*,#414,.F.);
#237=ORIENTED_EDGE('',*,*,#329,.F.);
#238=ORIENTED_EDGE('',*,*,#331,.T.);
#239=ORIENTED_EDGE('',*,*,#415,.T.);
#240=ORIENTED_EDGE('',*,*,#349,.F.);
#241=ORIENTED_EDGE('',*,*,#416,.F.);
#242=ORIENTED_EDGE('',*,*,#317,.T.);
#243=ORIENTED_EDGE('',*,*,#417,.T.);
#244=ORIENTED_EDGE('',*,*,#336,.F.);
#245=ORIENTED_EDGE('',*,*,#418,.F.);
#246=ORIENTED_EDGE('',*,*,#319,.T.);
#247=ORIENTED_EDGE('',*,*,#419,.T.);
#248=ORIENTED_EDGE('',*,*,#337,.F.);
#249=ORIENTED_EDGE('',*,*,#417,.F.);
#250=ORIENTED_EDGE('',*,*,#418,.T.);
#251=ORIENTED_EDGE('',*,*,#335,.T.);
#252=ORIENTED_EDGE('',*,*,#419,.F.);
#253=ORIENTED_EDGE('',*,*,#318,.F.);
#254=ORIENTED_EDGE('',*,*,#314,.T.);
#255=ORIENTED_EDGE('',*,*,#420,.T.);
#256=ORIENTED_EDGE('',*,*,#333,.F.);
#257=ORIENTED_EDGE('',*,*,#421,.F.);
#258=ORIENTED_EDGE('',*,*,#316,.T.);
#259=ORIENTED_EDGE('',*,*,#422,.T.);
#260=ORIENTED_EDGE('',*,*,#334,.F.);
#261=ORIENTED_EDGE('',*,*,#420,.F.);
#262=ORIENTED_EDGE('',*,*,#421,.T.);
#263=ORIENTED_EDGE('',*,*,#332,.T.);
#264=ORIENTED_EDGE('',*,*,#422,.F.);
#265=ORIENTED_EDGE('',*,*,#315,.F.);
#266=ORIENTED_EDGE('',*,*,#365,.T.);
#267=ORIENTED_EDGE('',*,*,#423,.T.);
#268=ORIENTED_EDGE('',*,*,#424,.F.);
#269=ORIENTED_EDGE('',*,*,#425,.F.);
#270=ORIENTED_EDGE('',*,*,#426,.F.);
#271=ORIENTED_EDGE('',*,*,#427,.T.);
#272=ORIENTED_EDGE('',*,*,#425,.T.);
#273=ORIENTED_EDGE('',*,*,#428,.T.);
#274=ORIENTED_EDGE('',*,*,#366,.F.);
#275=ORIENTED_EDGE('',*,*,#427,.F.);
#276=ORIENTED_EDGE('',*,*,#429,.F.);
#277=ORIENTED_EDGE('',*,*,#376,.F.);
#278=ORIENTED_EDGE('',*,*,#429,.T.);
#279=ORIENTED_EDGE('',*,*,#426,.T.);
#280=ORIENTED_EDGE('',*,*,#430,.F.);
#281=ORIENTED_EDGE('',*,*,#377,.F.);
#282=ORIENTED_EDGE('',*,*,#430,.T.);
#283=ORIENTED_EDGE('',*,*,#428,.F.);
#284=ORIENTED_EDGE('',*,*,#431,.F.);
#285=ORIENTED_EDGE('',*,*,#378,.F.);
#286=ORIENTED_EDGE('',*,*,#431,.T.);
#287=ORIENTED_EDGE('',*,*,#424,.T.);
#288=ORIENTED_EDGE('',*,*,#432,.F.);
#289=ORIENTED_EDGE('',*,*,#370,.F.);
#290=ORIENTED_EDGE('',*,*,#364,.F.);
#291=ORIENTED_EDGE('',*,*,#371,.F.);
#292=ORIENTED_EDGE('',*,*,#432,.T.);
#293=ORIENTED_EDGE('',*,*,#423,.F.);
#294=ORIENTED_EDGE('',*,*,#433,.F.);
#295=ORIENTED_EDGE('',*,*,#405,.F.);
#296=ORIENTED_EDGE('',*,*,#434,.F.);
#297=ORIENTED_EDGE('',*,*,#406,.F.);
#298=ORIENTED_EDGE('',*,*,#435,.F.);
#299=ORIENTED_EDGE('',*,*,#407,.F.);
#300=ORIENTED_EDGE('',*,*,#436,.F.);
#301=ORIENTED_EDGE('',*,*,#408,.F.);
#302=ORIENTED_EDGE('',*,*,#437,.F.);
#303=ORIENTED_EDGE('',*,*,#437,.T.);
#304=ORIENTED_EDGE('',*,*,#433,.T.);
#305=ORIENTED_EDGE('',*,*,#438,.F.);
#306=ORIENTED_EDGE('',*,*,#438,.T.);
#307=ORIENTED_EDGE('',*,*,#434,.T.);
#308=ORIENTED_EDGE('',*,*,#439,.F.);
#309=ORIENTED_EDGE('',*,*,#439,.T.);
#310=ORIENTED_EDGE('',*,*,#435,.T.);
#311=ORIENTED_EDGE('',*,*,#440,.F.);
#312=ORIENTED_EDGE('',*,*,#440,.T.);
#313=ORIENTED_EDGE('',*,*,#436,.T.);
#314=EDGE_CURVE('',#441,#442,#531,.T.);
#315=EDGE_CURVE('',#441,#443,#532,.T.);
#316=EDGE_CURVE('',#442,#443,#533,.T.);
#317=EDGE_CURVE('',#444,#445,#534,.T.);
#318=EDGE_CURVE('',#444,#446,#535,.T.);
#319=EDGE_CURVE('',#445,#446,#536,.T.);
#320=EDGE_CURVE('',#447,#448,#537,.T.);
#321=EDGE_CURVE('',#449,#448,#538,.T.);
#322=EDGE_CURVE('',#450,#449,#539,.T.);
#323=EDGE_CURVE('',#450,#451,#540,.T.);
#324=EDGE_CURVE('',#452,#451,#541,.T.);
#325=EDGE_CURVE('',#452,#447,#542,.T.);
#326=EDGE_CURVE('',#453,#454,#543,.T.);
#327=EDGE_CURVE('',#454,#455,#544,.T.);
#328=EDGE_CURVE('',#453,#455,#545,.T.);
#329=EDGE_CURVE('',#456,#457,#546,.T.);
#330=EDGE_CURVE('',#457,#458,#547,.T.);
#331=EDGE_CURVE('',#456,#458,#548,.T.);
#332=EDGE_CURVE('',#459,#460,#549,.T.);
#333=EDGE_CURVE('',#459,#461,#550,.T.);
#334=EDGE_CURVE('',#461,#460,#551,.T.);
#335=EDGE_CURVE('',#462,#463,#552,.T.);
#336=EDGE_CURVE('',#462,#464,#553,.T.);
#337=EDGE_CURVE('',#464,#463,#554,.T.);
#338=EDGE_CURVE('',#465,#466,#555,.T.);
#339=EDGE_CURVE('',#467,#465,#556,.T.);
#340=EDGE_CURVE('',#467,#466,#557,.T.);
#341=EDGE_CURVE('',#468,#469,#558,.T.);
#342=EDGE_CURVE('',#470,#469,#559,.T.);
#343=EDGE_CURVE('',#470,#471,#560,.T.);
#344=EDGE_CURVE('',#471,#472,#561,.T.);
#345=EDGE_CURVE('',#473,#472,#562,.T.);
#346=EDGE_CURVE('',#468,#473,#563,.T.);
#347=EDGE_CURVE('',#474,#475,#564,.T.);
#348=EDGE_CURVE('',#476,#474,#565,.T.);
#349=EDGE_CURVE('',#476,#475,#566,.T.);
#350=EDGE_CURVE('',#477,#478,#567,.T.);
#351=EDGE_CURVE('',#472,#477,#568,.T.);
#352=EDGE_CURVE('',#471,#478,#569,.T.);
#353=EDGE_CURVE('',#479,#480,#570,.T.);
#354=EDGE_CURVE('',#479,#481,#571,.T.);
#355=EDGE_CURVE('',#481,#482,#572,.T.);
#356=EDGE_CURVE('',#480,#482,#573,.T.);
#357=EDGE_CURVE('',#483,#484,#574,.T.);
#358=EDGE_CURVE('',#483,#480,#575,.T.);
#359=EDGE_CURVE('',#484,#482,#576,.T.);
#360=EDGE_CURVE('',#485,#486,#577,.T.);
#361=EDGE_CURVE('',#485,#483,#578,.T.);
#362=EDGE_CURVE('',#486,#484,#579,.T.);
#363=EDGE_CURVE('',#487,#450,#580,.T.);
#364=EDGE_CURVE('',#487,#488,#36,.T.);
#365=EDGE_CURVE('',#489,#488,#37,.T.);
#366=EDGE_CURVE('',#489,#490,#38,.T.);
#367=EDGE_CURVE('',#470,#490,#581,.T.);
#368=EDGE_CURVE('',#469,#486,#582,.T.);
#369=EDGE_CURVE('',#481,#451,#583,.T.);
#370=EDGE_CURVE('',#491,#492,#30,.T.);
#371=EDGE_CURVE('',#492,#487,#584,.F.);
#372=EDGE_CURVE('',#493,#449,#585,.T.);
#373=EDGE_CURVE('',#494,#493,#586,.T.);
#374=EDGE_CURVE('',#495,#494,#587,.T.);
#375=EDGE_CURVE('',#495,#478,#588,.T.);
#376=EDGE_CURVE('',#490,#496,#589,.T.);
#377=EDGE_CURVE('',#496,#497,#31,.T.);
#378=EDGE_CURVE('',#497,#491,#590,.T.);
#379=EDGE_CURVE('',#498,#477,#591,.T.);
#380=EDGE_CURVE('',#498,#499,#592,.T.);
#381=EDGE_CURVE('',#499,#500,#593,.T.);
#382=EDGE_CURVE('',#500,#448,#594,.T.);
#383=EDGE_CURVE('',#473,#447,#595,.T.);
#384=EDGE_CURVE('',#500,#493,#596,.T.);
#385=EDGE_CURVE('',#485,#479,#597,.T.);
#386=EDGE_CURVE('',#468,#452,#598,.T.);
#387=EDGE_CURVE('',#501,#501,#39,.T.);
#388=EDGE_CURVE('',#502,#502,#40,.T.);
#389=EDGE_CURVE('',#503,#503,#41,.T.);
#390=EDGE_CURVE('',#504,#504,#42,.T.);
#391=EDGE_CURVE('',#505,#506,#599,.T.);
#392=EDGE_CURVE('',#507,#506,#600,.T.);
#393=EDGE_CURVE('',#508,#507,#601,.T.);
#394=EDGE_CURVE('',#508,#505,#602,.T.);
#395=EDGE_CURVE('',#505,#509,#603,.T.);
#396=EDGE_CURVE('',#508,#510,#604,.T.);
#397=EDGE_CURVE('',#510,#509,#605,.T.);
#398=EDGE_CURVE('',#509,#511,#606,.T.);
#399=EDGE_CURVE('',#510,#512,#607,.T.);
#400=EDGE_CURVE('',#512,#511,#608,.T.);
#401=EDGE_CURVE('',#498,#495,#609,.T.);
#402=EDGE_CURVE('',#499,#494,#610,.T.);
#403=EDGE_CURVE('',#506,#511,#611,.T.);
#404=EDGE_CURVE('',#507,#512,#612,.T.);
#405=EDGE_CURVE('',#513,#513,#43,.T.);
#406=EDGE_CURVE('',#514,#514,#44,.T.);
#407=EDGE_CURVE('',#515,#515,#45,.T.);
#408=EDGE_CURVE('',#516,#516,#46,.T.);
#409=EDGE_CURVE('',#517,#517,#47,.T.);
#410=EDGE_CURVE('',#518,#518,#48,.T.);
#411=EDGE_CURVE('',#454,#465,#613,.T.);
#412=EDGE_CURVE('',#455,#466,#614,.T.);
#413=EDGE_CURVE('',#453,#467,#615,.T.);
#414=EDGE_CURVE('',#457,#474,#616,.T.);
#415=EDGE_CURVE('',#458,#475,#617,.T.);
#416=EDGE_CURVE('',#456,#476,#618,.T.);
#417=EDGE_CURVE('',#445,#464,#619,.T.);
#418=EDGE_CURVE('',#444,#462,#620,.T.);
#419=EDGE_CURVE('',#446,#463,#621,.T.);
#420=EDGE_CURVE('',#442,#461,#622,.T.);
#421=EDGE_CURVE('',#441,#459,#623,.T.);
#422=EDGE_CURVE('',#443,#460,#624,.T.);
#423=EDGE_CURVE('',#488,#519,#625,.F.);
#424=EDGE_CURVE('',#520,#519,#49,.T.);
#425=EDGE_CURVE('',#521,#520,#50,.T.);
#426=EDGE_CURVE('',#522,#521,#51,.T.);
#427=EDGE_CURVE('',#522,#489,#626,.T.);
#428=EDGE_CURVE('',#520,#521,#627,.F.);
#429=EDGE_CURVE('',#496,#522,#32,.F.);
#430=EDGE_CURVE('',#497,#521,#33,.T.);
#431=EDGE_CURVE('',#491,#520,#34,.F.);
#432=EDGE_CURVE('',#492,#519,#35,.T.);
#433=EDGE_CURVE('',#523,#523,#52,.T.);
#434=EDGE_CURVE('',#524,#524,#53,.T.);
#435=EDGE_CURVE('',#525,#525,#54,.T.);
#436=EDGE_CURVE('',#526,#526,#55,.T.);
#437=EDGE_CURVE('',#527,#527,#56,.T.);
#438=EDGE_CURVE('',#528,#528,#57,.T.);
#439=EDGE_CURVE('',#529,#529,#58,.T.);
#440=EDGE_CURVE('',#530,#530,#59,.T.);
#441=VERTEX_POINT('',#1338);
#442=VERTEX_POINT('',#1339);
#443=VERTEX_POINT('',#1341);
#444=VERTEX_POINT('',#1344);
#445=VERTEX_POINT('',#1345);
#446=VERTEX_POINT('',#1347);
#447=VERTEX_POINT('',#1350);
#448=VERTEX_POINT('',#1351);
#449=VERTEX_POINT('',#1353);
#450=VERTEX_POINT('',#1355);
#451=VERTEX_POINT('',#1357);
#452=VERTEX_POINT('',#1359);
#453=VERTEX_POINT('',#1362);
#454=VERTEX_POINT('',#1363);
#455=VERTEX_POINT('',#1365);
#456=VERTEX_POINT('',#1368);
#457=VERTEX_POINT('',#1369);
#458=VERTEX_POINT('',#1371);
#459=VERTEX_POINT('',#1375);
#460=VERTEX_POINT('',#1376);
#461=VERTEX_POINT('',#1378);
#462=VERTEX_POINT('',#1381);
#463=VERTEX_POINT('',#1382);
#464=VERTEX_POINT('',#1384);
#465=VERTEX_POINT('',#1387);
#466=VERTEX_POINT('',#1388);
#467=VERTEX_POINT('',#1390);
#468=VERTEX_POINT('',#1393);
#469=VERTEX_POINT('',#1394);
#470=VERTEX_POINT('',#1396);
#471=VERTEX_POINT('',#1398);
#472=VERTEX_POINT('',#1400);
#473=VERTEX_POINT('',#1402);
#474=VERTEX_POINT('',#1405);
#475=VERTEX_POINT('',#1406);
#476=VERTEX_POINT('',#1408);
#477=VERTEX_POINT('',#1412);
#478=VERTEX_POINT('',#1413);
#479=VERTEX_POINT('',#1418);
#480=VERTEX_POINT('',#1419);
#481=VERTEX_POINT('',#1421);
#482=VERTEX_POINT('',#1423);
#483=VERTEX_POINT('',#1427);
#484=VERTEX_POINT('',#1428);
#485=VERTEX_POINT('',#1433);
#486=VERTEX_POINT('',#1434);
#487=VERTEX_POINT('',#1439);
#488=VERTEX_POINT('',#1441);
#489=VERTEX_POINT('',#1443);
#490=VERTEX_POINT('',#1445);
#491=VERTEX_POINT('',#1455);
#492=VERTEX_POINT('',#1456);
#493=VERTEX_POINT('',#1459);
#494=VERTEX_POINT('',#1461);
#495=VERTEX_POINT('',#1463);
#496=VERTEX_POINT('',#1466);
#497=VERTEX_POINT('',#1472);
#498=VERTEX_POINT('',#1476);
#499=VERTEX_POINT('',#1478);
#500=VERTEX_POINT('',#1480);
#501=VERTEX_POINT('',#1490);
#502=VERTEX_POINT('',#1492);
#503=VERTEX_POINT('',#1495);
#504=VERTEX_POINT('',#1497);
#505=VERTEX_POINT('',#1500);
#506=VERTEX_POINT('',#1501);
#507=VERTEX_POINT('',#1503);
#508=VERTEX_POINT('',#1505);
#509=VERTEX_POINT('',#1509);
#510=VERTEX_POINT('',#1511);
#511=VERTEX_POINT('',#1515);
#512=VERTEX_POINT('',#1517);
#513=VERTEX_POINT('',#1529);
#514=VERTEX_POINT('',#1531);
#515=VERTEX_POINT('',#1533);
#516=VERTEX_POINT('',#1535);
#517=VERTEX_POINT('',#1538);
#518=VERTEX_POINT('',#1542);
#519=VERTEX_POINT('',#1570);
#520=VERTEX_POINT('',#1572);
#521=VERTEX_POINT('',#1574);
#522=VERTEX_POINT('',#1576);
#523=VERTEX_POINT('',#1641);
#524=VERTEX_POINT('',#1644);
#525=VERTEX_POINT('',#1647);
#526=VERTEX_POINT('',#1650);
#527=VERTEX_POINT('',#1653);
#528=VERTEX_POINT('',#1657);
#529=VERTEX_POINT('',#1661);
#530=VERTEX_POINT('',#1665);
#531=LINE('',#1337,#628);
#532=LINE('',#1340,#629);
#533=LINE('',#1342,#630);
#534=LINE('',#1343,#631);
#535=LINE('',#1346,#632);
#536=LINE('',#1348,#633);
#537=LINE('',#1349,#634);
#538=LINE('',#1352,#635);
#539=LINE('',#1354,#636);
#540=LINE('',#1356,#637);
#541=LINE('',#1358,#638);
#542=LINE('',#1360,#639);
#543=LINE('',#1361,#640);
#544=LINE('',#1364,#641);
#545=LINE('',#1366,#642);
#546=LINE('',#1367,#643);
#547=LINE('',#1370,#644);
#548=LINE('',#1372,#645);
#549=LINE('',#1374,#646);
#550=LINE('',#1377,#647);
#551=LINE('',#1379,#648);
#552=LINE('',#1380,#649);
#553=LINE('',#1383,#650);
#554=LINE('',#1385,#651);
#555=LINE('',#1386,#652);
#556=LINE('',#1389,#653);
#557=LINE('',#1391,#654);
#558=LINE('',#1392,#655);
#559=LINE('',#1395,#656);
#560=LINE('',#1397,#657);
#561=LINE('',#1399,#658);
#562=LINE('',#1401,#659);
#563=LINE('',#1403,#660);
#564=LINE('',#1404,#661);
#565=LINE('',#1407,#662);
#566=LINE('',#1409,#663);
#567=LINE('',#1411,#664);
#568=LINE('',#1414,#665);
#569=LINE('',#1415,#666);
#570=LINE('',#1417,#667);
#571=LINE('',#1420,#668);
#572=LINE('',#1422,#669);
#573=LINE('',#1424,#670);
#574=LINE('',#1426,#671);
#575=LINE('',#1429,#672);
#576=LINE('',#1430,#673);
#577=LINE('',#1432,#674);
#578=LINE('',#1435,#675);
#579=LINE('',#1436,#676);
#580=LINE('',#1438,#677);
#581=LINE('',#1446,#678);
#582=LINE('',#1447,#679);
#583=LINE('',#1448,#680);
#584=LINE('',#1457,#681);
#585=LINE('',#1458,#682);
#586=LINE('',#1460,#683);
#587=LINE('',#1462,#684);
#588=LINE('',#1464,#685);
#589=LINE('',#1465,#686);
#590=LINE('',#1473,#687);
#591=LINE('',#1475,#688);
#592=LINE('',#1477,#689);
#593=LINE('',#1479,#690);
#594=LINE('',#1481,#691);
#595=LINE('',#1482,#692);
#596=LINE('',#1484,#693);
#597=LINE('',#1486,#694);
#598=LINE('',#1487,#695);
#599=LINE('',#1499,#696);
#600=LINE('',#1502,#697);
#601=LINE('',#1504,#698);
#602=LINE('',#1506,#699);
#603=LINE('',#1508,#700);
#604=LINE('',#1510,#701);
#605=LINE('',#1512,#702);
#606=LINE('',#1514,#703);
#607=LINE('',#1516,#704);
#608=LINE('',#1518,#705);
#609=LINE('',#1520,#706);
#610=LINE('',#1522,#707);
#611=LINE('',#1524,#708);
#612=LINE('',#1525,#709);
#613=LINE('',#1545,#710);
#614=LINE('',#1546,#711);
#615=LINE('',#1548,#712);
#616=LINE('',#1551,#713);
#617=LINE('',#1552,#714);
#618=LINE('',#1554,#715);
#619=LINE('',#1557,#716);
#620=LINE('',#1558,#717);
#621=LINE('',#1560,#718);
#622=LINE('',#1563,#719);
#623=LINE('',#1564,#720);
#624=LINE('',#1566,#721);
#625=LINE('',#1569,#722);
#626=LINE('',#1577,#723);
#627=LINE('',#1579,#724);
#628=VECTOR('',#1084,1.);
#629=VECTOR('',#1085,1.);
#630=VECTOR('',#1086,1.);
#631=VECTOR('',#1087,1.);
#632=VECTOR('',#1088,1.);
#633=VECTOR('',#1089,1.);
#634=VECTOR('',#1090,1.);
#635=VECTOR('',#1091,1.);
#636=VECTOR('',#1092,1.);
#637=VECTOR('',#1093,1.);
#638=VECTOR('',#1094,1.);
#639=VECTOR('',#1095,1.);
#640=VECTOR('',#1096,1.);
#641=VECTOR('',#1097,1.);
#642=VECTOR('',#1098,1.);
#643=VECTOR('',#1099,1.);
#644=VECTOR('',#1100,1.);
#645=VECTOR('',#1101,1.);
#646=VECTOR('',#1104,1.);
#647=VECTOR('',#1105,1.);
#648=VECTOR('',#1106,1.);
#649=VECTOR('',#1107,1.);
#650=VECTOR('',#1108,1.);
#651=VECTOR('',#1109,1.);
#652=VECTOR('',#1110,1.);
#653=VECTOR('',#1111,1.);
#654=VECTOR('',#1112,1.);
#655=VECTOR('',#1113,1.);
#656=VECTOR('',#1114,1.);
#657=VECTOR('',#1115,1.);
#658=VECTOR('',#1116,1.);
#659=VECTOR('',#1117,1.);
#660=VECTOR('',#1118,1.);
#661=VECTOR('',#1119,1.);
#662=VECTOR('',#1120,1.);
#663=VECTOR('',#1121,1.);
#664=VECTOR('',#1124,1.);
#665=VECTOR('',#1125,1.);
#666=VECTOR('',#1126,1.);
#667=VECTOR('',#1129,1.);
#668=VECTOR('',#1130,1.);
#669=VECTOR('',#1131,1.);
#670=VECTOR('',#1132,1.);
#671=VECTOR('',#1135,1.);
#672=VECTOR('',#1136,1.);
#673=VECTOR('',#1137,1.);
#674=VECTOR('',#1140,1.);
#675=VECTOR('',#1141,1.);
#676=VECTOR('',#1142,1.);
#677=VECTOR('',#1145,1.);
#678=VECTOR('',#1152,1.);
#679=VECTOR('',#1153,1.);
#680=VECTOR('',#1154,1.);
#681=VECTOR('',#1157,1.);
#682=VECTOR('',#1158,1.);
#683=VECTOR('',#1159,1.);
#684=VECTOR('',#1160,1.);
#685=VECTOR('',#1161,1.);
#686=VECTOR('',#1162,1.);
#687=VECTOR('',#1163,1.);
#688=VECTOR('',#1166,1.);
#689=VECTOR('',#1167,1.);
#690=VECTOR('',#1168,1.);
#691=VECTOR('',#1169,1.);
#692=VECTOR('',#1170,1.);
#693=VECTOR('',#1173,1.);
#694=VECTOR('',#1176,1.);
#695=VECTOR('',#1177,1.);
#696=VECTOR('',#1192,1.);
#697=VECTOR('',#1193,1.);
#698=VECTOR('',#1194,1.);
#699=VECTOR('',#1195,1.);
#700=VECTOR('',#1198,1.);
#701=VECTOR('',#1199,1.);
#702=VECTOR('',#1200,1.);
#703=VECTOR('',#1203,1.);
#704=VECTOR('',#1204,1.);
#705=VECTOR('',#1205,1.);
#706=VECTOR('',#1208,1.);
#707=VECTOR('',#1211,1.);
#708=VECTOR('',#1214,1.);
#709=VECTOR('',#1215,1.);
#710=VECTOR('',#1242,1.);
#711=VECTOR('',#1243,1.);
#712=VECTOR('',#1246,1.);
#713=VECTOR('',#1251,1.);
#714=VECTOR('',#1252,1.);
#715=VECTOR('',#1255,1.);
#716=VECTOR('',#1260,1.);
#717=VECTOR('',#1261,1.);
#718=VECTOR('',#1264,1.);
#719=VECTOR('',#1269,1.);
#720=VECTOR('',#1270,1.);
#721=VECTOR('',#1273,1.);
#722=VECTOR('',#1278,1.);
#723=VECTOR('',#1285,1.);
#724=VECTOR('',#1288,1.);
#725=EDGE_LOOP('',(#60,#61,#62));
#726=EDGE_LOOP('',(#63,#64,#65));
#727=EDGE_LOOP('',(#66,#67,#68,#69,#70,#71));
#728=EDGE_LOOP('',(#72,#73,#74));
#729=EDGE_LOOP('',(#75,#76,#77));
#730=EDGE_LOOP('',(#78,#79,#80));
#731=EDGE_LOOP('',(#81,#82,#83));
#732=EDGE_LOOP('',(#84,#85,#86));
#733=EDGE_LOOP('',(#87,#88,#89,#90,#91,#92));
#734=EDGE_LOOP('',(#93,#94,#95));
#735=EDGE_LOOP('',(#96,#97,#98,#99));
#736=EDGE_LOOP('',(#100,#101,#102,#103));
#737=EDGE_LOOP('',(#104,#105,#106,#107));
#738=EDGE_LOOP('',(#108,#109,#110,#111));
#739=EDGE_LOOP('',(#112,#113,#114,#115,#116,#117,#118,#119,#120,#121,#122,
#123));
#740=EDGE_LOOP('',(#124,#125,#126,#127,#128,#129,#130,#131,#132,#133,#134,
#135,#136,#137));
#741=EDGE_LOOP('',(#138,#139,#140,#141,#142,#143,#144,#145));
#742=EDGE_LOOP('',(#146,#147,#148,#149));
#743=EDGE_LOOP('',(#150,#151,#152,#153,#154,#155,#156,#157));
#744=EDGE_LOOP('',(#158));
#745=EDGE_LOOP('',(#159));
#746=EDGE_LOOP('',(#160,#161,#162,#163));
#747=EDGE_LOOP('',(#164));
#748=EDGE_LOOP('',(#165));
#749=EDGE_LOOP('',(#166,#167,#168,#169));
#750=EDGE_LOOP('',(#170,#171,#172,#173));
#751=EDGE_LOOP('',(#174,#175,#176,#177));
#752=EDGE_LOOP('',(#178,#179,#180,#181));
#753=EDGE_LOOP('',(#182,#183,#184,#185));
#754=EDGE_LOOP('',(#186,#187,#188,#189));
#755=EDGE_LOOP('',(#190,#191,#192,#193));
#756=EDGE_LOOP('',(#194,#195,#196,#197));
#757=EDGE_LOOP('',(#198,#199,#200,#201));
#758=EDGE_LOOP('',(#202));
#759=EDGE_LOOP('',(#203));
#760=EDGE_LOOP('',(#204));
#761=EDGE_LOOP('',(#205));
#762=EDGE_LOOP('',(#206,#207,#208,#209));
#763=EDGE_LOOP('',(#210));
#764=EDGE_LOOP('',(#211));
#765=EDGE_LOOP('',(#212));
#766=EDGE_LOOP('',(#213));
#767=EDGE_LOOP('',(#214));
#768=EDGE_LOOP('',(#215));
#769=EDGE_LOOP('',(#216));
#770=EDGE_LOOP('',(#217));
#771=EDGE_LOOP('',(#218,#219,#220,#221));
#772=EDGE_LOOP('',(#222,#223,#224,#225));
#773=EDGE_LOOP('',(#226,#227,#228,#229));
#774=EDGE_LOOP('',(#230,#231,#232,#233));
#775=EDGE_LOOP('',(#234,#235,#236,#237));
#776=EDGE_LOOP('',(#238,#239,#240,#241));
#777=EDGE_LOOP('',(#242,#243,#244,#245));
#778=EDGE_LOOP('',(#246,#247,#248,#249));
#779=EDGE_LOOP('',(#250,#251,#252,#253));
#780=EDGE_LOOP('',(#254,#255,#256,#257));
#781=EDGE_LOOP('',(#258,#259,#260,#261));
#782=EDGE_LOOP('',(#262,#263,#264,#265));
#783=EDGE_LOOP('',(#266,#267,#268,#269,#270,#271));
#784=EDGE_LOOP('',(#272,#273));
#785=EDGE_LOOP('',(#274,#275,#276,#277));
#786=EDGE_LOOP('',(#278,#279,#280,#281));
#787=EDGE_LOOP('',(#282,#283,#284,#285));
#788=EDGE_LOOP('',(#286,#287,#288,#289));
#789=EDGE_LOOP('',(#290,#291,#292,#293));
#790=EDGE_LOOP('',(#294));
#791=EDGE_LOOP('',(#295));
#792=EDGE_LOOP('',(#296));
#793=EDGE_LOOP('',(#297));
#794=EDGE_LOOP('',(#298));
#795=EDGE_LOOP('',(#299));
#796=EDGE_LOOP('',(#300));
#797=EDGE_LOOP('',(#301));
#798=EDGE_LOOP('',(#302));
#799=EDGE_LOOP('',(#303));
#800=EDGE_LOOP('',(#304));
#801=EDGE_LOOP('',(#305));
#802=EDGE_LOOP('',(#306));
#803=EDGE_LOOP('',(#307));
#804=EDGE_LOOP('',(#308));
#805=EDGE_LOOP('',(#309));
#806=EDGE_LOOP('',(#310));
#807=EDGE_LOOP('',(#311));
#808=EDGE_LOOP('',(#312));
#809=EDGE_LOOP('',(#313));
#810=FACE_BOUND('',#725,.T.);
#811=FACE_BOUND('',#726,.T.);
#812=FACE_BOUND('',#727,.T.);
#813=FACE_BOUND('',#728,.T.);
#814=FACE_BOUND('',#729,.T.);
#815=FACE_BOUND('',#730,.T.);
#816=FACE_BOUND('',#731,.T.);
#817=FACE_BOUND('',#732,.T.);
#818=FACE_BOUND('',#733,.T.);
#819=FACE_BOUND('',#734,.T.);
#820=FACE_BOUND('',#735,.T.);
#821=FACE_BOUND('',#736,.T.);
#822=FACE_BOUND('',#737,.T.);
#823=FACE_BOUND('',#738,.T.);
#824=FACE_BOUND('',#739,.T.);
#825=FACE_BOUND('',#740,.T.);
#826=FACE_BOUND('',#741,.T.);
#827=FACE_BOUND('',#742,.T.);
#828=FACE_BOUND('',#743,.T.);
#829=FACE_BOUND('',#744,.T.);
#830=FACE_BOUND('',#745,.T.);
#831=FACE_BOUND('',#746,.T.);
#832=FACE_BOUND('',#747,.T.);
#833=FACE_BOUND('',#748,.T.);
#834=FACE_BOUND('',#749,.T.);
#835=FACE_BOUND('',#750,.T.);
#836=FACE_BOUND('',#751,.T.);
#837=FACE_BOUND('',#752,.T.);
#838=FACE_BOUND('',#753,.T.);
#839=FACE_BOUND('',#754,.T.);
#840=FACE_BOUND('',#755,.T.);
#841=FACE_BOUND('',#756,.T.);
#842=FACE_BOUND('',#757,.T.);
#843=FACE_BOUND('',#758,.T.);
#844=FACE_BOUND('',#759,.T.);
#845=FACE_BOUND('',#760,.T.);
#846=FACE_BOUND('',#761,.T.);
#847=FACE_BOUND('',#762,.T.);
#848=FACE_BOUND('',#763,.T.);
#849=FACE_BOUND('',#764,.T.);
#850=FACE_BOUND('',#765,.T.);
#851=FACE_BOUND('',#766,.T.);
#852=FACE_BOUND('',#767,.T.);
#853=FACE_BOUND('',#768,.T.);
#854=FACE_BOUND('',#769,.T.);
#855=FACE_BOUND('',#770,.T.);
#856=FACE_BOUND('',#771,.T.);
#857=FACE_BOUND('',#772,.T.);
#858=FACE_BOUND('',#773,.T.);
#859=FACE_BOUND('',#774,.T.);
#860=FACE_BOUND('',#775,.T.);
#861=FACE_BOUND('',#776,.T.);
#862=FACE_BOUND('',#777,.T.);
#863=FACE_BOUND('',#778,.T.);
#864=FACE_BOUND('',#779,.T.);
#865=FACE_BOUND('',#780,.T.);
#866=FACE_BOUND('',#781,.T.);
#867=FACE_BOUND('',#782,.T.);
#868=FACE_BOUND('',#783,.T.);
#869=FACE_BOUND('',#784,.T.);
#870=FACE_BOUND('',#785,.T.);
#871=FACE_BOUND('',#786,.T.);
#872=FACE_BOUND('',#787,.T.);
#873=FACE_BOUND('',#788,.T.);
#874=FACE_BOUND('',#789,.T.);
#875=FACE_BOUND('',#790,.T.);
#876=FACE_BOUND('',#791,.T.);
#877=FACE_BOUND('',#792,.T.);
#878=FACE_BOUND('',#793,.T.);
#879=FACE_BOUND('',#794,.T.);
#880=FACE_BOUND('',#795,.T.);
#881=FACE_BOUND('',#796,.T.);
#882=FACE_BOUND('',#797,.T.);
#883=FACE_BOUND('',#798,.T.);
#884=FACE_BOUND('',#799,.T.);
#885=FACE_BOUND('',#800,.T.);
#886=FACE_BOUND('',#801,.T.);
#887=FACE_BOUND('',#802,.T.);
#888=FACE_BOUND('',#803,.T.);
#889=FACE_BOUND('',#804,.T.);
#890=FACE_BOUND('',#805,.T.);
#891=FACE_BOUND('',#806,.T.);
#892=FACE_BOUND('',#807,.T.);
#893=FACE_BOUND('',#808,.T.);
#894=FACE_BOUND('',#809,.T.);
#895=PLANE('',#1002);
#896=PLANE('',#1003);
#897=PLANE('',#1004);
#898=PLANE('',#1005);
#899=PLANE('',#1006);
#900=PLANE('',#1007);
#901=PLANE('',#1008);
#902=PLANE('',#1012);
#903=PLANE('',#1013);
#904=PLANE('',#1014);
#905=PLANE('',#1015);
#906=PLANE('',#1016);
#907=PLANE('',#1019);
#908=PLANE('',#1022);
#909=PLANE('',#1023);
#910=PLANE('',#1024);
#911=PLANE('',#1025);
#912=PLANE('',#1026);
#913=PLANE('',#1027);
#914=PLANE('',#1028);
#915=PLANE('',#1029);
#916=PLANE('',#1040);
#917=PLANE('',#1041);
#918=PLANE('',#1042);
#919=PLANE('',#1043);
#920=PLANE('',#1044);
#921=PLANE('',#1045);
#922=PLANE('',#1046);
#923=PLANE('',#1047);
#924=PLANE('',#1048);
#925=PLANE('',#1049);
#926=PLANE('',#1050);
#927=PLANE('',#1051);
#928=PLANE('',#1056);
#929=PLANE('',#1068);
#930=PLANE('',#1071);
#931=PLANE('',#1074);
#932=PLANE('',#1077);
#933=ADVANCED_FACE('',(#810,#811,#812,#813,#814),#895,.T.);
#934=ADVANCED_FACE('',(#815,#816,#817,#818,#819),#896,.F.);
#935=ADVANCED_FACE('',(#820),#897,.F.);
#936=ADVANCED_FACE('',(#821),#898,.F.);
#937=ADVANCED_FACE('',(#822),#899,.T.);
#938=ADVANCED_FACE('',(#823),#900,.T.);
#939=ADVANCED_FACE('',(#824),#901,.T.);
#940=ADVANCED_FACE('',(#825),#902,.T.);
#941=ADVANCED_FACE('',(#826),#903,.F.);
#942=ADVANCED_FACE('',(#827),#904,.F.);
#943=ADVANCED_FACE('',(#828),#905,.T.);
#944=ADVANCED_FACE('',(#829,#830,#831),#906,.T.);
#945=ADVANCED_FACE('',(#832,#833,#834),#907,.F.);
#946=ADVANCED_FACE('',(#835),#908,.F.);
#947=ADVANCED_FACE('',(#836),#909,.T.);
#948=ADVANCED_FACE('',(#837),#910,.T.);
#949=ADVANCED_FACE('',(#838),#911,.F.);
#950=ADVANCED_FACE('',(#839),#912,.T.);
#951=ADVANCED_FACE('',(#840),#913,.F.);
#952=ADVANCED_FACE('',(#841,#842),#914,.F.);
#953=ADVANCED_FACE('',(#843,#844,#845,#846,#847),#915,.F.);
#954=ADVANCED_FACE('',(#848,#849),#20,.F.);
#955=ADVANCED_FACE('',(#850,#851),#14,.F.);
#956=ADVANCED_FACE('',(#852,#853),#21,.F.);
#957=ADVANCED_FACE('',(#854,#855),#15,.F.);
#958=ADVANCED_FACE('',(#856),#916,.T.);
#959=ADVANCED_FACE('',(#857),#917,.T.);
#960=ADVANCED_FACE('',(#858),#918,.F.);
#961=ADVANCED_FACE('',(#859),#919,.T.);
#962=ADVANCED_FACE('',(#860),#920,.T.);
#963=ADVANCED_FACE('',(#861),#921,.F.);
#964=ADVANCED_FACE('',(#862),#922,.F.);
#965=ADVANCED_FACE('',(#863),#923,.F.);
#966=ADVANCED_FACE('',(#864),#924,.T.);
#967=ADVANCED_FACE('',(#865),#925,.F.);
#968=ADVANCED_FACE('',(#866),#926,.F.);
#969=ADVANCED_FACE('',(#867),#927,.T.);
#970=ADVANCED_FACE('',(#868),#22,.F.);
#971=ADVANCED_FACE('',(#869),#928,.T.);
#972=ADVANCED_FACE('',(#870),#23,.T.);
#973=ADVANCED_FACE('',(#871),#12,.T.);
#974=ADVANCED_FACE('',(#872),#24,.T.);
#975=ADVANCED_FACE('',(#873),#13,.T.);
#976=ADVANCED_FACE('',(#874),#25,.T.);
#977=ADVANCED_FACE('',(#875,#876),#16,.F.);
#978=ADVANCED_FACE('',(#877,#878),#17,.F.);
#979=ADVANCED_FACE('',(#879,#880),#18,.F.);
#980=ADVANCED_FACE('',(#881,#882),#19,.F.);
#981=ADVANCED_FACE('',(#883),#929,.F.);
#982=ADVANCED_FACE('',(#884,#885),#26,.F.);
#983=ADVANCED_FACE('',(#886),#930,.F.);
#984=ADVANCED_FACE('',(#887,#888),#27,.F.);
#985=ADVANCED_FACE('',(#889),#931,.F.);
#986=ADVANCED_FACE('',(#890,#891),#28,.F.);
#987=ADVANCED_FACE('',(#892),#932,.F.);
#988=ADVANCED_FACE('',(#893,#894),#29,.F.);
#989=CLOSED_SHELL('',(#933,#934,#935,#936,#937,#938,#939,#940,#941,#942,
#943,#944,#945,#946,#947,#948,#949,#950,#951,#952,#953,#954,#955,#956,#957,
#958,#959,#960,#961,#962,#963,#964,#965,#966,#967,#968,#969,#970,#971,#972,
#973,#974,#975,#976,#977,#978,#979,#980,#981,#982,#983,#984,#985,#986,#987,
#988));
#990=STYLED_ITEM('',(#991),#998);
#991=PRESENTATION_STYLE_ASSIGNMENT((#992));
#992=SURFACE_STYLE_USAGE(.BOTH.,#993);
#993=SURFACE_SIDE_STYLE('',(#994));
#994=SURFACE_STYLE_FILL_AREA(#995);
#995=FILL_AREA_STYLE('',(#996));
#996=FILL_AREA_STYLE_COLOUR('',#997);
#997=COLOUR_RGB('',0.866666666666667,0.32156862745098,0.156862745098039);
#998=MANIFOLD_SOLID_BREP('Part 2',#989);
#999=SHAPE_DEFINITION_REPRESENTATION(#1673,#1000);
#1000=SHAPE_REPRESENTATION('Part 2',(#1001),#1668);
#1001=AXIS2_PLACEMENT_3D('',#1335,#1080,#1081);
#1002=AXIS2_PLACEMENT_3D('',#1336,#1082,#1083);
#1003=AXIS2_PLACEMENT_3D('',#1373,#1102,#1103);
#1004=AXIS2_PLACEMENT_3D('',#1410,#1122,#1123);
#1005=AXIS2_PLACEMENT_3D('',#1416,#1127,#1128);
#1006=AXIS2_PLACEMENT_3D('',#1425,#1133,#1134);
#1007=AXIS2_PLACEMENT_3D('',#1431,#1138,#1139);
#1008=AXIS2_PLACEMENT_3D('',#1437,#1143,#1144);
#1009=AXIS2_PLACEMENT_3D('',#1440,#1146,#1147);
#1010=AXIS2_PLACEMENT_3D('',#1442,#1148,#1149);
#1011=AXIS2_PLACEMENT_3D('',#1444,#1150,#1151);
#1012=AXIS2_PLACEMENT_3D('',#1449,#1155,#1156);
#1013=AXIS2_PLACEMENT_3D('',#1474,#1164,#1165);
#1014=AXIS2_PLACEMENT_3D('',#1483,#1171,#1172);
#1015=AXIS2_PLACEMENT_3D('',#1485,#1174,#1175);
#1016=AXIS2_PLACEMENT_3D('',#1488,#1178,#1179);
#1017=AXIS2_PLACEMENT_3D('',#1489,#1180,#1181);
#1018=AXIS2_PLACEMENT_3D('',#1491,#1182,#1183);
#1019=AXIS2_PLACEMENT_3D('',#1493,#1184,#1185);
#1020=AXIS2_PLACEMENT_3D('',#1494,#1186,#1187);
#1021=AXIS2_PLACEMENT_3D('',#1496,#1188,#1189);
#1022=AXIS2_PLACEMENT_3D('',#1498,#1190,#1191);
#1023=AXIS2_PLACEMENT_3D('',#1507,#1196,#1197);
#1024=AXIS2_PLACEMENT_3D('',#1513,#1201,#1202);
#1025=AXIS2_PLACEMENT_3D('',#1519,#1206,#1207);
#1026=AXIS2_PLACEMENT_3D('',#1521,#1209,#1210);
#1027=AXIS2_PLACEMENT_3D('',#1523,#1212,#1213);
#1028=AXIS2_PLACEMENT_3D('',#1526,#1216,#1217);
#1029=AXIS2_PLACEMENT_3D('',#1527,#1218,#1219);
#1030=AXIS2_PLACEMENT_3D('',#1528,#1220,#1221);
#1031=AXIS2_PLACEMENT_3D('',#1530,#1222,#1223);
#1032=AXIS2_PLACEMENT_3D('',#1532,#1224,#1225);
#1033=AXIS2_PLACEMENT_3D('',#1534,#1226,#1227);
#1034=AXIS2_PLACEMENT_3D('',#1536,#1228,#1229);
#1035=AXIS2_PLACEMENT_3D('',#1537,#1230,#1231);
#1036=AXIS2_PLACEMENT_3D('',#1539,#1232,#1233);
#1037=AXIS2_PLACEMENT_3D('',#1540,#1234,#1235);
#1038=AXIS2_PLACEMENT_3D('',#1541,#1236,#1237);
#1039=AXIS2_PLACEMENT_3D('',#1543,#1238,#1239);
#1040=AXIS2_PLACEMENT_3D('',#1544,#1240,#1241);
#1041=AXIS2_PLACEMENT_3D('',#1547,#1244,#1245);
#1042=AXIS2_PLACEMENT_3D('',#1549,#1247,#1248);
#1043=AXIS2_PLACEMENT_3D('',#1550,#1249,#1250);
#1044=AXIS2_PLACEMENT_3D('',#1553,#1253,#1254);
#1045=AXIS2_PLACEMENT_3D('',#1555,#1256,#1257);
#1046=AXIS2_PLACEMENT_3D('',#1556,#1258,#1259);
#1047=AXIS2_PLACEMENT_3D('',#1559,#1262,#1263);
#1048=AXIS2_PLACEMENT_3D('',#1561,#1265,#1266);
#1049=AXIS2_PLACEMENT_3D('',#1562,#1267,#1268);
#1050=AXIS2_PLACEMENT_3D('',#1565,#1271,#1272);
#1051=AXIS2_PLACEMENT_3D('',#1567,#1274,#1275);
#1052=AXIS2_PLACEMENT_3D('',#1568,#1276,#1277);
#1053=AXIS2_PLACEMENT_3D('',#1571,#1279,#1280);
#1054=AXIS2_PLACEMENT_3D('',#1573,#1281,#1282);
#1055=AXIS2_PLACEMENT_3D('',#1575,#1283,#1284);
#1056=AXIS2_PLACEMENT_3D('',#1578,#1286,#1287);
#1057=AXIS2_PLACEMENT_3D('',#1580,#1289,#1290);
#1058=AXIS2_PLACEMENT_3D('',#1609,#1291,#1292);
#1059=AXIS2_PLACEMENT_3D('',#1638,#1293,#1294);
#1060=AXIS2_PLACEMENT_3D('',#1639,#1295,#1296);
#1061=AXIS2_PLACEMENT_3D('',#1640,#1297,#1298);
#1062=AXIS2_PLACEMENT_3D('',#1642,#1299,#1300);
#1063=AXIS2_PLACEMENT_3D('',#1643,#1301,#1302);
#1064=AXIS2_PLACEMENT_3D('',#1645,#1303,#1304);
#1065=AXIS2_PLACEMENT_3D('',#1646,#1305,#1306);
#1066=AXIS2_PLACEMENT_3D('',#1648,#1307,#1308);
#1067=AXIS2_PLACEMENT_3D('',#1649,#1309,#1310);
#1068=AXIS2_PLACEMENT_3D('',#1651,#1311,#1312);
#1069=AXIS2_PLACEMENT_3D('',#1652,#1313,#1314);
#1070=AXIS2_PLACEMENT_3D('',#1654,#1315,#1316);
#1071=AXIS2_PLACEMENT_3D('',#1655,#1317,#1318);
#1072=AXIS2_PLACEMENT_3D('',#1656,#1319,#1320);
#1073=AXIS2_PLACEMENT_3D('',#1658,#1321,#1322);
#1074=AXIS2_PLACEMENT_3D('',#1659,#1323,#1324);
#1075=AXIS2_PLACEMENT_3D('',#1660,#1325,#1326);
#1076=AXIS2_PLACEMENT_3D('',#1662,#1327,#1328);
#1077=AXIS2_PLACEMENT_3D('',#1663,#1329,#1330);
#1078=AXIS2_PLACEMENT_3D('',#1664,#1331,#1332);
#1079=AXIS2_PLACEMENT_3D('',#1666,#1333,#1334);
#1080=DIRECTION('',(0.,0.,1.));
#1081=DIRECTION('',(1.,0.,0.));
#1082=DIRECTION('',(1.,0.,0.));
#1083=DIRECTION('',(0.,0.,-1.));
#1084=DIRECTION('',(0.,1.,1.46569764574527E-16));
#1085=DIRECTION('',(0.,0.707106781186547,0.707106781186548));
#1086=DIRECTION('',(0.,-0.707106781186547,0.707106781186548));
#1087=DIRECTION('',(0.,0.,1.));
#1088=DIRECTION('',(0.,-0.707106781186547,0.707106781186549));
#1089=DIRECTION('',(0.,-0.707106781186548,-0.707106781186548));
#1090=DIRECTION('',(0.,1.,0.));
#1091=DIRECTION('',(0.,0.,-1.));
#1092=DIRECTION('',(0.,1.,0.));
#1093=DIRECTION('',(0.,0.,-1.));
#1094=DIRECTION('',(0.,1.,0.));
#1095=DIRECTION('',(0.,0.,-1.));
#1096=DIRECTION('',(0.,1.,0.));
#1097=DIRECTION('',(0.,-0.707106781186547,-0.707106781186548));
#1098=DIRECTION('',(0.,0.707106781186547,-0.707106781186548));
#1099=DIRECTION('',(0.,-5.95173854828815E-16,1.));
#1100=DIRECTION('',(0.,0.707106781186547,-0.707106781186548));
#1101=DIRECTION('',(0.,0.707106781186547,0.707106781186549));
#1102=DIRECTION('',(1.,0.,0.));
#1103=DIRECTION('',(0.,0.,-1.));
#1104=DIRECTION('',(0.,0.707106781186547,0.707106781186548));
#1105=DIRECTION('',(0.,1.,1.46569764574527E-16));
#1106=DIRECTION('',(0.,-0.707106781186547,0.707106781186548));
#1107=DIRECTION('',(0.,-0.707106781186547,0.707106781186549));
#1108=DIRECTION('',(0.,0.,1.));
#1109=DIRECTION('',(0.,-0.707106781186548,-0.707106781186548));
#1110=DIRECTION('',(0.,-0.707106781186547,-0.707106781186548));
#1111=DIRECTION('',(0.,1.,0.));
#1112=DIRECTION('',(0.,0.707106781186547,-0.707106781186548));
#1113=DIRECTION('',(0.,1.,0.));
#1114=DIRECTION('',(0.,0.,-1.));
#1115=DIRECTION('',(0.,1.,0.));
#1116=DIRECTION('',(0.,0.,-1.));
#1117=DIRECTION('',(0.,1.,0.));
#1118=DIRECTION('',(0.,0.,-1.));
#1119=DIRECTION('',(0.,0.707106781186547,-0.707106781186548));
#1120=DIRECTION('',(0.,-5.95173854828815E-16,1.));
#1121=DIRECTION('',(0.,0.707106781186547,0.707106781186549));
#1122=DIRECTION('',(0.,-1.,0.));
#1123=DIRECTION('',(1.,0.,0.));
#1124=DIRECTION('',(4.01092133173828E-17,0.,1.));
#1125=DIRECTION('',(1.,0.,0.));
#1126=DIRECTION('',(1.,0.,0.));
#1127=DIRECTION('',(1.,0.,2.85160023448242E-16));
#1128=DIRECTION('',(2.85160023448242E-16,0.,-1.));
#1129=DIRECTION('',(2.85160023448242E-16,0.,-1.));
#1130=DIRECTION('',(0.,1.,0.));
#1131=DIRECTION('',(2.85160023448242E-16,0.,-1.));
#1132=DIRECTION('',(0.,1.,0.));
#1133=DIRECTION('',(1.19636101791504E-16,0.,1.));
#1134=DIRECTION('',(1.,0.,-1.19636101791504E-16));
#1135=DIRECTION('',(0.,1.,0.));
#1136=DIRECTION('',(1.,0.,-1.19636101791504E-16));
#1137=DIRECTION('',(1.,0.,-1.19636101791504E-16));
#1138=DIRECTION('',(1.,0.,-2.85160023448242E-16));
#1139=DIRECTION('',(-2.85160023448242E-16,0.,-1.));
#1140=DIRECTION('',(0.,1.,0.));
#1141=DIRECTION('',(-2.85160023448242E-16,0.,-1.));
#1142=DIRECTION('',(-2.85160023448242E-16,0.,-1.));
#1143=DIRECTION('',(0.,-1.,0.));
#1144=DIRECTION('',(1.,0.,0.));
#1145=DIRECTION('',(1.,0.,0.));
#1146=DIRECTION('',(0.,-1.,0.));
#1147=DIRECTION('',(0.,0.,-1.));
#1148=DIRECTION('',(0.,-1.,0.));
#1149=DIRECTION('',(0.,0.,-1.));
#1150=DIRECTION('',(0.,-1.,0.));
#1151=DIRECTION('',(0.,0.,-1.));
#1152=DIRECTION('',(1.,0.,0.));
#1153=DIRECTION('',(1.,0.,0.));
#1154=DIRECTION('',(1.,0.,0.));
#1155=DIRECTION('',(0.,0.,1.));
#1156=DIRECTION('',(1.,0.,0.));
#1157=DIRECTION('',(0.,1.,0.));
#1158=DIRECTION('',(1.,0.,0.));
#1159=DIRECTION('',(0.,-1.,0.));
#1160=DIRECTION('',(1.,0.,0.));
#1161=DIRECTION('',(0.,-1.,0.));
#1162=DIRECTION('',(0.,1.,0.));
#1163=DIRECTION('',(1.,0.,0.));
#1164=DIRECTION('',(0.,0.,1.));
#1165=DIRECTION('',(1.,0.,0.));
#1166=DIRECTION('',(0.,-1.,0.));
#1167=DIRECTION('',(1.,0.,0.));
#1168=DIRECTION('',(0.,-1.,0.));
#1169=DIRECTION('',(1.,0.,0.));
#1170=DIRECTION('',(1.,0.,0.));
#1171=DIRECTION('',(0.,-1.,0.));
#1172=DIRECTION('',(1.,0.,0.));
#1173=DIRECTION('',(4.01092133173828E-17,0.,1.));
#1174=DIRECTION('',(0.,0.,1.));
#1175=DIRECTION('',(1.,0.,0.));
#1176=DIRECTION('',(1.,0.,0.));
#1177=DIRECTION('',(1.,0.,0.));
#1178=DIRECTION('',(0.,-1.,0.));
#1179=DIRECTION('',(1.,0.,0.));
#1180=DIRECTION('',(0.,1.,0.));
#1181=DIRECTION('',(0.,0.,1.));
#1182=DIRECTION('',(0.,1.,0.));
#1183=DIRECTION('',(0.,0.,1.));
#1184=DIRECTION('',(0.,-1.,0.));
#1185=DIRECTION('',(1.,0.,0.));
#1186=DIRECTION('',(0.,1.,0.));
#1187=DIRECTION('',(0.,0.,1.));
#1188=DIRECTION('',(0.,1.,0.));
#1189=DIRECTION('',(0.,0.,1.));
#1190=DIRECTION('',(0.,0.,-1.));
#1191=DIRECTION('',(-1.,0.,0.));
#1192=DIRECTION('',(1.,0.,0.));
#1193=DIRECTION('',(0.,-1.,0.));
#1194=DIRECTION('',(1.,0.,0.));
#1195=DIRECTION('',(0.,-1.,0.));
#1196=DIRECTION('',(1.,0.,0.));
#1197=DIRECTION('',(0.,0.,-1.));
#1198=DIRECTION('',(0.,0.,1.));
#1199=DIRECTION('',(0.,0.,1.));
#1200=DIRECTION('',(0.,-1.,0.));
#1201=DIRECTION('',(0.,0.,-1.));
#1202=DIRECTION('',(-1.,0.,0.));
#1203=DIRECTION('',(1.,0.,0.));
#1204=DIRECTION('',(1.,0.,0.));
#1205=DIRECTION('',(0.,-1.,0.));
#1206=DIRECTION('',(1.,0.,-4.01092133173828E-17));
#1207=DIRECTION('',(-4.01092133173828E-17,0.,-1.));
#1208=DIRECTION('',(4.01092133173828E-17,0.,1.));
#1209=DIRECTION('',(1.,0.,-4.01092133173828E-17));
#1210=DIRECTION('',(-4.01092133173828E-17,0.,-1.));
#1211=DIRECTION('',(4.01092133173828E-17,0.,1.));
#1212=DIRECTION('',(1.,0.,0.));
#1213=DIRECTION('',(0.,0.,-1.));
#1214=DIRECTION('',(0.,0.,1.));
#1215=DIRECTION('',(0.,0.,1.));
#1216=DIRECTION('',(0.,-1.,0.));
#1217=DIRECTION('',(1.,0.,0.));
#1218=DIRECTION('',(0.,-1.,0.));
#1219=DIRECTION('',(1.,0.,0.));
#1220=DIRECTION('',(0.,-1.,0.));
#1221=DIRECTION('',(0.,0.,-1.));
#1222=DIRECTION('',(0.,-1.,0.));
#1223=DIRECTION('',(0.,0.,-1.));
#1224=DIRECTION('',(0.,-1.,0.));
#1225=DIRECTION('',(0.,0.,-1.));
#1226=DIRECTION('',(0.,-1.,0.));
#1227=DIRECTION('',(0.,0.,-1.));
#1228=DIRECTION('',(0.,1.,0.));
#1229=DIRECTION('',(0.,0.,1.));
#1230=DIRECTION('',(0.,1.,0.));
#1231=DIRECTION('',(0.,0.,1.));
#1232=DIRECTION('',(0.,-1.,0.));
#1233=DIRECTION('',(0.,0.,-1.));
#1234=DIRECTION('',(0.,1.,0.));
#1235=DIRECTION('',(0.,0.,1.));
#1236=DIRECTION('',(0.,1.,0.));
#1237=DIRECTION('',(0.,0.,1.));
#1238=DIRECTION('',(0.,-1.,0.));
#1239=DIRECTION('',(0.,0.,-1.));
#1240=DIRECTION('',(0.,-0.707106781186548,0.707106781186547));
#1241=DIRECTION('',(0.,-0.707106781186547,-0.707106781186548));
#1242=DIRECTION('',(-1.,0.,0.));
#1243=DIRECTION('',(-1.,0.,0.));
#1244=DIRECTION('',(0.,0.,-1.));
#1245=DIRECTION('',(-1.,0.,0.));
#1246=DIRECTION('',(-1.,0.,0.));
#1247=DIRECTION('',(0.,-0.707106781186548,-0.707106781186547));
#1248=DIRECTION('',(0.,0.707106781186547,-0.707106781186548));
#1249=DIRECTION('',(0.,-0.707106781186548,-0.707106781186547));
#1250=DIRECTION('',(0.,0.707106781186547,-0.707106781186548));
#1251=DIRECTION('',(-1.,0.,0.));
#1252=DIRECTION('',(-1.,0.,0.));
#1253=DIRECTION('',(0.,1.,5.95173854828815E-16));
#1254=DIRECTION('',(0.,-5.95173854828815E-16,1.));
#1255=DIRECTION('',(-1.,0.,0.));
#1256=DIRECTION('',(0.,0.707106781186549,-0.707106781186547));
#1257=DIRECTION('',(0.,0.707106781186547,0.707106781186549));
#1258=DIRECTION('',(0.,1.,0.));
#1259=DIRECTION('',(0.,0.,1.));
#1260=DIRECTION('',(-1.,0.,0.));
#1261=DIRECTION('',(-1.,0.,0.));
#1262=DIRECTION('',(0.,-0.707106781186548,0.707106781186548));
#1263=DIRECTION('',(0.,-0.707106781186548,-0.707106781186548));
#1264=DIRECTION('',(-1.,0.,0.));
#1265=DIRECTION('',(0.,0.707106781186549,0.707106781186547));
#1266=DIRECTION('',(0.,-0.707106781186547,0.707106781186549));
#1267=DIRECTION('',(0.,1.46569764574527E-16,-1.));
#1268=DIRECTION('',(0.,1.,1.46569764574527E-16));
#1269=DIRECTION('',(-1.,0.,0.));
#1270=DIRECTION('',(-1.,0.,0.));
#1271=DIRECTION('',(0.,0.707106781186548,0.707106781186547));
#1272=DIRECTION('',(0.,-0.707106781186547,0.707106781186548));
#1273=DIRECTION('',(-1.,0.,0.));
#1274=DIRECTION('',(0.,0.707106781186548,-0.707106781186547));
#1275=DIRECTION('',(0.,0.707106781186547,0.707106781186548));
#1276=DIRECTION('',(0.,-1.,0.));
#1277=DIRECTION('',(0.,0.,-1.));
#1278=DIRECTION('',(0.,-1.,0.));
#1279=DIRECTION('',(0.,-1.,0.));
#1280=DIRECTION('',(0.,0.,-1.));
#1281=DIRECTION('',(0.,-1.,0.));
#1282=DIRECTION('',(0.,0.,-1.));
#1283=DIRECTION('',(0.,-1.,0.));
#1284=DIRECTION('',(0.,0.,-1.));
#1285=DIRECTION('',(0.,-1.,0.));
#1286=DIRECTION('',(0.,-1.,0.));
#1287=DIRECTION('',(1.,0.,0.));
#1288=DIRECTION('',(1.,0.,0.));
#1289=DIRECTION('',(0.,-1.,0.));
#1290=DIRECTION('',(0.,0.,-1.));
#1291=DIRECTION('',(1.,0.,0.));
#1292=DIRECTION('',(0.,0.,-1.));
#1293=DIRECTION('',(0.,-1.,0.));
#1294=DIRECTION('',(0.,0.,-1.));
#1295=DIRECTION('',(0.,1.,0.));
#1296=DIRECTION('',(0.,0.,-1.));
#1297=DIRECTION('',(0.,1.,0.));
#1298=DIRECTION('',(0.,0.,1.));
#1299=DIRECTION('',(0.,1.,0.));
#1300=DIRECTION('',(0.,0.,-1.));
#1301=DIRECTION('',(0.,1.,0.));
#1302=DIRECTION('',(0.,0.,1.));
#1303=DIRECTION('',(0.,1.,0.));
#1304=DIRECTION('',(0.,0.,-1.));
#1305=DIRECTION('',(0.,1.,0.));
#1306=DIRECTION('',(0.,0.,1.));
#1307=DIRECTION('',(0.,1.,0.));
#1308=DIRECTION('',(0.,0.,-1.));
#1309=DIRECTION('',(0.,1.,0.));
#1310=DIRECTION('',(0.,0.,1.));
#1311=DIRECTION('',(0.,-1.,0.));
#1312=DIRECTION('',(1.,0.,0.));
#1313=DIRECTION('',(0.,-1.,0.));
#1314=DIRECTION('',(0.,0.,-1.));
#1315=DIRECTION('',(0.,1.,0.));
#1316=DIRECTION('',(0.,0.,1.));
#1317=DIRECTION('',(0.,-1.,0.));
#1318=DIRECTION('',(1.,0.,0.));
#1319=DIRECTION('',(0.,-1.,0.));
#1320=DIRECTION('',(0.,0.,-1.));
#1321=DIRECTION('',(0.,1.,0.));
#1322=DIRECTION('',(0.,0.,1.));
#1323=DIRECTION('',(0.,-1.,0.));
#1324=DIRECTION('',(1.,0.,0.));
#1325=DIRECTION('',(0.,-1.,0.));
#1326=DIRECTION('',(0.,0.,-1.));
#1327=DIRECTION('',(0.,1.,0.));
#1328=DIRECTION('',(0.,0.,1.));
#1329=DIRECTION('',(0.,-1.,0.));
#1330=DIRECTION('',(1.,0.,0.));
#1331=DIRECTION('',(0.,-1.,0.));
#1332=DIRECTION('',(0.,0.,-1.));
#1333=DIRECTION('',(0.,1.,0.));
#1334=DIRECTION('',(0.,0.,1.));
#1335=CARTESIAN_POINT('',(0.,0.,0.));
#1336=CARTESIAN_POINT('',(0.017,-0.0765944,0.0131348629197973));
#1337=CARTESIAN_POINT('',(0.017,-0.0765944,-0.0146571719793797));
#1338=CARTESIAN_POINT('',(0.017,-0.0387606952161789,-0.0146571719793797));
#1339=CARTESIAN_POINT('',(0.017,-0.0154407512574197,-0.0146571719793796));
#1340=CARTESIAN_POINT('',(0.017,-0.043781530158501,-0.0196780069217017));
#1341=CARTESIAN_POINT('',(0.017,-0.0271007232367993,-0.0029972));
#1342=CARTESIAN_POINT('',(0.017,-0.0599135930782983,0.0298156698414991));
#1343=CARTESIAN_POINT('',(0.017,-0.0126197449862958,0.0131348629197973));
#1344=CARTESIAN_POINT('',(0.017,-0.0126197449862958,-0.0114837782505036));
#1345=CARTESIAN_POINT('',(0.017,-0.0126197449862958,0.0111313907927512));
#1346=CARTESIAN_POINT('',(0.017,-0.0569163930782983,0.032812869841499));
#1347=CARTESIAN_POINT('',(0.017,-0.0239273295079232,-0.000176193728876194));
#1348=CARTESIAN_POINT('',(0.017,-0.0436053364296249,-0.0198542006505779));
#1349=CARTESIAN_POINT('',(0.017,-0.0765944,-0.0203101370802026));
#1350=CARTESIAN_POINT('',(0.017,-0.1135944,-0.0203101370802026));
#1351=CARTESIAN_POINT('',(0.017,-0.0059944,-0.0203101370802026));
#1352=CARTESIAN_POINT('',(0.017,-0.0059944,0.0131348629197973));
#1353=CARTESIAN_POINT('',(0.017,-0.0059944,0.0229398629197974));
#1354=CARTESIAN_POINT('',(0.017,-0.0765944,0.0229398629197974));
#1355=CARTESIAN_POINT('',(0.017,-0.0765944,0.0229398629197974));
#1356=CARTESIAN_POINT('',(0.017,-0.0765944,0.0131348629197973));
#1357=CARTESIAN_POINT('',(0.017,-0.0765944,0.00593986291979732));
#1358=CARTESIAN_POINT('',(0.017,-0.1135944,0.00593986291979733));
#1359=CARTESIAN_POINT('',(0.017,-0.1135944,0.00593986291979733));
#1360=CARTESIAN_POINT('',(0.017,-0.1135944,-0.00718513708020267));
#1361=CARTESIAN_POINT('',(0.017,-0.0765944,0.0146558));
#1362=CARTESIAN_POINT('',(0.017,-0.0387593232367993,0.0146558));
#1363=CARTESIAN_POINT('',(0.017,-0.0154421232367993,0.0146558));
#1364=CARTESIAN_POINT('',(0.017,-0.046778730158501,-0.0166808069217017));
#1365=CARTESIAN_POINT('',(0.017,-0.0271007232367993,0.0029972));
#1366=CARTESIAN_POINT('',(0.017,-0.0569163930782983,0.032812869841499));
#1367=CARTESIAN_POINT('',(0.017,-0.0419327169656755,0.0131348629197973));
#1368=CARTESIAN_POINT('',(0.017,-0.0419327169656755,-0.0118347937288762));
#1369=CARTESIAN_POINT('',(0.017,-0.0419327169656755,0.0114824062711238));
#1370=CARTESIAN_POINT('',(0.017,-0.0600897868071745,0.0296394761126228));
#1371=CARTESIAN_POINT('',(0.017,-0.0302741169656755,-0.000176193728876168));
#1372=CARTESIAN_POINT('',(0.017,-0.0467787301585009,-0.0166808069217016));
#1373=CARTESIAN_POINT('',(-0.017,-0.0765944,0.0131348629197973));
#1374=CARTESIAN_POINT('',(-0.017,-0.043781530158501,-0.0196780069217017));
#1375=CARTESIAN_POINT('',(-0.017,-0.0387606952161789,-0.0146571719793797));
#1376=CARTESIAN_POINT('',(-0.017,-0.0271007232367993,-0.0029972));
#1377=CARTESIAN_POINT('',(-0.017,-0.0765944,-0.0146571719793797));
#1378=CARTESIAN_POINT('',(-0.017,-0.0154407512574197,-0.0146571719793796));
#1379=CARTESIAN_POINT('',(-0.017,-0.0599135930782983,0.0298156698414991));
#1380=CARTESIAN_POINT('',(-0.017,-0.0569163930782983,0.032812869841499));
#1381=CARTESIAN_POINT('',(-0.017,-0.0126197449862958,-0.0114837782505036));
#1382=CARTESIAN_POINT('',(-0.017,-0.0239273295079232,-0.000176193728876168));
#1383=CARTESIAN_POINT('',(-0.017,-0.0126197449862958,0.0131348629197973));
#1384=CARTESIAN_POINT('',(-0.017,-0.0126197449862958,0.0111313907927512));
#1385=CARTESIAN_POINT('',(-0.017,-0.0436053364296249,-0.0198542006505779));
#1386=CARTESIAN_POINT('',(-0.017,-0.046778730158501,-0.0166808069217017));
#1387=CARTESIAN_POINT('',(-0.017,-0.0154421232367993,0.0146558));
#1388=CARTESIAN_POINT('',(-0.017,-0.0271007232367993,0.0029972));
#1389=CARTESIAN_POINT('',(-0.017,-0.0765944,0.0146558));
#1390=CARTESIAN_POINT('',(-0.017,-0.0387593232367993,0.0146558));
#1391=CARTESIAN_POINT('',(-0.017,-0.0569163930782983,0.032812869841499));
#1392=CARTESIAN_POINT('',(-0.017,-0.1135944,0.00593986291979733));
#1393=CARTESIAN_POINT('',(-0.017,-0.1135944,0.00593986291979733));
#1394=CARTESIAN_POINT('',(-0.017,-0.0765944,0.00593986291979733));
#1395=CARTESIAN_POINT('',(-0.017,-0.0765944,0.0131348629197973));
#1396=CARTESIAN_POINT('',(-0.017,-0.0765944,0.0229398629197974));
#1397=CARTESIAN_POINT('',(-0.017,-0.0765944,0.0229398629197974));
#1398=CARTESIAN_POINT('',(-0.017,-0.0059944,0.0229398629197974));
#1399=CARTESIAN_POINT('',(-0.017,-0.0059944,0.0131348629197973));
#1400=CARTESIAN_POINT('',(-0.017,-0.0059944,-0.0203101370802026));
#1401=CARTESIAN_POINT('',(-0.017,-0.0765944,-0.0203101370802026));
#1402=CARTESIAN_POINT('',(-0.017,-0.1135944,-0.0203101370802026));
#1403=CARTESIAN_POINT('',(-0.017,-0.1135944,-0.00718513708020267));
#1404=CARTESIAN_POINT('',(-0.017,-0.0600897868071745,0.0296394761126228));
#1405=CARTESIAN_POINT('',(-0.017,-0.0419327169656755,0.0114824062711238));
#1406=CARTESIAN_POINT('',(-0.017,-0.0302741169656755,-0.00017619372887617));
#1407=CARTESIAN_POINT('',(-0.017,-0.0419327169656755,0.0131348629197973));
#1408=CARTESIAN_POINT('',(-0.017,-0.0419327169656755,-0.0118347937288762));
#1409=CARTESIAN_POINT('',(-0.017,-0.0467787301585009,-0.0166808069217016));
#1410=CARTESIAN_POINT('',(-3.46944695195361E-18,-0.0059944,0.00134327558257281));
#1411=CARTESIAN_POINT('',(-0.01475,-0.0059944,0.00131486291979732));
#1412=CARTESIAN_POINT('',(-0.01475,-0.0059944,-0.0203101370802026));
#1413=CARTESIAN_POINT('',(-0.01475,-0.0059944,0.0229398629197974));
#1414=CARTESIAN_POINT('',(0.,-0.0059944,-0.0203101370802026));
#1415=CARTESIAN_POINT('',(-0.015625,-0.0059944,0.0229398629197974));
#1416=CARTESIAN_POINT('',(0.0145,-0.1135944,-0.00318513708020268));
#1417=CARTESIAN_POINT('',(0.0145,-0.1110944,-0.00318513708020268));
#1418=CARTESIAN_POINT('',(0.0145,-0.1110944,0.00593986291979733));
#1419=CARTESIAN_POINT('',(0.0145,-0.1110944,-0.0123101370802027));
#1420=CARTESIAN_POINT('',(0.0145,-0.1135944,0.00593986291979732));
#1421=CARTESIAN_POINT('',(0.0145,-0.0765944,0.00593986291979732));
#1422=CARTESIAN_POINT('',(0.0145,-0.0765944,-0.00318513708020268));
#1423=CARTESIAN_POINT('',(0.0145,-0.0765944,-0.0123101370802027));
#1424=CARTESIAN_POINT('',(0.0145,-0.1135944,-0.0123101370802027));
#1425=CARTESIAN_POINT('',(0.,-0.1135944,-0.0123101370802027));
#1426=CARTESIAN_POINT('',(-0.0145,-0.1135944,-0.0123101370802027));
#1427=CARTESIAN_POINT('',(-0.0145,-0.1110944,-0.0123101370802027));
#1428=CARTESIAN_POINT('',(-0.0145,-0.0765944,-0.0123101370802027));
#1429=CARTESIAN_POINT('',(0.,-0.1110944,-0.0123101370802027));
#1430=CARTESIAN_POINT('',(0.,-0.0765944,-0.0123101370802027));
#1431=CARTESIAN_POINT('',(-0.0145,-0.1135944,-0.00318513708020268));
#1432=CARTESIAN_POINT('',(-0.0145,-0.1135944,0.00593986291979733));
#1433=CARTESIAN_POINT('',(-0.0145,-0.1110944,0.00593986291979733));
#1434=CARTESIAN_POINT('',(-0.0145,-0.0765944,0.00593986291979733));
#1435=CARTESIAN_POINT('',(-0.0145,-0.1110944,-0.00318513708020268));
#1436=CARTESIAN_POINT('',(-0.0145,-0.0765944,-0.00318513708020268));
#1437=CARTESIAN_POINT('',(-3.46944695195361E-18,-0.0765944,0.00134327558257281));
#1438=CARTESIAN_POINT('',(-0.015625,-0.0765944,0.0229398629197974));
#1439=CARTESIAN_POINT('',(0.0130120136796731,-0.0765944,0.0229398629197974));
#1440=CARTESIAN_POINT('',(0.0130120136796731,-0.0765944,0.0204398629197973));
#1441=CARTESIAN_POINT('',(0.0105569167589801,-0.0765944,0.0209115610330049));
#1442=CARTESIAN_POINT('',(0.,-0.0765944,0.0229398629197974));
#1443=CARTESIAN_POINT('',(-0.0105569167589801,-0.0765944,0.0209115610330049));
#1444=CARTESIAN_POINT('',(-0.0130120136796731,-0.0765944,0.0204398629197973));
#1445=CARTESIAN_POINT('',(-0.0130120136796731,-0.0765944,0.0229398629197974));
#1446=CARTESIAN_POINT('',(-0.015625,-0.0765944,0.0229398629197974));
#1447=CARTESIAN_POINT('',(-0.01575,-0.0765944,0.00593986291979733));
#1448=CARTESIAN_POINT('',(0.01575,-0.0765944,0.00593986291979733));
#1449=CARTESIAN_POINT('',(-0.015625,-0.0765944,0.0229398629197974));
#1450=CARTESIAN_POINT('',(0.0104552618331629,-0.0700944,0.0229398629197974));
#1451=CARTESIAN_POINT('',(0.0111177391167424,-0.0700944000054059,0.0229398629197974));
#1452=CARTESIAN_POINT('',(0.0124421491954263,-0.0706160739522557,0.0229398629197974));
#1453=CARTESIAN_POINT('',(0.0130120136609644,-0.0719329972603142,0.0229398629197974));
#1454=CARTESIAN_POINT('',(0.0130120136796731,-0.0725944,0.0229398629197974));
#1455=CARTESIAN_POINT('',(0.0104552618331632,-0.0700944,0.0229398629197974));
#1456=CARTESIAN_POINT('',(0.0130120136796731,-0.0725944,0.0229398629197974));
#1457=CARTESIAN_POINT('',(0.0130120136796731,-0.0765944,0.0229398629197974));
#1458=CARTESIAN_POINT('',(-0.015625,-0.0059944,0.0229398629197974));
#1459=CARTESIAN_POINT('',(0.01475,-0.0059944,0.0229398629197974));
#1460=CARTESIAN_POINT('',(0.01475,-0.0009944,0.0229398629197974));
#1461=CARTESIAN_POINT('',(0.01475,-0.0009944,0.0229398629197974));
#1462=CARTESIAN_POINT('',(2.60208521396521E-18,-0.0009944,0.0229398629197974));
#1463=CARTESIAN_POINT('',(-0.01475,-0.0009944,0.0229398629197974));
#1464=CARTESIAN_POINT('',(-0.01475,-0.0009944,0.0229398629197974));
#1465=CARTESIAN_POINT('',(-0.0130120136796731,-0.0725944,0.0229398629197974));
#1466=CARTESIAN_POINT('',(-0.0130120136796731,-0.0725944,0.0229398629197974));
#1467=CARTESIAN_POINT('',(-0.0130120136796731,-0.0725944,0.0229398629197974));
#1468=CARTESIAN_POINT('',(-0.0130120136737116,-0.0719255433239117,0.0229398629197974));
#1469=CARTESIAN_POINT('',(-0.0124374264371041,-0.0706190183461109,0.0229398629197974));
#1470=CARTESIAN_POINT('',(-0.01112556540844,-0.070094399990893,0.0229398629197974));
#1471=CARTESIAN_POINT('',(-0.0104552618331634,-0.0700944,0.0229398629197974));
#1472=CARTESIAN_POINT('',(-0.0104552618331634,-0.0700944,0.0229398629197974));
#1473=CARTESIAN_POINT('',(-0.015625,-0.0700944,0.0229398629197974));
#1474=CARTESIAN_POINT('',(0.,-0.0765944,-0.0203101370802026));
#1475=CARTESIAN_POINT('',(-0.01475,-0.0009944,-0.0203101370802026));
#1476=CARTESIAN_POINT('',(-0.01475,-0.0009944,-0.0203101370802026));
#1477=CARTESIAN_POINT('',(0.,-0.0009944,-0.0203101370802026));
#1478=CARTESIAN_POINT('',(0.01475,-0.0009944,-0.0203101370802026));
#1479=CARTESIAN_POINT('',(0.01475,-0.0009944,-0.0203101370802026));
#1480=CARTESIAN_POINT('',(0.01475,-0.0059944,-0.0203101370802026));
#1481=CARTESIAN_POINT('',(0.,-0.0059944,-0.0203101370802026));
#1482=CARTESIAN_POINT('',(0.,-0.1135944,-0.0203101370802026));
#1483=CARTESIAN_POINT('',(-3.46944695195361E-18,-0.0059944,0.00134327558257281));
#1484=CARTESIAN_POINT('',(0.01475,-0.0059944,0.00131486291979732));
#1485=CARTESIAN_POINT('',(0.01575,-0.1135944,0.00593986291979733));
#1486=CARTESIAN_POINT('',(0.01575,-0.1110944,0.00593986291979733));
#1487=CARTESIAN_POINT('',(0.01575,-0.1135944,0.00593986291979733));
#1488=CARTESIAN_POINT('',(-3.46944695195361E-18,-0.1135944,0.00134327558257281));
#1489=CARTESIAN_POINT('',(-0.011,-0.1135944,-0.00906013708020268));
#1490=CARTESIAN_POINT('',(-0.011,-0.1135944,-0.00624513708020268));
#1491=CARTESIAN_POINT('',(0.011,-0.1135944,-0.00906013708020268));
#1492=CARTESIAN_POINT('',(0.011,-0.1135944,-0.00624513708020268));
#1493=CARTESIAN_POINT('',(-3.46944695195361E-18,-0.1110944,0.00134327558257281));
#1494=CARTESIAN_POINT('',(-0.011,-0.1110944,-0.00906013708020268));
#1495=CARTESIAN_POINT('',(-0.011,-0.1110944,-0.00771013708020268));
#1496=CARTESIAN_POINT('',(0.011,-0.1110944,-0.00906013708020268));
#1497=CARTESIAN_POINT('',(0.011,-0.1110944,-0.00771013708020268));
#1498=CARTESIAN_POINT('',(8.67361737988404E-19,-0.0009944,-0.0194351370802027));
#1499=CARTESIAN_POINT('',(8.67361737988404E-19,-0.0059944,-0.0194351370802027));
#1500=CARTESIAN_POINT('',(-0.01225,-0.0059944,-0.0194351370802027));
#1501=CARTESIAN_POINT('',(0.01225,-0.0059944,-0.0194351370802027));
#1502=CARTESIAN_POINT('',(0.01225,-0.0009944,-0.0194351370802027));
#1503=CARTESIAN_POINT('',(0.01225,-0.0009944,-0.0194351370802027));
#1504=CARTESIAN_POINT('',(8.67361737988404E-19,-0.0009944,-0.0194351370802027));
#1505=CARTESIAN_POINT('',(-0.01225,-0.0009944,-0.0194351370802027));
#1506=CARTESIAN_POINT('',(-0.01225,-0.0009944,-0.0194351370802027));
#1507=CARTESIAN_POINT('',(-0.01225,-0.0009944,0.00131486291979732));
#1508=CARTESIAN_POINT('',(-0.01225,-0.0059944,0.00131486291979732));
#1509=CARTESIAN_POINT('',(-0.01225,-0.0059944,0.0220648629197974));
#1510=CARTESIAN_POINT('',(-0.01225,-0.0009944,0.00131486291979732));
#1511=CARTESIAN_POINT('',(-0.01225,-0.0009944,0.0220648629197974));
#1512=CARTESIAN_POINT('',(-0.01225,-0.0009944,0.0220648629197974));
#1513=CARTESIAN_POINT('',(1.7347234759768E-18,-0.0009944,0.0220648629197974));
#1514=CARTESIAN_POINT('',(1.7347234759768E-18,-0.0059944,0.0220648629197974));
#1515=CARTESIAN_POINT('',(0.01225,-0.0059944,0.0220648629197974));
#1516=CARTESIAN_POINT('',(1.7347234759768E-18,-0.0009944,0.0220648629197974));
#1517=CARTESIAN_POINT('',(0.01225,-0.0009944,0.0220648629197974));
#1518=CARTESIAN_POINT('',(0.01225,-0.0009944,0.0220648629197974));
#1519=CARTESIAN_POINT('',(-0.01475,-0.0009944,0.00131486291979732));
#1520=CARTESIAN_POINT('',(-0.01475,-0.0009944,0.00131486291979732));
#1521=CARTESIAN_POINT('',(0.01475,-0.0009944,0.00131486291979732));
#1522=CARTESIAN_POINT('',(0.01475,-0.0009944,0.00131486291979732));
#1523=CARTESIAN_POINT('',(0.01225,-0.0009944,0.00131486291979733));
#1524=CARTESIAN_POINT('',(0.01225,-0.0059944,0.00131486291979733));
#1525=CARTESIAN_POINT('',(0.01225,-0.0009944,0.00131486291979733));
#1526=CARTESIAN_POINT('',(-3.46944695195361E-18,-0.0009944,0.00131486291979732));
#1527=CARTESIAN_POINT('',(-3.46944695195361E-18,-0.0059944,0.00134327558257281));
#1528=CARTESIAN_POINT('',(0.006,-0.0059944,-0.0106851370802027));
#1529=CARTESIAN_POINT('',(0.006,-0.0059944,-0.0128701370802027));
#1530=CARTESIAN_POINT('',(-0.006,-0.0059944,-0.0106851370802027));
#1531=CARTESIAN_POINT('',(-0.006,-0.0059944,-0.0128701370802027));
#1532=CARTESIAN_POINT('',(-0.006,-0.0059944,0.0133148629197973));
#1533=CARTESIAN_POINT('',(-0.006,-0.0059944,0.0111298629197973));
#1534=CARTESIAN_POINT('',(0.006,-0.0059944,0.0133148629197973));
#1535=CARTESIAN_POINT('',(0.006,-0.0059944,0.0111298629197973));
#1536=CARTESIAN_POINT('',(0.011,-0.1135944,-0.00906013708020268));
#1537=CARTESIAN_POINT('',(0.011,-0.1121294,-0.00906013708020268));
#1538=CARTESIAN_POINT('',(0.011,-0.1121294,-0.00771013708020268));
#1539=CARTESIAN_POINT('',(0.011,-0.1135944,-0.00906013708020268));
#1540=CARTESIAN_POINT('',(-0.011,-0.1135944,-0.00906013708020268));
#1541=CARTESIAN_POINT('',(-0.011,-0.1121294,-0.00906013708020268));
#1542=CARTESIAN_POINT('',(-0.011,-0.1121294,-0.00771013708020268));
#1543=CARTESIAN_POINT('',(-0.011,-0.1135944,-0.00906013708020268));
#1544=CARTESIAN_POINT('',(0.3694938,-0.0212714232367993,0.0088265));
#1545=CARTESIAN_POINT('',(0.3694938,-0.0154421232367993,0.0146558));
#1546=CARTESIAN_POINT('',(0.3694938,-0.0271007232367993,0.0029972));
#1547=CARTESIAN_POINT('',(0.3694938,-0.0271007232367993,0.0146558));
#1548=CARTESIAN_POINT('',(0.3694938,-0.0387593232367993,0.0146558));
#1549=CARTESIAN_POINT('',(0.3694938,-0.0329300232367993,0.0088265));
#1550=CARTESIAN_POINT('',(0.3694938,-0.0361034169656755,0.00565310627112384));
#1551=CARTESIAN_POINT('',(0.3694938,-0.0419327169656755,0.0114824062711238));
#1552=CARTESIAN_POINT('',(0.3694938,-0.0302741169656755,-0.000176193728876168));
#1553=CARTESIAN_POINT('',(0.3694938,-0.0419327169656755,-0.000176193728876177));
#1554=CARTESIAN_POINT('',(0.3694938,-0.0419327169656755,-0.0118347937288762));
#1555=CARTESIAN_POINT('',(0.3694938,-0.0361034169656755,-0.00600549372887618));
#1556=CARTESIAN_POINT('',(0.3694938,-0.0126197449862958,-0.000176193728876196));
#1557=CARTESIAN_POINT('',(0.3694938,-0.0126197449862958,0.0111313907927512));
#1558=CARTESIAN_POINT('',(0.3694938,-0.0126197449862958,-0.0114837782505036));
#1559=CARTESIAN_POINT('',(0.3694938,-0.0182735372471094,0.0054775985319375));
#1560=CARTESIAN_POINT('',(0.3694938,-0.0239273295079232,-0.000176193728876168));
#1561=CARTESIAN_POINT('',(0.3694938,-0.0182735372471094,-0.00582998598968987));
#1562=CARTESIAN_POINT('',(0.3694938,-0.0213584911167026,-0.0146571719793796));
#1563=CARTESIAN_POINT('',(0.3694938,-0.0154407512574197,-0.0146571719793796));
#1564=CARTESIAN_POINT('',(0.3694938,-0.0387606952161789,-0.0146571719793797));
#1565=CARTESIAN_POINT('',(0.3694938,-0.0212707372471095,-0.00882718598968982));
#1566=CARTESIAN_POINT('',(0.3694938,-0.0271007232367993,-0.0029972));
#1567=CARTESIAN_POINT('',(0.3694938,-0.0329307092264891,-0.00882718598968982));
#1568=CARTESIAN_POINT('',(0.,-0.0725944,0.0229398629197974));
#1569=CARTESIAN_POINT('',(0.0105569167589801,-0.0725944,0.0209115610330049));
#1570=CARTESIAN_POINT('',(0.0105569167589801,-0.0725944,0.0209115610330049));
#1571=CARTESIAN_POINT('',(0.,-0.0725944,0.0229398629197974));
#1572=CARTESIAN_POINT('',(0.0104552618331632,-0.0725944,0.0204398629197973));
#1573=CARTESIAN_POINT('',(0.,-0.0725944,0.0229398629197974));
#1574=CARTESIAN_POINT('',(-0.0104552618331632,-0.0725944,0.0204398629197973));
#1575=CARTESIAN_POINT('',(0.,-0.0725944,0.0229398629197974));
#1576=CARTESIAN_POINT('',(-0.0105569167589801,-0.0725944,0.0209115610330049));
#1577=CARTESIAN_POINT('',(-0.0105569167589801,-0.0725944,0.0209115610330049));
#1578=CARTESIAN_POINT('',(0.,-0.0725944,0.0106898629197973));
#1579=CARTESIAN_POINT('',(0.,-0.0725944,0.0204398629197973));
#1580=CARTESIAN_POINT('',(-0.0130120136796731,-0.0725944,0.0204398629197973));
#1581=CARTESIAN_POINT('',(-0.0105569167589801,-0.0725944,0.0209115610330049));
#1582=CARTESIAN_POINT('',(-0.0106654843112953,-0.0725944,0.0214766340233628));
#1583=CARTESIAN_POINT('',(-0.0112884087115317,-0.0725944,0.02252614863364));
#1584=CARTESIAN_POINT('',(-0.0124366056524022,-0.0725944,0.0229398629197973));
#1585=CARTESIAN_POINT('',(-0.0130120136796731,-0.0725944,0.0229398629197973));
#1586=CARTESIAN_POINT('',(-0.0130120136796731,-0.0725944,0.0229398629197974));
#1587=CARTESIAN_POINT('',(-0.0130120136736862,-0.0719227014928005,0.0229398629197974));
#1588=CARTESIAN_POINT('',(-0.0127329763493791,-0.0712782417817786,0.0229398629197974));
#1589=CARTESIAN_POINT('',(-0.0117732396288008,-0.0703507482217347,0.0229398629197974));
#1590=CARTESIAN_POINT('',(-0.0111225244985972,-0.0700943999909344,0.0229398629197974));
#1591=CARTESIAN_POINT('',(-0.0104552618331634,-0.0700944,0.0229398629197974));
#1592=CARTESIAN_POINT('',(-0.0109466146828996,-0.0725944,0.0229398629197973));
#1593=CARTESIAN_POINT('',(-0.0109466146811559,-0.0724867374479644,0.0229398629197973));
#1594=CARTESIAN_POINT('',(-0.0108593985150903,-0.0723879659390152,0.0229398629197962));
#1595=CARTESIAN_POINT('',(-0.0106267979151444,-0.0723622559227795,0.0229398629197985));
#1596=CARTESIAN_POINT('',(-0.010491243763252,-0.0724439198479489,0.0229398629197974));
#1597=CARTESIAN_POINT('',(-0.0104552618331633,-0.0725944,0.0229398629197974));
#1598=CARTESIAN_POINT('',(-0.0105569167589801,-0.0725944,0.0209115610330049));
#1599=CARTESIAN_POINT('',(-0.010556816090049,-0.0725944,0.0209110370708018));
#1600=CARTESIAN_POINT('',(-0.0105494859670015,-0.0725944000001017,0.0208716157934906));
#1601=CARTESIAN_POINT('',(-0.0105165149201415,-0.0725943999998983,0.0207100166754466));
#1602=CARTESIAN_POINT('',(-0.010491439163354,-0.0725944,0.0205911603057904));
#1603=CARTESIAN_POINT('',(-0.0104552618331632,-0.0725944,0.0204398629197974));
#1604=CARTESIAN_POINT('',(-0.0104552618331632,-0.0700944,0.0229398629197973));
#1605=CARTESIAN_POINT('',(-0.0104552618331632,-0.0707488984694979,0.0229398629197973));
#1606=CARTESIAN_POINT('',(-0.0104552618331632,-0.0720526846711838,0.0223981475909811));
#1607=CARTESIAN_POINT('',(-0.0104552618331632,-0.0725944,0.0210943613892952));
#1608=CARTESIAN_POINT('',(-0.0104552618331632,-0.0725944,0.0204398629197973));
#1609=CARTESIAN_POINT('',(-0.015625,-0.0700944,0.0204398629197973));
#1610=CARTESIAN_POINT('',(0.0104552618331629,-0.0725944,0.0204398629197972));
#1611=CARTESIAN_POINT('',(0.0104552618331629,-0.0725944,0.0210943613892951));
#1612=CARTESIAN_POINT('',(0.0104552618331629,-0.0720526846711839,0.0223981475909811));
#1613=CARTESIAN_POINT('',(0.0104552618331629,-0.0707488984694979,0.0229398629197973));
#1614=CARTESIAN_POINT('',(0.0104552618331629,-0.0700944,0.0229398629197973));
#1615=CARTESIAN_POINT('',(0.0104552618331628,-0.0700944,0.0229398629197974));
#1616=CARTESIAN_POINT('',(0.0111157498968366,-0.0700944000053897,0.0229398629197974));
#1617=CARTESIAN_POINT('',(0.0117791693305312,-0.0703562738127323,0.0229398629197974));
#1618=CARTESIAN_POINT('',(0.0127278562537485,-0.0712734987723835,0.0229398629197974));
#1619=CARTESIAN_POINT('',(0.0130120136609147,-0.0719312403055257,0.0229398629197974));
#1620=CARTESIAN_POINT('',(0.0130120136796731,-0.0725944,0.0229398629197974));
#1621=CARTESIAN_POINT('',(0.0104552618331632,-0.0725944000000001,0.0229398629197973));
#1622=CARTESIAN_POINT('',(0.0104911124408482,-0.0724444690798343,0.0229398629197973));
#1623=CARTESIAN_POINT('',(0.0106282600386569,-0.0723623690711741,0.0229398629197973));
#1624=CARTESIAN_POINT('',(0.0108582079620462,-0.0723878815094642,0.0229398629197973));
#1625=CARTESIAN_POINT('',(0.0109466146774185,-0.0724875316016105,0.0229398629198008));
#1626=CARTESIAN_POINT('',(0.0109466146828996,-0.0725944,0.0229398629197973));
#1627=CARTESIAN_POINT('',(0.0104552618331632,-0.0725944,0.0204398629197972));
#1628=CARTESIAN_POINT('',(0.0104911459258163,-0.0725944,0.0205899339565121));
#1629=CARTESIAN_POINT('',(0.0105167201803784,-0.0725943999998871,0.0207110200685968));
#1630=CARTESIAN_POINT('',(0.0105493085188608,-0.0725944000001129,0.0208707487164395));
#1631=CARTESIAN_POINT('',(0.0105569850538553,-0.0725944,0.0209119164945452));
#1632=CARTESIAN_POINT('',(0.0105569167589801,-0.0725944,0.0209115610330049));
#1633=CARTESIAN_POINT('',(0.0130120136796731,-0.0725944,0.0229398629197973));
#1634=CARTESIAN_POINT('',(0.0124366056524022,-0.0725944,0.0229398629197973));
#1635=CARTESIAN_POINT('',(0.0112884087115317,-0.0725944,0.02252614863364));
#1636=CARTESIAN_POINT('',(0.0106654843112953,-0.0725944,0.0214766340233629));
#1637=CARTESIAN_POINT('',(0.0105569167589801,-0.0725944,0.0209115610330049));
#1638=CARTESIAN_POINT('',(0.0130120136796731,-0.0725944,0.0204398629197973));
#1639=CARTESIAN_POINT('',(0.006,-0.0059944,-0.0106851370802027));
#1640=CARTESIAN_POINT('',(0.006,-0.00883387722983895,-0.0106851370802027));
#1641=CARTESIAN_POINT('',(0.006,-0.00883387722983895,-0.00889919958020268));
#1642=CARTESIAN_POINT('',(-0.006,-0.0059944,-0.0106851370802027));
#1643=CARTESIAN_POINT('',(-0.006,-0.00883387722983895,-0.0106851370802027));
#1644=CARTESIAN_POINT('',(-0.006,-0.00883387722983895,-0.00889919958020268));
#1645=CARTESIAN_POINT('',(-0.006,-0.0059944,0.0133148629197973));
#1646=CARTESIAN_POINT('',(-0.006,-0.00883387722983895,0.0133148629197973));
#1647=CARTESIAN_POINT('',(-0.006,-0.00883387722983895,0.0151008004197973));
#1648=CARTESIAN_POINT('',(0.006,-0.0059944,0.0133148629197973));
#1649=CARTESIAN_POINT('',(0.006,-0.00883387722983895,0.0133148629197973));
#1650=CARTESIAN_POINT('',(0.006,-0.00883387722983895,0.0151008004197973));
#1651=CARTESIAN_POINT('',(0.,-0.0097444,0.00131486291979733));
#1652=CARTESIAN_POINT('',(0.006,-0.0097444,-0.0106851370802027));
#1653=CARTESIAN_POINT('',(0.006,-0.0097444,-0.0124710745802027));
#1654=CARTESIAN_POINT('',(0.006,-0.0097444,-0.0106851370802027));
#1655=CARTESIAN_POINT('',(0.,-0.0097444,0.00131486291979733));
#1656=CARTESIAN_POINT('',(-0.006,-0.0097444,-0.0106851370802027));
#1657=CARTESIAN_POINT('',(-0.006,-0.0097444,-0.0124710745802027));
#1658=CARTESIAN_POINT('',(-0.006,-0.0097444,-0.0106851370802027));
#1659=CARTESIAN_POINT('',(0.,-0.0097444,0.00131486291979733));
#1660=CARTESIAN_POINT('',(-0.006,-0.0097444,0.0133148629197973));
#1661=CARTESIAN_POINT('',(-0.006,-0.0097444,0.0115289254197973));
#1662=CARTESIAN_POINT('',(-0.006,-0.0097444,0.0133148629197973));
#1663=CARTESIAN_POINT('',(0.,-0.0097444,0.00131486291979733));
#1664=CARTESIAN_POINT('',(0.006,-0.0097444,0.0133148629197973));
#1665=CARTESIAN_POINT('',(0.006,-0.0097444,0.0115289254197973));
#1666=CARTESIAN_POINT('',(0.006,-0.0097444,0.0133148629197973));
#1667=MECHANICAL_DESIGN_GEOMETRIC_PRESENTATION_REPRESENTATION('',(#990),
#1668);
#1668=(
GEOMETRIC_REPRESENTATION_CONTEXT(3)
GLOBAL_UNCERTAINTY_ASSIGNED_CONTEXT((#1669))
GLOBAL_UNIT_ASSIGNED_CONTEXT((#1672,#1671,#1670))
REPRESENTATION_CONTEXT('Part 2','TOP_LEVEL_ASSEMBLY_PART')
);
#1669=UNCERTAINTY_MEASURE_WITH_UNIT(LENGTH_MEASURE(2.E-5),#1672,
'DISTANCE_ACCURACY_VALUE','Maximum Tolerance applied to model');
#1670=(
NAMED_UNIT(*)
SI_UNIT($,.STERADIAN.)
SOLID_ANGLE_UNIT()
);
#1671=(
NAMED_UNIT(*)
PLANE_ANGLE_UNIT()
SI_UNIT($,.RADIAN.)
);
#1672=(
LENGTH_UNIT()
NAMED_UNIT(*)
SI_UNIT($,.METRE.)
);
#1673=PRODUCT_DEFINITION_SHAPE('','',#1674);
#1674=PRODUCT_DEFINITION('','',#1676,#1675);
#1675=PRODUCT_DEFINITION_CONTEXT('',#1682,'design');
#1676=PRODUCT_DEFINITION_FORMATION_WITH_SPECIFIED_SOURCE('','',#1678,
 .NOT_KNOWN.);
#1677=PRODUCT_RELATED_PRODUCT_CATEGORY('','',(#1678));
#1678=PRODUCT('Part 2','Part 2','Part 2',(#1680));
#1679=PRODUCT_CATEGORY('','');
#1680=PRODUCT_CONTEXT('',#1682,'mechanical');
#1681=APPLICATION_PROTOCOL_DEFINITION('international standard',
'ap242_managed_model_based_3d_engineering',2020,#1682);
#1682=APPLICATION_CONTEXT('managed model based 3d engineering');
ENDSEC;
END-ISO-10303-21;
