ISO-10303-21;
HEADER;
/* Generated by software containing ST-Developer
 * from STEP Tools, Inc. (www.steptools.com) 
 */
/* OPTION: using custom renumber hook */

FILE_DESCRIPTION(
/* description */ ('STEP AP242 Edition 2',
'CAx-IF Rec.Pracs.---Representation and Presentation of Product Manufa
cturing Information (PMI)---4.0---2014-10-13',
'CAx-IF Rec.Pracs.---3D Tessellated Geometry---0.4---2014-09-14','2;1',
'CAx-IF Rec.Pracs.---User Defined Attributes---1.5---2016-08-15'),
/* implementation_level */ '2;1');

FILE_NAME(
/* name */ 'Right Arm - Part 2 (4)',
/* time_stamp */ '2026-05-31T15:23:16Z',
/* author */ (''),
/* organization */ (''),
/* preprocessor_version */ 'ST-DEVELOPER v20',
/* originating_system */ 'ONSHAPE BY PTC INC, 1.215',
/* authorisation */ '  ');

FILE_SCHEMA (('AP242_MANAGED_MODEL_BASED_3D_ENGINEERING_MIM_LF { 1 0 10303 442 3 1 4 }'));
ENDSEC;

DATA;
#10=SHAPE_REPRESENTATION_RELATIONSHIP('','',#694,#11);
#11=ADVANCED_BREP_SHAPE_REPRESENTATION('',(#692),#1154);
#12=CONICAL_SURFACE('',#733,0.00255,0.785398163397446);
#13=CONICAL_SURFACE('',#736,0.00255,0.785398163397446);
#14=CONICAL_SURFACE('',#739,0.00255,0.785398163397448);
#15=CONICAL_SURFACE('',#742,0.00255,0.785398163397448);
#16=CONICAL_SURFACE('',#748,0.002,0.139626340159546);
#17=CONICAL_SURFACE('',#750,0.002,0.139626340159546);
#18=CONICAL_SURFACE('',#752,0.002,0.139626340159546);
#19=CONICAL_SURFACE('',#754,0.002,0.139626340159546);
#20=CYLINDRICAL_SURFACE('',#731,0.00135);
#21=CYLINDRICAL_SURFACE('',#734,0.00135);
#22=CYLINDRICAL_SURFACE('',#737,0.00135);
#23=CYLINDRICAL_SURFACE('',#740,0.00135);
#24=CYLINDRICAL_SURFACE('',#743,0.005);
#25=CYLINDRICAL_SURFACE('',#745,0.005);
#26=CYLINDRICAL_SURFACE('',#747,0.005);
#27=CYLINDRICAL_SURFACE('',#758,0.0017859375);
#28=CYLINDRICAL_SURFACE('',#761,0.0017859375);
#29=CYLINDRICAL_SURFACE('',#764,0.0017859375);
#30=CYLINDRICAL_SURFACE('',#767,0.0017859375);
#31=ELLIPSE('',#709,0.00517638090205042,0.005);
#32=ELLIPSE('',#712,0.00517638090205042,0.005);
#33=ELLIPSE('',#744,0.00707106781186547,0.005);
#34=ELLIPSE('',#746,0.00707106781186547,0.005);
#35=CIRCLE('',#699,0.002);
#36=CIRCLE('',#700,0.002);
#37=CIRCLE('',#701,0.002);
#38=CIRCLE('',#702,0.002);
#39=CIRCLE('',#718,0.00255);
#40=CIRCLE('',#719,0.00255);
#41=CIRCLE('',#721,0.00255);
#42=CIRCLE('',#722,0.00255);
#43=CIRCLE('',#726,0.00135);
#44=CIRCLE('',#727,0.00135);
#45=CIRCLE('',#729,0.00135);
#46=CIRCLE('',#730,0.00135);
#47=CIRCLE('',#732,0.00135);
#48=CIRCLE('',#735,0.00135);
#49=CIRCLE('',#738,0.00135);
#50=CIRCLE('',#741,0.00135);
#51=CIRCLE('',#749,0.0017859375);
#52=CIRCLE('',#751,0.0017859375);
#53=CIRCLE('',#753,0.0017859375);
#54=CIRCLE('',#755,0.0017859375);
#55=CIRCLE('',#757,0.0017859375);
#56=CIRCLE('',#760,0.0017859375);
#57=CIRCLE('',#763,0.0017859375);
#58=CIRCLE('',#766,0.0017859375);
#59=ORIENTED_EDGE('',*,*,#221,.T.);
#60=ORIENTED_EDGE('',*,*,#222,.T.);
#61=ORIENTED_EDGE('',*,*,#223,.F.);
#62=ORIENTED_EDGE('',*,*,#224,.F.);
#63=ORIENTED_EDGE('',*,*,#225,.F.);
#64=ORIENTED_EDGE('',*,*,#226,.F.);
#65=ORIENTED_EDGE('',*,*,#227,.T.);
#66=ORIENTED_EDGE('',*,*,#228,.T.);
#67=ORIENTED_EDGE('',*,*,#229,.T.);
#68=ORIENTED_EDGE('',*,*,#230,.T.);
#69=ORIENTED_EDGE('',*,*,#231,.T.);
#70=ORIENTED_EDGE('',*,*,#232,.T.);
#71=ORIENTED_EDGE('',*,*,#233,.T.);
#72=ORIENTED_EDGE('',*,*,#234,.T.);
#73=ORIENTED_EDGE('',*,*,#235,.T.);
#74=ORIENTED_EDGE('',*,*,#236,.F.);
#75=ORIENTED_EDGE('',*,*,#237,.T.);
#76=ORIENTED_EDGE('',*,*,#238,.F.);
#77=ORIENTED_EDGE('',*,*,#239,.F.);
#78=ORIENTED_EDGE('',*,*,#233,.F.);
#79=ORIENTED_EDGE('',*,*,#240,.T.);
#80=ORIENTED_EDGE('',*,*,#241,.T.);
#81=ORIENTED_EDGE('',*,*,#242,.F.);
#82=ORIENTED_EDGE('',*,*,#243,.T.);
#83=ORIENTED_EDGE('',*,*,#244,.F.);
#84=ORIENTED_EDGE('',*,*,#245,.T.);
#85=ORIENTED_EDGE('',*,*,#246,.T.);
#86=ORIENTED_EDGE('',*,*,#242,.T.);
#87=ORIENTED_EDGE('',*,*,#247,.F.);
#88=ORIENTED_EDGE('',*,*,#248,.T.);
#89=ORIENTED_EDGE('',*,*,#249,.T.);
#90=ORIENTED_EDGE('',*,*,#237,.F.);
#91=ORIENTED_EDGE('',*,*,#246,.F.);
#92=ORIENTED_EDGE('',*,*,#250,.T.);
#93=ORIENTED_EDGE('',*,*,#247,.T.);
#94=ORIENTED_EDGE('',*,*,#243,.F.);
#95=ORIENTED_EDGE('',*,*,#240,.F.);
#96=ORIENTED_EDGE('',*,*,#236,.T.);
#97=ORIENTED_EDGE('',*,*,#251,.T.);
#98=ORIENTED_EDGE('',*,*,#252,.T.);
#99=ORIENTED_EDGE('',*,*,#253,.T.);
#100=ORIENTED_EDGE('',*,*,#254,.T.);
#101=ORIENTED_EDGE('',*,*,#244,.T.);
#102=ORIENTED_EDGE('',*,*,#241,.F.);
#103=ORIENTED_EDGE('',*,*,#252,.F.);
#104=ORIENTED_EDGE('',*,*,#234,.F.);
#105=ORIENTED_EDGE('',*,*,#239,.T.);
#106=ORIENTED_EDGE('',*,*,#255,.F.);
#107=ORIENTED_EDGE('',*,*,#256,.F.);
#108=ORIENTED_EDGE('',*,*,#249,.F.);
#109=ORIENTED_EDGE('',*,*,#257,.T.);
#110=ORIENTED_EDGE('',*,*,#258,.F.);
#111=ORIENTED_EDGE('',*,*,#255,.T.);
#112=ORIENTED_EDGE('',*,*,#238,.T.);
#113=ORIENTED_EDGE('',*,*,#259,.T.);
#114=ORIENTED_EDGE('',*,*,#260,.T.);
#115=ORIENTED_EDGE('',*,*,#261,.T.);
#116=ORIENTED_EDGE('',*,*,#262,.T.);
#117=ORIENTED_EDGE('',*,*,#263,.F.);
#118=ORIENTED_EDGE('',*,*,#264,.F.);
#119=ORIENTED_EDGE('',*,*,#265,.F.);
#120=ORIENTED_EDGE('',*,*,#266,.T.);
#121=ORIENTED_EDGE('',*,*,#223,.T.);
#122=ORIENTED_EDGE('',*,*,#267,.F.);
#123=ORIENTED_EDGE('',*,*,#228,.F.);
#124=ORIENTED_EDGE('',*,*,#268,.T.);
#125=ORIENTED_EDGE('',*,*,#251,.F.);
#126=ORIENTED_EDGE('',*,*,#235,.F.);
#127=ORIENTED_EDGE('',*,*,#256,.T.);
#128=ORIENTED_EDGE('',*,*,#269,.T.);
#129=ORIENTED_EDGE('',*,*,#270,.T.);
#130=ORIENTED_EDGE('',*,*,#271,.F.);
#131=ORIENTED_EDGE('',*,*,#272,.F.);
#132=ORIENTED_EDGE('',*,*,#273,.T.);
#133=ORIENTED_EDGE('',*,*,#274,.F.);
#134=ORIENTED_EDGE('',*,*,#221,.F.);
#135=ORIENTED_EDGE('',*,*,#275,.T.);
#136=ORIENTED_EDGE('',*,*,#226,.T.);
#137=ORIENTED_EDGE('',*,*,#276,.T.);
#138=ORIENTED_EDGE('',*,*,#277,.T.);
#139=ORIENTED_EDGE('',*,*,#265,.T.);
#140=ORIENTED_EDGE('',*,*,#278,.F.);
#141=ORIENTED_EDGE('',*,*,#270,.F.);
#142=ORIENTED_EDGE('',*,*,#279,.T.);
#143=ORIENTED_EDGE('',*,*,#280,.T.);
#144=ORIENTED_EDGE('',*,*,#281,.T.);
#145=ORIENTED_EDGE('',*,*,#272,.T.);
#146=ORIENTED_EDGE('',*,*,#282,.T.);
#147=ORIENTED_EDGE('',*,*,#263,.T.);
#148=ORIENTED_EDGE('',*,*,#253,.F.);
#149=ORIENTED_EDGE('',*,*,#269,.F.);
#150=ORIENTED_EDGE('',*,*,#258,.T.);
#151=ORIENTED_EDGE('',*,*,#259,.F.);
#152=ORIENTED_EDGE('',*,*,#283,.F.);
#153=ORIENTED_EDGE('',*,*,#279,.F.);
#154=ORIENTED_EDGE('',*,*,#273,.F.);
#155=ORIENTED_EDGE('',*,*,#283,.T.);
#156=ORIENTED_EDGE('',*,*,#266,.F.);
#157=ORIENTED_EDGE('',*,*,#264,.T.);
#158=ORIENTED_EDGE('',*,*,#282,.F.);
#159=ORIENTED_EDGE('',*,*,#271,.T.);
#160=ORIENTED_EDGE('',*,*,#278,.T.);
#161=ORIENTED_EDGE('',*,*,#284,.F.);
#162=ORIENTED_EDGE('',*,*,#285,.F.);
#163=ORIENTED_EDGE('',*,*,#275,.F.);
#164=ORIENTED_EDGE('',*,*,#224,.T.);
#165=ORIENTED_EDGE('',*,*,#268,.F.);
#166=ORIENTED_EDGE('',*,*,#227,.F.);
#167=ORIENTED_EDGE('',*,*,#286,.F.);
#168=ORIENTED_EDGE('',*,*,#287,.F.);
#169=ORIENTED_EDGE('',*,*,#222,.F.);
#170=ORIENTED_EDGE('',*,*,#274,.T.);
#171=ORIENTED_EDGE('',*,*,#225,.T.);
#172=ORIENTED_EDGE('',*,*,#267,.T.);
#173=ORIENTED_EDGE('',*,*,#287,.T.);
#174=ORIENTED_EDGE('',*,*,#288,.F.);
#175=ORIENTED_EDGE('',*,*,#288,.T.);
#176=ORIENTED_EDGE('',*,*,#277,.F.);
#177=ORIENTED_EDGE('',*,*,#286,.T.);
#178=ORIENTED_EDGE('',*,*,#289,.F.);
#179=ORIENTED_EDGE('',*,*,#289,.T.);
#180=ORIENTED_EDGE('',*,*,#276,.F.);
#181=ORIENTED_EDGE('',*,*,#285,.T.);
#182=ORIENTED_EDGE('',*,*,#290,.F.);
#183=ORIENTED_EDGE('',*,*,#290,.T.);
#184=ORIENTED_EDGE('',*,*,#281,.F.);
#185=ORIENTED_EDGE('',*,*,#284,.T.);
#186=ORIENTED_EDGE('',*,*,#291,.F.);
#187=ORIENTED_EDGE('',*,*,#291,.T.);
#188=ORIENTED_EDGE('',*,*,#280,.F.);
#189=ORIENTED_EDGE('',*,*,#254,.F.);
#190=ORIENTED_EDGE('',*,*,#262,.F.);
#191=ORIENTED_EDGE('',*,*,#292,.F.);
#192=ORIENTED_EDGE('',*,*,#245,.F.);
#193=ORIENTED_EDGE('',*,*,#292,.T.);
#194=ORIENTED_EDGE('',*,*,#261,.F.);
#195=ORIENTED_EDGE('',*,*,#293,.F.);
#196=ORIENTED_EDGE('',*,*,#250,.F.);
#197=ORIENTED_EDGE('',*,*,#293,.T.);
#198=ORIENTED_EDGE('',*,*,#260,.F.);
#199=ORIENTED_EDGE('',*,*,#257,.F.);
#200=ORIENTED_EDGE('',*,*,#248,.F.);
#201=ORIENTED_EDGE('',*,*,#294,.F.);
#202=ORIENTED_EDGE('',*,*,#229,.F.);
#203=ORIENTED_EDGE('',*,*,#295,.F.);
#204=ORIENTED_EDGE('',*,*,#230,.F.);
#205=ORIENTED_EDGE('',*,*,#296,.F.);
#206=ORIENTED_EDGE('',*,*,#231,.F.);
#207=ORIENTED_EDGE('',*,*,#297,.F.);
#208=ORIENTED_EDGE('',*,*,#232,.F.);
#209=ORIENTED_EDGE('',*,*,#298,.F.);
#210=ORIENTED_EDGE('',*,*,#298,.T.);
#211=ORIENTED_EDGE('',*,*,#294,.T.);
#212=ORIENTED_EDGE('',*,*,#299,.F.);
#213=ORIENTED_EDGE('',*,*,#299,.T.);
#214=ORIENTED_EDGE('',*,*,#295,.T.);
#215=ORIENTED_EDGE('',*,*,#300,.F.);
#216=ORIENTED_EDGE('',*,*,#300,.T.);
#217=ORIENTED_EDGE('',*,*,#296,.T.);
#218=ORIENTED_EDGE('',*,*,#301,.F.);
#219=ORIENTED_EDGE('',*,*,#301,.T.);
#220=ORIENTED_EDGE('',*,*,#297,.T.);
#221=EDGE_CURVE('',#302,#303,#362,.T.);
#222=EDGE_CURVE('',#303,#304,#363,.T.);
#223=EDGE_CURVE('',#305,#304,#364,.T.);
#224=EDGE_CURVE('',#302,#305,#365,.T.);
#225=EDGE_CURVE('',#306,#307,#366,.T.);
#226=EDGE_CURVE('',#308,#306,#367,.T.);
#227=EDGE_CURVE('',#308,#309,#368,.T.);
#228=EDGE_CURVE('',#309,#307,#369,.T.);
#229=EDGE_CURVE('',#310,#310,#35,.T.);
#230=EDGE_CURVE('',#311,#311,#36,.T.);
#231=EDGE_CURVE('',#312,#312,#37,.T.);
#232=EDGE_CURVE('',#313,#313,#38,.T.);
#233=EDGE_CURVE('',#314,#315,#370,.T.);
#234=EDGE_CURVE('',#315,#316,#371,.T.);
#235=EDGE_CURVE('',#316,#317,#372,.T.);
#236=EDGE_CURVE('',#314,#317,#373,.T.);
#237=EDGE_CURVE('',#318,#319,#374,.T.);
#238=EDGE_CURVE('',#320,#319,#375,.T.);
#239=EDGE_CURVE('',#315,#320,#376,.T.);
#240=EDGE_CURVE('',#314,#321,#377,.T.);
#241=EDGE_CURVE('',#321,#322,#378,.T.);
#242=EDGE_CURVE('',#323,#322,#379,.T.);
#243=EDGE_CURVE('',#323,#318,#380,.T.);
#244=EDGE_CURVE('',#324,#322,#381,.T.);
#245=EDGE_CURVE('',#324,#325,#382,.F.);
#246=EDGE_CURVE('',#325,#323,#383,.T.);
#247=EDGE_CURVE('',#326,#318,#384,.T.);
#248=EDGE_CURVE('',#326,#327,#385,.T.);
#249=EDGE_CURVE('',#327,#319,#386,.T.);
#250=EDGE_CURVE('',#325,#326,#387,.F.);
#251=EDGE_CURVE('',#317,#328,#388,.T.);
#252=EDGE_CURVE('',#328,#321,#389,.T.);
#253=EDGE_CURVE('',#328,#329,#390,.T.);
#254=EDGE_CURVE('',#329,#324,#31,.T.);
#255=EDGE_CURVE('',#330,#320,#391,.T.);
#256=EDGE_CURVE('',#316,#330,#392,.T.);
#257=EDGE_CURVE('',#327,#331,#32,.F.);
#258=EDGE_CURVE('',#330,#331,#393,.T.);
#259=EDGE_CURVE('',#332,#331,#394,.T.);
#260=EDGE_CURVE('',#331,#333,#395,.F.);
#261=EDGE_CURVE('',#333,#334,#396,.T.);
#262=EDGE_CURVE('',#334,#329,#397,.T.);
#263=EDGE_CURVE('',#335,#329,#398,.T.);
#264=EDGE_CURVE('',#336,#335,#399,.T.);
#265=EDGE_CURVE('',#337,#336,#400,.T.);
#266=EDGE_CURVE('',#337,#332,#401,.T.);
#267=EDGE_CURVE('',#307,#304,#402,.T.);
#268=EDGE_CURVE('',#309,#305,#403,.T.);
#269=EDGE_CURVE('',#330,#328,#404,.T.);
#270=EDGE_CURVE('',#338,#339,#405,.T.);
#271=EDGE_CURVE('',#340,#339,#406,.T.);
#272=EDGE_CURVE('',#341,#340,#407,.T.);
#273=EDGE_CURVE('',#341,#338,#408,.T.);
#274=EDGE_CURVE('',#303,#306,#409,.T.);
#275=EDGE_CURVE('',#302,#308,#410,.T.);
#276=EDGE_CURVE('',#342,#342,#39,.T.);
#277=EDGE_CURVE('',#343,#343,#40,.T.);
#278=EDGE_CURVE('',#339,#336,#411,.T.);
#279=EDGE_CURVE('',#338,#337,#412,.T.);
#280=EDGE_CURVE('',#344,#344,#41,.T.);
#281=EDGE_CURVE('',#345,#345,#42,.T.);
#282=EDGE_CURVE('',#340,#335,#413,.T.);
#283=EDGE_CURVE('',#341,#332,#414,.T.);
#284=EDGE_CURVE('',#346,#346,#43,.T.);
#285=EDGE_CURVE('',#347,#347,#44,.T.);
#286=EDGE_CURVE('',#348,#348,#45,.T.);
#287=EDGE_CURVE('',#349,#349,#46,.T.);
#288=EDGE_CURVE('',#350,#350,#47,.T.);
#289=EDGE_CURVE('',#351,#351,#48,.T.);
#290=EDGE_CURVE('',#352,#352,#49,.T.);
#291=EDGE_CURVE('',#353,#353,#50,.T.);
#292=EDGE_CURVE('',#325,#334,#33,.T.);
#293=EDGE_CURVE('',#326,#333,#34,.T.);
#294=EDGE_CURVE('',#354,#354,#51,.T.);
#295=EDGE_CURVE('',#355,#355,#52,.T.);
#296=EDGE_CURVE('',#356,#356,#53,.T.);
#297=EDGE_CURVE('',#357,#357,#54,.T.);
#298=EDGE_CURVE('',#358,#358,#55,.T.);
#299=EDGE_CURVE('',#359,#359,#56,.T.);
#300=EDGE_CURVE('',#360,#360,#57,.T.);
#301=EDGE_CURVE('',#361,#361,#58,.T.);
#302=VERTEX_POINT('',#970);
#303=VERTEX_POINT('',#971);
#304=VERTEX_POINT('',#973);
#305=VERTEX_POINT('',#975);
#306=VERTEX_POINT('',#979);
#307=VERTEX_POINT('',#980);
#308=VERTEX_POINT('',#982);
#309=VERTEX_POINT('',#984);
#310=VERTEX_POINT('',#988);
#311=VERTEX_POINT('',#990);
#312=VERTEX_POINT('',#992);
#313=VERTEX_POINT('',#994);
#314=VERTEX_POINT('',#996);
#315=VERTEX_POINT('',#997);
#316=VERTEX_POINT('',#999);
#317=VERTEX_POINT('',#1001);
#318=VERTEX_POINT('',#1005);
#319=VERTEX_POINT('',#1006);
#320=VERTEX_POINT('',#1008);
#321=VERTEX_POINT('',#1011);
#322=VERTEX_POINT('',#1013);
#323=VERTEX_POINT('',#1015);
#324=VERTEX_POINT('',#1019);
#325=VERTEX_POINT('',#1021);
#326=VERTEX_POINT('',#1025);
#327=VERTEX_POINT('',#1027);
#328=VERTEX_POINT('',#1033);
#329=VERTEX_POINT('',#1037);
#330=VERTEX_POINT('',#1041);
#331=VERTEX_POINT('',#1045);
#332=VERTEX_POINT('',#1049);
#333=VERTEX_POINT('',#1051);
#334=VERTEX_POINT('',#1053);
#335=VERTEX_POINT('',#1056);
#336=VERTEX_POINT('',#1058);
#337=VERTEX_POINT('',#1060);
#338=VERTEX_POINT('',#1069);
#339=VERTEX_POINT('',#1070);
#340=VERTEX_POINT('',#1072);
#341=VERTEX_POINT('',#1074);
#342=VERTEX_POINT('',#1080);
#343=VERTEX_POINT('',#1082);
#344=VERTEX_POINT('',#1087);
#345=VERTEX_POINT('',#1089);
#346=VERTEX_POINT('',#1096);
#347=VERTEX_POINT('',#1098);
#348=VERTEX_POINT('',#1101);
#349=VERTEX_POINT('',#1103);
#350=VERTEX_POINT('',#1106);
#351=VERTEX_POINT('',#1110);
#352=VERTEX_POINT('',#1114);
#353=VERTEX_POINT('',#1118);
#354=VERTEX_POINT('',#1127);
#355=VERTEX_POINT('',#1130);
#356=VERTEX_POINT('',#1133);
#357=VERTEX_POINT('',#1136);
#358=VERTEX_POINT('',#1139);
#359=VERTEX_POINT('',#1143);
#360=VERTEX_POINT('',#1147);
#361=VERTEX_POINT('',#1151);
#362=LINE('',#969,#415);
#363=LINE('',#972,#416);
#364=LINE('',#974,#417);
#365=LINE('',#976,#418);
#366=LINE('',#978,#419);
#367=LINE('',#981,#420);
#368=LINE('',#983,#421);
#369=LINE('',#985,#422);
#370=LINE('',#995,#423);
#371=LINE('',#998,#424);
#372=LINE('',#1000,#425);
#373=LINE('',#1002,#426);
#374=LINE('',#1004,#427);
#375=LINE('',#1007,#428);
#376=LINE('',#1009,#429);
#377=LINE('',#1010,#430);
#378=LINE('',#1012,#431);
#379=LINE('',#1014,#432);
#380=LINE('',#1016,#433);
#381=LINE('',#1018,#434);
#382=LINE('',#1020,#435);
#383=LINE('',#1022,#436);
#384=LINE('',#1024,#437);
#385=LINE('',#1026,#438);
#386=LINE('',#1028,#439);
#387=LINE('',#1030,#440);
#388=LINE('',#1032,#441);
#389=LINE('',#1034,#442);
#390=LINE('',#1036,#443);
#391=LINE('',#1040,#444);
#392=LINE('',#1042,#445);
#393=LINE('',#1046,#446);
#394=LINE('',#1048,#447);
#395=LINE('',#1050,#448);
#396=LINE('',#1052,#449);
#397=LINE('',#1054,#450);
#398=LINE('',#1055,#451);
#399=LINE('',#1057,#452);
#400=LINE('',#1059,#453);
#401=LINE('',#1061,#454);
#402=LINE('',#1063,#455);
#403=LINE('',#1064,#456);
#404=LINE('',#1066,#457);
#405=LINE('',#1068,#458);
#406=LINE('',#1071,#459);
#407=LINE('',#1073,#460);
#408=LINE('',#1075,#461);
#409=LINE('',#1076,#462);
#410=LINE('',#1077,#463);
#411=LINE('',#1083,#464);
#412=LINE('',#1084,#465);
#413=LINE('',#1090,#466);
#414=LINE('',#1091,#467);
#415=VECTOR('',#772,1.);
#416=VECTOR('',#773,1.);
#417=VECTOR('',#774,1.);
#418=VECTOR('',#775,1.);
#419=VECTOR('',#778,1.);
#420=VECTOR('',#779,1.);
#421=VECTOR('',#780,1.);
#422=VECTOR('',#781,1.);
#423=VECTOR('',#792,1.);
#424=VECTOR('',#793,1.);
#425=VECTOR('',#794,1.);
#426=VECTOR('',#795,1.);
#427=VECTOR('',#798,1.);
#428=VECTOR('',#799,1.);
#429=VECTOR('',#800,1.);
#430=VECTOR('',#801,1.);
#431=VECTOR('',#802,1.);
#432=VECTOR('',#803,1.);
#433=VECTOR('',#804,1.);
#434=VECTOR('',#807,1.);
#435=VECTOR('',#808,1.);
#436=VECTOR('',#809,1.);
#437=VECTOR('',#812,1.);
#438=VECTOR('',#813,1.);
#439=VECTOR('',#814,1.);
#440=VECTOR('',#817,1.);
#441=VECTOR('',#820,1.);
#442=VECTOR('',#821,1.);
#443=VECTOR('',#824,1.);
#444=VECTOR('',#829,1.);
#445=VECTOR('',#830,1.);
#446=VECTOR('',#835,1.);
#447=VECTOR('',#838,1.);
#448=VECTOR('',#839,1.);
#449=VECTOR('',#840,1.);
#450=VECTOR('',#841,1.);
#451=VECTOR('',#842,1.);
#452=VECTOR('',#843,1.);
#453=VECTOR('',#844,1.);
#454=VECTOR('',#845,1.);
#455=VECTOR('',#848,1.);
#456=VECTOR('',#849,1.);
#457=VECTOR('',#852,1.);
#458=VECTOR('',#855,1.);
#459=VECTOR('',#856,1.);
#460=VECTOR('',#857,1.);
#461=VECTOR('',#858,1.);
#462=VECTOR('',#859,1.);
#463=VECTOR('',#860,1.);
#464=VECTOR('',#867,1.);
#465=VECTOR('',#868,1.);
#466=VECTOR('',#875,1.);
#467=VECTOR('',#876,1.);
#468=EDGE_LOOP('',(#59,#60,#61,#62));
#469=EDGE_LOOP('',(#63,#64,#65,#66));
#470=EDGE_LOOP('',(#67));
#471=EDGE_LOOP('',(#68));
#472=EDGE_LOOP('',(#69));
#473=EDGE_LOOP('',(#70));
#474=EDGE_LOOP('',(#71,#72,#73,#74));
#475=EDGE_LOOP('',(#75,#76,#77,#78,#79,#80,#81,#82));
#476=EDGE_LOOP('',(#83,#84,#85,#86));
#477=EDGE_LOOP('',(#87,#88,#89,#90));
#478=EDGE_LOOP('',(#91,#92,#93,#94));
#479=EDGE_LOOP('',(#95,#96,#97,#98));
#480=EDGE_LOOP('',(#99,#100,#101,#102,#103));
#481=EDGE_LOOP('',(#104,#105,#106,#107));
#482=EDGE_LOOP('',(#108,#109,#110,#111,#112));
#483=EDGE_LOOP('',(#113,#114,#115,#116,#117,#118,#119,#120));
#484=EDGE_LOOP('',(#121,#122,#123,#124));
#485=EDGE_LOOP('',(#125,#126,#127,#128));
#486=EDGE_LOOP('',(#129,#130,#131,#132));
#487=EDGE_LOOP('',(#133,#134,#135,#136));
#488=EDGE_LOOP('',(#137));
#489=EDGE_LOOP('',(#138));
#490=EDGE_LOOP('',(#139,#140,#141,#142));
#491=EDGE_LOOP('',(#143));
#492=EDGE_LOOP('',(#144));
#493=EDGE_LOOP('',(#145,#146,#147,#148,#149,#150,#151,#152));
#494=EDGE_LOOP('',(#153,#154,#155,#156));
#495=EDGE_LOOP('',(#157,#158,#159,#160));
#496=EDGE_LOOP('',(#161));
#497=EDGE_LOOP('',(#162));
#498=EDGE_LOOP('',(#163,#164,#165,#166));
#499=EDGE_LOOP('',(#167));
#500=EDGE_LOOP('',(#168));
#501=EDGE_LOOP('',(#169,#170,#171,#172));
#502=EDGE_LOOP('',(#173));
#503=EDGE_LOOP('',(#174));
#504=EDGE_LOOP('',(#175));
#505=EDGE_LOOP('',(#176));
#506=EDGE_LOOP('',(#177));
#507=EDGE_LOOP('',(#178));
#508=EDGE_LOOP('',(#179));
#509=EDGE_LOOP('',(#180));
#510=EDGE_LOOP('',(#181));
#511=EDGE_LOOP('',(#182));
#512=EDGE_LOOP('',(#183));
#513=EDGE_LOOP('',(#184));
#514=EDGE_LOOP('',(#185));
#515=EDGE_LOOP('',(#186));
#516=EDGE_LOOP('',(#187));
#517=EDGE_LOOP('',(#188));
#518=EDGE_LOOP('',(#189,#190,#191,#192));
#519=EDGE_LOOP('',(#193,#194,#195,#196));
#520=EDGE_LOOP('',(#197,#198,#199,#200));
#521=EDGE_LOOP('',(#201));
#522=EDGE_LOOP('',(#202));
#523=EDGE_LOOP('',(#203));
#524=EDGE_LOOP('',(#204));
#525=EDGE_LOOP('',(#205));
#526=EDGE_LOOP('',(#206));
#527=EDGE_LOOP('',(#207));
#528=EDGE_LOOP('',(#208));
#529=EDGE_LOOP('',(#209));
#530=EDGE_LOOP('',(#210));
#531=EDGE_LOOP('',(#211));
#532=EDGE_LOOP('',(#212));
#533=EDGE_LOOP('',(#213));
#534=EDGE_LOOP('',(#214));
#535=EDGE_LOOP('',(#215));
#536=EDGE_LOOP('',(#216));
#537=EDGE_LOOP('',(#217));
#538=EDGE_LOOP('',(#218));
#539=EDGE_LOOP('',(#219));
#540=EDGE_LOOP('',(#220));
#541=FACE_BOUND('',#468,.T.);
#542=FACE_BOUND('',#469,.T.);
#543=FACE_BOUND('',#470,.T.);
#544=FACE_BOUND('',#471,.T.);
#545=FACE_BOUND('',#472,.T.);
#546=FACE_BOUND('',#473,.T.);
#547=FACE_BOUND('',#474,.T.);
#548=FACE_BOUND('',#475,.T.);
#549=FACE_BOUND('',#476,.T.);
#550=FACE_BOUND('',#477,.T.);
#551=FACE_BOUND('',#478,.T.);
#552=FACE_BOUND('',#479,.T.);
#553=FACE_BOUND('',#480,.T.);
#554=FACE_BOUND('',#481,.T.);
#555=FACE_BOUND('',#482,.T.);
#556=FACE_BOUND('',#483,.T.);
#557=FACE_BOUND('',#484,.T.);
#558=FACE_BOUND('',#485,.T.);
#559=FACE_BOUND('',#486,.T.);
#560=FACE_BOUND('',#487,.T.);
#561=FACE_BOUND('',#488,.T.);
#562=FACE_BOUND('',#489,.T.);
#563=FACE_BOUND('',#490,.T.);
#564=FACE_BOUND('',#491,.T.);
#565=FACE_BOUND('',#492,.T.);
#566=FACE_BOUND('',#493,.T.);
#567=FACE_BOUND('',#494,.T.);
#568=FACE_BOUND('',#495,.T.);
#569=FACE_BOUND('',#496,.T.);
#570=FACE_BOUND('',#497,.T.);
#571=FACE_BOUND('',#498,.T.);
#572=FACE_BOUND('',#499,.T.);
#573=FACE_BOUND('',#500,.T.);
#574=FACE_BOUND('',#501,.T.);
#575=FACE_BOUND('',#502,.T.);
#576=FACE_BOUND('',#503,.T.);
#577=FACE_BOUND('',#504,.T.);
#578=FACE_BOUND('',#505,.T.);
#579=FACE_BOUND('',#506,.T.);
#580=FACE_BOUND('',#507,.T.);
#581=FACE_BOUND('',#508,.T.);
#582=FACE_BOUND('',#509,.T.);
#583=FACE_BOUND('',#510,.T.);
#584=FACE_BOUND('',#511,.T.);
#585=FACE_BOUND('',#512,.T.);
#586=FACE_BOUND('',#513,.T.);
#587=FACE_BOUND('',#514,.T.);
#588=FACE_BOUND('',#515,.T.);
#589=FACE_BOUND('',#516,.T.);
#590=FACE_BOUND('',#517,.T.);
#591=FACE_BOUND('',#518,.T.);
#592=FACE_BOUND('',#519,.T.);
#593=FACE_BOUND('',#520,.T.);
#594=FACE_BOUND('',#521,.T.);
#595=FACE_BOUND('',#522,.T.);
#596=FACE_BOUND('',#523,.T.);
#597=FACE_BOUND('',#524,.T.);
#598=FACE_BOUND('',#525,.T.);
#599=FACE_BOUND('',#526,.T.);
#600=FACE_BOUND('',#527,.T.);
#601=FACE_BOUND('',#528,.T.);
#602=FACE_BOUND('',#529,.T.);
#603=FACE_BOUND('',#530,.T.);
#604=FACE_BOUND('',#531,.T.);
#605=FACE_BOUND('',#532,.T.);
#606=FACE_BOUND('',#533,.T.);
#607=FACE_BOUND('',#534,.T.);
#608=FACE_BOUND('',#535,.T.);
#609=FACE_BOUND('',#536,.T.);
#610=FACE_BOUND('',#537,.T.);
#611=FACE_BOUND('',#538,.T.);
#612=FACE_BOUND('',#539,.T.);
#613=FACE_BOUND('',#540,.T.);
#614=PLANE('',#696);
#615=PLANE('',#697);
#616=PLANE('',#698);
#617=PLANE('',#703);
#618=PLANE('',#704);
#619=PLANE('',#705);
#620=PLANE('',#706);
#621=PLANE('',#707);
#622=PLANE('',#708);
#623=PLANE('',#710);
#624=PLANE('',#711);
#625=PLANE('',#713);
#626=PLANE('',#714);
#627=PLANE('',#715);
#628=PLANE('',#716);
#629=PLANE('',#717);
#630=PLANE('',#720);
#631=PLANE('',#723);
#632=PLANE('',#724);
#633=PLANE('',#725);
#634=PLANE('',#728);
#635=PLANE('',#756);
#636=PLANE('',#759);
#637=PLANE('',#762);
#638=PLANE('',#765);
#639=ADVANCED_FACE('',(#541),#614,.T.);
#640=ADVANCED_FACE('',(#542),#615,.F.);
#641=ADVANCED_FACE('',(#543,#544,#545,#546,#547),#616,.F.);
#642=ADVANCED_FACE('',(#548),#617,.T.);
#643=ADVANCED_FACE('',(#549),#618,.T.);
#644=ADVANCED_FACE('',(#550),#619,.F.);
#645=ADVANCED_FACE('',(#551),#620,.T.);
#646=ADVANCED_FACE('',(#552),#621,.F.);
#647=ADVANCED_FACE('',(#553),#622,.F.);
#648=ADVANCED_FACE('',(#554),#623,.T.);
#649=ADVANCED_FACE('',(#555),#624,.T.);
#650=ADVANCED_FACE('',(#556),#625,.F.);
#651=ADVANCED_FACE('',(#557),#626,.F.);
#652=ADVANCED_FACE('',(#558),#627,.F.);
#653=ADVANCED_FACE('',(#559,#560),#628,.T.);
#654=ADVANCED_FACE('',(#561,#562,#563),#629,.T.);
#655=ADVANCED_FACE('',(#564,#565,#566),#630,.F.);
#656=ADVANCED_FACE('',(#567),#631,.F.);
#657=ADVANCED_FACE('',(#568),#632,.T.);
#658=ADVANCED_FACE('',(#569,#570,#571),#633,.T.);
#659=ADVANCED_FACE('',(#572,#573,#574),#634,.F.);
#660=ADVANCED_FACE('',(#575,#576),#20,.F.);
#661=ADVANCED_FACE('',(#577,#578),#12,.F.);
#662=ADVANCED_FACE('',(#579,#580),#21,.F.);
#663=ADVANCED_FACE('',(#581,#582),#13,.F.);
#664=ADVANCED_FACE('',(#583,#584),#22,.F.);
#665=ADVANCED_FACE('',(#585,#586),#14,.F.);
#666=ADVANCED_FACE('',(#587,#588),#23,.F.);
#667=ADVANCED_FACE('',(#589,#590),#15,.F.);
#668=ADVANCED_FACE('',(#591),#24,.F.);
#669=ADVANCED_FACE('',(#592),#25,.F.);
#670=ADVANCED_FACE('',(#593),#26,.F.);
#671=ADVANCED_FACE('',(#594,#595),#16,.F.);
#672=ADVANCED_FACE('',(#596,#597),#17,.F.);
#673=ADVANCED_FACE('',(#598,#599),#18,.F.);
#674=ADVANCED_FACE('',(#600,#601),#19,.F.);
#675=ADVANCED_FACE('',(#602),#635,.F.);
#676=ADVANCED_FACE('',(#603,#604),#27,.F.);
#677=ADVANCED_FACE('',(#605),#636,.F.);
#678=ADVANCED_FACE('',(#606,#607),#28,.F.);
#679=ADVANCED_FACE('',(#608),#637,.F.);
#680=ADVANCED_FACE('',(#609,#610),#29,.F.);
#681=ADVANCED_FACE('',(#611),#638,.F.);
#682=ADVANCED_FACE('',(#612,#613),#30,.F.);
#683=CLOSED_SHELL('',(#639,#640,#641,#642,#643,#644,#645,#646,#647,#648,
#649,#650,#651,#652,#653,#654,#655,#656,#657,#658,#659,#660,#661,#662,#663,
#664,#665,#666,#667,#668,#669,#670,#671,#672,#673,#674,#675,#676,#677,#678,
#679,#680,#681,#682));
#684=STYLED_ITEM('',(#685),#692);
#685=PRESENTATION_STYLE_ASSIGNMENT((#686));
#686=SURFACE_STYLE_USAGE(.BOTH.,#687);
#687=SURFACE_SIDE_STYLE('',(#688));
#688=SURFACE_STYLE_FILL_AREA(#689);
#689=FILL_AREA_STYLE('',(#690));
#690=FILL_AREA_STYLE_COLOUR('',#691);
#691=COLOUR_RGB('',0.866666666666667,0.32156862745098,0.156862745098039);
#692=MANIFOLD_SOLID_BREP('Part 2',#683);
#693=SHAPE_DEFINITION_REPRESENTATION(#1159,#694);
#694=SHAPE_REPRESENTATION('Part 2',(#695),#1154);
#695=AXIS2_PLACEMENT_3D('',#967,#768,#769);
#696=AXIS2_PLACEMENT_3D('',#968,#770,#771);
#697=AXIS2_PLACEMENT_3D('',#977,#776,#777);
#698=AXIS2_PLACEMENT_3D('',#986,#782,#783);
#699=AXIS2_PLACEMENT_3D('',#987,#784,#785);
#700=AXIS2_PLACEMENT_3D('',#989,#786,#787);
#701=AXIS2_PLACEMENT_3D('',#991,#788,#789);
#702=AXIS2_PLACEMENT_3D('',#993,#790,#791);
#703=AXIS2_PLACEMENT_3D('',#1003,#796,#797);
#704=AXIS2_PLACEMENT_3D('',#1017,#805,#806);
#705=AXIS2_PLACEMENT_3D('',#1023,#810,#811);
#706=AXIS2_PLACEMENT_3D('',#1029,#815,#816);
#707=AXIS2_PLACEMENT_3D('',#1031,#818,#819);
#708=AXIS2_PLACEMENT_3D('',#1035,#822,#823);
#709=AXIS2_PLACEMENT_3D('',#1038,#825,#826);
#710=AXIS2_PLACEMENT_3D('',#1039,#827,#828);
#711=AXIS2_PLACEMENT_3D('',#1043,#831,#832);
#712=AXIS2_PLACEMENT_3D('',#1044,#833,#834);
#713=AXIS2_PLACEMENT_3D('',#1047,#836,#837);
#714=AXIS2_PLACEMENT_3D('',#1062,#846,#847);
#715=AXIS2_PLACEMENT_3D('',#1065,#850,#851);
#716=AXIS2_PLACEMENT_3D('',#1067,#853,#854);
#717=AXIS2_PLACEMENT_3D('',#1078,#861,#862);
#718=AXIS2_PLACEMENT_3D('',#1079,#863,#864);
#719=AXIS2_PLACEMENT_3D('',#1081,#865,#866);
#720=AXIS2_PLACEMENT_3D('',#1085,#869,#870);
#721=AXIS2_PLACEMENT_3D('',#1086,#871,#872);
#722=AXIS2_PLACEMENT_3D('',#1088,#873,#874);
#723=AXIS2_PLACEMENT_3D('',#1092,#877,#878);
#724=AXIS2_PLACEMENT_3D('',#1093,#879,#880);
#725=AXIS2_PLACEMENT_3D('',#1094,#881,#882);
#726=AXIS2_PLACEMENT_3D('',#1095,#883,#884);
#727=AXIS2_PLACEMENT_3D('',#1097,#885,#886);
#728=AXIS2_PLACEMENT_3D('',#1099,#887,#888);
#729=AXIS2_PLACEMENT_3D('',#1100,#889,#890);
#730=AXIS2_PLACEMENT_3D('',#1102,#891,#892);
#731=AXIS2_PLACEMENT_3D('',#1104,#893,#894);
#732=AXIS2_PLACEMENT_3D('',#1105,#895,#896);
#733=AXIS2_PLACEMENT_3D('',#1107,#897,#898);
#734=AXIS2_PLACEMENT_3D('',#1108,#899,#900);
#735=AXIS2_PLACEMENT_3D('',#1109,#901,#902);
#736=AXIS2_PLACEMENT_3D('',#1111,#903,#904);
#737=AXIS2_PLACEMENT_3D('',#1112,#905,#906);
#738=AXIS2_PLACEMENT_3D('',#1113,#907,#908);
#739=AXIS2_PLACEMENT_3D('',#1115,#909,#910);
#740=AXIS2_PLACEMENT_3D('',#1116,#911,#912);
#741=AXIS2_PLACEMENT_3D('',#1117,#913,#914);
#742=AXIS2_PLACEMENT_3D('',#1119,#915,#916);
#743=AXIS2_PLACEMENT_3D('',#1120,#917,#918);
#744=AXIS2_PLACEMENT_3D('',#1121,#919,#920);
#745=AXIS2_PLACEMENT_3D('',#1122,#921,#922);
#746=AXIS2_PLACEMENT_3D('',#1123,#923,#924);
#747=AXIS2_PLACEMENT_3D('',#1124,#925,#926);
#748=AXIS2_PLACEMENT_3D('',#1125,#927,#928);
#749=AXIS2_PLACEMENT_3D('',#1126,#929,#930);
#750=AXIS2_PLACEMENT_3D('',#1128,#931,#932);
#751=AXIS2_PLACEMENT_3D('',#1129,#933,#934);
#752=AXIS2_PLACEMENT_3D('',#1131,#935,#936);
#753=AXIS2_PLACEMENT_3D('',#1132,#937,#938);
#754=AXIS2_PLACEMENT_3D('',#1134,#939,#940);
#755=AXIS2_PLACEMENT_3D('',#1135,#941,#942);
#756=AXIS2_PLACEMENT_3D('',#1137,#943,#944);
#757=AXIS2_PLACEMENT_3D('',#1138,#945,#946);
#758=AXIS2_PLACEMENT_3D('',#1140,#947,#948);
#759=AXIS2_PLACEMENT_3D('',#1141,#949,#950);
#760=AXIS2_PLACEMENT_3D('',#1142,#951,#952);
#761=AXIS2_PLACEMENT_3D('',#1144,#953,#954);
#762=AXIS2_PLACEMENT_3D('',#1145,#955,#956);
#763=AXIS2_PLACEMENT_3D('',#1146,#957,#958);
#764=AXIS2_PLACEMENT_3D('',#1148,#959,#960);
#765=AXIS2_PLACEMENT_3D('',#1149,#961,#962);
#766=AXIS2_PLACEMENT_3D('',#1150,#963,#964);
#767=AXIS2_PLACEMENT_3D('',#1152,#965,#966);
#768=DIRECTION('',(0.,0.,1.));
#769=DIRECTION('',(1.,0.,0.));
#770=DIRECTION('',(1.,0.,0.));
#771=DIRECTION('',(0.,1.,0.));
#772=DIRECTION('',(0.,-1.,0.));
#773=DIRECTION('',(0.,-1.47636040508664E-16,-1.));
#774=DIRECTION('',(0.,-1.,0.));
#775=DIRECTION('',(0.,1.47636040508664E-16,-1.));
#776=DIRECTION('',(1.,0.,0.));
#777=DIRECTION('',(0.,1.,0.));
#778=DIRECTION('',(0.,-1.47636040508664E-16,-1.));
#779=DIRECTION('',(0.,-1.,0.));
#780=DIRECTION('',(0.,1.47636040508664E-16,-1.));
#781=DIRECTION('',(0.,-1.,0.));
#782=DIRECTION('',(0.,-1.,0.));
#783=DIRECTION('',(1.,0.,0.));
#784=DIRECTION('',(0.,-1.,0.));
#785=DIRECTION('',(0.,0.,-1.));
#786=DIRECTION('',(0.,-1.,0.));
#787=DIRECTION('',(0.,0.,-1.));
#788=DIRECTION('',(0.,-1.,0.));
#789=DIRECTION('',(0.,0.,-1.));
#790=DIRECTION('',(0.,-1.,0.));
#791=DIRECTION('',(0.,0.,-1.));
#792=DIRECTION('',(-1.,0.,0.));
#793=DIRECTION('',(0.,0.,1.));
#794=DIRECTION('',(1.,0.,1.11022302462516E-15));
#795=DIRECTION('',(0.,0.,1.));
#796=DIRECTION('',(0.,0.,-1.));
#797=DIRECTION('',(-1.,0.,0.));
#798=DIRECTION('',(0.,1.,0.));
#799=DIRECTION('',(-1.,0.,0.));
#800=DIRECTION('',(0.,1.,0.));
#801=DIRECTION('',(0.,1.,0.));
#802=DIRECTION('',(1.,0.,0.));
#803=DIRECTION('',(0.,1.,0.));
#804=DIRECTION('',(-1.,0.,0.));
#805=DIRECTION('',(1.,0.,6.19544098563146E-17));
#806=DIRECTION('',(6.19544098563146E-17,0.,-1.));
#807=DIRECTION('',(0.,-0.258819045102521,-0.965925826289068));
#808=DIRECTION('',(0.,1.,0.));
#809=DIRECTION('',(6.19544098563146E-17,0.,-1.));
#810=DIRECTION('',(1.,0.,6.19544098563146E-17));
#811=DIRECTION('',(6.19544098563146E-17,0.,-1.));
#812=DIRECTION('',(6.19544098563146E-17,0.,-1.));
#813=DIRECTION('',(0.,1.,0.));
#814=DIRECTION('',(0.,-0.258819045102521,-0.965925826289068));
#815=DIRECTION('',(0.,-1.,0.));
#816=DIRECTION('',(1.,0.,0.));
#817=DIRECTION('',(1.,0.,0.));
#818=DIRECTION('',(1.,0.,0.));
#819=DIRECTION('',(0.,1.,0.));
#820=DIRECTION('',(0.,1.,0.));
#821=DIRECTION('',(0.,-0.258819045102521,-0.965925826289068));
#822=DIRECTION('',(0.,-0.965925826289068,0.258819045102521));
#823=DIRECTION('',(0.,-0.258819045102521,-0.965925826289069));
#824=DIRECTION('',(1.,0.,0.));
#825=DIRECTION('',(0.,-0.965925826289068,0.258819045102521));
#826=DIRECTION('',(0.,0.258819045102521,0.965925826289069));
#827=DIRECTION('',(1.,0.,0.));
#828=DIRECTION('',(0.,1.,0.));
#829=DIRECTION('',(0.,-0.258819045102521,-0.965925826289068));
#830=DIRECTION('',(0.,1.,0.));
#831=DIRECTION('',(0.,0.965925826289068,-0.258819045102521));
#832=DIRECTION('',(0.,0.258819045102521,0.965925826289069));
#833=DIRECTION('',(0.,0.965925826289068,-0.258819045102521));
#834=DIRECTION('',(0.,-0.258819045102521,-0.965925826289069));
#835=DIRECTION('',(-1.,0.,0.));
#836=DIRECTION('',(0.,0.,1.));
#837=DIRECTION('',(1.,0.,0.));
#838=DIRECTION('',(1.,0.,0.));
#839=DIRECTION('',(0.,1.,0.));
#840=DIRECTION('',(1.,0.,0.));
#841=DIRECTION('',(0.,1.,0.));
#842=DIRECTION('',(-1.,0.,0.));
#843=DIRECTION('',(0.,1.,0.));
#844=DIRECTION('',(1.,0.,0.));
#845=DIRECTION('',(0.,1.,0.));
#846=DIRECTION('',(0.,0.,-1.));
#847=DIRECTION('',(-1.,0.,0.));
#848=DIRECTION('',(-1.,0.,0.));
#849=DIRECTION('',(-1.,0.,0.));
#850=DIRECTION('',(0.,0.,1.));
#851=DIRECTION('',(1.,0.,0.));
#852=DIRECTION('',(1.,0.,0.));
#853=DIRECTION('',(0.,0.,1.));
#854=DIRECTION('',(1.,0.,0.));
#855=DIRECTION('',(1.,0.,0.));
#856=DIRECTION('',(0.,-1.,0.));
#857=DIRECTION('',(1.,0.,0.));
#858=DIRECTION('',(0.,-1.,0.));
#859=DIRECTION('',(1.,0.,0.));
#860=DIRECTION('',(1.,0.,0.));
#861=DIRECTION('',(0.,-1.,1.47636040508664E-16));
#862=DIRECTION('',(0.,-1.47636040508664E-16,-1.));
#863=DIRECTION('',(0.,1.,-1.47636040508664E-16));
#864=DIRECTION('',(0.,1.47636040508664E-16,1.));
#865=DIRECTION('',(0.,1.,-1.47636040508664E-16));
#866=DIRECTION('',(0.,1.47636040508664E-16,1.));
#867=DIRECTION('',(0.,-1.47636040508664E-16,-1.));
#868=DIRECTION('',(0.,-1.47636040508664E-16,-1.));
#869=DIRECTION('',(0.,-1.,-1.47636040508664E-16));
#870=DIRECTION('',(0.,1.47636040508664E-16,-1.));
#871=DIRECTION('',(0.,-1.,-1.47636040508664E-16));
#872=DIRECTION('',(0.,1.47636040508664E-16,-1.));
#873=DIRECTION('',(0.,-1.,-1.47636040508664E-16));
#874=DIRECTION('',(0.,1.47636040508664E-16,-1.));
#875=DIRECTION('',(0.,1.47636040508664E-16,-1.));
#876=DIRECTION('',(0.,1.47636040508664E-16,-1.));
#877=DIRECTION('',(1.,0.,0.));
#878=DIRECTION('',(0.,1.,0.));
#879=DIRECTION('',(1.,0.,0.));
#880=DIRECTION('',(0.,1.,0.));
#881=DIRECTION('',(0.,-1.,-1.47636040508664E-16));
#882=DIRECTION('',(0.,1.47636040508664E-16,-1.));
#883=DIRECTION('',(0.,-1.,-1.47636040508664E-16));
#884=DIRECTION('',(0.,1.47636040508664E-16,-1.));
#885=DIRECTION('',(0.,-1.,-1.47636040508664E-16));
#886=DIRECTION('',(0.,1.47636040508664E-16,-1.));
#887=DIRECTION('',(0.,-1.,1.47636040508664E-16));
#888=DIRECTION('',(1.,0.,0.));
#889=DIRECTION('',(0.,1.,-1.47636040508664E-16));
#890=DIRECTION('',(0.,1.47636040508664E-16,1.));
#891=DIRECTION('',(0.,1.,-1.47636040508664E-16));
#892=DIRECTION('',(0.,1.47636040508664E-16,1.));
#893=DIRECTION('',(0.,1.,-1.47636040508664E-16));
#894=DIRECTION('',(0.,1.47636040508664E-16,1.));
#895=DIRECTION('',(0.,1.,-1.47636040508664E-16));
#896=DIRECTION('',(0.,1.47636040508664E-16,1.));
#897=DIRECTION('',(0.,-1.,1.47636040508664E-16));
#898=DIRECTION('',(0.,-1.47636040508664E-16,-1.));
#899=DIRECTION('',(0.,1.,-1.47636040508664E-16));
#900=DIRECTION('',(0.,1.47636040508664E-16,1.));
#901=DIRECTION('',(0.,1.,-1.47636040508664E-16));
#902=DIRECTION('',(0.,1.47636040508664E-16,1.));
#903=DIRECTION('',(0.,-1.,1.47636040508664E-16));
#904=DIRECTION('',(0.,-1.47636040508664E-16,-1.));
#905=DIRECTION('',(0.,-1.,-1.47636040508664E-16));
#906=DIRECTION('',(0.,1.47636040508664E-16,-1.));
#907=DIRECTION('',(0.,-1.,-1.47636040508664E-16));
#908=DIRECTION('',(0.,1.47636040508664E-16,-1.));
#909=DIRECTION('',(0.,1.,1.47636040508664E-16));
#910=DIRECTION('',(0.,-1.47636040508664E-16,1.));
#911=DIRECTION('',(0.,-1.,-1.47636040508664E-16));
#912=DIRECTION('',(0.,1.47636040508664E-16,-1.));
#913=DIRECTION('',(0.,-1.,-1.47636040508664E-16));
#914=DIRECTION('',(0.,1.47636040508664E-16,-1.));
#915=DIRECTION('',(0.,1.,1.47636040508664E-16));
#916=DIRECTION('',(0.,-1.47636040508664E-16,1.));
#917=DIRECTION('',(0.,1.,0.));
#918=DIRECTION('',(0.,0.,1.));
#919=DIRECTION('',(0.707106781186548,0.707106781186548,0.));
#920=DIRECTION('',(-0.707106781186548,0.707106781186548,0.));
#921=DIRECTION('',(1.,0.,0.));
#922=DIRECTION('',(0.,0.,-1.));
#923=DIRECTION('',(0.707106781186548,-0.707106781186548,0.));
#924=DIRECTION('',(0.707106781186548,0.707106781186548,0.));
#925=DIRECTION('',(0.,-1.,0.));
#926=DIRECTION('',(0.,0.,-1.));
#927=DIRECTION('',(0.,1.,0.));
#928=DIRECTION('',(0.,0.,-1.));
#929=DIRECTION('',(0.,1.,0.));
#930=DIRECTION('',(0.,0.,1.));
#931=DIRECTION('',(0.,1.,0.));
#932=DIRECTION('',(0.,0.,-1.));
#933=DIRECTION('',(0.,1.,0.));
#934=DIRECTION('',(0.,0.,1.));
#935=DIRECTION('',(0.,1.,0.));
#936=DIRECTION('',(0.,0.,-1.));
#937=DIRECTION('',(0.,1.,0.));
#938=DIRECTION('',(0.,0.,1.));
#939=DIRECTION('',(0.,1.,0.));
#940=DIRECTION('',(0.,0.,-1.));
#941=DIRECTION('',(0.,1.,0.));
#942=DIRECTION('',(0.,0.,1.));
#943=DIRECTION('',(0.,-1.,0.));
#944=DIRECTION('',(1.,0.,0.));
#945=DIRECTION('',(0.,-1.,0.));
#946=DIRECTION('',(0.,0.,-1.));
#947=DIRECTION('',(0.,1.,0.));
#948=DIRECTION('',(0.,0.,1.));
#949=DIRECTION('',(0.,-1.,0.));
#950=DIRECTION('',(1.,0.,0.));
#951=DIRECTION('',(0.,-1.,0.));
#952=DIRECTION('',(0.,0.,-1.));
#953=DIRECTION('',(0.,1.,0.));
#954=DIRECTION('',(0.,0.,1.));
#955=DIRECTION('',(0.,-1.,0.));
#956=DIRECTION('',(1.,0.,0.));
#957=DIRECTION('',(0.,-1.,0.));
#958=DIRECTION('',(0.,0.,-1.));
#959=DIRECTION('',(0.,1.,0.));
#960=DIRECTION('',(0.,0.,1.));
#961=DIRECTION('',(0.,-1.,0.));
#962=DIRECTION('',(1.,0.,0.));
#963=DIRECTION('',(0.,-1.,0.));
#964=DIRECTION('',(0.,0.,-1.));
#965=DIRECTION('',(0.,1.,0.));
#966=DIRECTION('',(0.,0.,1.));
#967=CARTESIAN_POINT('',(0.,0.,0.));
#968=CARTESIAN_POINT('',(-0.02225,-0.001,-0.0796877501080544));
#969=CARTESIAN_POINT('',(-0.02225,-0.017875,-0.0908127501080544));
#970=CARTESIAN_POINT('',(-0.02225,0.016,-0.0908127501080544));
#971=CARTESIAN_POINT('',(-0.02225,-0.018,-0.0908127501080544));
#972=CARTESIAN_POINT('',(-0.02225,-0.018,-0.0796877501080544));
#973=CARTESIAN_POINT('',(-0.02225,-0.018,-0.109312750108054));
#974=CARTESIAN_POINT('',(-0.02225,-0.000999999999999984,-0.109312750108054));
#975=CARTESIAN_POINT('',(-0.02225,0.016,-0.109312750108054));
#976=CARTESIAN_POINT('',(-0.02225,0.016,-0.0796877501080544));
#977=CARTESIAN_POINT('',(0.02225,-0.001,-0.0796877501080544));
#978=CARTESIAN_POINT('',(0.02225,-0.018,-0.0796877501080544));
#979=CARTESIAN_POINT('',(0.02225,-0.018,-0.0908127501080544));
#980=CARTESIAN_POINT('',(0.02225,-0.018,-0.109312750108054));
#981=CARTESIAN_POINT('',(0.02225,-0.001,-0.0908127501080544));
#982=CARTESIAN_POINT('',(0.02225,0.016,-0.0908127501080544));
#983=CARTESIAN_POINT('',(0.02225,0.016,-0.0796877501080544));
#984=CARTESIAN_POINT('',(0.02225,0.016,-0.109312750108054));
#985=CARTESIAN_POINT('',(0.02225,-0.000999999999999984,-0.109312750108054));
#986=CARTESIAN_POINT('',(6.93889390390723E-18,0.,-0.0852813750540272));
#987=CARTESIAN_POINT('',(-0.008,0.,-0.127562750108054));
#988=CARTESIAN_POINT('',(-0.008,0.,-0.129562750108054));
#989=CARTESIAN_POINT('',(0.008,0.,-0.159562750108055));
#990=CARTESIAN_POINT('',(0.008,0.,-0.161562750108055));
#991=CARTESIAN_POINT('',(-0.008,0.,-0.159562750108055));
#992=CARTESIAN_POINT('',(-0.008,0.,-0.161562750108055));
#993=CARTESIAN_POINT('',(0.008,0.,-0.127562750108054));
#994=CARTESIAN_POINT('',(0.008,0.,-0.129562750108054));
#995=CARTESIAN_POINT('',(-0.0175,0.,-0.170312750108054));
#996=CARTESIAN_POINT('',(0.01625,0.,-0.170312750108054));
#997=CARTESIAN_POINT('',(-0.01625,0.,-0.170312750108054));
#998=CARTESIAN_POINT('',(-0.01625,0.,-0.0852813750540272));
#999=CARTESIAN_POINT('',(-0.01625,0.,-0.114312750108054));
#1000=CARTESIAN_POINT('',(6.93889390390723E-18,0.,-0.114312750108054));
#1001=CARTESIAN_POINT('',(0.01625,0.,-0.114312750108054));
#1002=CARTESIAN_POINT('',(0.01625,0.,-0.0852813750540272));
#1003=CARTESIAN_POINT('',(-0.0175,-0.008,-0.170312750108054));
#1004=CARTESIAN_POINT('',(-0.01875,-0.008,-0.170312750108054));
#1005=CARTESIAN_POINT('',(-0.01875,-0.008,-0.170312750108054));
#1006=CARTESIAN_POINT('',(-0.01875,0.00349484522385715,-0.170312750108054));
#1007=CARTESIAN_POINT('',(-0.01625,0.00349484522385715,-0.170312750108054));
#1008=CARTESIAN_POINT('',(-0.01625,0.00349484522385715,-0.170312750108054));
#1009=CARTESIAN_POINT('',(-0.01625,0.000497422611928576,-0.170312750108054));
#1010=CARTESIAN_POINT('',(0.01625,0.000497422611928576,-0.170312750108054));
#1011=CARTESIAN_POINT('',(0.01625,0.00349484522385715,-0.170312750108054));
#1012=CARTESIAN_POINT('',(0.01625,0.00349484522385715,-0.170312750108054));
#1013=CARTESIAN_POINT('',(0.01875,0.00349484522385715,-0.170312750108054));
#1014=CARTESIAN_POINT('',(0.01875,-0.008,-0.170312750108054));
#1015=CARTESIAN_POINT('',(0.01875,-0.008,-0.170312750108054));
#1016=CARTESIAN_POINT('',(-0.0175,-0.008,-0.170312750108054));
#1017=CARTESIAN_POINT('',(0.01875,-0.008,-0.142312750108054));
#1018=CARTESIAN_POINT('',(0.01875,0.0109974226119286,-0.142312750108054));
#1019=CARTESIAN_POINT('',(0.01875,0.0171602540378444,-0.119312750108054));
#1020=CARTESIAN_POINT('',(0.01875,-0.008,-0.119312750108054));
#1021=CARTESIAN_POINT('',(0.01875,-0.008,-0.119312750108054));
#1022=CARTESIAN_POINT('',(0.01875,-0.008,-0.142312750108054));
#1023=CARTESIAN_POINT('',(-0.01875,-0.008,-0.142312750108054));
#1024=CARTESIAN_POINT('',(-0.01875,-0.008,-0.142312750108054));
#1025=CARTESIAN_POINT('',(-0.01875,-0.008,-0.119312750108054));
#1026=CARTESIAN_POINT('',(-0.01875,0.0185,-0.119312750108054));
#1027=CARTESIAN_POINT('',(-0.01875,0.0171602540378444,-0.119312750108054));
#1028=CARTESIAN_POINT('',(-0.01875,0.0109974226119286,-0.142312750108054));
#1029=CARTESIAN_POINT('',(6.93889390390723E-18,-0.008,-0.0852813750540272));
#1030=CARTESIAN_POINT('',(6.93889390390723E-18,-0.008,-0.119312750108054));
#1031=CARTESIAN_POINT('',(0.01625,0.008,-0.142312750108054));
#1032=CARTESIAN_POINT('',(0.01625,0.00925,-0.114312750108054));
#1033=CARTESIAN_POINT('',(0.01625,0.0185,-0.114312750108054));
#1034=CARTESIAN_POINT('',(0.01625,0.0109974226119286,-0.142312750108054));
#1035=CARTESIAN_POINT('',(0.01625,0.0109974226119286,-0.142312750108054));
#1036=CARTESIAN_POINT('',(0.01625,0.0185,-0.114312750108054));
#1037=CARTESIAN_POINT('',(0.02375,0.0185,-0.114312750108054));
#1038=CARTESIAN_POINT('',(0.02375,0.0171602540378444,-0.119312750108054));
#1039=CARTESIAN_POINT('',(-0.01625,0.008,-0.142312750108054));
#1040=CARTESIAN_POINT('',(-0.01625,0.0109974226119286,-0.142312750108054));
#1041=CARTESIAN_POINT('',(-0.01625,0.0185,-0.114312750108054));
#1042=CARTESIAN_POINT('',(-0.01625,0.00925,-0.114312750108054));
#1043=CARTESIAN_POINT('',(-0.01625,0.0109974226119286,-0.142312750108054));
#1044=CARTESIAN_POINT('',(-0.02375,0.0171602540378444,-0.119312750108054));
#1045=CARTESIAN_POINT('',(-0.02375,0.0185,-0.114312750108054));
#1046=CARTESIAN_POINT('',(-0.01625,0.0185,-0.114312750108054));
#1047=CARTESIAN_POINT('',(0.02225,-0.012875,-0.114312750108054));
#1048=CARTESIAN_POINT('',(-0.02475,0.0185,-0.114312750108054));
#1049=CARTESIAN_POINT('',(-0.02475,0.0185,-0.114312750108054));
#1050=CARTESIAN_POINT('',(-0.02375,-0.008,-0.114312750108054));
#1051=CARTESIAN_POINT('',(-0.02375,-0.013,-0.114312750108054));
#1052=CARTESIAN_POINT('',(0.02225,-0.013,-0.114312750108054));
#1053=CARTESIAN_POINT('',(0.02375,-0.013,-0.114312750108054));
#1054=CARTESIAN_POINT('',(0.02375,-0.012875,-0.114312750108054));
#1055=CARTESIAN_POINT('',(0.02475,0.0185,-0.114312750108054));
#1056=CARTESIAN_POINT('',(0.02475,0.0185,-0.114312750108054));
#1057=CARTESIAN_POINT('',(0.02475,-0.012875,-0.114312750108054));
#1058=CARTESIAN_POINT('',(0.02475,-0.0205,-0.114312750108054));
#1059=CARTESIAN_POINT('',(-0.02475,-0.0205,-0.114312750108054));
#1060=CARTESIAN_POINT('',(-0.02475,-0.0205,-0.114312750108054));
#1061=CARTESIAN_POINT('',(-0.02475,-0.012875,-0.114312750108054));
#1062=CARTESIAN_POINT('',(0.02225,-0.000999999999999984,-0.109312750108054));
#1063=CARTESIAN_POINT('',(0.02225,-0.018,-0.109312750108054));
#1064=CARTESIAN_POINT('',(0.02225,0.016,-0.109312750108054));
#1065=CARTESIAN_POINT('',(0.02225,-0.012875,-0.114312750108054));
#1066=CARTESIAN_POINT('',(-0.02475,0.0185,-0.114312750108054));
#1067=CARTESIAN_POINT('',(-0.02475,-0.017875,-0.0908127501080544));
#1068=CARTESIAN_POINT('',(-0.02475,-0.0205,-0.0908127501080544));
#1069=CARTESIAN_POINT('',(-0.02475,-0.0205,-0.0908127501080544));
#1070=CARTESIAN_POINT('',(0.02475,-0.0205,-0.0908127501080544));
#1071=CARTESIAN_POINT('',(0.02475,-0.001,-0.0908127501080544));
#1072=CARTESIAN_POINT('',(0.02475,0.0185,-0.0908127501080544));
#1073=CARTESIAN_POINT('',(-0.02475,0.0185,-0.0908127501080544));
#1074=CARTESIAN_POINT('',(-0.02475,0.0185,-0.0908127501080544));
#1075=CARTESIAN_POINT('',(-0.02475,-0.017875,-0.0908127501080544));
#1076=CARTESIAN_POINT('',(-0.02475,-0.018,-0.0908127501080544));
#1077=CARTESIAN_POINT('',(-0.02475,0.016,-0.0908127501080544));
#1078=CARTESIAN_POINT('',(-0.02475,-0.0205,-0.102562750108054));
#1079=CARTESIAN_POINT('',(-0.008,-0.0205,-0.102562750108054));
#1080=CARTESIAN_POINT('',(-0.008,-0.0205,-0.100012750108054));
#1081=CARTESIAN_POINT('',(0.008,-0.0205,-0.102562750108054));
#1082=CARTESIAN_POINT('',(0.008,-0.0205,-0.100012750108054));
#1083=CARTESIAN_POINT('',(0.02475,-0.0205,-0.102562750108054));
#1084=CARTESIAN_POINT('',(-0.02475,-0.0205,-0.102562750108054));
#1085=CARTESIAN_POINT('',(-0.02475,0.0185,-0.102562750108054));
#1086=CARTESIAN_POINT('',(0.008,0.0185,-0.102562750108054));
#1087=CARTESIAN_POINT('',(0.008,0.0185,-0.105112750108054));
#1088=CARTESIAN_POINT('',(-0.008,0.0185,-0.102562750108054));
#1089=CARTESIAN_POINT('',(-0.008,0.0185,-0.105112750108054));
#1090=CARTESIAN_POINT('',(0.02475,0.0185,-0.102562750108054));
#1091=CARTESIAN_POINT('',(-0.02475,0.0185,-0.102562750108054));
#1092=CARTESIAN_POINT('',(-0.02475,-0.001,-0.0796877501080544));
#1093=CARTESIAN_POINT('',(0.02475,-0.001,-0.0796877501080544));
#1094=CARTESIAN_POINT('',(-0.02475,0.016,-0.102562750108054));
#1095=CARTESIAN_POINT('',(0.008,0.016,-0.102562750108054));
#1096=CARTESIAN_POINT('',(0.008,0.016,-0.103912750108054));
#1097=CARTESIAN_POINT('',(-0.008,0.016,-0.102562750108054));
#1098=CARTESIAN_POINT('',(-0.008,0.016,-0.103912750108054));
#1099=CARTESIAN_POINT('',(0.,-0.018,-0.102562750108054));
#1100=CARTESIAN_POINT('',(-0.008,-0.018,-0.102562750108054));
#1101=CARTESIAN_POINT('',(-0.008,-0.018,-0.101212750108054));
#1102=CARTESIAN_POINT('',(0.008,-0.018,-0.102562750108054));
#1103=CARTESIAN_POINT('',(0.008,-0.018,-0.101212750108054));
#1104=CARTESIAN_POINT('',(0.008,-0.0205,-0.102562750108054));
#1105=CARTESIAN_POINT('',(0.008,-0.0193,-0.102562750108054));
#1106=CARTESIAN_POINT('',(0.008,-0.0193,-0.101212750108054));
#1107=CARTESIAN_POINT('',(0.008,-0.0205,-0.102562750108054));
#1108=CARTESIAN_POINT('',(-0.008,-0.0205,-0.102562750108054));
#1109=CARTESIAN_POINT('',(-0.008,-0.0193,-0.102562750108054));
#1110=CARTESIAN_POINT('',(-0.008,-0.0193,-0.101212750108054));
#1111=CARTESIAN_POINT('',(-0.008,-0.0205,-0.102562750108054));
#1112=CARTESIAN_POINT('',(-0.008,0.0185,-0.102562750108054));
#1113=CARTESIAN_POINT('',(-0.008,0.0173,-0.102562750108054));
#1114=CARTESIAN_POINT('',(-0.008,0.0173,-0.103912750108054));
#1115=CARTESIAN_POINT('',(-0.008,0.0185,-0.102562750108054));
#1116=CARTESIAN_POINT('',(0.008,0.0185,-0.102562750108054));
#1117=CARTESIAN_POINT('',(0.008,0.0173,-0.102562750108054));
#1118=CARTESIAN_POINT('',(0.008,0.0173,-0.103912750108054));
#1119=CARTESIAN_POINT('',(0.008,0.0185,-0.102562750108054));
#1120=CARTESIAN_POINT('',(0.02375,-0.012875,-0.119312750108054));
#1121=CARTESIAN_POINT('',(0.02375,-0.013,-0.119312750108054));
#1122=CARTESIAN_POINT('',(0.02225,-0.013,-0.119312750108054));
#1123=CARTESIAN_POINT('',(-0.02375,-0.013,-0.119312750108054));
#1124=CARTESIAN_POINT('',(-0.02375,-0.008,-0.119312750108054));
#1125=CARTESIAN_POINT('',(-0.008,0.,-0.127562750108054));
#1126=CARTESIAN_POINT('',(-0.008,-0.00152313383119786,-0.127562750108054));
#1127=CARTESIAN_POINT('',(-0.008,-0.00152313383119786,-0.125776812608054));
#1128=CARTESIAN_POINT('',(0.008,0.,-0.159562750108055));
#1129=CARTESIAN_POINT('',(0.008,-0.00152313383119786,-0.159562750108055));
#1130=CARTESIAN_POINT('',(0.008,-0.00152313383119786,-0.157776812608055));
#1131=CARTESIAN_POINT('',(-0.008,0.,-0.159562750108055));
#1132=CARTESIAN_POINT('',(-0.008,-0.00152313383119786,-0.159562750108055));
#1133=CARTESIAN_POINT('',(-0.008,-0.00152313383119786,-0.157776812608055));
#1134=CARTESIAN_POINT('',(0.008,0.,-0.127562750108054));
#1135=CARTESIAN_POINT('',(0.008,-0.00152313383119787,-0.127562750108054));
#1136=CARTESIAN_POINT('',(0.008,-0.00152313383119787,-0.125776812608054));
#1137=CARTESIAN_POINT('',(6.93889390390723E-18,-0.0061,-0.0852813750540272));
#1138=CARTESIAN_POINT('',(-0.008,-0.0061,-0.127562750108054));
#1139=CARTESIAN_POINT('',(-0.008,-0.0061,-0.129348687608054));
#1140=CARTESIAN_POINT('',(-0.008,-0.0061,-0.127562750108054));
#1141=CARTESIAN_POINT('',(6.93889390390723E-18,-0.0061,-0.0852813750540272));
#1142=CARTESIAN_POINT('',(0.008,-0.0061,-0.159562750108055));
#1143=CARTESIAN_POINT('',(0.008,-0.0061,-0.161348687608055));
#1144=CARTESIAN_POINT('',(0.008,-0.0061,-0.159562750108055));
#1145=CARTESIAN_POINT('',(6.93889390390723E-18,-0.0061,-0.0852813750540272));
#1146=CARTESIAN_POINT('',(-0.008,-0.0061,-0.159562750108055));
#1147=CARTESIAN_POINT('',(-0.008,-0.0061,-0.161348687608055));
#1148=CARTESIAN_POINT('',(-0.008,-0.0061,-0.159562750108055));
#1149=CARTESIAN_POINT('',(6.93889390390723E-18,-0.0061,-0.0852813750540272));
#1150=CARTESIAN_POINT('',(0.008,-0.0061,-0.127562750108054));
#1151=CARTESIAN_POINT('',(0.008,-0.0061,-0.129348687608054));
#1152=CARTESIAN_POINT('',(0.008,-0.0061,-0.127562750108054));
#1153=MECHANICAL_DESIGN_GEOMETRIC_PRESENTATION_REPRESENTATION('',(#684),
#1154);
#1154=(
GEOMETRIC_REPRESENTATION_CONTEXT(3)
GLOBAL_UNCERTAINTY_ASSIGNED_CONTEXT((#1155))
GLOBAL_UNIT_ASSIGNED_CONTEXT((#1158,#1157,#1156))
REPRESENTATION_CONTEXT('Part 2','TOP_LEVEL_ASSEMBLY_PART')
);
#1155=UNCERTAINTY_MEASURE_WITH_UNIT(LENGTH_MEASURE(1.E-8),#1158,
'DISTANCE_ACCURACY_VALUE','Maximum Tolerance applied to model');
#1156=(
NAMED_UNIT(*)
SI_UNIT($,.STERADIAN.)
SOLID_ANGLE_UNIT()
);
#1157=(
NAMED_UNIT(*)
PLANE_ANGLE_UNIT()
SI_UNIT($,.RADIAN.)
);
#1158=(
LENGTH_UNIT()
NAMED_UNIT(*)
SI_UNIT($,.METRE.)
);
#1159=PRODUCT_DEFINITION_SHAPE('','',#1160);
#1160=PRODUCT_DEFINITION('','',#1162,#1161);
#1161=PRODUCT_DEFINITION_CONTEXT('',#1168,'design');
#1162=PRODUCT_DEFINITION_FORMATION_WITH_SPECIFIED_SOURCE('','',#1164,
 .NOT_KNOWN.);
#1163=PRODUCT_RELATED_PRODUCT_CATEGORY('','',(#1164));
#1164=PRODUCT('Part 2','Part 2','Part 2',(#1166));
#1165=PRODUCT_CATEGORY('','');
#1166=PRODUCT_CONTEXT('',#1168,'mechanical');
#1167=APPLICATION_PROTOCOL_DEFINITION('international standard',
'ap242_managed_model_based_3d_engineering',2020,#1168);
#1168=APPLICATION_CONTEXT('managed model based 3d engineering');
ENDSEC;
END-ISO-10303-21;
