ISO-10303-21;
HEADER;
/* Generated by software containing ST-Developer
 * from STEP Tools, Inc. (www.steptools.com) 
 */
/* OPTION: using custom renumber hook */

FILE_DESCRIPTION(
/* description */ ('STEP AP242 Edition 2',
'CAx-IF Rec.Pracs.---Representation and Presentation of Product Manufa
cturing Information (PMI)---4.0---2014-10-13',
'CAx-IF Rec.Pracs.---3D Tessellated Geometry---0.4---2014-09-14','2;1',
'CAx-IF Rec.Pracs.---User Defined Attributes---1.5---2016-08-15'),
/* implementation_level */ '2;1');

FILE_NAME(
/* name */ 'Bar Holder - Part 1',
/* time_stamp */ '2026-05-31T18:15:21Z',
/* author */ (''),
/* organization */ (''),
/* preprocessor_version */ 'ST-DEVELOPER v20',
/* originating_system */ 'ONSHAPE BY PTC INC, 1.215',
/* authorisation */ '  ');

FILE_SCHEMA (('AP242_MANAGED_MODEL_BASED_3D_ENGINEERING_MIM_LF { 1 0 10303 442 3 1 4 }'));
ENDSEC;

DATA;
#10=SHAPE_REPRESENTATION_RELATIONSHIP('','',#1455,#11);
#11=ADVANCED_BREP_SHAPE_REPRESENTATION('',(#1453),#2365);
#12=CYLINDRICAL_SURFACE('',#1543,0.004);
#13=CYLINDRICAL_SURFACE('',#1544,0.004);
#14=CYLINDRICAL_SURFACE('',#1545,0.004);
#15=CYLINDRICAL_SURFACE('',#1546,0.004);
#16=CYLINDRICAL_SURFACE('',#1547,0.0025);
#17=CYLINDRICAL_SURFACE('',#1548,0.0025);
#18=CYLINDRICAL_SURFACE('',#1549,0.0025);
#19=CYLINDRICAL_SURFACE('',#1550,0.0025);
#20=CYLINDRICAL_SURFACE('',#1551,0.0025);
#21=CYLINDRICAL_SURFACE('',#1552,0.0025);
#22=CYLINDRICAL_SURFACE('',#1553,0.0025);
#23=CYLINDRICAL_SURFACE('',#1554,0.0025);
#24=CYLINDRICAL_SURFACE('',#1555,0.0025);
#25=CYLINDRICAL_SURFACE('',#1556,0.0025);
#26=CYLINDRICAL_SURFACE('',#1557,0.0025);
#27=CYLINDRICAL_SURFACE('',#1558,0.0025);
#28=CYLINDRICAL_SURFACE('',#1559,0.00135);
#29=CYLINDRICAL_SURFACE('',#1562,0.00135);
#30=CYLINDRICAL_SURFACE('',#1565,0.00135);
#31=CYLINDRICAL_SURFACE('',#1568,0.00135);
#32=CIRCLE('',#1478,0.004);
#33=CIRCLE('',#1480,0.004);
#34=CIRCLE('',#1482,0.004);
#35=CIRCLE('',#1485,0.004);
#36=CIRCLE('',#1491,0.004);
#37=CIRCLE('',#1497,0.004);
#38=CIRCLE('',#1503,0.004);
#39=CIRCLE('',#1510,0.004);
#40=CIRCLE('',#1514,0.0025);
#41=CIRCLE('',#1515,0.0025);
#42=CIRCLE('',#1516,0.0025);
#43=CIRCLE('',#1517,0.0025);
#44=CIRCLE('',#1518,0.0025);
#45=CIRCLE('',#1519,0.0025);
#46=CIRCLE('',#1520,0.0025);
#47=CIRCLE('',#1521,0.0025);
#48=CIRCLE('',#1522,0.0025);
#49=CIRCLE('',#1523,0.0025);
#50=CIRCLE('',#1524,0.0025);
#51=CIRCLE('',#1525,0.0025);
#52=CIRCLE('',#1527,0.0025);
#53=CIRCLE('',#1528,0.0025);
#54=CIRCLE('',#1529,0.0025);
#55=CIRCLE('',#1530,0.0025);
#56=CIRCLE('',#1531,0.0025);
#57=CIRCLE('',#1532,0.0025);
#58=CIRCLE('',#1533,0.0025);
#59=CIRCLE('',#1534,0.0025);
#60=CIRCLE('',#1535,0.0025);
#61=CIRCLE('',#1536,0.0025);
#62=CIRCLE('',#1537,0.0025);
#63=CIRCLE('',#1538,0.0025);
#64=CIRCLE('',#1539,0.00135);
#65=CIRCLE('',#1540,0.00135);
#66=CIRCLE('',#1541,0.00135);
#67=CIRCLE('',#1542,0.00135);
#68=CIRCLE('',#1560,0.00135);
#69=CIRCLE('',#1563,0.00135);
#70=CIRCLE('',#1566,0.00135);
#71=CIRCLE('',#1569,0.00135);
#72=ORIENTED_EDGE('',*,*,#464,.F.);
#73=ORIENTED_EDGE('',*,*,#465,.F.);
#74=ORIENTED_EDGE('',*,*,#466,.T.);
#75=ORIENTED_EDGE('',*,*,#467,.T.);
#76=ORIENTED_EDGE('',*,*,#468,.F.);
#77=ORIENTED_EDGE('',*,*,#469,.F.);
#78=ORIENTED_EDGE('',*,*,#470,.T.);
#79=ORIENTED_EDGE('',*,*,#465,.T.);
#80=ORIENTED_EDGE('',*,*,#471,.F.);
#81=ORIENTED_EDGE('',*,*,#472,.F.);
#82=ORIENTED_EDGE('',*,*,#473,.T.);
#83=ORIENTED_EDGE('',*,*,#469,.T.);
#84=ORIENTED_EDGE('',*,*,#474,.F.);
#85=ORIENTED_EDGE('',*,*,#475,.F.);
#86=ORIENTED_EDGE('',*,*,#476,.T.);
#87=ORIENTED_EDGE('',*,*,#472,.T.);
#88=ORIENTED_EDGE('',*,*,#477,.F.);
#89=ORIENTED_EDGE('',*,*,#478,.F.);
#90=ORIENTED_EDGE('',*,*,#479,.T.);
#91=ORIENTED_EDGE('',*,*,#475,.T.);
#92=ORIENTED_EDGE('',*,*,#480,.F.);
#93=ORIENTED_EDGE('',*,*,#481,.F.);
#94=ORIENTED_EDGE('',*,*,#482,.T.);
#95=ORIENTED_EDGE('',*,*,#483,.T.);
#96=ORIENTED_EDGE('',*,*,#484,.F.);
#97=ORIENTED_EDGE('',*,*,#485,.F.);
#98=ORIENTED_EDGE('',*,*,#486,.T.);
#99=ORIENTED_EDGE('',*,*,#481,.T.);
#100=ORIENTED_EDGE('',*,*,#487,.F.);
#101=ORIENTED_EDGE('',*,*,#488,.F.);
#102=ORIENTED_EDGE('',*,*,#489,.T.);
#103=ORIENTED_EDGE('',*,*,#485,.T.);
#104=ORIENTED_EDGE('',*,*,#490,.F.);
#105=ORIENTED_EDGE('',*,*,#491,.F.);
#106=ORIENTED_EDGE('',*,*,#492,.T.);
#107=ORIENTED_EDGE('',*,*,#488,.T.);
#108=ORIENTED_EDGE('',*,*,#493,.F.);
#109=ORIENTED_EDGE('',*,*,#494,.F.);
#110=ORIENTED_EDGE('',*,*,#495,.T.);
#111=ORIENTED_EDGE('',*,*,#491,.T.);
#112=ORIENTED_EDGE('',*,*,#496,.F.);
#113=ORIENTED_EDGE('',*,*,#497,.F.);
#114=ORIENTED_EDGE('',*,*,#498,.T.);
#115=ORIENTED_EDGE('',*,*,#499,.T.);
#116=ORIENTED_EDGE('',*,*,#500,.F.);
#117=ORIENTED_EDGE('',*,*,#501,.F.);
#118=ORIENTED_EDGE('',*,*,#502,.T.);
#119=ORIENTED_EDGE('',*,*,#497,.T.);
#120=ORIENTED_EDGE('',*,*,#503,.F.);
#121=ORIENTED_EDGE('',*,*,#504,.F.);
#122=ORIENTED_EDGE('',*,*,#505,.T.);
#123=ORIENTED_EDGE('',*,*,#501,.T.);
#124=ORIENTED_EDGE('',*,*,#506,.F.);
#125=ORIENTED_EDGE('',*,*,#507,.F.);
#126=ORIENTED_EDGE('',*,*,#508,.T.);
#127=ORIENTED_EDGE('',*,*,#504,.T.);
#128=ORIENTED_EDGE('',*,*,#509,.F.);
#129=ORIENTED_EDGE('',*,*,#510,.F.);
#130=ORIENTED_EDGE('',*,*,#511,.T.);
#131=ORIENTED_EDGE('',*,*,#507,.T.);
#132=ORIENTED_EDGE('',*,*,#512,.F.);
#133=ORIENTED_EDGE('',*,*,#513,.F.);
#134=ORIENTED_EDGE('',*,*,#514,.T.);
#135=ORIENTED_EDGE('',*,*,#515,.T.);
#136=ORIENTED_EDGE('',*,*,#516,.F.);
#137=ORIENTED_EDGE('',*,*,#517,.F.);
#138=ORIENTED_EDGE('',*,*,#518,.T.);
#139=ORIENTED_EDGE('',*,*,#513,.T.);
#140=ORIENTED_EDGE('',*,*,#519,.F.);
#141=ORIENTED_EDGE('',*,*,#520,.F.);
#142=ORIENTED_EDGE('',*,*,#521,.T.);
#143=ORIENTED_EDGE('',*,*,#517,.T.);
#144=ORIENTED_EDGE('',*,*,#522,.F.);
#145=ORIENTED_EDGE('',*,*,#523,.F.);
#146=ORIENTED_EDGE('',*,*,#524,.T.);
#147=ORIENTED_EDGE('',*,*,#520,.T.);
#148=ORIENTED_EDGE('',*,*,#525,.F.);
#149=ORIENTED_EDGE('',*,*,#526,.F.);
#150=ORIENTED_EDGE('',*,*,#527,.T.);
#151=ORIENTED_EDGE('',*,*,#523,.T.);
#152=ORIENTED_EDGE('',*,*,#528,.T.);
#153=ORIENTED_EDGE('',*,*,#529,.T.);
#154=ORIENTED_EDGE('',*,*,#530,.F.);
#155=ORIENTED_EDGE('',*,*,#531,.F.);
#156=ORIENTED_EDGE('',*,*,#532,.T.);
#157=ORIENTED_EDGE('',*,*,#533,.T.);
#158=ORIENTED_EDGE('',*,*,#534,.T.);
#159=ORIENTED_EDGE('',*,*,#535,.F.);
#160=ORIENTED_EDGE('',*,*,#536,.F.);
#161=ORIENTED_EDGE('',*,*,#530,.T.);
#162=ORIENTED_EDGE('',*,*,#537,.F.);
#163=ORIENTED_EDGE('',*,*,#538,.F.);
#164=ORIENTED_EDGE('',*,*,#539,.F.);
#165=ORIENTED_EDGE('',*,*,#540,.T.);
#166=ORIENTED_EDGE('',*,*,#535,.T.);
#167=ORIENTED_EDGE('',*,*,#541,.T.);
#168=ORIENTED_EDGE('',*,*,#542,.T.);
#169=ORIENTED_EDGE('',*,*,#543,.F.);
#170=ORIENTED_EDGE('',*,*,#544,.F.);
#171=ORIENTED_EDGE('',*,*,#545,.T.);
#172=ORIENTED_EDGE('',*,*,#546,.F.);
#173=ORIENTED_EDGE('',*,*,#547,.F.);
#174=ORIENTED_EDGE('',*,*,#548,.T.);
#175=ORIENTED_EDGE('',*,*,#544,.T.);
#176=ORIENTED_EDGE('',*,*,#549,.T.);
#177=ORIENTED_EDGE('',*,*,#550,.T.);
#178=ORIENTED_EDGE('',*,*,#551,.F.);
#179=ORIENTED_EDGE('',*,*,#547,.T.);
#180=ORIENTED_EDGE('',*,*,#552,.F.);
#181=ORIENTED_EDGE('',*,*,#553,.T.);
#182=ORIENTED_EDGE('',*,*,#554,.T.);
#183=ORIENTED_EDGE('',*,*,#555,.T.);
#184=ORIENTED_EDGE('',*,*,#556,.T.);
#185=ORIENTED_EDGE('',*,*,#557,.T.);
#186=ORIENTED_EDGE('',*,*,#558,.F.);
#187=ORIENTED_EDGE('',*,*,#559,.T.);
#188=ORIENTED_EDGE('',*,*,#560,.F.);
#189=ORIENTED_EDGE('',*,*,#561,.T.);
#190=ORIENTED_EDGE('',*,*,#562,.T.);
#191=ORIENTED_EDGE('',*,*,#563,.F.);
#192=ORIENTED_EDGE('',*,*,#564,.F.);
#193=ORIENTED_EDGE('',*,*,#565,.T.);
#194=ORIENTED_EDGE('',*,*,#566,.F.);
#195=ORIENTED_EDGE('',*,*,#567,.F.);
#196=ORIENTED_EDGE('',*,*,#563,.T.);
#197=ORIENTED_EDGE('',*,*,#568,.F.);
#198=ORIENTED_EDGE('',*,*,#569,.T.);
#199=ORIENTED_EDGE('',*,*,#570,.T.);
#200=ORIENTED_EDGE('',*,*,#566,.T.);
#201=ORIENTED_EDGE('',*,*,#571,.T.);
#202=ORIENTED_EDGE('',*,*,#572,.T.);
#203=ORIENTED_EDGE('',*,*,#573,.F.);
#204=ORIENTED_EDGE('',*,*,#574,.T.);
#205=ORIENTED_EDGE('',*,*,#575,.T.);
#206=ORIENTED_EDGE('',*,*,#576,.T.);
#207=ORIENTED_EDGE('',*,*,#577,.F.);
#208=ORIENTED_EDGE('',*,*,#578,.T.);
#209=ORIENTED_EDGE('',*,*,#579,.T.);
#210=ORIENTED_EDGE('',*,*,#580,.T.);
#211=ORIENTED_EDGE('',*,*,#581,.F.);
#212=ORIENTED_EDGE('',*,*,#582,.F.);
#213=ORIENTED_EDGE('',*,*,#583,.F.);
#214=ORIENTED_EDGE('',*,*,#584,.T.);
#215=ORIENTED_EDGE('',*,*,#585,.F.);
#216=ORIENTED_EDGE('',*,*,#586,.F.);
#217=ORIENTED_EDGE('',*,*,#582,.T.);
#218=ORIENTED_EDGE('',*,*,#587,.T.);
#219=ORIENTED_EDGE('',*,*,#588,.T.);
#220=ORIENTED_EDGE('',*,*,#589,.F.);
#221=ORIENTED_EDGE('',*,*,#585,.T.);
#222=ORIENTED_EDGE('',*,*,#590,.T.);
#223=ORIENTED_EDGE('',*,*,#591,.T.);
#224=ORIENTED_EDGE('',*,*,#592,.F.);
#225=ORIENTED_EDGE('',*,*,#593,.T.);
#226=ORIENTED_EDGE('',*,*,#594,.T.);
#227=ORIENTED_EDGE('',*,*,#595,.T.);
#228=ORIENTED_EDGE('',*,*,#596,.F.);
#229=ORIENTED_EDGE('',*,*,#597,.T.);
#230=ORIENTED_EDGE('',*,*,#598,.F.);
#231=ORIENTED_EDGE('',*,*,#599,.T.);
#232=ORIENTED_EDGE('',*,*,#600,.T.);
#233=ORIENTED_EDGE('',*,*,#601,.F.);
#234=ORIENTED_EDGE('',*,*,#602,.F.);
#235=ORIENTED_EDGE('',*,*,#603,.F.);
#236=ORIENTED_EDGE('',*,*,#604,.F.);
#237=ORIENTED_EDGE('',*,*,#605,.T.);
#238=ORIENTED_EDGE('',*,*,#601,.T.);
#239=ORIENTED_EDGE('',*,*,#606,.F.);
#240=ORIENTED_EDGE('',*,*,#607,.T.);
#241=ORIENTED_EDGE('',*,*,#608,.T.);
#242=ORIENTED_EDGE('',*,*,#604,.T.);
#243=ORIENTED_EDGE('',*,*,#609,.T.);
#244=ORIENTED_EDGE('',*,*,#610,.T.);
#245=ORIENTED_EDGE('',*,*,#611,.F.);
#246=ORIENTED_EDGE('',*,*,#612,.T.);
#247=ORIENTED_EDGE('',*,*,#613,.F.);
#248=ORIENTED_EDGE('',*,*,#483,.F.);
#249=ORIENTED_EDGE('',*,*,#614,.T.);
#250=ORIENTED_EDGE('',*,*,#494,.T.);
#251=ORIENTED_EDGE('',*,*,#615,.F.);
#252=ORIENTED_EDGE('',*,*,#499,.F.);
#253=ORIENTED_EDGE('',*,*,#616,.T.);
#254=ORIENTED_EDGE('',*,*,#510,.T.);
#255=ORIENTED_EDGE('',*,*,#617,.F.);
#256=ORIENTED_EDGE('',*,*,#515,.F.);
#257=ORIENTED_EDGE('',*,*,#618,.T.);
#258=ORIENTED_EDGE('',*,*,#526,.T.);
#259=ORIENTED_EDGE('',*,*,#619,.F.);
#260=ORIENTED_EDGE('',*,*,#620,.F.);
#261=ORIENTED_EDGE('',*,*,#532,.F.);
#262=ORIENTED_EDGE('',*,*,#621,.T.);
#263=ORIENTED_EDGE('',*,*,#539,.T.);
#264=ORIENTED_EDGE('',*,*,#622,.F.);
#265=ORIENTED_EDGE('',*,*,#623,.T.);
#266=ORIENTED_EDGE('',*,*,#624,.T.);
#267=ORIENTED_EDGE('',*,*,#625,.T.);
#268=ORIENTED_EDGE('',*,*,#626,.F.);
#269=ORIENTED_EDGE('',*,*,#467,.F.);
#270=ORIENTED_EDGE('',*,*,#627,.T.);
#271=ORIENTED_EDGE('',*,*,#478,.T.);
#272=ORIENTED_EDGE('',*,*,#558,.T.);
#273=ORIENTED_EDGE('',*,*,#628,.T.);
#274=ORIENTED_EDGE('',*,*,#560,.T.);
#275=ORIENTED_EDGE('',*,*,#567,.T.);
#276=ORIENTED_EDGE('',*,*,#570,.F.);
#277=ORIENTED_EDGE('',*,*,#629,.T.);
#278=ORIENTED_EDGE('',*,*,#571,.F.);
#279=ORIENTED_EDGE('',*,*,#630,.T.);
#280=ORIENTED_EDGE('',*,*,#575,.F.);
#281=ORIENTED_EDGE('',*,*,#631,.T.);
#282=ORIENTED_EDGE('',*,*,#579,.F.);
#283=ORIENTED_EDGE('',*,*,#586,.T.);
#284=ORIENTED_EDGE('',*,*,#589,.T.);
#285=ORIENTED_EDGE('',*,*,#632,.T.);
#286=ORIENTED_EDGE('',*,*,#592,.T.);
#287=ORIENTED_EDGE('',*,*,#633,.T.);
#288=ORIENTED_EDGE('',*,*,#596,.T.);
#289=ORIENTED_EDGE('',*,*,#634,.T.);
#290=ORIENTED_EDGE('',*,*,#598,.T.);
#291=ORIENTED_EDGE('',*,*,#605,.F.);
#292=ORIENTED_EDGE('',*,*,#608,.F.);
#293=ORIENTED_EDGE('',*,*,#635,.T.);
#294=ORIENTED_EDGE('',*,*,#609,.F.);
#295=ORIENTED_EDGE('',*,*,#636,.T.);
#296=ORIENTED_EDGE('',*,*,#624,.F.);
#297=ORIENTED_EDGE('',*,*,#637,.T.);
#298=ORIENTED_EDGE('',*,*,#541,.F.);
#299=ORIENTED_EDGE('',*,*,#548,.F.);
#300=ORIENTED_EDGE('',*,*,#551,.T.);
#301=ORIENTED_EDGE('',*,*,#638,.T.);
#302=ORIENTED_EDGE('',*,*,#552,.T.);
#303=ORIENTED_EDGE('',*,*,#639,.T.);
#304=ORIENTED_EDGE('',*,*,#531,.T.);
#305=ORIENTED_EDGE('',*,*,#536,.T.);
#306=ORIENTED_EDGE('',*,*,#540,.F.);
#307=ORIENTED_EDGE('',*,*,#621,.F.);
#308=ORIENTED_EDGE('',*,*,#514,.F.);
#309=ORIENTED_EDGE('',*,*,#518,.F.);
#310=ORIENTED_EDGE('',*,*,#521,.F.);
#311=ORIENTED_EDGE('',*,*,#524,.F.);
#312=ORIENTED_EDGE('',*,*,#527,.F.);
#313=ORIENTED_EDGE('',*,*,#618,.F.);
#314=ORIENTED_EDGE('',*,*,#498,.F.);
#315=ORIENTED_EDGE('',*,*,#502,.F.);
#316=ORIENTED_EDGE('',*,*,#505,.F.);
#317=ORIENTED_EDGE('',*,*,#508,.F.);
#318=ORIENTED_EDGE('',*,*,#511,.F.);
#319=ORIENTED_EDGE('',*,*,#616,.F.);
#320=ORIENTED_EDGE('',*,*,#482,.F.);
#321=ORIENTED_EDGE('',*,*,#486,.F.);
#322=ORIENTED_EDGE('',*,*,#489,.F.);
#323=ORIENTED_EDGE('',*,*,#492,.F.);
#324=ORIENTED_EDGE('',*,*,#495,.F.);
#325=ORIENTED_EDGE('',*,*,#614,.F.);
#326=ORIENTED_EDGE('',*,*,#466,.F.);
#327=ORIENTED_EDGE('',*,*,#470,.F.);
#328=ORIENTED_EDGE('',*,*,#473,.F.);
#329=ORIENTED_EDGE('',*,*,#476,.F.);
#330=ORIENTED_EDGE('',*,*,#479,.F.);
#331=ORIENTED_EDGE('',*,*,#627,.F.);
#332=ORIENTED_EDGE('',*,*,#562,.F.);
#333=ORIENTED_EDGE('',*,*,#640,.T.);
#334=ORIENTED_EDGE('',*,*,#556,.F.);
#335=ORIENTED_EDGE('',*,*,#641,.T.);
#336=ORIENTED_EDGE('',*,*,#554,.F.);
#337=ORIENTED_EDGE('',*,*,#642,.T.);
#338=ORIENTED_EDGE('',*,*,#549,.F.);
#339=ORIENTED_EDGE('',*,*,#546,.T.);
#340=ORIENTED_EDGE('',*,*,#543,.T.);
#341=ORIENTED_EDGE('',*,*,#643,.T.);
#342=ORIENTED_EDGE('',*,*,#622,.T.);
#343=ORIENTED_EDGE('',*,*,#644,.T.);
#344=ORIENTED_EDGE('',*,*,#611,.T.);
#345=ORIENTED_EDGE('',*,*,#645,.T.);
#346=ORIENTED_EDGE('',*,*,#606,.T.);
#347=ORIENTED_EDGE('',*,*,#603,.T.);
#348=ORIENTED_EDGE('',*,*,#600,.F.);
#349=ORIENTED_EDGE('',*,*,#646,.T.);
#350=ORIENTED_EDGE('',*,*,#594,.F.);
#351=ORIENTED_EDGE('',*,*,#647,.T.);
#352=ORIENTED_EDGE('',*,*,#590,.F.);
#353=ORIENTED_EDGE('',*,*,#648,.T.);
#354=ORIENTED_EDGE('',*,*,#587,.F.);
#355=ORIENTED_EDGE('',*,*,#584,.F.);
#356=ORIENTED_EDGE('',*,*,#581,.T.);
#357=ORIENTED_EDGE('',*,*,#649,.T.);
#358=ORIENTED_EDGE('',*,*,#577,.T.);
#359=ORIENTED_EDGE('',*,*,#650,.T.);
#360=ORIENTED_EDGE('',*,*,#573,.T.);
#361=ORIENTED_EDGE('',*,*,#651,.T.);
#362=ORIENTED_EDGE('',*,*,#568,.T.);
#363=ORIENTED_EDGE('',*,*,#565,.F.);
#364=ORIENTED_EDGE('',*,*,#529,.F.);
#365=ORIENTED_EDGE('',*,*,#620,.T.);
#366=ORIENTED_EDGE('',*,*,#538,.T.);
#367=ORIENTED_EDGE('',*,*,#534,.F.);
#368=ORIENTED_EDGE('',*,*,#652,.T.);
#369=ORIENTED_EDGE('',*,*,#653,.T.);
#370=ORIENTED_EDGE('',*,*,#654,.F.);
#371=ORIENTED_EDGE('',*,*,#655,.F.);
#372=ORIENTED_EDGE('',*,*,#619,.T.);
#373=ORIENTED_EDGE('',*,*,#564,.T.);
#374=ORIENTED_EDGE('',*,*,#602,.T.);
#375=ORIENTED_EDGE('',*,*,#533,.F.);
#376=ORIENTED_EDGE('',*,*,#537,.T.);
#377=ORIENTED_EDGE('',*,*,#583,.T.);
#378=ORIENTED_EDGE('',*,*,#545,.F.);
#379=ORIENTED_EDGE('',*,*,#528,.F.);
#380=ORIENTED_EDGE('',*,*,#628,.F.);
#381=ORIENTED_EDGE('',*,*,#557,.F.);
#382=ORIENTED_EDGE('',*,*,#640,.F.);
#383=ORIENTED_EDGE('',*,*,#561,.F.);
#384=ORIENTED_EDGE('',*,*,#638,.F.);
#385=ORIENTED_EDGE('',*,*,#550,.F.);
#386=ORIENTED_EDGE('',*,*,#642,.F.);
#387=ORIENTED_EDGE('',*,*,#553,.F.);
#388=ORIENTED_EDGE('',*,*,#639,.F.);
#389=ORIENTED_EDGE('',*,*,#555,.F.);
#390=ORIENTED_EDGE('',*,*,#641,.F.);
#391=ORIENTED_EDGE('',*,*,#559,.F.);
#392=ORIENTED_EDGE('',*,*,#637,.F.);
#393=ORIENTED_EDGE('',*,*,#623,.F.);
#394=ORIENTED_EDGE('',*,*,#643,.F.);
#395=ORIENTED_EDGE('',*,*,#542,.F.);
#396=ORIENTED_EDGE('',*,*,#635,.F.);
#397=ORIENTED_EDGE('',*,*,#607,.F.);
#398=ORIENTED_EDGE('',*,*,#645,.F.);
#399=ORIENTED_EDGE('',*,*,#610,.F.);
#400=ORIENTED_EDGE('',*,*,#636,.F.);
#401=ORIENTED_EDGE('',*,*,#612,.F.);
#402=ORIENTED_EDGE('',*,*,#644,.F.);
#403=ORIENTED_EDGE('',*,*,#625,.F.);
#404=ORIENTED_EDGE('',*,*,#634,.F.);
#405=ORIENTED_EDGE('',*,*,#595,.F.);
#406=ORIENTED_EDGE('',*,*,#646,.F.);
#407=ORIENTED_EDGE('',*,*,#599,.F.);
#408=ORIENTED_EDGE('',*,*,#633,.F.);
#409=ORIENTED_EDGE('',*,*,#591,.F.);
#410=ORIENTED_EDGE('',*,*,#647,.F.);
#411=ORIENTED_EDGE('',*,*,#597,.F.);
#412=ORIENTED_EDGE('',*,*,#632,.F.);
#413=ORIENTED_EDGE('',*,*,#588,.F.);
#414=ORIENTED_EDGE('',*,*,#648,.F.);
#415=ORIENTED_EDGE('',*,*,#593,.F.);
#416=ORIENTED_EDGE('',*,*,#629,.F.);
#417=ORIENTED_EDGE('',*,*,#569,.F.);
#418=ORIENTED_EDGE('',*,*,#651,.F.);
#419=ORIENTED_EDGE('',*,*,#572,.F.);
#420=ORIENTED_EDGE('',*,*,#630,.F.);
#421=ORIENTED_EDGE('',*,*,#574,.F.);
#422=ORIENTED_EDGE('',*,*,#650,.F.);
#423=ORIENTED_EDGE('',*,*,#576,.F.);
#424=ORIENTED_EDGE('',*,*,#631,.F.);
#425=ORIENTED_EDGE('',*,*,#578,.F.);
#426=ORIENTED_EDGE('',*,*,#649,.F.);
#427=ORIENTED_EDGE('',*,*,#580,.F.);
#428=ORIENTED_EDGE('',*,*,#656,.T.);
#429=ORIENTED_EDGE('',*,*,#652,.F.);
#430=ORIENTED_EDGE('',*,*,#464,.T.);
#431=ORIENTED_EDGE('',*,*,#626,.T.);
#432=ORIENTED_EDGE('',*,*,#477,.T.);
#433=ORIENTED_EDGE('',*,*,#474,.T.);
#434=ORIENTED_EDGE('',*,*,#471,.T.);
#435=ORIENTED_EDGE('',*,*,#468,.T.);
#436=ORIENTED_EDGE('',*,*,#656,.F.);
#437=ORIENTED_EDGE('',*,*,#657,.T.);
#438=ORIENTED_EDGE('',*,*,#653,.F.);
#439=ORIENTED_EDGE('',*,*,#657,.F.);
#440=ORIENTED_EDGE('',*,*,#512,.T.);
#441=ORIENTED_EDGE('',*,*,#617,.T.);
#442=ORIENTED_EDGE('',*,*,#525,.T.);
#443=ORIENTED_EDGE('',*,*,#522,.T.);
#444=ORIENTED_EDGE('',*,*,#519,.T.);
#445=ORIENTED_EDGE('',*,*,#516,.T.);
#446=ORIENTED_EDGE('',*,*,#658,.F.);
#447=ORIENTED_EDGE('',*,*,#654,.T.);
#448=ORIENTED_EDGE('',*,*,#496,.T.);
#449=ORIENTED_EDGE('',*,*,#615,.T.);
#450=ORIENTED_EDGE('',*,*,#509,.T.);
#451=ORIENTED_EDGE('',*,*,#506,.T.);
#452=ORIENTED_EDGE('',*,*,#503,.T.);
#453=ORIENTED_EDGE('',*,*,#500,.T.);
#454=ORIENTED_EDGE('',*,*,#658,.T.);
#455=ORIENTED_EDGE('',*,*,#659,.F.);
#456=ORIENTED_EDGE('',*,*,#655,.T.);
#457=ORIENTED_EDGE('',*,*,#659,.T.);
#458=ORIENTED_EDGE('',*,*,#613,.T.);
#459=ORIENTED_EDGE('',*,*,#493,.T.);
#460=ORIENTED_EDGE('',*,*,#490,.T.);
#461=ORIENTED_EDGE('',*,*,#487,.T.);
#462=ORIENTED_EDGE('',*,*,#484,.T.);
#463=ORIENTED_EDGE('',*,*,#480,.T.);
#464=EDGE_CURVE('',#660,#661,#796,.T.);
#465=EDGE_CURVE('',#662,#660,#797,.T.);
#466=EDGE_CURVE('',#662,#663,#798,.T.);
#467=EDGE_CURVE('',#663,#661,#799,.T.);
#468=EDGE_CURVE('',#664,#660,#800,.T.);
#469=EDGE_CURVE('',#665,#664,#801,.T.);
#470=EDGE_CURVE('',#665,#662,#802,.T.);
#471=EDGE_CURVE('',#666,#664,#803,.T.);
#472=EDGE_CURVE('',#667,#666,#804,.T.);
#473=EDGE_CURVE('',#667,#665,#805,.T.);
#474=EDGE_CURVE('',#668,#666,#806,.T.);
#475=EDGE_CURVE('',#669,#668,#807,.T.);
#476=EDGE_CURVE('',#669,#667,#808,.T.);
#477=EDGE_CURVE('',#670,#668,#809,.T.);
#478=EDGE_CURVE('',#671,#670,#810,.T.);
#479=EDGE_CURVE('',#671,#669,#811,.T.);
#480=EDGE_CURVE('',#672,#673,#812,.T.);
#481=EDGE_CURVE('',#674,#672,#813,.T.);
#482=EDGE_CURVE('',#674,#675,#814,.T.);
#483=EDGE_CURVE('',#675,#673,#815,.T.);
#484=EDGE_CURVE('',#676,#672,#816,.T.);
#485=EDGE_CURVE('',#677,#676,#817,.T.);
#486=EDGE_CURVE('',#677,#674,#818,.T.);
#487=EDGE_CURVE('',#678,#676,#819,.T.);
#488=EDGE_CURVE('',#679,#678,#820,.T.);
#489=EDGE_CURVE('',#679,#677,#821,.T.);
#490=EDGE_CURVE('',#680,#678,#822,.T.);
#491=EDGE_CURVE('',#681,#680,#823,.T.);
#492=EDGE_CURVE('',#681,#679,#824,.T.);
#493=EDGE_CURVE('',#682,#680,#825,.T.);
#494=EDGE_CURVE('',#683,#682,#826,.T.);
#495=EDGE_CURVE('',#683,#681,#827,.T.);
#496=EDGE_CURVE('',#684,#685,#828,.T.);
#497=EDGE_CURVE('',#686,#684,#829,.T.);
#498=EDGE_CURVE('',#686,#687,#830,.T.);
#499=EDGE_CURVE('',#687,#685,#831,.T.);
#500=EDGE_CURVE('',#688,#684,#832,.T.);
#501=EDGE_CURVE('',#689,#688,#833,.T.);
#502=EDGE_CURVE('',#689,#686,#834,.T.);
#503=EDGE_CURVE('',#690,#688,#835,.T.);
#504=EDGE_CURVE('',#691,#690,#836,.T.);
#505=EDGE_CURVE('',#691,#689,#837,.T.);
#506=EDGE_CURVE('',#692,#690,#838,.T.);
#507=EDGE_CURVE('',#693,#692,#839,.T.);
#508=EDGE_CURVE('',#693,#691,#840,.T.);
#509=EDGE_CURVE('',#694,#692,#841,.T.);
#510=EDGE_CURVE('',#695,#694,#842,.T.);
#511=EDGE_CURVE('',#695,#693,#843,.T.);
#512=EDGE_CURVE('',#696,#697,#844,.T.);
#513=EDGE_CURVE('',#698,#696,#845,.T.);
#514=EDGE_CURVE('',#698,#699,#846,.T.);
#515=EDGE_CURVE('',#699,#697,#847,.T.);
#516=EDGE_CURVE('',#700,#696,#848,.T.);
#517=EDGE_CURVE('',#701,#700,#849,.T.);
#518=EDGE_CURVE('',#701,#698,#850,.T.);
#519=EDGE_CURVE('',#702,#700,#851,.T.);
#520=EDGE_CURVE('',#703,#702,#852,.T.);
#521=EDGE_CURVE('',#703,#701,#853,.T.);
#522=EDGE_CURVE('',#704,#702,#854,.T.);
#523=EDGE_CURVE('',#705,#704,#855,.T.);
#524=EDGE_CURVE('',#705,#703,#856,.T.);
#525=EDGE_CURVE('',#706,#704,#857,.T.);
#526=EDGE_CURVE('',#707,#706,#858,.T.);
#527=EDGE_CURVE('',#707,#705,#859,.T.);
#528=EDGE_CURVE('',#708,#708,#32,.T.);
#529=EDGE_CURVE('',#709,#710,#860,.T.);
#530=EDGE_CURVE('',#711,#710,#861,.T.);
#531=EDGE_CURVE('',#712,#711,#862,.T.);
#532=EDGE_CURVE('',#712,#709,#863,.T.);
#533=EDGE_CURVE('',#713,#713,#33,.T.);
#534=EDGE_CURVE('',#710,#714,#864,.T.);
#535=EDGE_CURVE('',#715,#714,#865,.T.);
#536=EDGE_CURVE('',#711,#715,#866,.T.);
#537=EDGE_CURVE('',#716,#716,#34,.T.);
#538=EDGE_CURVE('',#717,#714,#867,.T.);
#539=EDGE_CURVE('',#718,#717,#868,.T.);
#540=EDGE_CURVE('',#718,#715,#869,.T.);
#541=EDGE_CURVE('',#719,#720,#870,.T.);
#542=EDGE_CURVE('',#720,#721,#871,.T.);
#543=EDGE_CURVE('',#722,#721,#872,.T.);
#544=EDGE_CURVE('',#719,#722,#873,.T.);
#545=EDGE_CURVE('',#723,#723,#35,.F.);
#546=EDGE_CURVE('',#724,#722,#874,.T.);
#547=EDGE_CURVE('',#725,#724,#875,.T.);
#548=EDGE_CURVE('',#725,#719,#876,.T.);
#549=EDGE_CURVE('',#724,#726,#877,.T.);
#550=EDGE_CURVE('',#726,#727,#878,.F.);
#551=EDGE_CURVE('',#725,#727,#879,.T.);
#552=EDGE_CURVE('',#728,#729,#880,.T.);
#553=EDGE_CURVE('',#728,#730,#881,.T.);
#554=EDGE_CURVE('',#730,#731,#882,.T.);
#555=EDGE_CURVE('',#731,#729,#883,.F.);
#556=EDGE_CURVE('',#732,#733,#884,.T.);
#557=EDGE_CURVE('',#733,#734,#885,.F.);
#558=EDGE_CURVE('',#735,#734,#886,.T.);
#559=EDGE_CURVE('',#735,#732,#887,.T.);
#560=EDGE_CURVE('',#736,#737,#888,.T.);
#561=EDGE_CURVE('',#736,#738,#889,.T.);
#562=EDGE_CURVE('',#738,#739,#890,.T.);
#563=EDGE_CURVE('',#737,#739,#891,.T.);
#564=EDGE_CURVE('',#740,#740,#36,.F.);
#565=EDGE_CURVE('',#739,#741,#892,.T.);
#566=EDGE_CURVE('',#742,#741,#893,.T.);
#567=EDGE_CURVE('',#737,#742,#894,.T.);
#568=EDGE_CURVE('',#743,#741,#895,.T.);
#569=EDGE_CURVE('',#743,#744,#896,.F.);
#570=EDGE_CURVE('',#744,#742,#897,.T.);
#571=EDGE_CURVE('',#745,#746,#898,.T.);
#572=EDGE_CURVE('',#746,#747,#899,.T.);
#573=EDGE_CURVE('',#748,#747,#900,.T.);
#574=EDGE_CURVE('',#748,#745,#901,.F.);
#575=EDGE_CURVE('',#749,#750,#902,.T.);
#576=EDGE_CURVE('',#750,#751,#903,.T.);
#577=EDGE_CURVE('',#752,#751,#904,.T.);
#578=EDGE_CURVE('',#752,#749,#905,.F.);
#579=EDGE_CURVE('',#753,#754,#906,.T.);
#580=EDGE_CURVE('',#754,#755,#907,.T.);
#581=EDGE_CURVE('',#756,#755,#908,.T.);
#582=EDGE_CURVE('',#753,#756,#909,.T.);
#583=EDGE_CURVE('',#757,#757,#37,.T.);
#584=EDGE_CURVE('',#756,#758,#910,.T.);
#585=EDGE_CURVE('',#759,#758,#911,.T.);
#586=EDGE_CURVE('',#753,#759,#912,.T.);
#587=EDGE_CURVE('',#758,#760,#913,.T.);
#588=EDGE_CURVE('',#760,#761,#914,.F.);
#589=EDGE_CURVE('',#759,#761,#915,.T.);
#590=EDGE_CURVE('',#762,#763,#916,.T.);
#591=EDGE_CURVE('',#763,#764,#917,.F.);
#592=EDGE_CURVE('',#765,#764,#918,.T.);
#593=EDGE_CURVE('',#765,#762,#919,.T.);
#594=EDGE_CURVE('',#766,#767,#920,.T.);
#595=EDGE_CURVE('',#767,#768,#921,.F.);
#596=EDGE_CURVE('',#769,#768,#922,.T.);
#597=EDGE_CURVE('',#769,#766,#923,.T.);
#598=EDGE_CURVE('',#770,#771,#924,.T.);
#599=EDGE_CURVE('',#770,#772,#925,.T.);
#600=EDGE_CURVE('',#772,#773,#926,.T.);
#601=EDGE_CURVE('',#771,#773,#927,.T.);
#602=EDGE_CURVE('',#774,#774,#38,.T.);
#603=EDGE_CURVE('',#775,#773,#928,.T.);
#604=EDGE_CURVE('',#776,#775,#929,.T.);
#605=EDGE_CURVE('',#776,#771,#930,.T.);
#606=EDGE_CURVE('',#777,#775,#931,.T.);
#607=EDGE_CURVE('',#777,#778,#932,.F.);
#608=EDGE_CURVE('',#778,#776,#933,.T.);
#609=EDGE_CURVE('',#779,#780,#934,.T.);
#610=EDGE_CURVE('',#780,#781,#935,.T.);
#611=EDGE_CURVE('',#782,#781,#936,.T.);
#612=EDGE_CURVE('',#782,#779,#937,.F.);
#613=EDGE_CURVE('',#673,#682,#938,.T.);
#614=EDGE_CURVE('',#675,#683,#939,.T.);
#615=EDGE_CURVE('',#685,#694,#940,.T.);
#616=EDGE_CURVE('',#687,#695,#941,.T.);
#617=EDGE_CURVE('',#697,#706,#942,.T.);
#618=EDGE_CURVE('',#699,#707,#943,.T.);
#619=EDGE_CURVE('',#783,#783,#39,.T.);
#620=EDGE_CURVE('',#709,#717,#944,.T.);
#621=EDGE_CURVE('',#712,#718,#945,.T.);
#622=EDGE_CURVE('',#784,#785,#946,.T.);
#623=EDGE_CURVE('',#784,#786,#947,.F.);
#624=EDGE_CURVE('',#786,#787,#948,.T.);
#625=EDGE_CURVE('',#787,#785,#949,.T.);
#626=EDGE_CURVE('',#661,#670,#950,.T.);
#627=EDGE_CURVE('',#663,#671,#951,.T.);
#628=EDGE_CURVE('',#734,#736,#40,.T.);
#629=EDGE_CURVE('',#744,#746,#41,.T.);
#630=EDGE_CURVE('',#745,#750,#42,.T.);
#631=EDGE_CURVE('',#749,#754,#43,.T.);
#632=EDGE_CURVE('',#761,#765,#44,.T.);
#633=EDGE_CURVE('',#764,#769,#45,.T.);
#634=EDGE_CURVE('',#768,#770,#46,.T.);
#635=EDGE_CURVE('',#778,#780,#47,.T.);
#636=EDGE_CURVE('',#779,#787,#48,.T.);
#637=EDGE_CURVE('',#786,#720,#49,.T.);
#638=EDGE_CURVE('',#727,#728,#50,.T.);
#639=EDGE_CURVE('',#729,#735,#51,.T.);
#640=EDGE_CURVE('',#738,#733,#52,.F.);
#641=EDGE_CURVE('',#732,#731,#53,.F.);
#642=EDGE_CURVE('',#730,#726,#54,.F.);
#643=EDGE_CURVE('',#721,#784,#55,.F.);
#644=EDGE_CURVE('',#785,#782,#56,.F.);
#645=EDGE_CURVE('',#781,#777,#57,.F.);
#646=EDGE_CURVE('',#772,#767,#58,.F.);
#647=EDGE_CURVE('',#766,#763,#59,.F.);
#648=EDGE_CURVE('',#762,#760,#60,.F.);
#649=EDGE_CURVE('',#755,#752,#61,.F.);
#650=EDGE_CURVE('',#751,#748,#62,.F.);
#651=EDGE_CURVE('',#747,#743,#63,.F.);
#652=EDGE_CURVE('',#788,#788,#64,.T.);
#653=EDGE_CURVE('',#789,#789,#65,.T.);
#654=EDGE_CURVE('',#790,#790,#66,.T.);
#655=EDGE_CURVE('',#791,#791,#67,.T.);
#656=EDGE_CURVE('',#792,#792,#68,.T.);
#657=EDGE_CURVE('',#793,#793,#69,.T.);
#658=EDGE_CURVE('',#794,#794,#70,.T.);
#659=EDGE_CURVE('',#795,#795,#71,.T.);
#660=VERTEX_POINT('',#1960);
#661=VERTEX_POINT('',#1961);
#662=VERTEX_POINT('',#1963);
#663=VERTEX_POINT('',#1965);
#664=VERTEX_POINT('',#1969);
#665=VERTEX_POINT('',#1971);
#666=VERTEX_POINT('',#1975);
#667=VERTEX_POINT('',#1977);
#668=VERTEX_POINT('',#1981);
#669=VERTEX_POINT('',#1983);
#670=VERTEX_POINT('',#1987);
#671=VERTEX_POINT('',#1989);
#672=VERTEX_POINT('',#1993);
#673=VERTEX_POINT('',#1994);
#674=VERTEX_POINT('',#1996);
#675=VERTEX_POINT('',#1998);
#676=VERTEX_POINT('',#2002);
#677=VERTEX_POINT('',#2004);
#678=VERTEX_POINT('',#2008);
#679=VERTEX_POINT('',#2010);
#680=VERTEX_POINT('',#2014);
#681=VERTEX_POINT('',#2016);
#682=VERTEX_POINT('',#2020);
#683=VERTEX_POINT('',#2022);
#684=VERTEX_POINT('',#2026);
#685=VERTEX_POINT('',#2027);
#686=VERTEX_POINT('',#2029);
#687=VERTEX_POINT('',#2031);
#688=VERTEX_POINT('',#2035);
#689=VERTEX_POINT('',#2037);
#690=VERTEX_POINT('',#2041);
#691=VERTEX_POINT('',#2043);
#692=VERTEX_POINT('',#2047);
#693=VERTEX_POINT('',#2049);
#694=VERTEX_POINT('',#2053);
#695=VERTEX_POINT('',#2055);
#696=VERTEX_POINT('',#2059);
#697=VERTEX_POINT('',#2060);
#698=VERTEX_POINT('',#2062);
#699=VERTEX_POINT('',#2064);
#700=VERTEX_POINT('',#2068);
#701=VERTEX_POINT('',#2070);
#702=VERTEX_POINT('',#2074);
#703=VERTEX_POINT('',#2076);
#704=VERTEX_POINT('',#2080);
#705=VERTEX_POINT('',#2082);
#706=VERTEX_POINT('',#2086);
#707=VERTEX_POINT('',#2088);
#708=VERTEX_POINT('',#2092);
#709=VERTEX_POINT('',#2094);
#710=VERTEX_POINT('',#2095);
#711=VERTEX_POINT('',#2097);
#712=VERTEX_POINT('',#2099);
#713=VERTEX_POINT('',#2103);
#714=VERTEX_POINT('',#2105);
#715=VERTEX_POINT('',#2107);
#716=VERTEX_POINT('',#2111);
#717=VERTEX_POINT('',#2113);
#718=VERTEX_POINT('',#2115);
#719=VERTEX_POINT('',#2119);
#720=VERTEX_POINT('',#2120);
#721=VERTEX_POINT('',#2122);
#722=VERTEX_POINT('',#2124);
#723=VERTEX_POINT('',#2128);
#724=VERTEX_POINT('',#2130);
#725=VERTEX_POINT('',#2132);
#726=VERTEX_POINT('',#2136);
#727=VERTEX_POINT('',#2138);
#728=VERTEX_POINT('',#2142);
#729=VERTEX_POINT('',#2143);
#730=VERTEX_POINT('',#2145);
#731=VERTEX_POINT('',#2147);
#732=VERTEX_POINT('',#2151);
#733=VERTEX_POINT('',#2152);
#734=VERTEX_POINT('',#2154);
#735=VERTEX_POINT('',#2156);
#736=VERTEX_POINT('',#2160);
#737=VERTEX_POINT('',#2161);
#738=VERTEX_POINT('',#2163);
#739=VERTEX_POINT('',#2165);
#740=VERTEX_POINT('',#2169);
#741=VERTEX_POINT('',#2171);
#742=VERTEX_POINT('',#2173);
#743=VERTEX_POINT('',#2177);
#744=VERTEX_POINT('',#2179);
#745=VERTEX_POINT('',#2183);
#746=VERTEX_POINT('',#2184);
#747=VERTEX_POINT('',#2186);
#748=VERTEX_POINT('',#2188);
#749=VERTEX_POINT('',#2192);
#750=VERTEX_POINT('',#2193);
#751=VERTEX_POINT('',#2195);
#752=VERTEX_POINT('',#2197);
#753=VERTEX_POINT('',#2201);
#754=VERTEX_POINT('',#2202);
#755=VERTEX_POINT('',#2204);
#756=VERTEX_POINT('',#2206);
#757=VERTEX_POINT('',#2210);
#758=VERTEX_POINT('',#2212);
#759=VERTEX_POINT('',#2214);
#760=VERTEX_POINT('',#2218);
#761=VERTEX_POINT('',#2220);
#762=VERTEX_POINT('',#2224);
#763=VERTEX_POINT('',#2225);
#764=VERTEX_POINT('',#2227);
#765=VERTEX_POINT('',#2229);
#766=VERTEX_POINT('',#2233);
#767=VERTEX_POINT('',#2234);
#768=VERTEX_POINT('',#2236);
#769=VERTEX_POINT('',#2238);
#770=VERTEX_POINT('',#2242);
#771=VERTEX_POINT('',#2243);
#772=VERTEX_POINT('',#2245);
#773=VERTEX_POINT('',#2247);
#774=VERTEX_POINT('',#2251);
#775=VERTEX_POINT('',#2253);
#776=VERTEX_POINT('',#2255);
#777=VERTEX_POINT('',#2259);
#778=VERTEX_POINT('',#2261);
#779=VERTEX_POINT('',#2265);
#780=VERTEX_POINT('',#2266);
#781=VERTEX_POINT('',#2268);
#782=VERTEX_POINT('',#2270);
#783=VERTEX_POINT('',#2283);
#784=VERTEX_POINT('',#2288);
#785=VERTEX_POINT('',#2289);
#786=VERTEX_POINT('',#2291);
#787=VERTEX_POINT('',#2293);
#788=VERTEX_POINT('',#2325);
#789=VERTEX_POINT('',#2327);
#790=VERTEX_POINT('',#2329);
#791=VERTEX_POINT('',#2331);
#792=VERTEX_POINT('',#2350);
#793=VERTEX_POINT('',#2354);
#794=VERTEX_POINT('',#2358);
#795=VERTEX_POINT('',#2362);
#796=LINE('',#1959,#952);
#797=LINE('',#1962,#953);
#798=LINE('',#1964,#954);
#799=LINE('',#1966,#955);
#800=LINE('',#1968,#956);
#801=LINE('',#1970,#957);
#802=LINE('',#1972,#958);
#803=LINE('',#1974,#959);
#804=LINE('',#1976,#960);
#805=LINE('',#1978,#961);
#806=LINE('',#1980,#962);
#807=LINE('',#1982,#963);
#808=LINE('',#1984,#964);
#809=LINE('',#1986,#965);
#810=LINE('',#1988,#966);
#811=LINE('',#1990,#967);
#812=LINE('',#1992,#968);
#813=LINE('',#1995,#969);
#814=LINE('',#1997,#970);
#815=LINE('',#1999,#971);
#816=LINE('',#2001,#972);
#817=LINE('',#2003,#973);
#818=LINE('',#2005,#974);
#819=LINE('',#2007,#975);
#820=LINE('',#2009,#976);
#821=LINE('',#2011,#977);
#822=LINE('',#2013,#978);
#823=LINE('',#2015,#979);
#824=LINE('',#2017,#980);
#825=LINE('',#2019,#981);
#826=LINE('',#2021,#982);
#827=LINE('',#2023,#983);
#828=LINE('',#2025,#984);
#829=LINE('',#2028,#985);
#830=LINE('',#2030,#986);
#831=LINE('',#2032,#987);
#832=LINE('',#2034,#988);
#833=LINE('',#2036,#989);
#834=LINE('',#2038,#990);
#835=LINE('',#2040,#991);
#836=LINE('',#2042,#992);
#837=LINE('',#2044,#993);
#838=LINE('',#2046,#994);
#839=LINE('',#2048,#995);
#840=LINE('',#2050,#996);
#841=LINE('',#2052,#997);
#842=LINE('',#2054,#998);
#843=LINE('',#2056,#999);
#844=LINE('',#2058,#1000);
#845=LINE('',#2061,#1001);
#846=LINE('',#2063,#1002);
#847=LINE('',#2065,#1003);
#848=LINE('',#2067,#1004);
#849=LINE('',#2069,#1005);
#850=LINE('',#2071,#1006);
#851=LINE('',#2073,#1007);
#852=LINE('',#2075,#1008);
#853=LINE('',#2077,#1009);
#854=LINE('',#2079,#1010);
#855=LINE('',#2081,#1011);
#856=LINE('',#2083,#1012);
#857=LINE('',#2085,#1013);
#858=LINE('',#2087,#1014);
#859=LINE('',#2089,#1015);
#860=LINE('',#2093,#1016);
#861=LINE('',#2096,#1017);
#862=LINE('',#2098,#1018);
#863=LINE('',#2100,#1019);
#864=LINE('',#2104,#1020);
#865=LINE('',#2106,#1021);
#866=LINE('',#2108,#1022);
#867=LINE('',#2112,#1023);
#868=LINE('',#2114,#1024);
#869=LINE('',#2116,#1025);
#870=LINE('',#2118,#1026);
#871=LINE('',#2121,#1027);
#872=LINE('',#2123,#1028);
#873=LINE('',#2125,#1029);
#874=LINE('',#2129,#1030);
#875=LINE('',#2131,#1031);
#876=LINE('',#2133,#1032);
#877=LINE('',#2135,#1033);
#878=LINE('',#2137,#1034);
#879=LINE('',#2139,#1035);
#880=LINE('',#2141,#1036);
#881=LINE('',#2144,#1037);
#882=LINE('',#2146,#1038);
#883=LINE('',#2148,#1039);
#884=LINE('',#2150,#1040);
#885=LINE('',#2153,#1041);
#886=LINE('',#2155,#1042);
#887=LINE('',#2157,#1043);
#888=LINE('',#2159,#1044);
#889=LINE('',#2162,#1045);
#890=LINE('',#2164,#1046);
#891=LINE('',#2166,#1047);
#892=LINE('',#2170,#1048);
#893=LINE('',#2172,#1049);
#894=LINE('',#2174,#1050);
#895=LINE('',#2176,#1051);
#896=LINE('',#2178,#1052);
#897=LINE('',#2180,#1053);
#898=LINE('',#2182,#1054);
#899=LINE('',#2185,#1055);
#900=LINE('',#2187,#1056);
#901=LINE('',#2189,#1057);
#902=LINE('',#2191,#1058);
#903=LINE('',#2194,#1059);
#904=LINE('',#2196,#1060);
#905=LINE('',#2198,#1061);
#906=LINE('',#2200,#1062);
#907=LINE('',#2203,#1063);
#908=LINE('',#2205,#1064);
#909=LINE('',#2207,#1065);
#910=LINE('',#2211,#1066);
#911=LINE('',#2213,#1067);
#912=LINE('',#2215,#1068);
#913=LINE('',#2217,#1069);
#914=LINE('',#2219,#1070);
#915=LINE('',#2221,#1071);
#916=LINE('',#2223,#1072);
#917=LINE('',#2226,#1073);
#918=LINE('',#2228,#1074);
#919=LINE('',#2230,#1075);
#920=LINE('',#2232,#1076);
#921=LINE('',#2235,#1077);
#922=LINE('',#2237,#1078);
#923=LINE('',#2239,#1079);
#924=LINE('',#2241,#1080);
#925=LINE('',#2244,#1081);
#926=LINE('',#2246,#1082);
#927=LINE('',#2248,#1083);
#928=LINE('',#2252,#1084);
#929=LINE('',#2254,#1085);
#930=LINE('',#2256,#1086);
#931=LINE('',#2258,#1087);
#932=LINE('',#2260,#1088);
#933=LINE('',#2262,#1089);
#934=LINE('',#2264,#1090);
#935=LINE('',#2267,#1091);
#936=LINE('',#2269,#1092);
#937=LINE('',#2271,#1093);
#938=LINE('',#2273,#1094);
#939=LINE('',#2274,#1095);
#940=LINE('',#2276,#1096);
#941=LINE('',#2277,#1097);
#942=LINE('',#2279,#1098);
#943=LINE('',#2280,#1099);
#944=LINE('',#2284,#1100);
#945=LINE('',#2285,#1101);
#946=LINE('',#2287,#1102);
#947=LINE('',#2290,#1103);
#948=LINE('',#2292,#1104);
#949=LINE('',#2294,#1105);
#950=LINE('',#2296,#1106);
#951=LINE('',#2297,#1107);
#952=VECTOR('',#1575,1.);
#953=VECTOR('',#1576,1.);
#954=VECTOR('',#1577,1.);
#955=VECTOR('',#1578,1.);
#956=VECTOR('',#1581,1.);
#957=VECTOR('',#1582,1.);
#958=VECTOR('',#1583,1.);
#959=VECTOR('',#1586,1.);
#960=VECTOR('',#1587,1.);
#961=VECTOR('',#1588,1.);
#962=VECTOR('',#1591,1.);
#963=VECTOR('',#1592,1.);
#964=VECTOR('',#1593,1.);
#965=VECTOR('',#1596,1.);
#966=VECTOR('',#1597,1.);
#967=VECTOR('',#1598,1.);
#968=VECTOR('',#1601,1.);
#969=VECTOR('',#1602,1.);
#970=VECTOR('',#1603,1.);
#971=VECTOR('',#1604,1.);
#972=VECTOR('',#1607,1.);
#973=VECTOR('',#1608,1.);
#974=VECTOR('',#1609,1.);
#975=VECTOR('',#1612,1.);
#976=VECTOR('',#1613,1.);
#977=VECTOR('',#1614,1.);
#978=VECTOR('',#1617,1.);
#979=VECTOR('',#1618,1.);
#980=VECTOR('',#1619,1.);
#981=VECTOR('',#1622,1.);
#982=VECTOR('',#1623,1.);
#983=VECTOR('',#1624,1.);
#984=VECTOR('',#1627,1.);
#985=VECTOR('',#1628,1.);
#986=VECTOR('',#1629,1.);
#987=VECTOR('',#1630,1.);
#988=VECTOR('',#1633,1.);
#989=VECTOR('',#1634,1.);
#990=VECTOR('',#1635,1.);
#991=VECTOR('',#1638,1.);
#992=VECTOR('',#1639,1.);
#993=VECTOR('',#1640,1.);
#994=VECTOR('',#1643,1.);
#995=VECTOR('',#1644,1.);
#996=VECTOR('',#1645,1.);
#997=VECTOR('',#1648,1.);
#998=VECTOR('',#1649,1.);
#999=VECTOR('',#1650,1.);
#1000=VECTOR('',#1653,1.);
#1001=VECTOR('',#1654,1.);
#1002=VECTOR('',#1655,1.);
#1003=VECTOR('',#1656,1.);
#1004=VECTOR('',#1659,1.);
#1005=VECTOR('',#1660,1.);
#1006=VECTOR('',#1661,1.);
#1007=VECTOR('',#1664,1.);
#1008=VECTOR('',#1665,1.);
#1009=VECTOR('',#1666,1.);
#1010=VECTOR('',#1669,1.);
#1011=VECTOR('',#1670,1.);
#1012=VECTOR('',#1671,1.);
#1013=VECTOR('',#1674,1.);
#1014=VECTOR('',#1675,1.);
#1015=VECTOR('',#1676,1.);
#1016=VECTOR('',#1681,1.);
#1017=VECTOR('',#1682,1.);
#1018=VECTOR('',#1683,1.);
#1019=VECTOR('',#1684,1.);
#1020=VECTOR('',#1689,1.);
#1021=VECTOR('',#1690,1.);
#1022=VECTOR('',#1691,1.);
#1023=VECTOR('',#1696,1.);
#1024=VECTOR('',#1697,1.);
#1025=VECTOR('',#1698,1.);
#1026=VECTOR('',#1701,1.);
#1027=VECTOR('',#1702,1.);
#1028=VECTOR('',#1703,1.);
#1029=VECTOR('',#1704,1.);
#1030=VECTOR('',#1709,1.);
#1031=VECTOR('',#1710,1.);
#1032=VECTOR('',#1711,1.);
#1033=VECTOR('',#1714,1.);
#1034=VECTOR('',#1715,1.);
#1035=VECTOR('',#1716,1.);
#1036=VECTOR('',#1719,1.);
#1037=VECTOR('',#1720,1.);
#1038=VECTOR('',#1721,1.);
#1039=VECTOR('',#1722,1.);
#1040=VECTOR('',#1725,1.);
#1041=VECTOR('',#1726,1.);
#1042=VECTOR('',#1727,1.);
#1043=VECTOR('',#1728,1.);
#1044=VECTOR('',#1731,1.);
#1045=VECTOR('',#1732,1.);
#1046=VECTOR('',#1733,1.);
#1047=VECTOR('',#1734,1.);
#1048=VECTOR('',#1739,1.);
#1049=VECTOR('',#1740,1.);
#1050=VECTOR('',#1741,1.);
#1051=VECTOR('',#1744,1.);
#1052=VECTOR('',#1745,1.);
#1053=VECTOR('',#1746,1.);
#1054=VECTOR('',#1749,1.);
#1055=VECTOR('',#1750,1.);
#1056=VECTOR('',#1751,1.);
#1057=VECTOR('',#1752,1.);
#1058=VECTOR('',#1755,1.);
#1059=VECTOR('',#1756,1.);
#1060=VECTOR('',#1757,1.);
#1061=VECTOR('',#1758,1.);
#1062=VECTOR('',#1761,1.);
#1063=VECTOR('',#1762,1.);
#1064=VECTOR('',#1763,1.);
#1065=VECTOR('',#1764,1.);
#1066=VECTOR('',#1769,1.);
#1067=VECTOR('',#1770,1.);
#1068=VECTOR('',#1771,1.);
#1069=VECTOR('',#1774,1.);
#1070=VECTOR('',#1775,1.);
#1071=VECTOR('',#1776,1.);
#1072=VECTOR('',#1779,1.);
#1073=VECTOR('',#1780,1.);
#1074=VECTOR('',#1781,1.);
#1075=VECTOR('',#1782,1.);
#1076=VECTOR('',#1785,1.);
#1077=VECTOR('',#1786,1.);
#1078=VECTOR('',#1787,1.);
#1079=VECTOR('',#1788,1.);
#1080=VECTOR('',#1791,1.);
#1081=VECTOR('',#1792,1.);
#1082=VECTOR('',#1793,1.);
#1083=VECTOR('',#1794,1.);
#1084=VECTOR('',#1799,1.);
#1085=VECTOR('',#1800,1.);
#1086=VECTOR('',#1801,1.);
#1087=VECTOR('',#1804,1.);
#1088=VECTOR('',#1805,1.);
#1089=VECTOR('',#1806,1.);
#1090=VECTOR('',#1809,1.);
#1091=VECTOR('',#1810,1.);
#1092=VECTOR('',#1811,1.);
#1093=VECTOR('',#1812,1.);
#1094=VECTOR('',#1815,1.);
#1095=VECTOR('',#1816,1.);
#1096=VECTOR('',#1819,1.);
#1097=VECTOR('',#1820,1.);
#1098=VECTOR('',#1823,1.);
#1099=VECTOR('',#1824,1.);
#1100=VECTOR('',#1829,1.);
#1101=VECTOR('',#1830,1.);
#1102=VECTOR('',#1833,1.);
#1103=VECTOR('',#1834,1.);
#1104=VECTOR('',#1835,1.);
#1105=VECTOR('',#1836,1.);
#1106=VECTOR('',#1839,1.);
#1107=VECTOR('',#1840,1.);
#1108=EDGE_LOOP('',(#72,#73,#74,#75));
#1109=EDGE_LOOP('',(#76,#77,#78,#79));
#1110=EDGE_LOOP('',(#80,#81,#82,#83));
#1111=EDGE_LOOP('',(#84,#85,#86,#87));
#1112=EDGE_LOOP('',(#88,#89,#90,#91));
#1113=EDGE_LOOP('',(#92,#93,#94,#95));
#1114=EDGE_LOOP('',(#96,#97,#98,#99));
#1115=EDGE_LOOP('',(#100,#101,#102,#103));
#1116=EDGE_LOOP('',(#104,#105,#106,#107));
#1117=EDGE_LOOP('',(#108,#109,#110,#111));
#1118=EDGE_LOOP('',(#112,#113,#114,#115));
#1119=EDGE_LOOP('',(#116,#117,#118,#119));
#1120=EDGE_LOOP('',(#120,#121,#122,#123));
#1121=EDGE_LOOP('',(#124,#125,#126,#127));
#1122=EDGE_LOOP('',(#128,#129,#130,#131));
#1123=EDGE_LOOP('',(#132,#133,#134,#135));
#1124=EDGE_LOOP('',(#136,#137,#138,#139));
#1125=EDGE_LOOP('',(#140,#141,#142,#143));
#1126=EDGE_LOOP('',(#144,#145,#146,#147));
#1127=EDGE_LOOP('',(#148,#149,#150,#151));
#1128=EDGE_LOOP('',(#152));
#1129=EDGE_LOOP('',(#153,#154,#155,#156));
#1130=EDGE_LOOP('',(#157));
#1131=EDGE_LOOP('',(#158,#159,#160,#161));
#1132=EDGE_LOOP('',(#162));
#1133=EDGE_LOOP('',(#163,#164,#165,#166));
#1134=EDGE_LOOP('',(#167,#168,#169,#170));
#1135=EDGE_LOOP('',(#171));
#1136=EDGE_LOOP('',(#172,#173,#174,#175));
#1137=EDGE_LOOP('',(#176,#177,#178,#179));
#1138=EDGE_LOOP('',(#180,#181,#182,#183));
#1139=EDGE_LOOP('',(#184,#185,#186,#187));
#1140=EDGE_LOOP('',(#188,#189,#190,#191));
#1141=EDGE_LOOP('',(#192));
#1142=EDGE_LOOP('',(#193,#194,#195,#196));
#1143=EDGE_LOOP('',(#197,#198,#199,#200));
#1144=EDGE_LOOP('',(#201,#202,#203,#204));
#1145=EDGE_LOOP('',(#205,#206,#207,#208));
#1146=EDGE_LOOP('',(#209,#210,#211,#212));
#1147=EDGE_LOOP('',(#213));
#1148=EDGE_LOOP('',(#214,#215,#216,#217));
#1149=EDGE_LOOP('',(#218,#219,#220,#221));
#1150=EDGE_LOOP('',(#222,#223,#224,#225));
#1151=EDGE_LOOP('',(#226,#227,#228,#229));
#1152=EDGE_LOOP('',(#230,#231,#232,#233));
#1153=EDGE_LOOP('',(#234));
#1154=EDGE_LOOP('',(#235,#236,#237,#238));
#1155=EDGE_LOOP('',(#239,#240,#241,#242));
#1156=EDGE_LOOP('',(#243,#244,#245,#246));
#1157=EDGE_LOOP('',(#247,#248,#249,#250));
#1158=EDGE_LOOP('',(#251,#252,#253,#254));
#1159=EDGE_LOOP('',(#255,#256,#257,#258));
#1160=EDGE_LOOP('',(#259));
#1161=EDGE_LOOP('',(#260,#261,#262,#263));
#1162=EDGE_LOOP('',(#264,#265,#266,#267));
#1163=EDGE_LOOP('',(#268,#269,#270,#271));
#1164=EDGE_LOOP('',(#272,#273,#274,#275,#276,#277,#278,#279,#280,#281,#282,
#283,#284,#285,#286,#287,#288,#289,#290,#291,#292,#293,#294,#295,#296,#297,
#298,#299,#300,#301,#302,#303));
#1165=EDGE_LOOP('',(#304,#305,#306,#307));
#1166=EDGE_LOOP('',(#308,#309,#310,#311,#312,#313));
#1167=EDGE_LOOP('',(#314,#315,#316,#317,#318,#319));
#1168=EDGE_LOOP('',(#320,#321,#322,#323,#324,#325));
#1169=EDGE_LOOP('',(#326,#327,#328,#329,#330,#331));
#1170=EDGE_LOOP('',(#332,#333,#334,#335,#336,#337,#338,#339,#340,#341,#342,
#343,#344,#345,#346,#347,#348,#349,#350,#351,#352,#353,#354,#355,#356,#357,
#358,#359,#360,#361,#362,#363));
#1171=EDGE_LOOP('',(#364,#365,#366,#367));
#1172=EDGE_LOOP('',(#368));
#1173=EDGE_LOOP('',(#369));
#1174=EDGE_LOOP('',(#370));
#1175=EDGE_LOOP('',(#371));
#1176=EDGE_LOOP('',(#372));
#1177=EDGE_LOOP('',(#373));
#1178=EDGE_LOOP('',(#374));
#1179=EDGE_LOOP('',(#375));
#1180=EDGE_LOOP('',(#376));
#1181=EDGE_LOOP('',(#377));
#1182=EDGE_LOOP('',(#378));
#1183=EDGE_LOOP('',(#379));
#1184=EDGE_LOOP('',(#380,#381,#382,#383));
#1185=EDGE_LOOP('',(#384,#385,#386,#387));
#1186=EDGE_LOOP('',(#388,#389,#390,#391));
#1187=EDGE_LOOP('',(#392,#393,#394,#395));
#1188=EDGE_LOOP('',(#396,#397,#398,#399));
#1189=EDGE_LOOP('',(#400,#401,#402,#403));
#1190=EDGE_LOOP('',(#404,#405,#406,#407));
#1191=EDGE_LOOP('',(#408,#409,#410,#411));
#1192=EDGE_LOOP('',(#412,#413,#414,#415));
#1193=EDGE_LOOP('',(#416,#417,#418,#419));
#1194=EDGE_LOOP('',(#420,#421,#422,#423));
#1195=EDGE_LOOP('',(#424,#425,#426,#427));
#1196=EDGE_LOOP('',(#428));
#1197=EDGE_LOOP('',(#429));
#1198=EDGE_LOOP('',(#430,#431,#432,#433,#434,#435));
#1199=EDGE_LOOP('',(#436));
#1200=EDGE_LOOP('',(#437));
#1201=EDGE_LOOP('',(#438));
#1202=EDGE_LOOP('',(#439));
#1203=EDGE_LOOP('',(#440,#441,#442,#443,#444,#445));
#1204=EDGE_LOOP('',(#446));
#1205=EDGE_LOOP('',(#447));
#1206=EDGE_LOOP('',(#448,#449,#450,#451,#452,#453));
#1207=EDGE_LOOP('',(#454));
#1208=EDGE_LOOP('',(#455));
#1209=EDGE_LOOP('',(#456));
#1210=EDGE_LOOP('',(#457));
#1211=EDGE_LOOP('',(#458,#459,#460,#461,#462,#463));
#1212=FACE_BOUND('',#1108,.T.);
#1213=FACE_BOUND('',#1109,.T.);
#1214=FACE_BOUND('',#1110,.T.);
#1215=FACE_BOUND('',#1111,.T.);
#1216=FACE_BOUND('',#1112,.T.);
#1217=FACE_BOUND('',#1113,.T.);
#1218=FACE_BOUND('',#1114,.T.);
#1219=FACE_BOUND('',#1115,.T.);
#1220=FACE_BOUND('',#1116,.T.);
#1221=FACE_BOUND('',#1117,.T.);
#1222=FACE_BOUND('',#1118,.T.);
#1223=FACE_BOUND('',#1119,.T.);
#1224=FACE_BOUND('',#1120,.T.);
#1225=FACE_BOUND('',#1121,.T.);
#1226=FACE_BOUND('',#1122,.T.);
#1227=FACE_BOUND('',#1123,.T.);
#1228=FACE_BOUND('',#1124,.T.);
#1229=FACE_BOUND('',#1125,.T.);
#1230=FACE_BOUND('',#1126,.T.);
#1231=FACE_BOUND('',#1127,.T.);
#1232=FACE_BOUND('',#1128,.T.);
#1233=FACE_BOUND('',#1129,.T.);
#1234=FACE_BOUND('',#1130,.T.);
#1235=FACE_BOUND('',#1131,.T.);
#1236=FACE_BOUND('',#1132,.T.);
#1237=FACE_BOUND('',#1133,.T.);
#1238=FACE_BOUND('',#1134,.T.);
#1239=FACE_BOUND('',#1135,.T.);
#1240=FACE_BOUND('',#1136,.T.);
#1241=FACE_BOUND('',#1137,.T.);
#1242=FACE_BOUND('',#1138,.T.);
#1243=FACE_BOUND('',#1139,.T.);
#1244=FACE_BOUND('',#1140,.T.);
#1245=FACE_BOUND('',#1141,.T.);
#1246=FACE_BOUND('',#1142,.T.);
#1247=FACE_BOUND('',#1143,.T.);
#1248=FACE_BOUND('',#1144,.T.);
#1249=FACE_BOUND('',#1145,.T.);
#1250=FACE_BOUND('',#1146,.T.);
#1251=FACE_BOUND('',#1147,.T.);
#1252=FACE_BOUND('',#1148,.T.);
#1253=FACE_BOUND('',#1149,.T.);
#1254=FACE_BOUND('',#1150,.T.);
#1255=FACE_BOUND('',#1151,.T.);
#1256=FACE_BOUND('',#1152,.T.);
#1257=FACE_BOUND('',#1153,.T.);
#1258=FACE_BOUND('',#1154,.T.);
#1259=FACE_BOUND('',#1155,.T.);
#1260=FACE_BOUND('',#1156,.T.);
#1261=FACE_BOUND('',#1157,.T.);
#1262=FACE_BOUND('',#1158,.T.);
#1263=FACE_BOUND('',#1159,.T.);
#1264=FACE_BOUND('',#1160,.T.);
#1265=FACE_BOUND('',#1161,.T.);
#1266=FACE_BOUND('',#1162,.T.);
#1267=FACE_BOUND('',#1163,.T.);
#1268=FACE_BOUND('',#1164,.T.);
#1269=FACE_BOUND('',#1165,.T.);
#1270=FACE_BOUND('',#1166,.T.);
#1271=FACE_BOUND('',#1167,.T.);
#1272=FACE_BOUND('',#1168,.T.);
#1273=FACE_BOUND('',#1169,.T.);
#1274=FACE_BOUND('',#1170,.T.);
#1275=FACE_BOUND('',#1171,.T.);
#1276=FACE_BOUND('',#1172,.T.);
#1277=FACE_BOUND('',#1173,.T.);
#1278=FACE_BOUND('',#1174,.T.);
#1279=FACE_BOUND('',#1175,.T.);
#1280=FACE_BOUND('',#1176,.T.);
#1281=FACE_BOUND('',#1177,.T.);
#1282=FACE_BOUND('',#1178,.T.);
#1283=FACE_BOUND('',#1179,.T.);
#1284=FACE_BOUND('',#1180,.T.);
#1285=FACE_BOUND('',#1181,.T.);
#1286=FACE_BOUND('',#1182,.T.);
#1287=FACE_BOUND('',#1183,.T.);
#1288=FACE_BOUND('',#1184,.T.);
#1289=FACE_BOUND('',#1185,.T.);
#1290=FACE_BOUND('',#1186,.T.);
#1291=FACE_BOUND('',#1187,.T.);
#1292=FACE_BOUND('',#1188,.T.);
#1293=FACE_BOUND('',#1189,.T.);
#1294=FACE_BOUND('',#1190,.T.);
#1295=FACE_BOUND('',#1191,.T.);
#1296=FACE_BOUND('',#1192,.T.);
#1297=FACE_BOUND('',#1193,.T.);
#1298=FACE_BOUND('',#1194,.T.);
#1299=FACE_BOUND('',#1195,.T.);
#1300=FACE_BOUND('',#1196,.T.);
#1301=FACE_BOUND('',#1197,.T.);
#1302=FACE_BOUND('',#1198,.T.);
#1303=FACE_BOUND('',#1199,.T.);
#1304=FACE_BOUND('',#1200,.T.);
#1305=FACE_BOUND('',#1201,.T.);
#1306=FACE_BOUND('',#1202,.T.);
#1307=FACE_BOUND('',#1203,.T.);
#1308=FACE_BOUND('',#1204,.T.);
#1309=FACE_BOUND('',#1205,.T.);
#1310=FACE_BOUND('',#1206,.T.);
#1311=FACE_BOUND('',#1207,.T.);
#1312=FACE_BOUND('',#1208,.T.);
#1313=FACE_BOUND('',#1209,.T.);
#1314=FACE_BOUND('',#1210,.T.);
#1315=FACE_BOUND('',#1211,.T.);
#1316=PLANE('',#1457);
#1317=PLANE('',#1458);
#1318=PLANE('',#1459);
#1319=PLANE('',#1460);
#1320=PLANE('',#1461);
#1321=PLANE('',#1462);
#1322=PLANE('',#1463);
#1323=PLANE('',#1464);
#1324=PLANE('',#1465);
#1325=PLANE('',#1466);
#1326=PLANE('',#1467);
#1327=PLANE('',#1468);
#1328=PLANE('',#1469);
#1329=PLANE('',#1470);
#1330=PLANE('',#1471);
#1331=PLANE('',#1472);
#1332=PLANE('',#1473);
#1333=PLANE('',#1474);
#1334=PLANE('',#1475);
#1335=PLANE('',#1476);
#1336=PLANE('',#1477);
#1337=PLANE('',#1479);
#1338=PLANE('',#1481);
#1339=PLANE('',#1483);
#1340=PLANE('',#1484);
#1341=PLANE('',#1486);
#1342=PLANE('',#1487);
#1343=PLANE('',#1488);
#1344=PLANE('',#1489);
#1345=PLANE('',#1490);
#1346=PLANE('',#1492);
#1347=PLANE('',#1493);
#1348=PLANE('',#1494);
#1349=PLANE('',#1495);
#1350=PLANE('',#1496);
#1351=PLANE('',#1498);
#1352=PLANE('',#1499);
#1353=PLANE('',#1500);
#1354=PLANE('',#1501);
#1355=PLANE('',#1502);
#1356=PLANE('',#1504);
#1357=PLANE('',#1505);
#1358=PLANE('',#1506);
#1359=PLANE('',#1507);
#1360=PLANE('',#1508);
#1361=PLANE('',#1509);
#1362=PLANE('',#1511);
#1363=PLANE('',#1512);
#1364=PLANE('',#1513);
#1365=PLANE('',#1526);
#1366=PLANE('',#1561);
#1367=PLANE('',#1564);
#1368=PLANE('',#1567);
#1369=PLANE('',#1570);
#1370=ADVANCED_FACE('',(#1212),#1316,.T.);
#1371=ADVANCED_FACE('',(#1213),#1317,.T.);
#1372=ADVANCED_FACE('',(#1214),#1318,.T.);
#1373=ADVANCED_FACE('',(#1215),#1319,.T.);
#1374=ADVANCED_FACE('',(#1216),#1320,.T.);
#1375=ADVANCED_FACE('',(#1217),#1321,.T.);
#1376=ADVANCED_FACE('',(#1218),#1322,.T.);
#1377=ADVANCED_FACE('',(#1219),#1323,.T.);
#1378=ADVANCED_FACE('',(#1220),#1324,.T.);
#1379=ADVANCED_FACE('',(#1221),#1325,.T.);
#1380=ADVANCED_FACE('',(#1222),#1326,.T.);
#1381=ADVANCED_FACE('',(#1223),#1327,.T.);
#1382=ADVANCED_FACE('',(#1224),#1328,.T.);
#1383=ADVANCED_FACE('',(#1225),#1329,.T.);
#1384=ADVANCED_FACE('',(#1226),#1330,.T.);
#1385=ADVANCED_FACE('',(#1227),#1331,.T.);
#1386=ADVANCED_FACE('',(#1228),#1332,.T.);
#1387=ADVANCED_FACE('',(#1229),#1333,.T.);
#1388=ADVANCED_FACE('',(#1230),#1334,.T.);
#1389=ADVANCED_FACE('',(#1231),#1335,.T.);
#1390=ADVANCED_FACE('',(#1232,#1233),#1336,.F.);
#1391=ADVANCED_FACE('',(#1234,#1235),#1337,.F.);
#1392=ADVANCED_FACE('',(#1236,#1237),#1338,.T.);
#1393=ADVANCED_FACE('',(#1238),#1339,.T.);
#1394=ADVANCED_FACE('',(#1239,#1240),#1340,.T.);
#1395=ADVANCED_FACE('',(#1241),#1341,.F.);
#1396=ADVANCED_FACE('',(#1242),#1342,.F.);
#1397=ADVANCED_FACE('',(#1243),#1343,.F.);
#1398=ADVANCED_FACE('',(#1244),#1344,.F.);
#1399=ADVANCED_FACE('',(#1245,#1246),#1345,.F.);
#1400=ADVANCED_FACE('',(#1247),#1346,.T.);
#1401=ADVANCED_FACE('',(#1248),#1347,.T.);
#1402=ADVANCED_FACE('',(#1249),#1348,.T.);
#1403=ADVANCED_FACE('',(#1250),#1349,.T.);
#1404=ADVANCED_FACE('',(#1251,#1252),#1350,.F.);
#1405=ADVANCED_FACE('',(#1253),#1351,.F.);
#1406=ADVANCED_FACE('',(#1254),#1352,.F.);
#1407=ADVANCED_FACE('',(#1255),#1353,.F.);
#1408=ADVANCED_FACE('',(#1256),#1354,.F.);
#1409=ADVANCED_FACE('',(#1257,#1258),#1355,.T.);
#1410=ADVANCED_FACE('',(#1259),#1356,.T.);
#1411=ADVANCED_FACE('',(#1260),#1357,.T.);
#1412=ADVANCED_FACE('',(#1261),#1358,.T.);
#1413=ADVANCED_FACE('',(#1262),#1359,.T.);
#1414=ADVANCED_FACE('',(#1263),#1360,.T.);
#1415=ADVANCED_FACE('',(#1264,#1265),#1361,.T.);
#1416=ADVANCED_FACE('',(#1266),#1362,.T.);
#1417=ADVANCED_FACE('',(#1267),#1363,.T.);
#1418=ADVANCED_FACE('',(#1268,#1269,#1270,#1271,#1272,#1273),#1364,.T.);
#1419=ADVANCED_FACE('',(#1274,#1275,#1276,#1277,#1278,#1279),#1365,.F.);
#1420=ADVANCED_FACE('',(#1280,#1281),#12,.F.);
#1421=ADVANCED_FACE('',(#1282,#1283),#13,.F.);
#1422=ADVANCED_FACE('',(#1284,#1285),#14,.F.);
#1423=ADVANCED_FACE('',(#1286,#1287),#15,.F.);
#1424=ADVANCED_FACE('',(#1288),#16,.T.);
#1425=ADVANCED_FACE('',(#1289),#17,.T.);
#1426=ADVANCED_FACE('',(#1290),#18,.T.);
#1427=ADVANCED_FACE('',(#1291),#19,.T.);
#1428=ADVANCED_FACE('',(#1292),#20,.T.);
#1429=ADVANCED_FACE('',(#1293),#21,.T.);
#1430=ADVANCED_FACE('',(#1294),#22,.T.);
#1431=ADVANCED_FACE('',(#1295),#23,.T.);
#1432=ADVANCED_FACE('',(#1296),#24,.T.);
#1433=ADVANCED_FACE('',(#1297),#25,.T.);
#1434=ADVANCED_FACE('',(#1298),#26,.T.);
#1435=ADVANCED_FACE('',(#1299),#27,.T.);
#1436=ADVANCED_FACE('',(#1300,#1301),#28,.F.);
#1437=ADVANCED_FACE('',(#1302,#1303),#1366,.T.);
#1438=ADVANCED_FACE('',(#1304,#1305),#29,.F.);
#1439=ADVANCED_FACE('',(#1306,#1307),#1367,.T.);
#1440=ADVANCED_FACE('',(#1308,#1309),#30,.F.);
#1441=ADVANCED_FACE('',(#1310,#1311),#1368,.T.);
#1442=ADVANCED_FACE('',(#1312,#1313),#31,.F.);
#1443=ADVANCED_FACE('',(#1314,#1315),#1369,.T.);
#1444=CLOSED_SHELL('',(#1370,#1371,#1372,#1373,#1374,#1375,#1376,#1377,
#1378,#1379,#1380,#1381,#1382,#1383,#1384,#1385,#1386,#1387,#1388,#1389,
#1390,#1391,#1392,#1393,#1394,#1395,#1396,#1397,#1398,#1399,#1400,#1401,
#1402,#1403,#1404,#1405,#1406,#1407,#1408,#1409,#1410,#1411,#1412,#1413,
#1414,#1415,#1416,#1417,#1418,#1419,#1420,#1421,#1422,#1423,#1424,#1425,
#1426,#1427,#1428,#1429,#1430,#1431,#1432,#1433,#1434,#1435,#1436,#1437,
#1438,#1439,#1440,#1441,#1442,#1443));
#1445=STYLED_ITEM('',(#1446),#1453);
#1446=PRESENTATION_STYLE_ASSIGNMENT((#1447));
#1447=SURFACE_STYLE_USAGE(.BOTH.,#1448);
#1448=SURFACE_SIDE_STYLE('',(#1449));
#1449=SURFACE_STYLE_FILL_AREA(#1450);
#1450=FILL_AREA_STYLE('',(#1451));
#1451=FILL_AREA_STYLE_COLOUR('',#1452);
#1452=DRAUGHTING_PRE_DEFINED_COLOUR('white');
#1453=MANIFOLD_SOLID_BREP('Part 1',#1444);
#1454=SHAPE_DEFINITION_REPRESENTATION(#2370,#1455);
#1455=SHAPE_REPRESENTATION('Part 1',(#1456),#2365);
#1456=AXIS2_PLACEMENT_3D('',#1957,#1571,#1572);
#1457=AXIS2_PLACEMENT_3D('',#1958,#1573,#1574);
#1458=AXIS2_PLACEMENT_3D('',#1967,#1579,#1580);
#1459=AXIS2_PLACEMENT_3D('',#1973,#1584,#1585);
#1460=AXIS2_PLACEMENT_3D('',#1979,#1589,#1590);
#1461=AXIS2_PLACEMENT_3D('',#1985,#1594,#1595);
#1462=AXIS2_PLACEMENT_3D('',#1991,#1599,#1600);
#1463=AXIS2_PLACEMENT_3D('',#2000,#1605,#1606);
#1464=AXIS2_PLACEMENT_3D('',#2006,#1610,#1611);
#1465=AXIS2_PLACEMENT_3D('',#2012,#1615,#1616);
#1466=AXIS2_PLACEMENT_3D('',#2018,#1620,#1621);
#1467=AXIS2_PLACEMENT_3D('',#2024,#1625,#1626);
#1468=AXIS2_PLACEMENT_3D('',#2033,#1631,#1632);
#1469=AXIS2_PLACEMENT_3D('',#2039,#1636,#1637);
#1470=AXIS2_PLACEMENT_3D('',#2045,#1641,#1642);
#1471=AXIS2_PLACEMENT_3D('',#2051,#1646,#1647);
#1472=AXIS2_PLACEMENT_3D('',#2057,#1651,#1652);
#1473=AXIS2_PLACEMENT_3D('',#2066,#1657,#1658);
#1474=AXIS2_PLACEMENT_3D('',#2072,#1662,#1663);
#1475=AXIS2_PLACEMENT_3D('',#2078,#1667,#1668);
#1476=AXIS2_PLACEMENT_3D('',#2084,#1672,#1673);
#1477=AXIS2_PLACEMENT_3D('',#2090,#1677,#1678);
#1478=AXIS2_PLACEMENT_3D('',#2091,#1679,#1680);
#1479=AXIS2_PLACEMENT_3D('',#2101,#1685,#1686);
#1480=AXIS2_PLACEMENT_3D('',#2102,#1687,#1688);
#1481=AXIS2_PLACEMENT_3D('',#2109,#1692,#1693);
#1482=AXIS2_PLACEMENT_3D('',#2110,#1694,#1695);
#1483=AXIS2_PLACEMENT_3D('',#2117,#1699,#1700);
#1484=AXIS2_PLACEMENT_3D('',#2126,#1705,#1706);
#1485=AXIS2_PLACEMENT_3D('',#2127,#1707,#1708);
#1486=AXIS2_PLACEMENT_3D('',#2134,#1712,#1713);
#1487=AXIS2_PLACEMENT_3D('',#2140,#1717,#1718);
#1488=AXIS2_PLACEMENT_3D('',#2149,#1723,#1724);
#1489=AXIS2_PLACEMENT_3D('',#2158,#1729,#1730);
#1490=AXIS2_PLACEMENT_3D('',#2167,#1735,#1736);
#1491=AXIS2_PLACEMENT_3D('',#2168,#1737,#1738);
#1492=AXIS2_PLACEMENT_3D('',#2175,#1742,#1743);
#1493=AXIS2_PLACEMENT_3D('',#2181,#1747,#1748);
#1494=AXIS2_PLACEMENT_3D('',#2190,#1753,#1754);
#1495=AXIS2_PLACEMENT_3D('',#2199,#1759,#1760);
#1496=AXIS2_PLACEMENT_3D('',#2208,#1765,#1766);
#1497=AXIS2_PLACEMENT_3D('',#2209,#1767,#1768);
#1498=AXIS2_PLACEMENT_3D('',#2216,#1772,#1773);
#1499=AXIS2_PLACEMENT_3D('',#2222,#1777,#1778);
#1500=AXIS2_PLACEMENT_3D('',#2231,#1783,#1784);
#1501=AXIS2_PLACEMENT_3D('',#2240,#1789,#1790);
#1502=AXIS2_PLACEMENT_3D('',#2249,#1795,#1796);
#1503=AXIS2_PLACEMENT_3D('',#2250,#1797,#1798);
#1504=AXIS2_PLACEMENT_3D('',#2257,#1802,#1803);
#1505=AXIS2_PLACEMENT_3D('',#2263,#1807,#1808);
#1506=AXIS2_PLACEMENT_3D('',#2272,#1813,#1814);
#1507=AXIS2_PLACEMENT_3D('',#2275,#1817,#1818);
#1508=AXIS2_PLACEMENT_3D('',#2278,#1821,#1822);
#1509=AXIS2_PLACEMENT_3D('',#2281,#1825,#1826);
#1510=AXIS2_PLACEMENT_3D('',#2282,#1827,#1828);
#1511=AXIS2_PLACEMENT_3D('',#2286,#1831,#1832);
#1512=AXIS2_PLACEMENT_3D('',#2295,#1837,#1838);
#1513=AXIS2_PLACEMENT_3D('',#2298,#1841,#1842);
#1514=AXIS2_PLACEMENT_3D('',#2299,#1843,#1844);
#1515=AXIS2_PLACEMENT_3D('',#2300,#1845,#1846);
#1516=AXIS2_PLACEMENT_3D('',#2301,#1847,#1848);
#1517=AXIS2_PLACEMENT_3D('',#2302,#1849,#1850);
#1518=AXIS2_PLACEMENT_3D('',#2303,#1851,#1852);
#1519=AXIS2_PLACEMENT_3D('',#2304,#1853,#1854);
#1520=AXIS2_PLACEMENT_3D('',#2305,#1855,#1856);
#1521=AXIS2_PLACEMENT_3D('',#2306,#1857,#1858);
#1522=AXIS2_PLACEMENT_3D('',#2307,#1859,#1860);
#1523=AXIS2_PLACEMENT_3D('',#2308,#1861,#1862);
#1524=AXIS2_PLACEMENT_3D('',#2309,#1863,#1864);
#1525=AXIS2_PLACEMENT_3D('',#2310,#1865,#1866);
#1526=AXIS2_PLACEMENT_3D('',#2311,#1867,#1868);
#1527=AXIS2_PLACEMENT_3D('',#2312,#1869,#1870);
#1528=AXIS2_PLACEMENT_3D('',#2313,#1871,#1872);
#1529=AXIS2_PLACEMENT_3D('',#2314,#1873,#1874);
#1530=AXIS2_PLACEMENT_3D('',#2315,#1875,#1876);
#1531=AXIS2_PLACEMENT_3D('',#2316,#1877,#1878);
#1532=AXIS2_PLACEMENT_3D('',#2317,#1879,#1880);
#1533=AXIS2_PLACEMENT_3D('',#2318,#1881,#1882);
#1534=AXIS2_PLACEMENT_3D('',#2319,#1883,#1884);
#1535=AXIS2_PLACEMENT_3D('',#2320,#1885,#1886);
#1536=AXIS2_PLACEMENT_3D('',#2321,#1887,#1888);
#1537=AXIS2_PLACEMENT_3D('',#2322,#1889,#1890);
#1538=AXIS2_PLACEMENT_3D('',#2323,#1891,#1892);
#1539=AXIS2_PLACEMENT_3D('',#2324,#1893,#1894);
#1540=AXIS2_PLACEMENT_3D('',#2326,#1895,#1896);
#1541=AXIS2_PLACEMENT_3D('',#2328,#1897,#1898);
#1542=AXIS2_PLACEMENT_3D('',#2330,#1899,#1900);
#1543=AXIS2_PLACEMENT_3D('',#2332,#1901,#1902);
#1544=AXIS2_PLACEMENT_3D('',#2333,#1903,#1904);
#1545=AXIS2_PLACEMENT_3D('',#2334,#1905,#1906);
#1546=AXIS2_PLACEMENT_3D('',#2335,#1907,#1908);
#1547=AXIS2_PLACEMENT_3D('',#2336,#1909,#1910);
#1548=AXIS2_PLACEMENT_3D('',#2337,#1911,#1912);
#1549=AXIS2_PLACEMENT_3D('',#2338,#1913,#1914);
#1550=AXIS2_PLACEMENT_3D('',#2339,#1915,#1916);
#1551=AXIS2_PLACEMENT_3D('',#2340,#1917,#1918);
#1552=AXIS2_PLACEMENT_3D('',#2341,#1919,#1920);
#1553=AXIS2_PLACEMENT_3D('',#2342,#1921,#1922);
#1554=AXIS2_PLACEMENT_3D('',#2343,#1923,#1924);
#1555=AXIS2_PLACEMENT_3D('',#2344,#1925,#1926);
#1556=AXIS2_PLACEMENT_3D('',#2345,#1927,#1928);
#1557=AXIS2_PLACEMENT_3D('',#2346,#1929,#1930);
#1558=AXIS2_PLACEMENT_3D('',#2347,#1931,#1932);
#1559=AXIS2_PLACEMENT_3D('',#2348,#1933,#1934);
#1560=AXIS2_PLACEMENT_3D('',#2349,#1935,#1936);
#1561=AXIS2_PLACEMENT_3D('',#2351,#1937,#1938);
#1562=AXIS2_PLACEMENT_3D('',#2352,#1939,#1940);
#1563=AXIS2_PLACEMENT_3D('',#2353,#1941,#1942);
#1564=AXIS2_PLACEMENT_3D('',#2355,#1943,#1944);
#1565=AXIS2_PLACEMENT_3D('',#2356,#1945,#1946);
#1566=AXIS2_PLACEMENT_3D('',#2357,#1947,#1948);
#1567=AXIS2_PLACEMENT_3D('',#2359,#1949,#1950);
#1568=AXIS2_PLACEMENT_3D('',#2360,#1951,#1952);
#1569=AXIS2_PLACEMENT_3D('',#2361,#1953,#1954);
#1570=AXIS2_PLACEMENT_3D('',#2363,#1955,#1956);
#1571=DIRECTION('',(0.,0.,1.));
#1572=DIRECTION('',(1.,0.,0.));
#1573=DIRECTION('',(0.,-1.,0.));
#1574=DIRECTION('',(0.,0.,-1.));
#1575=DIRECTION('',(-1.,0.,0.));
#1576=DIRECTION('',(0.,0.,-1.));
#1577=DIRECTION('',(-1.,0.,0.));
#1578=DIRECTION('',(0.,0.,-1.));
#1579=DIRECTION('',(-0.866025403784439,-0.5,0.));
#1580=DIRECTION('',(0.5,-0.866025403784439,0.));
#1581=DIRECTION('',(-0.5,0.866025403784438,0.));
#1582=DIRECTION('',(0.,0.,-1.));
#1583=DIRECTION('',(-0.5,0.866025403784438,0.));
#1584=DIRECTION('',(-0.866025403784439,0.5,0.));
#1585=DIRECTION('',(-0.5,-0.866025403784439,0.));
#1586=DIRECTION('',(0.5,0.866025403784439,0.));
#1587=DIRECTION('',(0.,0.,-1.));
#1588=DIRECTION('',(0.5,0.866025403784439,0.));
#1589=DIRECTION('',(0.,1.,0.));
#1590=DIRECTION('',(0.,0.,1.));
#1591=DIRECTION('',(1.,0.,0.));
#1592=DIRECTION('',(0.,0.,-1.));
#1593=DIRECTION('',(1.,0.,0.));
#1594=DIRECTION('',(0.866025403784439,0.5,0.));
#1595=DIRECTION('',(-0.5,0.866025403784439,0.));
#1596=DIRECTION('',(0.5,-0.866025403784438,0.));
#1597=DIRECTION('',(0.,0.,-1.));
#1598=DIRECTION('',(0.5,-0.866025403784439,0.));
#1599=DIRECTION('',(0.866025403784438,0.5,0.));
#1600=DIRECTION('',(-0.5,0.866025403784438,0.));
#1601=DIRECTION('',(0.5,-0.866025403784438,0.));
#1602=DIRECTION('',(0.,0.,-1.));
#1603=DIRECTION('',(0.5,-0.866025403784438,0.));
#1604=DIRECTION('',(0.,0.,-1.));
#1605=DIRECTION('',(0.866025403784439,-0.5,0.));
#1606=DIRECTION('',(0.5,0.866025403784439,0.));
#1607=DIRECTION('',(-0.5,-0.866025403784439,0.));
#1608=DIRECTION('',(0.,0.,-1.));
#1609=DIRECTION('',(-0.5,-0.866025403784439,0.));
#1610=DIRECTION('',(0.,-1.,0.));
#1611=DIRECTION('',(0.,0.,-1.));
#1612=DIRECTION('',(-1.,0.,0.));
#1613=DIRECTION('',(0.,0.,-1.));
#1614=DIRECTION('',(-1.,0.,0.));
#1615=DIRECTION('',(-0.866025403784438,-0.5,0.));
#1616=DIRECTION('',(0.5,-0.866025403784438,0.));
#1617=DIRECTION('',(-0.5,0.866025403784438,0.));
#1618=DIRECTION('',(0.,0.,-1.));
#1619=DIRECTION('',(-0.5,0.866025403784438,0.));
#1620=DIRECTION('',(-0.866025403784439,0.5,0.));
#1621=DIRECTION('',(-0.5,-0.866025403784439,0.));
#1622=DIRECTION('',(0.5,0.866025403784439,0.));
#1623=DIRECTION('',(0.,0.,-1.));
#1624=DIRECTION('',(0.5,0.866025403784439,0.));
#1625=DIRECTION('',(-0.866025403784439,0.5,0.));
#1626=DIRECTION('',(-0.5,-0.866025403784439,0.));
#1627=DIRECTION('',(0.5,0.866025403784439,0.));
#1628=DIRECTION('',(0.,0.,-1.));
#1629=DIRECTION('',(0.5,0.866025403784438,0.));
#1630=DIRECTION('',(0.,0.,-1.));
#1631=DIRECTION('',(-1.13752359080446E-15,1.,0.));
#1632=DIRECTION('',(-1.,-1.13752359080446E-15,0.));
#1633=DIRECTION('',(1.,1.13752359080446E-15,0.));
#1634=DIRECTION('',(0.,0.,-1.));
#1635=DIRECTION('',(1.,1.13752359080446E-15,0.));
#1636=DIRECTION('',(0.866025403784438,0.5,0.));
#1637=DIRECTION('',(-0.5,0.866025403784438,0.));
#1638=DIRECTION('',(0.5,-0.866025403784438,0.));
#1639=DIRECTION('',(0.,0.,-1.));
#1640=DIRECTION('',(0.5,-0.866025403784438,0.));
#1641=DIRECTION('',(0.866025403784439,-0.5,0.));
#1642=DIRECTION('',(0.5,0.866025403784439,0.));
#1643=DIRECTION('',(-0.5,-0.866025403784439,0.));
#1644=DIRECTION('',(0.,0.,-1.));
#1645=DIRECTION('',(-0.5,-0.866025403784439,0.));
#1646=DIRECTION('',(0.,-1.,0.));
#1647=DIRECTION('',(0.,0.,-1.));
#1648=DIRECTION('',(-1.,0.,0.));
#1649=DIRECTION('',(0.,0.,-1.));
#1650=DIRECTION('',(-1.,0.,0.));
#1651=DIRECTION('',(0.,1.,0.));
#1652=DIRECTION('',(0.,0.,1.));
#1653=DIRECTION('',(1.,0.,0.));
#1654=DIRECTION('',(0.,0.,-1.));
#1655=DIRECTION('',(1.,0.,0.));
#1656=DIRECTION('',(0.,0.,-1.));
#1657=DIRECTION('',(0.866025403784439,0.5,0.));
#1658=DIRECTION('',(-0.5,0.866025403784439,0.));
#1659=DIRECTION('',(0.5,-0.866025403784439,0.));
#1660=DIRECTION('',(0.,0.,-1.));
#1661=DIRECTION('',(0.5,-0.866025403784439,0.));
#1662=DIRECTION('',(0.866025403784439,-0.5,0.));
#1663=DIRECTION('',(0.5,0.866025403784439,0.));
#1664=DIRECTION('',(-0.5,-0.866025403784439,0.));
#1665=DIRECTION('',(0.,0.,-1.));
#1666=DIRECTION('',(-0.5,-0.866025403784439,0.));
#1667=DIRECTION('',(0.,-1.,0.));
#1668=DIRECTION('',(0.,0.,-1.));
#1669=DIRECTION('',(-1.,0.,0.));
#1670=DIRECTION('',(0.,0.,-1.));
#1671=DIRECTION('',(-1.,0.,0.));
#1672=DIRECTION('',(-0.866025403784439,-0.5,0.));
#1673=DIRECTION('',(0.5,-0.86602540378444,0.));
#1674=DIRECTION('',(-0.5,0.86602540378444,0.));
#1675=DIRECTION('',(0.,0.,-1.));
#1676=DIRECTION('',(-0.5,0.86602540378444,0.));
#1677=DIRECTION('',(8.46206573647223E-17,-1.,0.));
#1678=DIRECTION('',(1.,8.46206573647223E-17,0.));
#1679=DIRECTION('',(8.46206573647223E-17,-1.,0.));
#1680=DIRECTION('',(1.,8.46206573647223E-17,0.));
#1681=DIRECTION('',(-1.,-8.46206573647223E-17,0.));
#1682=DIRECTION('',(0.,0.,-1.));
#1683=DIRECTION('',(-1.,-8.46206573647223E-17,0.));
#1684=DIRECTION('',(0.,0.,-1.));
#1685=DIRECTION('',(-1.,0.,0.));
#1686=DIRECTION('',(0.,0.,1.));
#1687=DIRECTION('',(-1.,0.,0.));
#1688=DIRECTION('',(0.,0.,1.));
#1689=DIRECTION('',(0.,1.,0.));
#1690=DIRECTION('',(0.,0.,-1.));
#1691=DIRECTION('',(0.,1.,0.));
#1692=DIRECTION('',(1.69241314729444E-16,-1.,0.));
#1693=DIRECTION('',(1.,1.69241314729444E-16,0.));
#1694=DIRECTION('',(1.69241314729444E-16,-1.,0.));
#1695=DIRECTION('',(1.,1.69241314729444E-16,0.));
#1696=DIRECTION('',(-1.,-1.69241314729444E-16,0.));
#1697=DIRECTION('',(0.,0.,-1.));
#1698=DIRECTION('',(-1.,-1.69241314729444E-16,0.));
#1699=DIRECTION('',(1.,0.,0.));
#1700=DIRECTION('',(0.,0.,-1.));
#1701=DIRECTION('',(0.,-1.,0.));
#1702=DIRECTION('',(0.,0.,-1.));
#1703=DIRECTION('',(0.,-1.,0.));
#1704=DIRECTION('',(0.,0.,-1.));
#1705=DIRECTION('',(8.46206573647223E-17,-1.,0.));
#1706=DIRECTION('',(1.,8.46206573647223E-17,0.));
#1707=DIRECTION('',(8.46206573647223E-17,-1.,0.));
#1708=DIRECTION('',(1.,8.46206573647223E-17,0.));
#1709=DIRECTION('',(-1.,-8.46206573647223E-17,0.));
#1710=DIRECTION('',(0.,0.,-1.));
#1711=DIRECTION('',(-1.,-8.46206573647223E-17,0.));
#1712=DIRECTION('',(1.,0.,0.));
#1713=DIRECTION('',(0.,0.,-1.));
#1714=DIRECTION('',(0.,-1.,0.));
#1715=DIRECTION('',(0.,0.,-1.));
#1716=DIRECTION('',(0.,-1.,0.));
#1717=DIRECTION('',(0.,1.,0.));
#1718=DIRECTION('',(0.,0.,1.));
#1719=DIRECTION('',(1.,0.,0.));
#1720=DIRECTION('',(0.,0.,-1.));
#1721=DIRECTION('',(1.,0.,0.));
#1722=DIRECTION('',(0.,0.,-1.));
#1723=DIRECTION('',(-1.,0.,0.));
#1724=DIRECTION('',(0.,0.,1.));
#1725=DIRECTION('',(0.,1.,0.));
#1726=DIRECTION('',(0.,0.,-1.));
#1727=DIRECTION('',(0.,1.,0.));
#1728=DIRECTION('',(0.,0.,-1.));
#1729=DIRECTION('',(0.,-1.,0.));
#1730=DIRECTION('',(0.,0.,-1.));
#1731=DIRECTION('',(-1.,0.,0.));
#1732=DIRECTION('',(0.,0.,-1.));
#1733=DIRECTION('',(-1.,0.,0.));
#1734=DIRECTION('',(0.,0.,-1.));
#1735=DIRECTION('',(-1.,-4.23103286823611E-16,0.));
#1736=DIRECTION('',(4.23103286823611E-16,-1.,0.));
#1737=DIRECTION('',(-1.,-4.23103286823611E-16,0.));
#1738=DIRECTION('',(4.23103286823611E-16,-1.,0.));
#1739=DIRECTION('',(-4.23103286823611E-16,1.,0.));
#1740=DIRECTION('',(0.,0.,-1.));
#1741=DIRECTION('',(-4.23103286823611E-16,1.,0.));
#1742=DIRECTION('',(0.,-1.,0.));
#1743=DIRECTION('',(0.,0.,-1.));
#1744=DIRECTION('',(-1.,0.,0.));
#1745=DIRECTION('',(0.,0.,-1.));
#1746=DIRECTION('',(-1.,0.,0.));
#1747=DIRECTION('',(1.,0.,0.));
#1748=DIRECTION('',(0.,0.,-1.));
#1749=DIRECTION('',(0.,-1.,0.));
#1750=DIRECTION('',(0.,0.,-1.));
#1751=DIRECTION('',(0.,-1.,0.));
#1752=DIRECTION('',(0.,0.,-1.));
#1753=DIRECTION('',(0.,1.,0.));
#1754=DIRECTION('',(0.,0.,1.));
#1755=DIRECTION('',(1.,0.,0.));
#1756=DIRECTION('',(0.,0.,-1.));
#1757=DIRECTION('',(1.,0.,0.));
#1758=DIRECTION('',(0.,0.,-1.));
#1759=DIRECTION('',(-1.,0.,0.));
#1760=DIRECTION('',(0.,0.,1.));
#1761=DIRECTION('',(0.,1.,0.));
#1762=DIRECTION('',(0.,0.,-1.));
#1763=DIRECTION('',(0.,1.,0.));
#1764=DIRECTION('',(0.,0.,-1.));
#1765=DIRECTION('',(1.69241314729444E-16,-1.,0.));
#1766=DIRECTION('',(1.,1.69241314729444E-16,0.));
#1767=DIRECTION('',(-1.69241314729444E-16,1.,0.));
#1768=DIRECTION('',(-1.,-1.69241314729444E-16,0.));
#1769=DIRECTION('',(-1.,-1.69241314729444E-16,0.));
#1770=DIRECTION('',(0.,0.,-1.));
#1771=DIRECTION('',(-1.,-1.69241314729444E-16,0.));
#1772=DIRECTION('',(-1.,0.,0.));
#1773=DIRECTION('',(0.,0.,1.));
#1774=DIRECTION('',(0.,1.,0.));
#1775=DIRECTION('',(0.,0.,-1.));
#1776=DIRECTION('',(0.,1.,0.));
#1777=DIRECTION('',(0.,-1.,0.));
#1778=DIRECTION('',(0.,0.,-1.));
#1779=DIRECTION('',(-1.,0.,0.));
#1780=DIRECTION('',(0.,0.,-1.));
#1781=DIRECTION('',(-1.,0.,0.));
#1782=DIRECTION('',(0.,0.,-1.));
#1783=DIRECTION('',(1.,0.,0.));
#1784=DIRECTION('',(0.,0.,-1.));
#1785=DIRECTION('',(0.,-1.,0.));
#1786=DIRECTION('',(0.,0.,-1.));
#1787=DIRECTION('',(0.,-1.,0.));
#1788=DIRECTION('',(0.,0.,-1.));
#1789=DIRECTION('',(0.,1.,0.));
#1790=DIRECTION('',(0.,0.,1.));
#1791=DIRECTION('',(1.,0.,0.));
#1792=DIRECTION('',(0.,0.,-1.));
#1793=DIRECTION('',(1.,0.,0.));
#1794=DIRECTION('',(0.,0.,-1.));
#1795=DIRECTION('',(-1.,0.,0.));
#1796=DIRECTION('',(0.,0.,1.));
#1797=DIRECTION('',(-1.,0.,0.));
#1798=DIRECTION('',(0.,0.,1.));
#1799=DIRECTION('',(0.,1.,0.));
#1800=DIRECTION('',(0.,0.,-1.));
#1801=DIRECTION('',(0.,1.,0.));
#1802=DIRECTION('',(0.,1.,0.));
#1803=DIRECTION('',(0.,0.,1.));
#1804=DIRECTION('',(1.,0.,0.));
#1805=DIRECTION('',(0.,0.,-1.));
#1806=DIRECTION('',(1.,0.,0.));
#1807=DIRECTION('',(-1.,0.,0.));
#1808=DIRECTION('',(0.,0.,1.));
#1809=DIRECTION('',(0.,1.,0.));
#1810=DIRECTION('',(0.,0.,-1.));
#1811=DIRECTION('',(0.,1.,0.));
#1812=DIRECTION('',(0.,0.,-1.));
#1813=DIRECTION('',(0.,1.,0.));
#1814=DIRECTION('',(0.,0.,1.));
#1815=DIRECTION('',(1.,0.,0.));
#1816=DIRECTION('',(1.,0.,0.));
#1817=DIRECTION('',(-0.866025403784439,-0.5,0.));
#1818=DIRECTION('',(0.5,-0.866025403784439,0.));
#1819=DIRECTION('',(-0.5,0.866025403784438,0.));
#1820=DIRECTION('',(-0.5,0.866025403784438,0.));
#1821=DIRECTION('',(-0.866025403784439,0.5,0.));
#1822=DIRECTION('',(-0.5,-0.866025403784439,0.));
#1823=DIRECTION('',(0.5,0.866025403784439,0.));
#1824=DIRECTION('',(0.5,0.866025403784439,0.));
#1825=DIRECTION('',(-1.,-4.23103286823611E-16,0.));
#1826=DIRECTION('',(4.23103286823611E-16,-1.,0.));
#1827=DIRECTION('',(-1.,-4.23103286823611E-16,0.));
#1828=DIRECTION('',(4.23103286823611E-16,-1.,0.));
#1829=DIRECTION('',(-4.23103286823611E-16,1.,0.));
#1830=DIRECTION('',(-4.23103286823611E-16,1.,0.));
#1831=DIRECTION('',(0.,-1.,0.));
#1832=DIRECTION('',(0.,0.,-1.));
#1833=DIRECTION('',(-1.,0.,0.));
#1834=DIRECTION('',(0.,0.,-1.));
#1835=DIRECTION('',(-1.,0.,0.));
#1836=DIRECTION('',(0.,0.,-1.));
#1837=DIRECTION('',(0.866025403784438,-0.5,0.));
#1838=DIRECTION('',(0.5,0.866025403784438,0.));
#1839=DIRECTION('',(-0.5,-0.866025403784438,0.));
#1840=DIRECTION('',(-0.5,-0.866025403784438,0.));
#1841=DIRECTION('',(0.,0.,1.));
#1842=DIRECTION('',(1.,0.,0.));
#1843=DIRECTION('',(0.,0.,1.));
#1844=DIRECTION('',(1.,0.,0.));
#1845=DIRECTION('',(0.,0.,1.));
#1846=DIRECTION('',(1.,0.,0.));
#1847=DIRECTION('',(0.,0.,1.));
#1848=DIRECTION('',(1.,0.,0.));
#1849=DIRECTION('',(0.,0.,1.));
#1850=DIRECTION('',(1.,0.,0.));
#1851=DIRECTION('',(0.,0.,1.));
#1852=DIRECTION('',(1.,0.,0.));
#1853=DIRECTION('',(0.,0.,1.));
#1854=DIRECTION('',(1.,0.,0.));
#1855=DIRECTION('',(0.,0.,1.));
#1856=DIRECTION('',(1.,0.,0.));
#1857=DIRECTION('',(0.,0.,1.));
#1858=DIRECTION('',(1.,0.,0.));
#1859=DIRECTION('',(0.,0.,1.));
#1860=DIRECTION('',(1.,0.,0.));
#1861=DIRECTION('',(0.,0.,1.));
#1862=DIRECTION('',(1.,0.,0.));
#1863=DIRECTION('',(0.,0.,1.));
#1864=DIRECTION('',(1.,0.,0.));
#1865=DIRECTION('',(0.,0.,1.));
#1866=DIRECTION('',(1.,0.,0.));
#1867=DIRECTION('',(0.,0.,1.));
#1868=DIRECTION('',(1.,0.,0.));
#1869=DIRECTION('',(0.,0.,1.));
#1870=DIRECTION('',(1.,0.,0.));
#1871=DIRECTION('',(0.,0.,1.));
#1872=DIRECTION('',(1.,0.,0.));
#1873=DIRECTION('',(0.,0.,1.));
#1874=DIRECTION('',(1.,0.,0.));
#1875=DIRECTION('',(0.,0.,1.));
#1876=DIRECTION('',(1.,0.,0.));
#1877=DIRECTION('',(0.,0.,1.));
#1878=DIRECTION('',(1.,0.,0.));
#1879=DIRECTION('',(0.,0.,1.));
#1880=DIRECTION('',(1.,0.,0.));
#1881=DIRECTION('',(0.,0.,1.));
#1882=DIRECTION('',(1.,0.,0.));
#1883=DIRECTION('',(0.,0.,1.));
#1884=DIRECTION('',(1.,0.,0.));
#1885=DIRECTION('',(0.,0.,1.));
#1886=DIRECTION('',(1.,0.,0.));
#1887=DIRECTION('',(0.,0.,1.));
#1888=DIRECTION('',(1.,0.,0.));
#1889=DIRECTION('',(0.,0.,1.));
#1890=DIRECTION('',(1.,0.,0.));
#1891=DIRECTION('',(0.,0.,1.));
#1892=DIRECTION('',(1.,0.,0.));
#1893=DIRECTION('',(0.,0.,1.));
#1894=DIRECTION('',(1.,0.,0.));
#1895=DIRECTION('',(0.,0.,1.));
#1896=DIRECTION('',(1.,0.,0.));
#1897=DIRECTION('',(0.,0.,-1.));
#1898=DIRECTION('',(1.,0.,0.));
#1899=DIRECTION('',(0.,0.,-1.));
#1900=DIRECTION('',(1.,0.,0.));
#1901=DIRECTION('',(-1.,0.,0.));
#1902=DIRECTION('',(0.,0.,1.));
#1903=DIRECTION('',(-1.,0.,0.));
#1904=DIRECTION('',(0.,0.,1.));
#1905=DIRECTION('',(-1.69241314729444E-16,1.,0.));
#1906=DIRECTION('',(-1.,-1.69241314729444E-16,0.));
#1907=DIRECTION('',(-1.69241314729444E-16,1.,0.));
#1908=DIRECTION('',(-1.,-1.69241314729444E-16,0.));
#1909=DIRECTION('',(0.,0.,-1.));
#1910=DIRECTION('',(-1.,0.,0.));
#1911=DIRECTION('',(0.,0.,-1.));
#1912=DIRECTION('',(-1.,0.,0.));
#1913=DIRECTION('',(0.,0.,-1.));
#1914=DIRECTION('',(-1.,0.,0.));
#1915=DIRECTION('',(0.,0.,-1.));
#1916=DIRECTION('',(-1.,0.,0.));
#1917=DIRECTION('',(0.,0.,-1.));
#1918=DIRECTION('',(-1.,0.,0.));
#1919=DIRECTION('',(0.,0.,-1.));
#1920=DIRECTION('',(-1.,0.,0.));
#1921=DIRECTION('',(0.,0.,-1.));
#1922=DIRECTION('',(-1.,0.,0.));
#1923=DIRECTION('',(0.,0.,-1.));
#1924=DIRECTION('',(-1.,0.,0.));
#1925=DIRECTION('',(0.,0.,-1.));
#1926=DIRECTION('',(-1.,0.,0.));
#1927=DIRECTION('',(0.,0.,-1.));
#1928=DIRECTION('',(-1.,0.,0.));
#1929=DIRECTION('',(0.,0.,-1.));
#1930=DIRECTION('',(-1.,0.,0.));
#1931=DIRECTION('',(0.,0.,-1.));
#1932=DIRECTION('',(-1.,0.,0.));
#1933=DIRECTION('',(0.,0.,-1.));
#1934=DIRECTION('',(-1.,0.,0.));
#1935=DIRECTION('',(0.,0.,1.));
#1936=DIRECTION('',(1.,0.,0.));
#1937=DIRECTION('',(0.,0.,1.));
#1938=DIRECTION('',(1.,0.,0.));
#1939=DIRECTION('',(0.,0.,-1.));
#1940=DIRECTION('',(-1.,0.,0.));
#1941=DIRECTION('',(0.,0.,1.));
#1942=DIRECTION('',(1.,0.,0.));
#1943=DIRECTION('',(0.,0.,1.));
#1944=DIRECTION('',(1.,0.,0.));
#1945=DIRECTION('',(0.,0.,-1.));
#1946=DIRECTION('',(-1.,0.,0.));
#1947=DIRECTION('',(0.,0.,-1.));
#1948=DIRECTION('',(1.,0.,0.));
#1949=DIRECTION('',(0.,0.,1.));
#1950=DIRECTION('',(1.,0.,0.));
#1951=DIRECTION('',(0.,0.,-1.));
#1952=DIRECTION('',(-1.,0.,0.));
#1953=DIRECTION('',(0.,0.,-1.));
#1954=DIRECTION('',(1.,0.,0.));
#1955=DIRECTION('',(0.,0.,1.));
#1956=DIRECTION('',(1.,0.,0.));
#1957=CARTESIAN_POINT('',(0.,0.,0.));
#1958=CARTESIAN_POINT('',(0.0255302669529664,-0.0213941586125247,0.02));
#1959=CARTESIAN_POINT('',(0.0255302669529664,-0.0213941586125247,0.003));
#1960=CARTESIAN_POINT('',(0.0255605376958866,-0.0213941586125247,0.003));
#1961=CARTESIAN_POINT('',(0.0225105358009121,-0.0213941553303243,0.003));
#1962=CARTESIAN_POINT('',(0.0255605376958866,-0.0213941586125247,0.02));
#1963=CARTESIAN_POINT('',(0.0255605376958866,-0.0213941586125247,0.02));
#1964=CARTESIAN_POINT('',(0.0255302669529664,-0.0213941586125247,0.02));
#1965=CARTESIAN_POINT('',(0.0225105358009121,-0.0213941553303243,0.02));
#1966=CARTESIAN_POINT('',(0.0225105358009121,-0.0213941553303243,0.02));
#1967=CARTESIAN_POINT('',(0.0263230339059328,-0.022714847353296,0.02));
#1968=CARTESIAN_POINT('',(0.0263230339059328,-0.022714847353296,0.003));
#1969=CARTESIAN_POINT('',(0.0270855339059319,-0.0240355317177969,0.003));
#1970=CARTESIAN_POINT('',(0.0270855339059319,-0.0240355317177969,0.02));
#1971=CARTESIAN_POINT('',(0.0270855339059319,-0.0240355317177969,0.02));
#1972=CARTESIAN_POINT('',(0.0263230339059328,-0.022714847353296,0.02));
#1973=CARTESIAN_POINT('',(0.0263230339059328,-0.0253562248348385,0.02));
#1974=CARTESIAN_POINT('',(0.0263230339059328,-0.0253562248348385,0.003));
#1975=CARTESIAN_POINT('',(0.0255605301159663,-0.0266769135756098,0.003));
#1976=CARTESIAN_POINT('',(0.0255605301159663,-0.0266769135756098,0.02));
#1977=CARTESIAN_POINT('',(0.0255605301159663,-0.0266769135756098,0.02));
#1978=CARTESIAN_POINT('',(0.0263230339059328,-0.0253562248348385,0.02));
#1979=CARTESIAN_POINT('',(0.0240355339059328,-0.0266769135756098,0.02));
#1980=CARTESIAN_POINT('',(0.0240355339059328,-0.0266769135756098,0.003));
#1981=CARTESIAN_POINT('',(0.0225105320109519,-0.0266769102934067,0.003));
#1982=CARTESIAN_POINT('',(0.0225105320109519,-0.0266769102934067,0.02));
#1983=CARTESIAN_POINT('',(0.0225105320109519,-0.0266769102934067,0.02));
#1984=CARTESIAN_POINT('',(0.0240355339059328,-0.0266769135756098,0.02));
#1985=CARTESIAN_POINT('',(0.0214082882210871,-0.0247677680470337,0.02));
#1986=CARTESIAN_POINT('',(0.0221707882210871,-0.0260884567878049,0.003));
#1987=CARTESIAN_POINT('',(0.0209855339059327,-0.0240355339059328,0.003));
#1988=CARTESIAN_POINT('',(0.0209855339059327,-0.0240355339059328,0.02));
#1989=CARTESIAN_POINT('',(0.0209855339059327,-0.0240355339059328,0.02));
#1990=CARTESIAN_POINT('',(0.0214082882210871,-0.0247677680470337,0.02));
#1991=CARTESIAN_POINT('',(0.0217480339059328,0.0227148451651614,0.02));
#1992=CARTESIAN_POINT('',(0.0217480339059328,0.0227148451651614,0.003));
#1993=CARTESIAN_POINT('',(0.0209855339059327,0.0240355339059328,0.003));
#1994=CARTESIAN_POINT('',(0.0225105339059328,0.0213941564243902,0.003));
#1995=CARTESIAN_POINT('',(0.0209855339059327,0.0240355339059328,0.02));
#1996=CARTESIAN_POINT('',(0.0209855339059327,0.0240355339059328,0.02));
#1997=CARTESIAN_POINT('',(0.0217480339059328,0.0227148451651614,0.02));
#1998=CARTESIAN_POINT('',(0.0225105339059328,0.0213941564243902,0.02));
#1999=CARTESIAN_POINT('',(0.0225105339059328,0.0213941564243902,0.02));
#2000=CARTESIAN_POINT('',(0.0214082888527471,0.0247677669529664,0.02));
#2001=CARTESIAN_POINT('',(0.0214082888527471,0.0247677669529664,0.003));
#2002=CARTESIAN_POINT('',(0.0225105339059328,0.0266769113874753,0.003));
#2003=CARTESIAN_POINT('',(0.0225105339059328,0.0266769113874753,0.02));
#2004=CARTESIAN_POINT('',(0.0225105339059328,0.0266769113874753,0.02));
#2005=CARTESIAN_POINT('',(0.0214082888527471,0.0247677669529664,0.02));
#2006=CARTESIAN_POINT('',(0.0240355339059328,0.0266769113874753,0.02));
#2007=CARTESIAN_POINT('',(0.0240355339059328,0.0266769113874753,0.003));
#2008=CARTESIAN_POINT('',(0.0255605339059328,0.0266769113874753,0.003));
#2009=CARTESIAN_POINT('',(0.0255605339059328,0.0266769113874753,0.02));
#2010=CARTESIAN_POINT('',(0.0255605339059328,0.0266769113874753,0.02));
#2011=CARTESIAN_POINT('',(0.0240355339059328,0.0266769113874753,0.02));
#2012=CARTESIAN_POINT('',(0.0263230339059328,0.025356222646704,0.02));
#2013=CARTESIAN_POINT('',(0.0263230339059328,0.025356222646704,0.003));
#2014=CARTESIAN_POINT('',(0.0270855339059328,0.0240355339059328,0.003));
#2015=CARTESIAN_POINT('',(0.0270855339059328,0.0240355339059328,0.02));
#2016=CARTESIAN_POINT('',(0.0270855339059328,0.0240355339059328,0.02));
#2017=CARTESIAN_POINT('',(0.0263230339059328,0.025356222646704,0.02));
#2018=CARTESIAN_POINT('',(0.0263230339059328,0.0227148451651614,0.02));
#2019=CARTESIAN_POINT('',(0.0263230339059328,0.0227148451651614,0.003));
#2020=CARTESIAN_POINT('',(0.0255605339059328,0.0213941564243902,0.003));
#2021=CARTESIAN_POINT('',(0.0255605339059328,0.0213941564243902,0.02));
#2022=CARTESIAN_POINT('',(0.0255605339059328,0.0213941564243902,0.02));
#2023=CARTESIAN_POINT('',(0.0263230339059328,0.0227148451651614,0.02));
#2024=CARTESIAN_POINT('',(-0.0214082904092216,-0.0247677680470337,0.02));
#2025=CARTESIAN_POINT('',(-0.0221707904092217,-0.0260884567878049,0.003));
#2026=CARTESIAN_POINT('',(-0.022510535293154,-0.0266769121883873,0.003));
#2027=CARTESIAN_POINT('',(-0.0209855339059327,-0.0240355339059328,0.003));
#2028=CARTESIAN_POINT('',(-0.022510535293154,-0.0266769121883873,0.02));
#2029=CARTESIAN_POINT('',(-0.022510535293154,-0.0266769121883873,0.02));
#2030=CARTESIAN_POINT('',(-0.0214082904092216,-0.0247677680470337,0.02));
#2031=CARTESIAN_POINT('',(-0.0209855339059327,-0.0240355339059328,0.02));
#2032=CARTESIAN_POINT('',(-0.0209855339059327,-0.0240355339059328,0.02));
#2033=CARTESIAN_POINT('',(-0.0240355360940673,-0.0266769135756098,0.02));
#2034=CARTESIAN_POINT('',(-0.0240355360940673,-0.0266769135756098,0.003));
#2035=CARTESIAN_POINT('',(-0.025560534973174,-0.0266769135756092,0.003));
#2036=CARTESIAN_POINT('',(-0.02556053385228,-0.0266769122813118,0.02));
#2037=CARTESIAN_POINT('',(-0.02556053385228,-0.0266769122813118,0.02));
#2038=CARTESIAN_POINT('',(-0.0240355360940673,-0.0266769135756098,0.02));
#2039=CARTESIAN_POINT('',(-0.0263230360940673,-0.0253562248348385,0.02));
#2040=CARTESIAN_POINT('',(-0.0263230360940673,-0.0253562248348385,0.003));
#2041=CARTESIAN_POINT('',(-0.0270855339059269,-0.0240355398840375,0.003));
#2042=CARTESIAN_POINT('',(-0.0270855339059269,-0.0240355398840375,0.02));
#2043=CARTESIAN_POINT('',(-0.0270855339059269,-0.0240355398840375,0.02));
#2044=CARTESIAN_POINT('',(-0.0263230360940673,-0.0253562248348385,0.02));
#2045=CARTESIAN_POINT('',(-0.0263230360940673,-0.022714847353296,0.02));
#2046=CARTESIAN_POINT('',(-0.0263230360940673,-0.022714847353296,0.003));
#2047=CARTESIAN_POINT('',(-0.0255605376958866,-0.0213941586125247,0.003));
#2048=CARTESIAN_POINT('',(-0.0255605376958866,-0.0213941586125247,0.02));
#2049=CARTESIAN_POINT('',(-0.0255605376958866,-0.0213941586125247,0.02));
#2050=CARTESIAN_POINT('',(-0.0263230360940673,-0.022714847353296,0.02));
#2051=CARTESIAN_POINT('',(-0.0255302680470336,-0.0213941586125247,0.02));
#2052=CARTESIAN_POINT('',(-0.0255302680470336,-0.0213941586125247,0.003));
#2053=CARTESIAN_POINT('',(-0.0225105360940673,-0.0213941586125247,0.003));
#2054=CARTESIAN_POINT('',(-0.0225105345995438,-0.0213941560239388,0.02));
#2055=CARTESIAN_POINT('',(-0.0225105345995438,-0.0213941560239388,0.02));
#2056=CARTESIAN_POINT('',(-0.0255302680470336,-0.0213941586125247,0.02));
#2057=CARTESIAN_POINT('',(-0.0255302680470336,0.0213941564243902,0.02));
#2058=CARTESIAN_POINT('',(-0.0255302680470336,0.0213941564243902,0.003));
#2059=CARTESIAN_POINT('',(-0.0255605371881368,0.0213941583193743,0.003));
#2060=CARTESIAN_POINT('',(-0.0225105371881321,0.0213941545294142,0.003));
#2061=CARTESIAN_POINT('',(-0.0255605371881368,0.0213941583193743,0.02));
#2062=CARTESIAN_POINT('',(-0.0255605371881368,0.0213941583193743,0.02));
#2063=CARTESIAN_POINT('',(-0.0255302680470336,0.0213941564243902,0.02));
#2064=CARTESIAN_POINT('',(-0.0225105371881321,0.0213941545294142,0.02));
#2065=CARTESIAN_POINT('',(-0.0225105371881321,0.0213941545294142,0.02));
#2066=CARTESIAN_POINT('',(-0.0263230360940673,0.0227148451651614,0.02));
#2067=CARTESIAN_POINT('',(-0.0263230360940673,0.0227148451651614,0.003));
#2068=CARTESIAN_POINT('',(-0.0270855339059304,0.024035537695897,0.003));
#2069=CARTESIAN_POINT('',(-0.0270855339059304,0.024035537695897,0.02));
#2070=CARTESIAN_POINT('',(-0.0270855339059304,0.024035537695897,0.02));
#2071=CARTESIAN_POINT('',(-0.0263230360940673,0.0227148451651614,0.02));
#2072=CARTESIAN_POINT('',(-0.0263230360940673,0.025356222646704,0.02));
#2073=CARTESIAN_POINT('',(-0.0263230360940673,0.025356222646704,0.003));
#2074=CARTESIAN_POINT('',(-0.0255605339059328,0.0266769113874753,0.003));
#2075=CARTESIAN_POINT('',(-0.0255605339059328,0.0266769113874753,0.02));
#2076=CARTESIAN_POINT('',(-0.0255605339059328,0.0266769113874753,0.02));
#2077=CARTESIAN_POINT('',(-0.0263230360940673,0.025356222646704,0.02));
#2078=CARTESIAN_POINT('',(-0.0240355360940673,0.0266769113874753,0.02));
#2079=CARTESIAN_POINT('',(-0.0240355360940673,0.0266769113874753,0.003));
#2080=CARTESIAN_POINT('',(-0.0225105339059328,0.0266769113874753,0.003));
#2081=CARTESIAN_POINT('',(-0.0225105339059328,0.0266769113874753,0.02));
#2082=CARTESIAN_POINT('',(-0.0225105339059328,0.0266769113874753,0.02));
#2083=CARTESIAN_POINT('',(-0.0240355360940673,0.0266769113874753,0.02));
#2084=CARTESIAN_POINT('',(-0.0221707910408816,0.0260884556937377,0.02));
#2085=CARTESIAN_POINT('',(-0.0221707910408816,0.0260884556937377,0.003));
#2086=CARTESIAN_POINT('',(-0.0209855360940672,0.0240355339059328,0.003));
#2087=CARTESIAN_POINT('',(-0.0209855360940672,0.0240355339059328,0.02));
#2088=CARTESIAN_POINT('',(-0.0209855360940672,0.0240355339059328,0.02));
#2089=CARTESIAN_POINT('',(-0.0221707910408816,0.0260884556937377,0.02));
#2090=CARTESIAN_POINT('',(-3.46944695195361E-18,-0.0205,0.02));
#2091=CARTESIAN_POINT('',(3.44829178761243E-18,-0.0205,0.01));
#2092=CARTESIAN_POINT('',(0.004,-0.0205,0.01));
#2093=CARTESIAN_POINT('',(-3.46944695195361E-18,-0.0205,0.));
#2094=CARTESIAN_POINT('',(0.0205,-0.0205,0.));
#2095=CARTESIAN_POINT('',(-0.0205,-0.0205,0.));
#2096=CARTESIAN_POINT('',(-0.0205,-0.0205,0.02));
#2097=CARTESIAN_POINT('',(-0.0205,-0.0205,0.02));
#2098=CARTESIAN_POINT('',(-3.46944695195361E-18,-0.0205,0.02));
#2099=CARTESIAN_POINT('',(0.0205,-0.0205,0.02));
#2100=CARTESIAN_POINT('',(0.0205,-0.0205,0.02));
#2101=CARTESIAN_POINT('',(-0.0205,-3.46944695195361E-18,0.02));
#2102=CARTESIAN_POINT('',(-0.0205,0.,0.01));
#2103=CARTESIAN_POINT('',(-0.0205,0.,0.014));
#2104=CARTESIAN_POINT('',(-0.0205,-3.46944695195361E-18,0.));
#2105=CARTESIAN_POINT('',(-0.0205,0.0205,0.));
#2106=CARTESIAN_POINT('',(-0.0205,0.0205,0.02));
#2107=CARTESIAN_POINT('',(-0.0205,0.0205,0.02));
#2108=CARTESIAN_POINT('',(-0.0205,-3.46944695195361E-18,0.02));
#2109=CARTESIAN_POINT('',(-3.46944695195361E-18,0.0205,0.02));
#2110=CARTESIAN_POINT('',(-3.49060211629479E-18,0.0205,0.01));
#2111=CARTESIAN_POINT('',(0.004,0.0205,0.01));
#2112=CARTESIAN_POINT('',(-3.46944695195361E-18,0.0205,0.));
#2113=CARTESIAN_POINT('',(0.0205,0.0205,0.));
#2114=CARTESIAN_POINT('',(0.0205,0.0205,0.02));
#2115=CARTESIAN_POINT('',(0.0205,0.0205,0.02));
#2116=CARTESIAN_POINT('',(-3.46944695195361E-18,0.0205,0.02));
#2117=CARTESIAN_POINT('',(-0.0205,-0.027,0.02));
#2118=CARTESIAN_POINT('',(-0.0205,-0.027,0.02));
#2119=CARTESIAN_POINT('',(-0.0205,-0.0255,0.02));
#2120=CARTESIAN_POINT('',(-0.0205,-0.026,0.02));
#2121=CARTESIAN_POINT('',(-0.0205,-0.026,0.02));
#2122=CARTESIAN_POINT('',(-0.0205,-0.026,0.));
#2123=CARTESIAN_POINT('',(-0.0205,-0.027,0.));
#2124=CARTESIAN_POINT('',(-0.0205,-0.0255,0.));
#2125=CARTESIAN_POINT('',(-0.0205,-0.0255,0.02));
#2126=CARTESIAN_POINT('',(0.,-0.0255,0.02));
#2127=CARTESIAN_POINT('',(4.29449836125966E-18,-0.0255,0.01));
#2128=CARTESIAN_POINT('',(0.004,-0.0255,0.01));
#2129=CARTESIAN_POINT('',(0.,-0.0255,0.));
#2130=CARTESIAN_POINT('',(0.0205,-0.0255,0.));
#2131=CARTESIAN_POINT('',(0.0205,-0.0255,0.02));
#2132=CARTESIAN_POINT('',(0.0205,-0.0255,0.02));
#2133=CARTESIAN_POINT('',(0.,-0.0255,0.02));
#2134=CARTESIAN_POINT('',(0.0205,-0.027,0.02));
#2135=CARTESIAN_POINT('',(0.0205,-0.027,0.));
#2136=CARTESIAN_POINT('',(0.0205,-0.026,0.));
#2137=CARTESIAN_POINT('',(0.0205,-0.026,0.02));
#2138=CARTESIAN_POINT('',(0.0205,-0.026,0.02));
#2139=CARTESIAN_POINT('',(0.0205,-0.027,0.02));
#2140=CARTESIAN_POINT('',(0.0245,-0.0285,0.02));
#2141=CARTESIAN_POINT('',(0.0245,-0.0285,0.02));
#2142=CARTESIAN_POINT('',(0.023,-0.0285,0.02));
#2143=CARTESIAN_POINT('',(0.026,-0.0285,0.02));
#2144=CARTESIAN_POINT('',(0.023,-0.0285,0.02));
#2145=CARTESIAN_POINT('',(0.023,-0.0285,0.));
#2146=CARTESIAN_POINT('',(0.0245,-0.0285,0.));
#2147=CARTESIAN_POINT('',(0.026,-0.0285,0.));
#2148=CARTESIAN_POINT('',(0.026,-0.0285,0.02));
#2149=CARTESIAN_POINT('',(0.0285,-0.0245,0.02));
#2150=CARTESIAN_POINT('',(0.0285,-0.0245,0.));
#2151=CARTESIAN_POINT('',(0.0285,-0.026,0.));
#2152=CARTESIAN_POINT('',(0.0285,-0.023,0.));
#2153=CARTESIAN_POINT('',(0.0285,-0.023,0.02));
#2154=CARTESIAN_POINT('',(0.0285,-0.023,0.02));
#2155=CARTESIAN_POINT('',(0.0285,-0.0245,0.02));
#2156=CARTESIAN_POINT('',(0.0285,-0.026,0.02));
#2157=CARTESIAN_POINT('',(0.0285,-0.026,0.02));
#2158=CARTESIAN_POINT('',(0.027,-0.0205,0.02));
#2159=CARTESIAN_POINT('',(0.027,-0.0205,0.02));
#2160=CARTESIAN_POINT('',(0.026,-0.0205,0.02));
#2161=CARTESIAN_POINT('',(0.0255,-0.0205,0.02));
#2162=CARTESIAN_POINT('',(0.026,-0.0205,0.02));
#2163=CARTESIAN_POINT('',(0.026,-0.0205,0.));
#2164=CARTESIAN_POINT('',(0.027,-0.0205,0.));
#2165=CARTESIAN_POINT('',(0.0255,-0.0205,0.));
#2166=CARTESIAN_POINT('',(0.0255,-0.0205,0.02));
#2167=CARTESIAN_POINT('',(0.0255,0.,0.02));
#2168=CARTESIAN_POINT('',(0.0255,0.,0.01));
#2169=CARTESIAN_POINT('',(0.0255,-0.004,0.01));
#2170=CARTESIAN_POINT('',(0.0255,0.,0.));
#2171=CARTESIAN_POINT('',(0.0255,0.0205,0.));
#2172=CARTESIAN_POINT('',(0.0255,0.0205,0.02));
#2173=CARTESIAN_POINT('',(0.0255,0.0205,0.02));
#2174=CARTESIAN_POINT('',(0.0255,0.,0.02));
#2175=CARTESIAN_POINT('',(0.027,0.0205,0.02));
#2176=CARTESIAN_POINT('',(0.027,0.0205,0.));
#2177=CARTESIAN_POINT('',(0.026,0.0205,0.));
#2178=CARTESIAN_POINT('',(0.026,0.0205,0.02));
#2179=CARTESIAN_POINT('',(0.026,0.0205,0.02));
#2180=CARTESIAN_POINT('',(0.027,0.0205,0.02));
#2181=CARTESIAN_POINT('',(0.0285,0.0245,0.02));
#2182=CARTESIAN_POINT('',(0.0285,0.0245,0.02));
#2183=CARTESIAN_POINT('',(0.0285,0.026,0.02));
#2184=CARTESIAN_POINT('',(0.0285,0.023,0.02));
#2185=CARTESIAN_POINT('',(0.0285,0.023,0.02));
#2186=CARTESIAN_POINT('',(0.0285,0.023,0.));
#2187=CARTESIAN_POINT('',(0.0285,0.0245,0.));
#2188=CARTESIAN_POINT('',(0.0285,0.026,0.));
#2189=CARTESIAN_POINT('',(0.0285,0.026,0.02));
#2190=CARTESIAN_POINT('',(0.0245,0.0285,0.02));
#2191=CARTESIAN_POINT('',(0.0245,0.0285,0.02));
#2192=CARTESIAN_POINT('',(0.023,0.0285,0.02));
#2193=CARTESIAN_POINT('',(0.026,0.0285,0.02));
#2194=CARTESIAN_POINT('',(0.026,0.0285,0.02));
#2195=CARTESIAN_POINT('',(0.026,0.0285,0.));
#2196=CARTESIAN_POINT('',(0.0245,0.0285,0.));
#2197=CARTESIAN_POINT('',(0.023,0.0285,0.));
#2198=CARTESIAN_POINT('',(0.023,0.0285,0.02));
#2199=CARTESIAN_POINT('',(0.0205,0.027,0.02));
#2200=CARTESIAN_POINT('',(0.0205,0.027,0.02));
#2201=CARTESIAN_POINT('',(0.0205,0.0255,0.02));
#2202=CARTESIAN_POINT('',(0.0205,0.026,0.02));
#2203=CARTESIAN_POINT('',(0.0205,0.026,0.02));
#2204=CARTESIAN_POINT('',(0.0205,0.026,0.));
#2205=CARTESIAN_POINT('',(0.0205,0.027,0.));
#2206=CARTESIAN_POINT('',(0.0205,0.0255,0.));
#2207=CARTESIAN_POINT('',(0.0205,0.0255,0.02));
#2208=CARTESIAN_POINT('',(0.,0.0255,0.02));
#2209=CARTESIAN_POINT('',(-4.33680868994202E-18,0.0255,0.01));
#2210=CARTESIAN_POINT('',(-0.004,0.0255,0.01));
#2211=CARTESIAN_POINT('',(0.,0.0255,0.));
#2212=CARTESIAN_POINT('',(-0.0205,0.0255,0.));
#2213=CARTESIAN_POINT('',(-0.0205,0.0255,0.02));
#2214=CARTESIAN_POINT('',(-0.0205,0.0255,0.02));
#2215=CARTESIAN_POINT('',(0.,0.0255,0.02));
#2216=CARTESIAN_POINT('',(-0.0205,0.027,0.02));
#2217=CARTESIAN_POINT('',(-0.0205,0.027,0.));
#2218=CARTESIAN_POINT('',(-0.0205,0.026,0.));
#2219=CARTESIAN_POINT('',(-0.0205,0.026,0.02));
#2220=CARTESIAN_POINT('',(-0.0205,0.026,0.02));
#2221=CARTESIAN_POINT('',(-0.0205,0.027,0.02));
#2222=CARTESIAN_POINT('',(-0.0245,0.0285,0.02));
#2223=CARTESIAN_POINT('',(-0.0245,0.0285,0.));
#2224=CARTESIAN_POINT('',(-0.023,0.0285,0.));
#2225=CARTESIAN_POINT('',(-0.026,0.0285,0.));
#2226=CARTESIAN_POINT('',(-0.026,0.0285,0.02));
#2227=CARTESIAN_POINT('',(-0.026,0.0285,0.02));
#2228=CARTESIAN_POINT('',(-0.0245,0.0285,0.02));
#2229=CARTESIAN_POINT('',(-0.023,0.0285,0.02));
#2230=CARTESIAN_POINT('',(-0.023,0.0285,0.02));
#2231=CARTESIAN_POINT('',(-0.0285,0.0245,0.02));
#2232=CARTESIAN_POINT('',(-0.0285,0.0245,0.));
#2233=CARTESIAN_POINT('',(-0.0285,0.026,0.));
#2234=CARTESIAN_POINT('',(-0.0285,0.023,0.));
#2235=CARTESIAN_POINT('',(-0.0285,0.023,0.02));
#2236=CARTESIAN_POINT('',(-0.0285,0.023,0.02));
#2237=CARTESIAN_POINT('',(-0.0285,0.0245,0.02));
#2238=CARTESIAN_POINT('',(-0.0285,0.026,0.02));
#2239=CARTESIAN_POINT('',(-0.0285,0.026,0.02));
#2240=CARTESIAN_POINT('',(-0.027,0.0205,0.02));
#2241=CARTESIAN_POINT('',(-0.027,0.0205,0.02));
#2242=CARTESIAN_POINT('',(-0.026,0.0205,0.02));
#2243=CARTESIAN_POINT('',(-0.0255,0.0205,0.02));
#2244=CARTESIAN_POINT('',(-0.026,0.0205,0.02));
#2245=CARTESIAN_POINT('',(-0.026,0.0205,0.));
#2246=CARTESIAN_POINT('',(-0.027,0.0205,0.));
#2247=CARTESIAN_POINT('',(-0.0255,0.0205,0.));
#2248=CARTESIAN_POINT('',(-0.0255,0.0205,0.02));
#2249=CARTESIAN_POINT('',(-0.0255,0.,0.02));
#2250=CARTESIAN_POINT('',(-0.0255,0.,0.01));
#2251=CARTESIAN_POINT('',(-0.0255,0.,0.014));
#2252=CARTESIAN_POINT('',(-0.0255,0.,0.));
#2253=CARTESIAN_POINT('',(-0.0255,-0.0205,0.));
#2254=CARTESIAN_POINT('',(-0.0255,-0.0205,0.02));
#2255=CARTESIAN_POINT('',(-0.0255,-0.0205,0.02));
#2256=CARTESIAN_POINT('',(-0.0255,0.,0.02));
#2257=CARTESIAN_POINT('',(-0.027,-0.0205,0.02));
#2258=CARTESIAN_POINT('',(-0.027,-0.0205,0.));
#2259=CARTESIAN_POINT('',(-0.026,-0.0205,0.));
#2260=CARTESIAN_POINT('',(-0.026,-0.0205,0.02));
#2261=CARTESIAN_POINT('',(-0.026,-0.0205,0.02));
#2262=CARTESIAN_POINT('',(-0.027,-0.0205,0.02));
#2263=CARTESIAN_POINT('',(-0.0285,-0.0245,0.02));
#2264=CARTESIAN_POINT('',(-0.0285,-0.0245,0.02));
#2265=CARTESIAN_POINT('',(-0.0285,-0.026,0.02));
#2266=CARTESIAN_POINT('',(-0.0285,-0.023,0.02));
#2267=CARTESIAN_POINT('',(-0.0285,-0.023,0.02));
#2268=CARTESIAN_POINT('',(-0.0285,-0.023,0.));
#2269=CARTESIAN_POINT('',(-0.0285,-0.0245,0.));
#2270=CARTESIAN_POINT('',(-0.0285,-0.026,0.));
#2271=CARTESIAN_POINT('',(-0.0285,-0.026,0.02));
#2272=CARTESIAN_POINT('',(0.0255302669529664,0.0213941564243902,0.02));
#2273=CARTESIAN_POINT('',(0.0240052669529663,0.0213941564243902,0.003));
#2274=CARTESIAN_POINT('',(0.0255302669529664,0.0213941564243902,0.02));
#2275=CARTESIAN_POINT('',(-0.0217480360940672,-0.022714847353296,0.02));
#2276=CARTESIAN_POINT('',(-0.0217480360940672,-0.022714847353296,0.003));
#2277=CARTESIAN_POINT('',(-0.0217480360940672,-0.022714847353296,0.02));
#2278=CARTESIAN_POINT('',(-0.0217480360940672,0.0227148451651614,0.02));
#2279=CARTESIAN_POINT('',(-0.0217480360940672,0.0227148451651614,0.003));
#2280=CARTESIAN_POINT('',(-0.0217480360940672,0.0227148451651614,0.02));
#2281=CARTESIAN_POINT('',(0.0205,0.,0.02));
#2282=CARTESIAN_POINT('',(0.0205,0.,0.01));
#2283=CARTESIAN_POINT('',(0.0205,-0.004,0.01));
#2284=CARTESIAN_POINT('',(0.0205,0.,0.));
#2285=CARTESIAN_POINT('',(0.0205,0.,0.02));
#2286=CARTESIAN_POINT('',(-0.0245,-0.0285,0.02));
#2287=CARTESIAN_POINT('',(-0.0245,-0.0285,0.));
#2288=CARTESIAN_POINT('',(-0.023,-0.0285,0.));
#2289=CARTESIAN_POINT('',(-0.026,-0.0285,0.));
#2290=CARTESIAN_POINT('',(-0.023,-0.0285,0.02));
#2291=CARTESIAN_POINT('',(-0.023,-0.0285,0.02));
#2292=CARTESIAN_POINT('',(-0.0245,-0.0285,0.02));
#2293=CARTESIAN_POINT('',(-0.026,-0.0285,0.02));
#2294=CARTESIAN_POINT('',(-0.026,-0.0285,0.02));
#2295=CARTESIAN_POINT('',(0.0217480339059328,-0.022714847353296,0.02));
#2296=CARTESIAN_POINT('',(0.0217480339059328,-0.022714847353296,0.003));
#2297=CARTESIAN_POINT('',(0.0217480339059328,-0.022714847353296,0.02));
#2298=CARTESIAN_POINT('',(0.,0.,0.02));
#2299=CARTESIAN_POINT('',(0.026,-0.023,0.02));
#2300=CARTESIAN_POINT('',(0.026,0.023,0.02));
#2301=CARTESIAN_POINT('',(0.026,0.026,0.02));
#2302=CARTESIAN_POINT('',(0.023,0.026,0.02));
#2303=CARTESIAN_POINT('',(-0.023,0.026,0.02));
#2304=CARTESIAN_POINT('',(-0.026,0.026,0.02));
#2305=CARTESIAN_POINT('',(-0.026,0.023,0.02));
#2306=CARTESIAN_POINT('',(-0.026,-0.023,0.02));
#2307=CARTESIAN_POINT('',(-0.026,-0.026,0.02));
#2308=CARTESIAN_POINT('',(-0.023,-0.026,0.02));
#2309=CARTESIAN_POINT('',(0.023,-0.026,0.02));
#2310=CARTESIAN_POINT('',(0.026,-0.026,0.02));
#2311=CARTESIAN_POINT('',(0.,0.,0.));
#2312=CARTESIAN_POINT('',(0.026,-0.023,0.));
#2313=CARTESIAN_POINT('',(0.026,-0.026,0.));
#2314=CARTESIAN_POINT('',(0.023,-0.026,0.));
#2315=CARTESIAN_POINT('',(-0.023,-0.026,0.));
#2316=CARTESIAN_POINT('',(-0.026,-0.026,0.));
#2317=CARTESIAN_POINT('',(-0.026,-0.023,0.));
#2318=CARTESIAN_POINT('',(-0.026,0.023,0.));
#2319=CARTESIAN_POINT('',(-0.026,0.026,0.));
#2320=CARTESIAN_POINT('',(-0.023,0.026,0.));
#2321=CARTESIAN_POINT('',(0.023,0.026,0.));
#2322=CARTESIAN_POINT('',(0.026,0.026,0.));
#2323=CARTESIAN_POINT('',(0.026,0.023,0.));
#2324=CARTESIAN_POINT('',(0.0240355339059328,-0.0240355339059328,0.));
#2325=CARTESIAN_POINT('',(0.0253855339059328,-0.0240355339059328,0.));
#2326=CARTESIAN_POINT('',(-0.0240355339059328,0.0240355339059328,0.));
#2327=CARTESIAN_POINT('',(-0.0226855339059327,0.0240355339059328,0.));
#2328=CARTESIAN_POINT('',(-0.0240355339059328,-0.0240355339059328,0.));
#2329=CARTESIAN_POINT('',(-0.0226855339059327,-0.0240355339059328,0.));
#2330=CARTESIAN_POINT('',(0.0240355339059328,0.0240355339059328,0.));
#2331=CARTESIAN_POINT('',(0.0253855339059328,0.0240355339059328,0.));
#2332=CARTESIAN_POINT('',(0.025502,0.,0.01));
#2333=CARTESIAN_POINT('',(0.025502,0.,0.01));
#2334=CARTESIAN_POINT('',(4.29483684388911E-18,-0.025502,0.01));
#2335=CARTESIAN_POINT('',(4.29483684388911E-18,-0.025502,0.01));
#2336=CARTESIAN_POINT('',(0.026,-0.023,0.02));
#2337=CARTESIAN_POINT('',(0.023,-0.026,0.02));
#2338=CARTESIAN_POINT('',(0.026,-0.026,0.02));
#2339=CARTESIAN_POINT('',(-0.023,-0.026,0.02));
#2340=CARTESIAN_POINT('',(-0.026,-0.023,0.02));
#2341=CARTESIAN_POINT('',(-0.026,-0.026,0.02));
#2342=CARTESIAN_POINT('',(-0.026,0.023,0.02));
#2343=CARTESIAN_POINT('',(-0.026,0.026,0.02));
#2344=CARTESIAN_POINT('',(-0.023,0.026,0.02));
#2345=CARTESIAN_POINT('',(0.026,0.023,0.02));
#2346=CARTESIAN_POINT('',(0.026,0.026,0.02));
#2347=CARTESIAN_POINT('',(0.023,0.026,0.02));
#2348=CARTESIAN_POINT('',(0.0240355339059328,-0.0240355339059328,0.003));
#2349=CARTESIAN_POINT('',(0.0240355339059328,-0.0240355339059328,0.003));
#2350=CARTESIAN_POINT('',(0.0253855339059328,-0.0240355339059328,0.003));
#2351=CARTESIAN_POINT('',(0.,0.,0.003));
#2352=CARTESIAN_POINT('',(-0.0240355339059328,0.0240355339059328,0.003));
#2353=CARTESIAN_POINT('',(-0.0240355339059328,0.0240355339059328,0.003));
#2354=CARTESIAN_POINT('',(-0.0226855339059327,0.0240355339059328,0.003));
#2355=CARTESIAN_POINT('',(0.,0.,0.003));
#2356=CARTESIAN_POINT('',(-0.0240355339059328,-0.0240355339059328,0.003));
#2357=CARTESIAN_POINT('',(-0.0240355339059328,-0.0240355339059328,0.003));
#2358=CARTESIAN_POINT('',(-0.0226855339059327,-0.0240355339059328,0.003));
#2359=CARTESIAN_POINT('',(0.,0.,0.003));
#2360=CARTESIAN_POINT('',(0.0240355339059328,0.0240355339059328,0.003));
#2361=CARTESIAN_POINT('',(0.0240355339059328,0.0240355339059328,0.003));
#2362=CARTESIAN_POINT('',(0.0253855339059328,0.0240355339059328,0.003));
#2363=CARTESIAN_POINT('',(0.,0.,0.003));
#2364=MECHANICAL_DESIGN_GEOMETRIC_PRESENTATION_REPRESENTATION('',(#1445),
#2365);
#2365=(
GEOMETRIC_REPRESENTATION_CONTEXT(3)
GLOBAL_UNCERTAINTY_ASSIGNED_CONTEXT((#2366))
GLOBAL_UNIT_ASSIGNED_CONTEXT((#2369,#2368,#2367))
REPRESENTATION_CONTEXT('Part 1','TOP_LEVEL_ASSEMBLY_PART')
);
#2366=UNCERTAINTY_MEASURE_WITH_UNIT(LENGTH_MEASURE(2.0258858704305E-7),
#2369,'DISTANCE_ACCURACY_VALUE','Maximum Tolerance applied to model');
#2367=(
NAMED_UNIT(*)
SI_UNIT($,.STERADIAN.)
SOLID_ANGLE_UNIT()
);
#2368=(
NAMED_UNIT(*)
PLANE_ANGLE_UNIT()
SI_UNIT($,.RADIAN.)
);
#2369=(
LENGTH_UNIT()
NAMED_UNIT(*)
SI_UNIT($,.METRE.)
);
#2370=PRODUCT_DEFINITION_SHAPE('','',#2371);
#2371=PRODUCT_DEFINITION('','',#2373,#2372);
#2372=PRODUCT_DEFINITION_CONTEXT('',#2379,'design');
#2373=PRODUCT_DEFINITION_FORMATION_WITH_SPECIFIED_SOURCE('','',#2375,
 .NOT_KNOWN.);
#2374=PRODUCT_RELATED_PRODUCT_CATEGORY('','',(#2375));
#2375=PRODUCT('Part 1','Part 1','Part 1',(#2377));
#2376=PRODUCT_CATEGORY('','');
#2377=PRODUCT_CONTEXT('',#2379,'mechanical');
#2378=APPLICATION_PROTOCOL_DEFINITION('international standard',
'ap242_managed_model_based_3d_engineering',2020,#2379);
#2379=APPLICATION_CONTEXT('managed model based 3d engineering');
ENDSEC;
END-ISO-10303-21;
